<?xml version="1.0" encoding="UTF-8"?>
<svg id="Layer_2" xmlns="http://www.w3.org/2000/svg" viewBox="0 0 320.23 357.41">
  <defs>
    <style>
      .cls-1 {
        fill: #fff;
      }
    </style>
  </defs>
  <g id="logo">
    <g>
      <g>
        <path class="cls-1" d="M281.18,269.45H115.2c-5.09,0-9.18-4.1-9.18-9.18s4.1-9.18,9.18-9.18h165.98c11.44,0,20.69-9.25,20.69-20.69V39.41c0-11.44-9.25-20.69-20.69-20.69h-37.72c-5.51,0-10.81,2.68-13.98,7.13l-37.08,53.96c-.07.14-.14.21-.21.35-5.51,7.35-12.85,14.83-24.93,14.83h-16.1c-10.88,0-20.69-6.07-25.57-15.82l-.21-.42c-1.62-3.25-4.94-5.23-8.9-5.37h-16.17c-4.38-.07-8.55,3.04-9.96,7.42l-26.49,88.22q0,.07-.07.14c-9.11,28.82,3.46,33.76,7.63,35.31,4.73,1.84,7.06,7.2,5.23,11.87-1.84,4.73-7.2,7.06-11.87,5.23-11.72-4.59-19.14-13.42-21.61-25.57-1.84-9.11-.78-19.99,3.18-32.28l26.49-88.22q0-.07.07-.14c3.81-12.15,15.26-20.48,27.69-20.34h16.24c10.81.21,20.41,6.14,25.07,15.47l.21.42c1.77,3.46,5.3,5.65,9.18,5.65h15.89c3.04,0,5.44-1.13,10.17-7.42l37.01-53.82c0-.07.07-.07.07-.14,6.71-9.32,17.52-14.9,28.96-14.9h37.79c21.54,0,39.06,17.52,39.06,39.06v190.98c0,21.61-17.52,39.13-39.06,39.13Z"/>
        <path class="cls-1" d="M53.54,269.8h-14.13c-21.75,0-39.41-17.66-39.41-39.41V39.41C0,17.66,17.66,0,39.41,0h146.2c5.3,0,9.53,4.24,9.53,9.53s-4.24,9.53-9.53,9.53H39.34c-11.23,0-20.34,9.11-20.34,20.34v190.98c0,11.23,9.11,20.34,20.34,20.34h14.13c5.3,0,10.31-2.54,13.49-6.71l.07-.07,64.2-83.06c.14-.21.28-.35.42-.49,5.23-5.86,12.78-9.39,20.62-9.68l9.61-.35c9.68-.35,18.79,4.17,24.44,11.94l22.46,31.08c7.7,10.67,21.68,14.83,34.04,10.24l1.13-.42c14.9-5.58,22.6-22.32,17.16-37.29l-31.29-86.8c-.85-2.47-2.68-4.45-5.01-5.58-4.73-2.33-6.71-7.98-4.45-12.71,2.33-4.73,7.98-6.71,12.71-4.45,6.85,3.32,12.01,9.11,14.62,16.24l31.5,86.8c4.31,12.01,3.74,25-1.55,36.66-5.37,11.58-14.9,20.48-26.84,25l-1.13.42c-20.34,7.7-43.44.71-56.22-16.88l-22.46-31.08c-1.91-2.68-5.01-4.17-8.33-4.1l-9.61.35c-2.61.07-5.09,1.2-6.85,3.11l-63.92,82.71c-6.85,8.9-17.59,14.2-28.75,14.2Z"/>
      </g>
      <path class="cls-1" d="M4.98,357.41h0c-.73,0-1.39-.12-2-.35-.6-.23-1.12-.57-1.58-.99-.45-.43-.8-.93-1.05-1.52-.24-.58-.36-1.22-.36-1.91H0c0-.68.12-1.32.36-1.9.25-.58.6-1.09,1.06-1.52s.99-.76,1.59-.99c.61-.23,1.28-.35,2.01-.35h0c.78,0,1.49.13,2.12.38.63.26,1.16.63,1.59,1.12h0l-1.09,1.07c-.36-.36-.74-.63-1.16-.8-.42-.18-.88-.27-1.39-.27h0c-.48,0-.93.08-1.34.25-.42.16-.78.38-1.08.67-.3.29-.53.64-.69,1.03-.16.39-.25.83-.25,1.3h0c0,.47.08.9.25,1.3s.39.74.69,1.03c.3.3.65.53,1.06.68.41.16.86.25,1.35.25h0c.46,0,.9-.07,1.32-.22.43-.14.84-.39,1.23-.74h0l.98,1.29c-.48.38-1.05.68-1.69.87-.64.2-1.29.3-1.94.3ZM8.61,356.24l-1.63-.23v-3.46h1.63v3.69ZM13.85,357.29h-1.77l4.17-9.27h1.69l4.18,9.27h-1.79l-3.6-8.35h.69l-3.57,8.35ZM19.92,355.14h-5.92l.46-1.35h5l.46,1.35ZM27.45,357.29h-1.64v-9.27h1.42l4.04,6.76h-.74l3.98-6.76h1.42v9.27s-1.61,0-1.61,0l-.02-6.71h.35l-3.39,5.64h-.77l-3.44-5.64h.39v6.71ZM42.55,353.29v-1.42h4.61v1.42h-4.61ZM42.68,349.47v6.37h5.23v1.45h-6.95v-9.27h6.76v1.45h-5.05ZM60.23,357.29h-1.72v-9.27h1.72v9.27ZM66.95,357.29h-1.71v-9.27h1.42l5.8,7.14h-.7v-7.14h1.71v9.27h-1.41l-5.81-7.14h.7v7.14ZM80.05,353.73v-1.45h4.62v1.45h-4.62ZM80.19,349.47v7.82h-1.72v-9.27h6.76v1.45h-5.05ZM91.14,357.29h-1.72v-9.27h3.81c.82,0,1.52.14,2.11.41.58.26,1.03.64,1.35,1.13.32.5.48,1.08.48,1.76h0c0,.68-.16,1.27-.48,1.76-.32.48-.77.86-1.35,1.12-.59.26-1.29.39-2.11.39h-2.86l.77-.79v3.49ZM97.32,357.29h-1.85l-2.35-3.36h1.85l2.35,3.36ZM91.14,348.62v5.37l-.77-.82h2.78c.75,0,1.32-.16,1.71-.49.38-.33.58-.78.58-1.37h0c0-.59-.19-1.05-.58-1.37-.38-.31-.95-.47-1.71-.47h-2.78l.77-.85ZM102.06,357.29h-1.77l4.17-9.27h1.7l4.18,9.27h-1.8l-3.58-8.35h.68l-3.57,8.35ZM108.14,355.14h-5.93l.46-1.35h5l.47,1.35ZM116.9,357.41h0c-.73,0-1.42-.1-2.08-.31s-1.19-.47-1.58-.8h0l.6-1.34c.37.29.83.54,1.38.74.55.19,1.11.29,1.69.29h0c.48,0,.87-.05,1.17-.16s.52-.25.66-.43c.14-.18.21-.39.21-.62h0c0-.28-.1-.51-.31-.68-.2-.17-.46-.31-.78-.41-.33-.1-.69-.2-1.08-.29-.39-.09-.78-.19-1.17-.31-.39-.12-.75-.27-1.08-.46-.32-.19-.58-.45-.78-.77-.21-.31-.31-.72-.31-1.22h0c0-.51.14-.96.41-1.38.27-.42.68-.76,1.23-1.01.55-.25,1.26-.37,2.1-.37h0c.55,0,1.11.07,1.65.21.55.14,1.02.34,1.43.61h0l-.54,1.33c-.41-.25-.84-.43-1.28-.54-.44-.12-.86-.18-1.27-.18h0c-.48,0-.86.06-1.16.17-.3.11-.52.26-.65.45-.14.18-.2.4-.2.64h0c0,.28.1.51.3.68.2.17.46.3.78.39.32.1.68.2,1.08.29s.79.2,1.18.31c.39.11.75.26,1.08.45.32.18.58.44.78.76.2.32.3.72.3,1.21h0c0,.49-.14.95-.41,1.37-.27.42-.68.76-1.24,1.01-.55.25-1.26.37-2.1.37ZM128.47,357.29h-1.73v-7.81h-3.06v-1.46h7.85v1.46h-3.06v7.81ZM137.07,357.29h-1.72v-9.27h3.81c.82,0,1.52.14,2.11.41.58.26,1.03.64,1.35,1.13.31.5.47,1.08.47,1.76h0c0,.68-.16,1.27-.47,1.76-.32.48-.77.86-1.35,1.12-.59.26-1.29.39-2.11.39h-2.86l.77-.79v3.49ZM143.25,357.29h-1.85l-2.35-3.36h1.84l2.36,3.36ZM137.07,348.62v5.37l-.77-.82h2.77c.76,0,1.33-.16,1.72-.49.38-.33.58-.78.58-1.37h0c0-.59-.19-1.05-.58-1.37-.38-.31-.96-.47-1.72-.47h-2.77l.77-.85ZM151.51,357.41h0c-1.27,0-2.27-.36-2.99-1.08-.72-.71-1.08-1.74-1.08-3.09h0v-5.23h1.73v5.16c0,.95.2,1.65.61,2.08.41.43.99.65,1.74.65h0c.75,0,1.33-.22,1.74-.65.41-.43.61-1.13.61-2.08h0v-5.16h1.7v5.23c0,1.35-.36,2.38-1.09,3.09-.72.72-1.71,1.08-2.97,1.08ZM164.77,357.41h0c-.7,0-1.36-.12-1.96-.35-.6-.23-1.13-.57-1.58-.99-.45-.43-.79-.93-1.03-1.52-.25-.58-.37-1.22-.37-1.91h0c0-.68.12-1.32.37-1.9.24-.58.59-1.09,1.05-1.52.45-.43.97-.76,1.57-.99.6-.23,1.26-.35,1.97-.35h0c.76,0,1.45.13,2.08.39.63.26,1.16.64,1.59,1.15h0l-1.12,1.05c-.33-.36-.71-.63-1.12-.81-.41-.18-.86-.28-1.35-.28h0c-.48,0-.92.08-1.32.25-.41.16-.75.38-1.05.67-.3.29-.53.64-.69,1.03-.16.39-.25.83-.25,1.3h0c0,.48.08.91.25,1.31.16.4.39.74.69,1.03.29.29.64.52,1.05.67.4.16.84.25,1.32.25h0c.49,0,.94-.09,1.35-.28.41-.18.79-.45,1.12-.82h0l1.12,1.06c-.43.51-.96.89-1.59,1.15-.63.26-1.32.39-2.09.39ZM176.22,357.29h-1.73v-7.81h-3.06v-1.46h7.85v1.46h-3.06v7.81ZM187.08,357.41h0c-1.27,0-2.27-.36-2.99-1.08-.72-.71-1.08-1.74-1.08-3.09h0v-5.23h1.72v5.16c0,.95.21,1.65.62,2.08.41.43.99.65,1.74.65h0c.75,0,1.32-.22,1.73-.65.41-.43.61-1.13.61-2.08h0v-5.16h1.7v5.23c0,1.35-.36,2.38-1.08,3.09-.72.72-1.71,1.08-2.97,1.08ZM197.77,357.29h-1.72v-9.27h3.81c.82,0,1.52.14,2.11.41.58.26,1.03.64,1.35,1.13.31.5.47,1.08.47,1.76h0c0,.68-.16,1.27-.47,1.76-.32.48-.77.86-1.35,1.12-.59.26-1.29.39-2.11.39h-2.86l.77-.79v3.49ZM203.96,357.29h-1.85l-2.35-3.36h1.84l2.36,3.36ZM197.77,348.62v5.37l-.77-.82h2.77c.76,0,1.33-.16,1.72-.49.38-.33.58-.78.58-1.37h0c0-.59-.19-1.05-.58-1.37-.38-.31-.96-.47-1.72-.47h-2.77l.77-.85ZM209.83,353.29v-1.42h4.6v1.42h-4.6ZM209.96,349.47v6.37h5.23v1.45h-6.95v-9.27h6.76v1.45h-5.05ZM227.51,357.29h-1.73v-9.27h3.81c.83,0,1.53.14,2.11.41.59.26,1.04.64,1.35,1.13.32.5.48,1.08.48,1.76h0c0,.68-.16,1.27-.48,1.76-.31.5-.76.88-1.35,1.14-.58.26-1.29.39-2.11.39h-2.85l.77-.81v3.49ZM227.51,348.62v5.37l-.77-.83h2.77c.76,0,1.33-.16,1.72-.49.38-.32.58-.77.58-1.35h0c0-.59-.19-1.05-.58-1.37-.38-.31-.96-.47-1.72-.47h-2.77l.77-.85ZM239.63,357.29h-1.73v-9.27h3.81c.83,0,1.53.14,2.11.41.59.26,1.04.64,1.35,1.13.32.5.48,1.08.48,1.76h0c0,.68-.16,1.27-.48,1.76-.31.48-.76.86-1.35,1.12-.58.26-1.29.39-2.11.39h-2.85l.77-.79v3.49ZM245.82,357.29h-1.86l-2.34-3.36h1.84l2.36,3.36ZM239.63,348.62v5.37l-.77-.82h2.77c.76,0,1.33-.16,1.72-.49.38-.33.58-.78.58-1.37h0c0-.59-.19-1.05-.58-1.37-.38-.31-.96-.47-1.72-.47h-2.77l.77-.85ZM254.43,357.41h0c-.72,0-1.38-.12-2-.36-.61-.23-1.14-.57-1.59-.99-.45-.43-.8-.93-1.05-1.52-.24-.58-.36-1.21-.36-1.9h0c0-.68.12-1.32.36-1.9.25-.58.6-1.08,1.05-1.5.45-.43.98-.76,1.59-1,.61-.23,1.27-.35,1.98-.35h0c.73,0,1.39.12,2,.35.6.24,1.13.58,1.58,1,.45.43.8.93,1.05,1.5.25.58.37,1.22.37,1.9h0c0,.69-.12,1.33-.37,1.91s-.6,1.08-1.05,1.5c-.45.43-.97.76-1.58.99-.6.24-1.27.36-1.98.36ZM254.42,355.91h0c.47,0,.9-.08,1.3-.25.39-.16.73-.38,1.02-.68.29-.29.52-.63.68-1.02.16-.4.25-.84.25-1.31h0c0-.48-.08-.91-.25-1.3-.16-.39-.39-.73-.68-1.02-.29-.3-.63-.53-1.02-.68-.4-.16-.83-.25-1.3-.25h0c-.47,0-.9.08-1.29.25-.39.16-.74.38-1.03.68-.29.29-.52.63-.68,1.02s-.25.83-.25,1.3h0c0,.47.08.9.25,1.3s.39.74.68,1.03c.29.3.64.53,1.03.68.39.16.82.25,1.29.25ZM267.35,357.29h-1.72v-7.81h-3.07v-1.46h7.85v1.46h-3.06v7.81ZM278.56,357.41h0c-.72,0-1.38-.12-2-.36-.6-.23-1.13-.57-1.59-.99-.45-.43-.8-.93-1.05-1.52-.24-.58-.36-1.21-.36-1.9h0c0-.68.12-1.32.36-1.9.25-.58.6-1.08,1.05-1.5.46-.43.99-.76,1.59-1,.61-.23,1.27-.35,1.98-.35h0c.73,0,1.39.12,2,.35.6.24,1.13.58,1.58,1,.45.43.8.93,1.05,1.5.25.58.37,1.22.37,1.9h0c0,.69-.12,1.33-.37,1.91s-.6,1.08-1.05,1.5c-.45.43-.97.76-1.58.99-.6.24-1.27.36-1.98.36ZM278.55,355.91h0c.47,0,.9-.08,1.3-.25.4-.16.74-.38,1.02-.68.29-.29.52-.63.68-1.02.16-.4.25-.84.25-1.31h0c0-.48-.08-.91-.25-1.3-.16-.39-.39-.73-.68-1.02-.28-.3-.63-.53-1.02-.68-.4-.16-.83-.25-1.3-.25h0c-.47,0-.9.08-1.29.25-.39.16-.73.38-1.02.68-.3.29-.53.63-.69,1.02s-.25.83-.25,1.3h0c0,.47.08.9.25,1.3s.39.74.68,1.03c.29.3.64.53,1.03.68.39.16.82.25,1.29.25ZM292.16,357.41h0c-.7,0-1.36-.12-1.96-.35-.6-.23-1.13-.57-1.57-.99-.45-.43-.8-.93-1.05-1.52-.24-.58-.36-1.22-.36-1.91h0c0-.68.12-1.32.36-1.9.25-.58.6-1.09,1.05-1.52.45-.43.97-.76,1.58-.99.6-.23,1.26-.35,1.97-.35h0c.75,0,1.44.13,2.07.39.63.26,1.16.64,1.59,1.15h0l-1.11,1.05c-.33-.36-.71-.63-1.12-.81-.42-.18-.87-.28-1.35-.28h0c-.48,0-.93.08-1.33.25-.4.16-.75.38-1.05.67-.29.29-.52.64-.68,1.03-.16.39-.25.83-.25,1.3h0c0,.48.08.91.25,1.31.16.4.39.74.68,1.03.3.29.65.52,1.05.67.41.16.85.25,1.33.25h0c.48,0,.94-.09,1.35-.28.41-.18.79-.45,1.12-.82h0l1.11,1.06c-.43.51-.96.89-1.59,1.15s-1.32.39-2.09.39ZM304.36,357.41h0c-.73,0-1.39-.12-2.01-.36-.6-.23-1.13-.57-1.59-.99-.45-.43-.8-.93-1.05-1.52-.24-.58-.36-1.21-.36-1.9h0c0-.68.12-1.32.36-1.9.25-.58.6-1.08,1.05-1.5.46-.43.99-.76,1.59-1,.61-.23,1.27-.35,1.98-.35h0c.73,0,1.39.12,2,.35.6.24,1.13.58,1.58,1,.45.43.8.93,1.05,1.5.25.58.37,1.22.37,1.9h0c0,.69-.12,1.33-.37,1.91s-.6,1.08-1.05,1.5c-.45.43-.97.76-1.58.99-.6.24-1.26.36-1.97.36ZM304.34,355.91h0c.47,0,.9-.08,1.3-.25.4-.16.74-.38,1.03-.68.29-.29.52-.63.67-1.02.16-.4.25-.84.25-1.31h0c0-.48-.08-.91-.25-1.3-.16-.39-.38-.73-.67-1.02-.29-.3-.64-.53-1.03-.68-.4-.16-.83-.25-1.3-.25h0c-.46,0-.89.08-1.29.25-.39.16-.73.38-1.02.68-.3.29-.53.63-.69,1.02-.16.39-.25.83-.25,1.3h0c0,.47.08.9.25,1.3.16.4.39.74.68,1.03.29.3.64.53,1.03.68.4.16.83.25,1.29.25ZM320.23,357.29h-6.56v-9.27h1.72v7.81h4.84v1.46Z"/>
      <path class="cls-1" d="M28.95,338.41H6.39c-1.18,0-2.25-.29-3.22-.86-.97-.57-1.74-1.34-2.3-2.3-.58-.97-.86-2.04-.86-3.22H0v-22.61c0-1.18.29-2.25.86-3.21.57-.97,1.34-1.74,2.3-2.32.97-.58,2.04-.86,3.22-.86h22.55c1.18,0,2.26.29,3.24.86.98.58,1.76,1.35,2.34,2.32.57.96.85,2.03.85,3.21h0v2.11h-5.36v-1.96c0-.33-.11-.62-.34-.86-.23-.24-.52-.36-.89-.36H6.54c-.33,0-.62.12-.86.36-.25.25-.37.54-.37.86h0v22.31c0,.33.12.62.37.86.25.24.54.36.86.36h22.26c.36,0,.66-.12.89-.36.23-.25.34-.54.34-.86h0v-7.51h-8.35v-5.37h13.71v13.03c0,1.18-.28,2.25-.85,3.22-.58.97-1.35,1.74-2.34,2.3-.98.58-2.06.86-3.24.86h0ZM74.01,338.41h-22.61c-1.18,0-2.25-.3-3.22-.89-.96-.59-1.73-1.36-2.3-2.3-.58-.95-.86-2.02-.86-3.2h0v-10.52h23.64v-5.06c0-.33-.11-.62-.34-.86-.23-.24-.52-.36-.84-.36h-22.46v-5.31h22.61c1.18,0,2.25.29,3.22.86.97.58,1.74,1.35,2.3,2.34.58.98.86,2.04.86,3.19h0v22.12ZM51.55,333.1h17.1v-6.63h-18.33v5.4c0,.33.12.62.36.86.25.24.54.36.86.36ZM87.87,338.41h-5.36v-28.51h36.41c1.22,0,2.3.3,3.24.89.95.59,1.71,1.36,2.28,2.32.58.95.86,2.01.86,3.19h0v22.12h-5.26v-21.97c0-.33-.12-.62-.36-.86-.25-.24-.54-.36-.86-.36h-10.96c-.36,0-.66.12-.89.36-.23.25-.34.54-.34.86h0v21.97h-5.36v-21.97c0-.33-.12-.62-.37-.86-.25-.24-.54-.36-.86-.36h-11c-.33,0-.61.12-.84.36-.23.25-.34.54-.34.86h0v21.97ZM140.5,338.41h0c-1.17,0-2.24-.3-3.19-.89-.95-.59-1.72-1.36-2.32-2.3-.58-.95-.87-2.02-.87-3.2h0v-15.73c0-1.18.29-2.24.87-3.19.59-.95,1.36-1.72,2.32-2.32s2.02-.89,3.19-.89h16.22c1.18,0,2.25.29,3.22.86.97.58,1.74,1.35,2.32,2.34.57.98.85,2.04.85,3.19h0v10.52h-23.69v5.06c0,.33.12.62.37.86.24.24.53.36.85.36h22.46v5.31h-22.61ZM139.42,316.44v5.41h18.33v-5.41c0-.33-.11-.62-.34-.86-.23-.24-.5-.36-.83-.36h-15.93c-.33,0-.61.12-.85.36-.25.25-.37.54-.37.86h0ZM172.95,338.41h0v-35.39h27.52c1.15,0,2.21.29,3.2.86.98.58,1.76,1.35,2.33,2.32.58.96.86,2.03.86,3.21h0v7.22c0,.43-.04.85-.13,1.28-.08.43-.22.82-.42,1.18h0c.65.92,1.16,1.78,1.5,2.58.34.8.51,1.61.51,2.43h0v7.91c0,1.18-.29,2.25-.86,3.22-.57.97-1.34,1.74-2.33,2.3-.98.58-2.06.86-3.24.86h-28.95ZM179.48,333.1h22.27c.36,0,.66-.12.89-.36.23-.25.34-.54.34-.86h0v-7.62c0-.33-.11-.61-.34-.85-.23-.25-.52-.37-.89-.37h-22.27c-.33,0-.61.12-.85.37-.25.24-.37.53-.37.85h0v7.62c0,.33.12.62.37.86.24.24.53.36.85.36ZM179.48,317.72h20.84c.33,0,.61-.12.84-.37.23-.24.34-.53.34-.85h0v-6.93c0-.33-.11-.62-.34-.86-.23-.24-.52-.36-.84-.36h-20.84c-.33,0-.61.12-.85.36-.25.25-.37.54-.37.86h0v6.93c0,.33.12.61.37.85.24.25.53.37.85.37ZM224.35,338.41h0c-1.18,0-2.25-.3-3.22-.89-.97-.59-1.74-1.36-2.3-2.3-.58-.95-.86-2.02-.86-3.2h0v-22.12h5.3v21.97c0,.33.12.62.37.86.25.24.54.36.86.36h15.92c.33,0,.62-.12.86-.36.24-.25.36-.54.36-.86h0v-21.97h5.31v22.12c0,1.18-.29,2.25-.86,3.2-.58.95-1.34,1.71-2.3,2.3-.97.59-2.04.89-3.22.89h-16.22ZM261.8,338.41h-5.31v-28.51h5.31v28.51ZM261.8,305.88h-5.31v-5.31h5.31v5.31ZM278.45,338.41h0c-1.18,0-2.24-.3-3.19-.89-.95-.59-1.72-1.36-2.32-2.3-.59-.95-.89-2.02-.89-3.2h0v-31.45h5.31v31.3c0,.33.12.62.37.86.24.24.53.36.85.36h5.16v5.31h-5.31ZM297.62,338.41h0c-1.18,0-2.25-.29-3.22-.86-.97-.57-1.74-1.34-2.3-2.33-.58-.99-.86-2.06-.86-3.2h0v-15.73c0-1.18.29-2.24.86-3.19.57-.95,1.34-1.72,2.3-2.32s2.04-.89,3.22-.89h17.29v-9.34h5.31v37.84h-22.61ZM297.82,333.1h15.93c.33,0,.6-.12.83-.36.23-.25.34-.54.34-.86h0v-15.43c0-.33-.11-.62-.34-.86-.23-.24-.5-.36-.83-.36h-15.93c-.33,0-.61.12-.85.36-.25.25-.37.54-.37.86h0v15.43c0,.33.12.62.37.86.24.24.53.36.85.36Z"/>
    </g>
  </g>
</svg>