<?xml version="1.0" encoding="UTF-8"?>
<svg id="Layer_2" xmlns="http://www.w3.org/2000/svg" viewBox="0 0 344.33 290.11">
  <defs>
    <style>
      .cls-1 {
        fill: #fff;
      }
    </style>
  </defs>
  <g id="logo">
    <g>
      <path class="cls-1" d="M302.33,289.73H123.87c-5.47,0-9.87-4.4-9.87-9.87s4.4-9.87,9.87-9.87h178.47c12.3,0,22.25-9.95,22.25-22.25V42.38c0-12.3-9.95-22.25-22.25-22.25h-40.55c-5.92,0-11.62,2.89-15.04,7.67l-39.87,58.02c-.08.15-.15.23-.23.38-5.92,7.9-13.82,15.95-26.81,15.95h-17.32c-11.7,0-22.25-6.53-27.49-17.01l-.23-.46c-1.75-3.49-5.32-5.62-9.57-5.77h-17.39c-4.71-.08-9.19,3.27-10.71,7.97l-28.48,94.85q0,.08-.08.15c-9.8,30.99,3.72,36.3,8.2,37.97,5.09,1.97,7.59,7.75,5.62,12.76-1.97,5.09-7.75,7.59-12.76,5.62-12.61-4.94-20.58-14.43-23.24-27.49-1.97-9.8-.84-21.49,3.42-34.71l28.48-94.85q0-.08.08-.15c4.1-13.06,16.4-22.02,29.77-21.87h17.47c11.62.23,21.95,6.61,26.96,16.63l.23.46c1.9,3.72,5.7,6.08,9.87,6.08h17.09c3.27,0,5.85-1.22,10.94-7.97l39.79-57.87c0-.08.08-.08.08-.15C237.78,6.3,249.4.3,261.7.3h40.63c23.16,0,42,18.83,42,42v205.35c0,23.24-18.83,42.07-42,42.07Z"/>
      <path class="cls-1" d="M57.57,290.11h-15.19c-23.39,0-42.38-18.99-42.38-42.38V42.38C0,18.99,18.99,0,42.38,0h157.2c5.7,0,10.25,4.56,10.25,10.25s-4.56,10.25-10.25,10.25H42.3c-12.08,0-21.87,9.8-21.87,21.87v205.35c0,12.08,9.8,21.87,21.87,21.87h15.19c5.7,0,11.09-2.73,14.51-7.21l.08-.08,69.03-89.31c.15-.23.3-.38.46-.53,5.62-6.3,13.75-10.1,22.18-10.4l10.33-.38c10.4-.38,20.2,4.48,26.28,12.83l24.15,33.42c8.28,11.47,23.31,15.95,36.61,11.01l1.22-.46c16.02-6,24.3-24,18.45-40.1l-33.64-93.34c-.91-2.66-2.89-4.78-5.39-6-5.09-2.51-7.21-8.58-4.78-13.67,2.51-5.09,8.58-7.21,13.67-4.78,7.37,3.57,12.91,9.8,15.72,17.47l33.87,93.34c4.63,12.91,4.03,26.88-1.67,39.42-5.77,12.45-16.02,22.02-28.86,26.88l-1.22.46c-21.87,8.28-46.71.76-60.45-18.15l-24.15-33.42c-2.05-2.89-5.39-4.48-8.96-4.4l-10.33.38c-2.81.08-5.47,1.29-7.37,3.34l-68.73,88.93c-7.37,9.57-18.91,15.26-30.91,15.26Z"/>
    </g>
  </g>
</svg>