<?xml version="1.0" encoding="UTF-8"?>
<svg id="_레이어_1" data-name="레이어 1" xmlns="http://www.w3.org/2000/svg" xmlns:xlink="http://www.w3.org/1999/xlink" viewBox="0 0 500 550">
  <defs>
    <style>
      .cls-1 {
        clip-path: url(#clippath-1);
      }

      .cls-2 {
        fill: #fff;
      }

      .cls-3 {
        clip-path: url(#clippath);
      }
    </style>
    <clipPath id="clippath">
      <path class="cls-2" d="M17.35,545h0c-1.09,0-2.09-.18-2.99-.53-.9-.35-1.69-.85-2.37-1.49-.67-.64-1.19-1.4-1.57-2.27-.36-.87-.54-1.83-.54-2.86h0c0-1.02.18-1.97.54-2.85.37-.87.9-1.63,1.58-2.27.68-.64,1.48-1.14,2.38-1.49.92-.35,1.92-.53,3.01-.53h0c1.17,0,2.23.19,3.18.58.94.38,1.73.94,2.38,1.68h0l-1.63,1.6c-.53-.54-1.11-.94-1.74-1.2-.63-.27-1.32-.4-2.08-.4h0c-.73,0-1.4.12-2.02.37-.63.23-1.17.57-1.62,1.01-.45.44-.79.95-1.04,1.55-.25.59-.37,1.24-.37,1.95h0c0,.7.12,1.35.37,1.95s.59,1.11,1.04,1.55c.45.45.98.79,1.58,1.02.61.25,1.29.37,2.03.37h0c.68,0,1.34-.11,1.98-.34.65-.21,1.26-.58,1.84-1.1h0l1.47,1.94c-.73.58-1.57,1.01-2.53,1.31-.96.3-1.93.45-2.91.45ZM22.79,543.24l-2.45-.35v-5.18h2.45v5.54ZM30.65,544.81h-2.66l6.26-13.9h2.53l6.27,13.9h-2.69l-5.39-12.53h1.04l-5.36,12.53ZM39.75,541.59h-8.88l.69-2.03h7.5l.69,2.03ZM51.05,544.81h-2.46v-13.9h2.13l6.06,10.14h-1.1l5.97-10.14h2.13l.02,13.9h-2.43l-.03-10.06h.53l-5.09,8.46h-1.15l-5.15-8.46h.59v10.06ZM73.69,538.81v-2.13h6.91v2.13h-6.91ZM73.88,533.08v9.55h7.84v2.18h-10.42v-13.9h10.14v2.18h-7.57ZM100.2,544.81h-2.58v-13.9h2.58v13.9ZM110.28,544.81h-2.56v-13.9h2.13l8.7,10.7h-1.06v-10.7h2.56v13.9h-2.11l-8.72-10.7h1.06v10.7ZM129.93,539.48v-2.18h6.93v2.18h-6.93ZM130.14,533.08v11.73h-2.58v-13.9h10.14v2.18h-7.57ZM146.55,544.81h-2.58v-13.9h5.71c1.23,0,2.28.2,3.17.61.87.39,1.55.96,2.03,1.7.48.75.72,1.63.72,2.64h0c0,1.02-.24,1.9-.72,2.64-.48.73-1.16,1.29-2.03,1.68-.89.39-1.94.59-3.17.59h-4.29l1.15-1.18v5.23ZM155.83,544.81h-2.77l-3.52-5.04h2.77l3.52,5.04ZM146.55,531.82v8.05l-1.15-1.23h4.18c1.13,0,1.98-.25,2.56-.74.58-.49.86-1.17.86-2.05h0c0-.89-.29-1.57-.86-2.05-.58-.47-1.43-.7-2.56-.7h-4.18l1.15-1.28ZM162.94,544.81h-2.66l6.26-13.9h2.54l6.27,13.9h-2.7l-5.38-12.53h1.02l-5.36,12.53ZM172.06,541.59h-8.9l.69-2.03h7.5l.7,2.03ZM185.19,545h0c-1.09,0-2.13-.15-3.12-.46-.99-.31-1.78-.71-2.37-1.2h0l.9-2.02c.55.44,1.24.81,2.06,1.1.82.29,1.66.43,2.53.43h0c.73,0,1.31-.08,1.76-.24s.78-.37.99-.64c.21-.28.32-.59.32-.93h0c0-.43-.15-.77-.46-1.02-.3-.26-.69-.46-1.17-.61-.49-.15-1.03-.29-1.62-.43-.59-.13-1.17-.28-1.76-.46-.59-.18-1.13-.41-1.62-.69-.48-.29-.87-.67-1.17-1.15-.31-.47-.46-1.08-.46-1.82h0c0-.76.2-1.45.61-2.06.41-.63,1.02-1.14,1.84-1.52.83-.37,1.88-.56,3.15-.56h0c.83,0,1.66.11,2.48.32.82.21,1.54.52,2.14.91h0l-.82,2c-.62-.37-1.26-.65-1.92-.82-.66-.18-1.3-.27-1.9-.27h0c-.71,0-1.3.09-1.74.26-.45.17-.77.39-.98.67-.2.28-.3.6-.3.96h0c0,.42.15.76.45,1.02.3.26.69.45,1.17.59.48.15,1.02.29,1.62.43.6.14,1.19.29,1.78.46.59.17,1.13.39,1.62.67.48.28.87.66,1.17,1.14.3.48.45,1.08.45,1.81h0c0,.74-.2,1.42-.61,2.05-.41.63-1.02,1.14-1.86,1.52-.83.37-1.88.56-3.15.56ZM202.54,544.81h-2.59v-11.71h-4.59v-2.19h11.78v2.19h-4.59v11.71ZM215.43,544.81h-2.58v-13.9h5.71c1.23,0,2.28.2,3.17.61.87.39,1.55.96,2.03,1.7.47.75.7,1.63.7,2.64h0c0,1.02-.23,1.9-.7,2.64-.48.73-1.16,1.29-2.03,1.68-.89.39-1.94.59-3.17.59h-4.29l1.15-1.18v5.23ZM224.71,544.81h-2.77l-3.52-5.04h2.75l3.54,5.04ZM215.43,531.82v8.05l-1.15-1.23h4.16c1.14,0,2-.25,2.58-.74.58-.49.86-1.17.86-2.05h0c0-.89-.29-1.57-.86-2.05-.58-.47-1.43-.7-2.58-.7h-4.16l1.15-1.28ZM237.1,545h0c-1.91,0-3.4-.54-4.48-1.62-1.08-1.07-1.62-2.61-1.62-4.64h0v-7.84h2.59v7.74c0,1.43.3,2.47.91,3.12.62.65,1.49.98,2.61.98h0c1.13,0,2-.33,2.61-.98.61-.65.91-1.69.91-3.12h0v-7.74h2.54v7.84c0,2.03-.54,3.57-1.63,4.64-1.08,1.08-2.56,1.62-4.45,1.62ZM256.98,545h0c-1.06,0-2.04-.18-2.94-.53-.91-.35-1.7-.85-2.37-1.49-.67-.64-1.19-1.4-1.55-2.27-.37-.87-.56-1.83-.56-2.86h0c0-1.02.19-1.97.56-2.85.36-.87.89-1.63,1.57-2.27.67-.64,1.46-1.14,2.35-1.49.91-.35,1.89-.53,2.96-.53h0c1.14,0,2.18.2,3.12.59.94.38,1.73.96,2.38,1.73h0l-1.68,1.57c-.5-.54-1.06-.95-1.68-1.22-.62-.28-1.3-.42-2.03-.42h0c-.73,0-1.39.12-1.98.37-.61.23-1.13.57-1.57,1.01-.45.44-.79.95-1.04,1.55-.25.59-.37,1.24-.37,1.95h0c0,.71.12,1.37.37,1.97.25.6.59,1.11,1.04,1.55.44.44.96.77,1.57,1.01.6.25,1.26.37,1.98.37h0c.74,0,1.41-.14,2.03-.42.62-.27,1.18-.68,1.68-1.23h0l1.68,1.58c-.65.76-1.45,1.33-2.38,1.73-.94.39-1.98.59-3.14.59ZM274.15,544.81h-2.59v-11.71h-4.59v-2.19h11.78v2.19h-4.59v11.71ZM290.44,545h0c-1.91,0-3.4-.54-4.48-1.62-1.08-1.07-1.62-2.61-1.62-4.64h0v-7.84h2.58v7.74c0,1.43.31,2.47.93,3.12.62.65,1.49.98,2.61.98h0c1.12,0,1.98-.33,2.59-.98.61-.65.91-1.69.91-3.12h0v-7.74h2.54v7.84c0,2.03-.54,3.57-1.62,4.64-1.08,1.08-2.56,1.62-4.45,1.62ZM306.47,544.81h-2.58v-13.9h5.71c1.23,0,2.28.2,3.17.61.87.39,1.55.96,2.03,1.7.47.75.7,1.63.7,2.64h0c0,1.02-.23,1.9-.7,2.64-.48.73-1.16,1.29-2.03,1.68-.89.39-1.94.59-3.17.59h-4.29l1.15-1.18v5.23ZM315.75,544.81h-2.77l-3.52-5.04h2.75l3.54,5.04ZM306.47,531.82v8.05l-1.15-1.23h4.16c1.14,0,2-.25,2.58-.74.58-.49.86-1.17.86-2.05h0c0-.89-.29-1.57-.86-2.05-.58-.47-1.43-.7-2.58-.7h-4.16l1.15-1.28ZM324.55,538.81v-2.13h6.9v2.13h-6.9ZM324.74,533.08v9.55h7.84v2.18h-10.42v-13.9h10.14v2.18h-7.57ZM351.06,544.81h-2.59v-13.9h5.71c1.24,0,2.29.2,3.17.61.89.39,1.56.96,2.03,1.7.48.75.72,1.63.72,2.64h0c0,1.02-.24,1.9-.72,2.64-.47.75-1.15,1.32-2.03,1.71-.87.39-1.93.59-3.17.59h-4.27l1.15-1.22v5.23ZM351.06,531.82v8.05l-1.15-1.25h4.16c1.14,0,2-.25,2.58-.74.58-.48.86-1.16.86-2.03h0c0-.89-.29-1.57-.86-2.05-.58-.47-1.43-.7-2.58-.7h-4.16l1.15-1.28ZM369.24,544.81h-2.59v-13.9h5.71c1.24,0,2.29.2,3.17.61.89.39,1.56.96,2.03,1.7.48.75.72,1.63.72,2.64h0c0,1.02-.24,1.9-.72,2.64-.47.73-1.15,1.29-2.03,1.68-.87.39-1.93.59-3.17.59h-4.27l1.15-1.18v5.23ZM378.52,544.81h-2.78l-3.5-5.04h2.75l3.54,5.04ZM369.24,531.82v8.05l-1.15-1.23h4.16c1.14,0,2-.25,2.58-.74.58-.49.86-1.17.86-2.05h0c0-.89-.29-1.57-.86-2.05-.58-.47-1.43-.7-2.58-.7h-4.16l1.15-1.28ZM391.43,545h0c-1.08,0-2.07-.18-2.99-.54-.92-.35-1.71-.85-2.38-1.49-.67-.64-1.19-1.4-1.57-2.27-.36-.86-.54-1.81-.54-2.85h0c0-1.02.18-1.97.54-2.85.37-.86.9-1.62,1.57-2.26.67-.64,1.47-1.14,2.38-1.5.92-.35,1.91-.53,2.98-.53h0c1.09,0,2.09.18,2.99.53.91.36,1.7.86,2.37,1.5.67.64,1.19,1.39,1.57,2.26.37.87.56,1.82.56,2.85h0c0,1.03-.19,1.99-.56,2.86-.37.87-.9,1.63-1.57,2.26-.67.64-1.46,1.14-2.37,1.49-.91.36-1.9.54-2.98.54ZM391.41,542.74h0c.7,0,1.35-.12,1.95-.37.59-.23,1.1-.58,1.54-1.02.44-.44.78-.95,1.02-1.54.25-.6.37-1.25.37-1.97h0c0-.71-.12-1.37-.37-1.95-.25-.59-.59-1.1-1.02-1.54-.44-.45-.95-.79-1.54-1.02-.6-.25-1.25-.37-1.95-.37h0c-.7,0-1.35.12-1.94.37-.59.23-1.1.58-1.55,1.02-.44.44-.78.95-1.02,1.54s-.37,1.24-.37,1.95h0c0,.7.12,1.35.37,1.95s.59,1.11,1.02,1.55c.44.45.95.79,1.55,1.02.59.25,1.23.37,1.94.37ZM410.81,544.81h-2.58v-11.71h-4.61v-2.19h11.78v2.19h-4.59v11.71ZM427.62,545h0c-1.08,0-2.07-.18-2.99-.54-.91-.35-1.7-.85-2.38-1.49-.67-.64-1.19-1.4-1.57-2.27-.36-.86-.54-1.81-.54-2.85h0c0-1.02.18-1.97.54-2.85.37-.86.9-1.62,1.57-2.26.68-.64,1.48-1.14,2.38-1.5.92-.35,1.91-.53,2.98-.53h0c1.09,0,2.09.18,2.99.53.91.36,1.7.86,2.37,1.5.67.64,1.19,1.39,1.57,2.26.37.87.56,1.82.56,2.85h0c0,1.03-.19,1.99-.56,2.86-.37.87-.9,1.63-1.57,2.26-.67.64-1.46,1.14-2.37,1.49-.91.36-1.9.54-2.98.54ZM427.61,542.74h0c.7,0,1.35-.12,1.95-.37.6-.23,1.11-.58,1.54-1.02.44-.44.78-.95,1.02-1.54.25-.6.37-1.25.37-1.97h0c0-.71-.12-1.37-.37-1.95-.25-.59-.59-1.1-1.02-1.54-.43-.45-.94-.79-1.54-1.02-.6-.25-1.25-.37-1.95-.37h0c-.7,0-1.35.12-1.94.37-.59.23-1.1.58-1.54,1.02-.45.44-.79.95-1.04,1.54s-.37,1.24-.37,1.95h0c0,.7.12,1.35.37,1.95s.59,1.11,1.02,1.55c.44.45.95.79,1.55,1.02.59.25,1.23.37,1.94.37ZM448.02,545h0c-1.06,0-2.04-.18-2.94-.53-.91-.35-1.69-.85-2.35-1.49-.67-.64-1.19-1.4-1.57-2.27-.36-.87-.54-1.83-.54-2.86h0c0-1.02.18-1.97.54-2.85.37-.87.9-1.63,1.57-2.27.67-.64,1.46-1.14,2.37-1.49.9-.35,1.88-.53,2.96-.53h0c1.13,0,2.17.2,3.1.59.94.38,1.73.96,2.38,1.73h0l-1.66,1.57c-.5-.54-1.06-.95-1.68-1.22-.63-.28-1.31-.42-2.03-.42h0c-.73,0-1.39.12-2,.37-.6.23-1.12.57-1.57,1.01-.44.44-.78.95-1.02,1.55-.25.59-.37,1.24-.37,1.95h0c0,.71.12,1.37.37,1.97.25.6.59,1.11,1.02,1.55.45.44.97.77,1.57,1.01.61.25,1.27.37,2,.37h0c.73,0,1.4-.14,2.03-.42.62-.27,1.18-.68,1.68-1.23h0l1.66,1.58c-.65.76-1.45,1.33-2.38,1.73-.94.39-1.98.59-3.14.59ZM466.31,545h0c-1.09,0-2.09-.18-3.01-.54-.91-.35-1.7-.85-2.38-1.49-.67-.64-1.19-1.4-1.57-2.27-.36-.86-.54-1.81-.54-2.85h0c0-1.02.18-1.97.54-2.85.37-.86.9-1.62,1.57-2.26.68-.64,1.48-1.14,2.38-1.5.92-.35,1.91-.53,2.98-.53h0c1.09,0,2.09.18,2.99.53.91.36,1.7.86,2.37,1.5.67.64,1.19,1.39,1.57,2.26.37.87.56,1.82.56,2.85h0c0,1.03-.19,1.99-.56,2.86-.37.87-.9,1.63-1.57,2.26-.67.64-1.46,1.14-2.37,1.49-.91.36-1.89.54-2.96.54ZM466.28,542.74h0c.7,0,1.35-.12,1.95-.37.6-.23,1.11-.58,1.55-1.02.44-.44.77-.95,1.01-1.54.25-.6.37-1.25.37-1.97h0c0-.71-.12-1.37-.37-1.95-.23-.59-.57-1.1-1.01-1.54-.44-.45-.95-.79-1.55-1.02-.6-.25-1.25-.37-1.95-.37h0c-.69,0-1.34.12-1.94.37-.59.23-1.1.58-1.54,1.02-.45.44-.79.95-1.04,1.54-.25.59-.37,1.24-.37,1.95h0c0,.7.12,1.35.37,1.95.25.6.59,1.11,1.02,1.55.44.45.95.79,1.55,1.02.6.25,1.24.37,1.94.37ZM490.12,544.81h-9.84v-13.9h2.58v11.71h7.26v2.19Z"/>
    </clipPath>
    <clipPath id="clippath-1">
      <path class="cls-2" d="M53.29,516.5H19.47c-1.77,0-3.38-.43-4.83-1.3-1.45-.85-2.6-2.01-3.46-3.46-.86-1.45-1.3-3.06-1.3-4.83h0v-33.9c0-1.77.43-3.38,1.3-4.82.85-1.45,2.01-2.61,3.46-3.47,1.45-.86,3.06-1.3,4.83-1.3h33.82c1.77,0,3.39.43,4.86,1.3,1.47.86,2.64,2.02,3.5,3.47.85,1.44,1.28,3.05,1.28,4.82h0v3.17h-8.03v-2.94c0-.49-.17-.92-.51-1.3-.34-.36-.78-.54-1.33-.54H19.69c-.49,0-.92.18-1.3.54-.37.37-.56.81-.56,1.3h0v33.46c0,.49.19.92.56,1.3.37.36.81.54,1.3.54h33.38c.54,0,.99-.18,1.33-.54.34-.37.51-.81.51-1.3h0v-11.26h-12.53v-8.05h20.56v19.54c0,1.77-.43,3.38-1.28,4.83-.86,1.45-2.03,2.6-3.5,3.46-1.47.86-3.09,1.3-4.86,1.3h0ZM120.87,516.5h-33.9c-1.77,0-3.38-.44-4.83-1.33-1.44-.89-2.59-2.04-3.46-3.46-.86-1.43-1.3-3.03-1.3-4.8h0v-15.78h35.46v-7.58c0-.49-.17-.92-.51-1.3-.35-.36-.77-.54-1.26-.54h-33.68v-7.97h33.9c1.77,0,3.38.43,4.83,1.3,1.45.86,2.6,2.03,3.46,3.5.86,1.47,1.3,3.07,1.3,4.78h0v33.17ZM87.19,508.53h25.65v-9.94h-27.49v8.1c0,.49.18.92.54,1.3.37.36.81.54,1.3.54ZM141.66,516.5h-8.03v-42.75h54.61c1.82,0,3.45.44,4.86,1.33,1.43.89,2.57,2.04,3.42,3.47.86,1.42,1.3,3.01,1.3,4.78h0v33.17h-7.89v-32.94c0-.49-.18-.92-.54-1.3-.37-.36-.81-.54-1.3-.54h-16.43c-.54,0-.99.18-1.33.54-.34.37-.51.81-.51,1.3h0v32.94h-8.03v-32.94c0-.49-.19-.92-.56-1.3-.37-.36-.81-.54-1.3-.54h-16.5c-.49,0-.91.18-1.26.54-.34.37-.51.81-.51,1.3h0v32.94ZM220.58,516.5h0c-1.76,0-3.35-.44-4.78-1.33-1.43-.89-2.59-2.04-3.47-3.46-.87-1.43-1.31-3.03-1.31-4.8h0v-23.58c0-1.77.44-3.37,1.31-4.78.89-1.43,2.04-2.59,3.47-3.47,1.43-.89,3.02-1.33,4.78-1.33h24.32c1.77,0,3.38.43,4.83,1.3,1.45.86,2.61,2.03,3.47,3.5.85,1.47,1.28,3.07,1.28,4.78h0v15.78h-35.52v7.58c0,.49.19.92.56,1.3.36.36.79.54,1.28.54h33.68v7.97h-33.9ZM218.97,483.56v8.11h27.49v-8.11c0-.49-.17-.92-.51-1.3-.34-.36-.76-.54-1.25-.54h-23.89c-.49,0-.92.18-1.28.54-.37.37-.56.81-.56,1.3h0ZM269.24,516.5h0v-53.07h41.26c1.72,0,3.32.43,4.8,1.3,1.47.86,2.63,2.02,3.49,3.47.86,1.44,1.3,3.05,1.3,4.82h0v10.83c0,.64-.06,1.28-.19,1.92-.12.64-.33,1.23-.62,1.78h0c.98,1.38,1.73,2.67,2.26,3.87.51,1.19.77,2.41.77,3.65h0v11.86c0,1.77-.43,3.38-1.3,4.83-.85,1.45-2.02,2.6-3.49,3.46-1.47.86-3.09,1.3-4.86,1.3h-43.41ZM279.03,508.53h33.39c.54,0,.99-.18,1.33-.54.34-.37.51-.81.51-1.3h0v-11.42c0-.49-.17-.92-.51-1.28-.34-.37-.78-.56-1.33-.56h-33.39c-.49,0-.92.19-1.28.56-.37.36-.56.79-.56,1.28h0v11.42c0,.49.19.92.56,1.3.36.36.79.54,1.28.54ZM279.03,485.48h31.25c.49,0,.91-.19,1.26-.56.34-.36.51-.79.51-1.28h0v-10.4c0-.49-.17-.92-.51-1.3-.35-.36-.77-.54-1.26-.54h-31.25c-.49,0-.92.18-1.28.54-.37.37-.56.81-.56,1.3h0v10.4c0,.49.19.92.56,1.28.36.37.79.56,1.28.56ZM346.33,516.5h0c-1.77,0-3.38-.44-4.83-1.33-1.45-.89-2.6-2.04-3.46-3.46-.86-1.43-1.3-3.03-1.3-4.8h0v-33.17h7.95v32.94c0,.49.19.92.56,1.3.37.36.81.54,1.3.54h23.87c.49,0,.92-.18,1.3-.54.36-.37.54-.81.54-1.3h0v-32.94h7.97v33.17c0,1.77-.43,3.37-1.3,4.8-.86,1.42-2.02,2.57-3.46,3.46-1.45.89-3.06,1.33-4.83,1.33h-24.32ZM402.49,516.5h-7.97v-42.75h7.97v42.75ZM402.49,467.72h-7.97v-7.97h7.97v7.97ZM427.46,516.5h0c-1.77,0-3.37-.44-4.78-1.33-1.43-.89-2.59-2.04-3.47-3.46-.89-1.43-1.33-3.03-1.33-4.8h0v-47.17h7.97v46.94c0,.49.19.92.56,1.3.36.36.79.54,1.28.54h7.74v7.97h-7.97ZM456.21,516.5h0c-1.77,0-3.38-.43-4.83-1.3-1.45-.85-2.6-2.02-3.46-3.49-.86-1.48-1.3-3.08-1.3-4.8h0v-23.58c0-1.77.43-3.37,1.3-4.78.85-1.43,2.01-2.59,3.46-3.47s3.06-1.33,4.83-1.33h25.94v-14h7.97v56.75h-33.9ZM456.5,508.53h23.89c.49,0,.91-.18,1.25-.54.34-.37.51-.81.51-1.3h0v-23.14c0-.49-.17-.92-.51-1.3-.34-.36-.76-.54-1.25-.54h-23.89c-.49,0-.92.18-1.28.54-.37.37-.56.81-.56,1.3h0v23.14c0,.49.19.92.56,1.3.36.36.79.54,1.28.54Z"/>
    </clipPath>
  </defs>
  <g>
    <g>
      <path class="cls-2" d="M17.35,545h0c-1.09,0-2.09-.18-2.99-.53-.9-.35-1.69-.85-2.37-1.49-.67-.64-1.19-1.4-1.57-2.27-.36-.87-.54-1.83-.54-2.86h0c0-1.02.18-1.97.54-2.85.37-.87.9-1.63,1.58-2.27.68-.64,1.48-1.14,2.38-1.49.92-.35,1.92-.53,3.01-.53h0c1.17,0,2.23.19,3.18.58.94.38,1.73.94,2.38,1.68h0l-1.63,1.6c-.53-.54-1.11-.94-1.74-1.2-.63-.27-1.32-.4-2.08-.4h0c-.73,0-1.4.12-2.02.37-.63.23-1.17.57-1.62,1.01-.45.44-.79.95-1.04,1.55-.25.59-.37,1.24-.37,1.95h0c0,.7.12,1.35.37,1.95s.59,1.11,1.04,1.55c.45.45.98.79,1.58,1.02.61.25,1.29.37,2.03.37h0c.68,0,1.34-.11,1.98-.34.65-.21,1.26-.58,1.84-1.1h0l1.47,1.94c-.73.58-1.57,1.01-2.53,1.31-.96.3-1.93.45-2.91.45ZM22.79,543.24l-2.45-.35v-5.18h2.45v5.54ZM30.65,544.81h-2.66l6.26-13.9h2.53l6.27,13.9h-2.69l-5.39-12.53h1.04l-5.36,12.53ZM39.75,541.59h-8.88l.69-2.03h7.5l.69,2.03ZM51.05,544.81h-2.46v-13.9h2.13l6.06,10.14h-1.1l5.97-10.14h2.13l.02,13.9h-2.43l-.03-10.06h.53l-5.09,8.46h-1.15l-5.15-8.46h.59v10.06ZM73.69,538.81v-2.13h6.91v2.13h-6.91ZM73.88,533.08v9.55h7.84v2.18h-10.42v-13.9h10.14v2.18h-7.57ZM100.2,544.81h-2.58v-13.9h2.58v13.9ZM110.28,544.81h-2.56v-13.9h2.13l8.7,10.7h-1.06v-10.7h2.56v13.9h-2.11l-8.72-10.7h1.06v10.7ZM129.93,539.48v-2.18h6.93v2.18h-6.93ZM130.14,533.08v11.73h-2.58v-13.9h10.14v2.18h-7.57ZM146.55,544.81h-2.58v-13.9h5.71c1.23,0,2.28.2,3.17.61.87.39,1.55.96,2.03,1.7.48.75.72,1.63.72,2.64h0c0,1.02-.24,1.9-.72,2.64-.48.73-1.16,1.29-2.03,1.68-.89.39-1.94.59-3.17.59h-4.29l1.15-1.18v5.23ZM155.83,544.81h-2.77l-3.52-5.04h2.77l3.52,5.04ZM146.55,531.82v8.05l-1.15-1.23h4.18c1.13,0,1.98-.25,2.56-.74.58-.49.86-1.17.86-2.05h0c0-.89-.29-1.57-.86-2.05-.58-.47-1.43-.7-2.56-.7h-4.18l1.15-1.28ZM162.94,544.81h-2.66l6.26-13.9h2.54l6.27,13.9h-2.7l-5.38-12.53h1.02l-5.36,12.53ZM172.06,541.59h-8.9l.69-2.03h7.5l.7,2.03ZM185.19,545h0c-1.09,0-2.13-.15-3.12-.46-.99-.31-1.78-.71-2.37-1.2h0l.9-2.02c.55.44,1.24.81,2.06,1.1.82.29,1.66.43,2.53.43h0c.73,0,1.31-.08,1.76-.24s.78-.37.99-.64c.21-.28.32-.59.32-.93h0c0-.43-.15-.77-.46-1.02-.3-.26-.69-.46-1.17-.61-.49-.15-1.03-.29-1.62-.43-.59-.13-1.17-.28-1.76-.46-.59-.18-1.13-.41-1.62-.69-.48-.29-.87-.67-1.17-1.15-.31-.47-.46-1.08-.46-1.82h0c0-.76.2-1.45.61-2.06.41-.63,1.02-1.14,1.84-1.52.83-.37,1.88-.56,3.15-.56h0c.83,0,1.66.11,2.48.32.82.21,1.54.52,2.14.91h0l-.82,2c-.62-.37-1.26-.65-1.92-.82-.66-.18-1.3-.27-1.9-.27h0c-.71,0-1.3.09-1.74.26-.45.17-.77.39-.98.67-.2.28-.3.6-.3.96h0c0,.42.15.76.45,1.02.3.26.69.45,1.17.59.48.15,1.02.29,1.62.43.6.14,1.19.29,1.78.46.59.17,1.13.39,1.62.67.48.28.87.66,1.17,1.14.3.48.45,1.08.45,1.81h0c0,.74-.2,1.42-.61,2.05-.41.63-1.02,1.14-1.86,1.52-.83.37-1.88.56-3.15.56ZM202.54,544.81h-2.59v-11.71h-4.59v-2.19h11.78v2.19h-4.59v11.71ZM215.43,544.81h-2.58v-13.9h5.71c1.23,0,2.28.2,3.17.61.87.39,1.55.96,2.03,1.7.47.75.7,1.63.7,2.64h0c0,1.02-.23,1.9-.7,2.64-.48.73-1.16,1.29-2.03,1.68-.89.39-1.94.59-3.17.59h-4.29l1.15-1.18v5.23ZM224.71,544.81h-2.77l-3.52-5.04h2.75l3.54,5.04ZM215.43,531.82v8.05l-1.15-1.23h4.16c1.14,0,2-.25,2.58-.74.58-.49.86-1.17.86-2.05h0c0-.89-.29-1.57-.86-2.05-.58-.47-1.43-.7-2.58-.7h-4.16l1.15-1.28ZM237.1,545h0c-1.91,0-3.4-.54-4.48-1.62-1.08-1.07-1.62-2.61-1.62-4.64h0v-7.84h2.59v7.74c0,1.43.3,2.47.91,3.12.62.65,1.49.98,2.61.98h0c1.13,0,2-.33,2.61-.98.61-.65.91-1.69.91-3.12h0v-7.74h2.54v7.84c0,2.03-.54,3.57-1.63,4.64-1.08,1.08-2.56,1.62-4.45,1.62ZM256.98,545h0c-1.06,0-2.04-.18-2.94-.53-.91-.35-1.7-.85-2.37-1.49-.67-.64-1.19-1.4-1.55-2.27-.37-.87-.56-1.83-.56-2.86h0c0-1.02.19-1.97.56-2.85.36-.87.89-1.63,1.57-2.27.67-.64,1.46-1.14,2.35-1.49.91-.35,1.89-.53,2.96-.53h0c1.14,0,2.18.2,3.12.59.94.38,1.73.96,2.38,1.73h0l-1.68,1.57c-.5-.54-1.06-.95-1.68-1.22-.62-.28-1.3-.42-2.03-.42h0c-.73,0-1.39.12-1.98.37-.61.23-1.13.57-1.57,1.01-.45.44-.79.95-1.04,1.55-.25.59-.37,1.24-.37,1.95h0c0,.71.12,1.37.37,1.97.25.6.59,1.11,1.04,1.55.44.44.96.77,1.57,1.01.6.25,1.26.37,1.98.37h0c.74,0,1.41-.14,2.03-.42.62-.27,1.18-.68,1.68-1.23h0l1.68,1.58c-.65.76-1.45,1.33-2.38,1.73-.94.39-1.98.59-3.14.59ZM274.15,544.81h-2.59v-11.71h-4.59v-2.19h11.78v2.19h-4.59v11.71ZM290.44,545h0c-1.91,0-3.4-.54-4.48-1.62-1.08-1.07-1.62-2.61-1.62-4.64h0v-7.84h2.58v7.74c0,1.43.31,2.47.93,3.12.62.65,1.49.98,2.61.98h0c1.12,0,1.98-.33,2.59-.98.61-.65.91-1.69.91-3.12h0v-7.74h2.54v7.84c0,2.03-.54,3.57-1.62,4.64-1.08,1.08-2.56,1.62-4.45,1.62ZM306.47,544.81h-2.58v-13.9h5.71c1.23,0,2.28.2,3.17.61.87.39,1.55.96,2.03,1.7.47.75.7,1.63.7,2.64h0c0,1.02-.23,1.9-.7,2.64-.48.73-1.16,1.29-2.03,1.68-.89.39-1.94.59-3.17.59h-4.29l1.15-1.18v5.23ZM315.75,544.81h-2.77l-3.52-5.04h2.75l3.54,5.04ZM306.47,531.82v8.05l-1.15-1.23h4.16c1.14,0,2-.25,2.58-.74.58-.49.86-1.17.86-2.05h0c0-.89-.29-1.57-.86-2.05-.58-.47-1.43-.7-2.58-.7h-4.16l1.15-1.28ZM324.55,538.81v-2.13h6.9v2.13h-6.9ZM324.74,533.08v9.55h7.84v2.18h-10.42v-13.9h10.14v2.18h-7.57ZM351.06,544.81h-2.59v-13.9h5.71c1.24,0,2.29.2,3.17.61.89.39,1.56.96,2.03,1.7.48.75.72,1.63.72,2.64h0c0,1.02-.24,1.9-.72,2.64-.47.75-1.15,1.32-2.03,1.71-.87.39-1.93.59-3.17.59h-4.27l1.15-1.22v5.23ZM351.06,531.82v8.05l-1.15-1.25h4.16c1.14,0,2-.25,2.58-.74.58-.48.86-1.16.86-2.03h0c0-.89-.29-1.57-.86-2.05-.58-.47-1.43-.7-2.58-.7h-4.16l1.15-1.28ZM369.24,544.81h-2.59v-13.9h5.71c1.24,0,2.29.2,3.17.61.89.39,1.56.96,2.03,1.7.48.75.72,1.63.72,2.64h0c0,1.02-.24,1.9-.72,2.64-.47.73-1.15,1.29-2.03,1.68-.87.39-1.93.59-3.17.59h-4.27l1.15-1.18v5.23ZM378.52,544.81h-2.78l-3.5-5.04h2.75l3.54,5.04ZM369.24,531.82v8.05l-1.15-1.23h4.16c1.14,0,2-.25,2.58-.74.58-.49.86-1.17.86-2.05h0c0-.89-.29-1.57-.86-2.05-.58-.47-1.43-.7-2.58-.7h-4.16l1.15-1.28ZM391.43,545h0c-1.08,0-2.07-.18-2.99-.54-.92-.35-1.71-.85-2.38-1.49-.67-.64-1.19-1.4-1.57-2.27-.36-.86-.54-1.81-.54-2.85h0c0-1.02.18-1.97.54-2.85.37-.86.9-1.62,1.57-2.26.67-.64,1.47-1.14,2.38-1.5.92-.35,1.91-.53,2.98-.53h0c1.09,0,2.09.18,2.99.53.91.36,1.7.86,2.37,1.5.67.64,1.19,1.39,1.57,2.26.37.87.56,1.82.56,2.85h0c0,1.03-.19,1.99-.56,2.86-.37.87-.9,1.63-1.57,2.26-.67.64-1.46,1.14-2.37,1.49-.91.36-1.9.54-2.98.54ZM391.41,542.74h0c.7,0,1.35-.12,1.95-.37.59-.23,1.1-.58,1.54-1.02.44-.44.78-.95,1.02-1.54.25-.6.37-1.25.37-1.97h0c0-.71-.12-1.37-.37-1.95-.25-.59-.59-1.1-1.02-1.54-.44-.45-.95-.79-1.54-1.02-.6-.25-1.25-.37-1.95-.37h0c-.7,0-1.35.12-1.94.37-.59.23-1.1.58-1.55,1.02-.44.44-.78.95-1.02,1.54s-.37,1.24-.37,1.95h0c0,.7.12,1.35.37,1.95s.59,1.11,1.02,1.55c.44.45.95.79,1.55,1.02.59.25,1.23.37,1.94.37ZM410.81,544.81h-2.58v-11.71h-4.61v-2.19h11.78v2.19h-4.59v11.71ZM427.62,545h0c-1.08,0-2.07-.18-2.99-.54-.91-.35-1.7-.85-2.38-1.49-.67-.64-1.19-1.4-1.57-2.27-.36-.86-.54-1.81-.54-2.85h0c0-1.02.18-1.97.54-2.85.37-.86.9-1.62,1.57-2.26.68-.64,1.48-1.14,2.38-1.5.92-.35,1.91-.53,2.98-.53h0c1.09,0,2.09.18,2.99.53.91.36,1.7.86,2.37,1.5.67.64,1.19,1.39,1.57,2.26.37.87.56,1.82.56,2.85h0c0,1.03-.19,1.99-.56,2.86-.37.87-.9,1.63-1.57,2.26-.67.64-1.46,1.14-2.37,1.49-.91.36-1.9.54-2.98.54ZM427.61,542.74h0c.7,0,1.35-.12,1.95-.37.6-.23,1.11-.58,1.54-1.02.44-.44.78-.95,1.02-1.54.25-.6.37-1.25.37-1.97h0c0-.71-.12-1.37-.37-1.95-.25-.59-.59-1.1-1.02-1.54-.43-.45-.94-.79-1.54-1.02-.6-.25-1.25-.37-1.95-.37h0c-.7,0-1.35.12-1.94.37-.59.23-1.1.58-1.54,1.02-.45.44-.79.95-1.04,1.54s-.37,1.24-.37,1.95h0c0,.7.12,1.35.37,1.95s.59,1.11,1.02,1.55c.44.45.95.79,1.55,1.02.59.25,1.23.37,1.94.37ZM448.02,545h0c-1.06,0-2.04-.18-2.94-.53-.91-.35-1.69-.85-2.35-1.49-.67-.64-1.19-1.4-1.57-2.27-.36-.87-.54-1.83-.54-2.86h0c0-1.02.18-1.97.54-2.85.37-.87.9-1.63,1.57-2.27.67-.64,1.46-1.14,2.37-1.49.9-.35,1.88-.53,2.96-.53h0c1.13,0,2.17.2,3.1.59.94.38,1.73.96,2.38,1.73h0l-1.66,1.57c-.5-.54-1.06-.95-1.68-1.22-.63-.28-1.31-.42-2.03-.42h0c-.73,0-1.39.12-2,.37-.6.23-1.12.57-1.57,1.01-.44.44-.78.95-1.02,1.55-.25.59-.37,1.24-.37,1.95h0c0,.71.12,1.37.37,1.97.25.6.59,1.11,1.02,1.55.45.44.97.77,1.57,1.01.61.25,1.27.37,2,.37h0c.73,0,1.4-.14,2.03-.42.62-.27,1.18-.68,1.68-1.23h0l1.66,1.58c-.65.76-1.45,1.33-2.38,1.73-.94.39-1.98.59-3.14.59ZM466.31,545h0c-1.09,0-2.09-.18-3.01-.54-.91-.35-1.7-.85-2.38-1.49-.67-.64-1.19-1.4-1.57-2.27-.36-.86-.54-1.81-.54-2.85h0c0-1.02.18-1.97.54-2.85.37-.86.9-1.62,1.57-2.26.68-.64,1.48-1.14,2.38-1.5.92-.35,1.91-.53,2.98-.53h0c1.09,0,2.09.18,2.99.53.91.36,1.7.86,2.37,1.5.67.64,1.19,1.39,1.57,2.26.37.87.56,1.82.56,2.85h0c0,1.03-.19,1.99-.56,2.86-.37.87-.9,1.63-1.57,2.26-.67.64-1.46,1.14-2.37,1.49-.91.36-1.89.54-2.96.54ZM466.28,542.74h0c.7,0,1.35-.12,1.95-.37.6-.23,1.11-.58,1.55-1.02.44-.44.77-.95,1.01-1.54.25-.6.37-1.25.37-1.97h0c0-.71-.12-1.37-.37-1.95-.23-.59-.57-1.1-1.01-1.54-.44-.45-.95-.79-1.55-1.02-.6-.25-1.25-.37-1.95-.37h0c-.69,0-1.34.12-1.94.37-.59.23-1.1.58-1.54,1.02-.45.44-.79.95-1.04,1.54-.25.59-.37,1.24-.37,1.95h0c0,.7.12,1.35.37,1.95.25.6.59,1.11,1.02,1.55.44.45.95.79,1.55,1.02.6.25,1.24.37,1.94.37ZM490.12,544.81h-9.84v-13.9h2.58v11.71h7.26v2.19Z"/>
      <g class="cls-3">
        <rect class="cls-2" x="480.28" y="530.9" width="1.46" height="13.9"/>
        <rect class="cls-2" x="481.74" y="530.9" width="2.79" height="13.9"/>
        <rect class="cls-2" x="484.53" y="530.9" width="2.79" height="13.9"/>
        <rect class="cls-2" x="487.33" y="530.9" width="2.79" height="13.9"/>
        <rect class="cls-2" x="461.4" y="532.97" width=".8" height="9.78"/>
        <rect class="cls-2" x="462.2" y="532.97" width="2.79" height="9.78"/>
        <rect class="cls-2" x="464.99" y="532.97" width="2.79" height="9.78"/>
        <rect class="cls-2" x="467.78" y="532.97" width="2.79" height="9.78"/>
        <rect class="cls-2" x="470.57" y="532.97" width=".58" height="9.78"/>
        <rect class="cls-2" x="458.81" y="530.71" width=".6" height="14.29"/>
        <rect class="cls-2" x="459.41" y="530.71" width="2.79" height="14.29"/>
        <rect class="cls-2" x="462.2" y="530.71" width="2.79" height="14.29"/>
        <rect class="cls-2" x="464.99" y="530.71" width="2.79" height="14.29"/>
        <rect class="cls-2" x="467.78" y="530.71" width="2.79" height="14.29"/>
        <rect class="cls-2" x="470.57" y="530.71" width="2.79" height="14.29"/>
        <rect class="cls-2" x="473.37" y="530.71" width=".4" height="14.29"/>
        <rect class="cls-2" x="440.61" y="530.71" width="2.04" height="14.29"/>
        <rect class="cls-2" x="442.65" y="530.71" width="2.79" height="14.29"/>
        <rect class="cls-2" x="445.44" y="530.71" width="2.79" height="14.29"/>
        <rect class="cls-2" x="448.24" y="530.71" width="2.79" height="14.29"/>
        <rect class="cls-2" x="451.03" y="530.71" width="2.51" height="14.29"/>
        <rect class="cls-2" x="422.73" y="532.97" width=".38" height="9.78"/>
        <rect class="cls-2" x="423.11" y="532.97" width="2.79" height="9.78"/>
        <rect class="cls-2" x="425.9" y="532.97" width="2.79" height="9.78"/>
        <rect class="cls-2" x="428.69" y="532.97" width="2.79" height="9.78"/>
        <rect class="cls-2" x="431.48" y="532.97" width="1" height="9.78"/>
        <rect class="cls-2" x="420.13" y="530.71" width=".18" height="14.29"/>
        <rect class="cls-2" x="420.32" y="530.71" width="2.79" height="14.29"/>
        <rect class="cls-2" x="423.11" y="530.71" width="2.79" height="14.29"/>
        <rect class="cls-2" x="425.9" y="530.71" width="2.79" height="14.29"/>
        <rect class="cls-2" x="428.69" y="530.71" width="2.79" height="14.29"/>
        <rect class="cls-2" x="431.48" y="530.71" width="2.79" height="14.29"/>
        <rect class="cls-2" x="434.28" y="530.71" width=".82" height="14.29"/>
        <rect class="cls-2" x="403.62" y="530.9" width="2.73" height="13.9"/>
        <rect class="cls-2" x="406.36" y="530.9" width="2.79" height="13.9"/>
        <rect class="cls-2" x="409.15" y="530.9" width="2.79" height="13.9"/>
        <rect class="cls-2" x="411.94" y="530.9" width="2.79" height="13.9"/>
        <rect class="cls-2" x="414.73" y="530.9" width=".67" height="13.9"/>
        <rect class="cls-2" x="386.53" y="532.97" width=".28" height="9.78"/>
        <rect class="cls-2" x="386.81" y="532.97" width="2.79" height="9.78"/>
        <rect class="cls-2" x="389.6" y="532.97" width="2.79" height="9.78"/>
        <rect class="cls-2" x="392.4" y="532.97" width="2.79" height="9.78"/>
        <rect class="cls-2" x="395.19" y="532.97" width="1.11" height="9.78"/>
        <rect class="cls-2" x="383.94" y="530.71" width=".08" height="14.29"/>
        <rect class="cls-2" x="384.02" y="530.71" width="2.79" height="14.29"/>
        <rect class="cls-2" x="386.81" y="530.71" width="2.79" height="14.29"/>
        <rect class="cls-2" x="389.6" y="530.71" width="2.79" height="14.29"/>
        <rect class="cls-2" x="392.4" y="530.71" width="2.79" height="14.29"/>
        <rect class="cls-2" x="395.19" y="530.71" width="2.79" height="14.29"/>
        <rect class="cls-2" x="397.98" y="530.71" width=".92" height="14.29"/>
        <rect class="cls-2" x="368.09" y="531.82" width="1.97" height="8.05"/>
        <rect class="cls-2" x="370.06" y="531.82" width="2.79" height="8.05"/>
        <rect class="cls-2" x="372.85" y="531.82" width="2.79" height="8.05"/>
        <rect class="cls-2" x="375.64" y="531.82" width=".04" height="8.05"/>
        <rect class="cls-2" x="372.23" y="539.77" width=".62" height="5.04"/>
        <rect class="cls-2" x="372.85" y="539.77" width="2.79" height="5.04"/>
        <rect class="cls-2" x="375.64" y="539.77" width="2.79" height="5.04"/>
        <rect class="cls-2" x="378.44" y="539.77" width=".08" height="5.04"/>
        <rect class="cls-2" x="366.65" y="530.9" width=".62" height="13.9"/>
        <rect class="cls-2" x="367.27" y="530.9" width="2.79" height="13.9"/>
        <rect class="cls-2" x="370.06" y="530.9" width="2.79" height="13.9"/>
        <rect class="cls-2" x="372.85" y="530.9" width="2.79" height="13.9"/>
        <rect class="cls-2" x="375.64" y="530.9" width="2.64" height="13.9"/>
        <rect class="cls-2" x="349.91" y="531.82" width=".6" height="8.05"/>
        <rect class="cls-2" x="350.51" y="531.82" width="2.79" height="8.05"/>
        <rect class="cls-2" x="353.31" y="531.82" width="2.79" height="8.05"/>
        <rect class="cls-2" x="356.1" y="531.82" width="1.41" height="8.05"/>
        <rect class="cls-2" x="348.47" y="530.9" width="2.04" height="13.9"/>
        <rect class="cls-2" x="350.51" y="530.9" width="2.79" height="13.9"/>
        <rect class="cls-2" x="353.31" y="530.9" width="2.79" height="13.9"/>
        <rect class="cls-2" x="356.1" y="530.9" width="2.79" height="13.9"/>
        <rect class="cls-2" x="358.89" y="530.9" width="1.21" height="13.9"/>
        <rect class="cls-2" x="322.17" y="530.9" width=".43" height="13.9"/>
        <rect class="cls-2" x="322.59" y="530.9" width="2.79" height="13.9"/>
        <rect class="cls-2" x="325.39" y="530.9" width="2.79" height="13.9"/>
        <rect class="cls-2" x="328.18" y="530.9" width="2.79" height="13.9"/>
        <rect class="cls-2" x="330.97" y="530.9" width="1.61" height="13.9"/>
        <rect class="cls-2" x="324.55" y="536.68" width=".83" height="2.13"/>
        <rect class="cls-2" x="325.39" y="536.68" width="2.79" height="2.13"/>
        <rect class="cls-2" x="328.18" y="536.68" width="2.79" height="2.13"/>
        <rect class="cls-2" x="330.97" y="536.68" width=".48" height="2.13"/>
        <rect class="cls-2" x="305.32" y="531.82" width=".52" height="8.05"/>
        <rect class="cls-2" x="305.84" y="531.82" width="2.79" height="8.05"/>
        <rect class="cls-2" x="308.63" y="531.82" width="2.79" height="8.05"/>
        <rect class="cls-2" x="311.43" y="531.82" width="1.49" height="8.05"/>
        <rect class="cls-2" x="309.46" y="539.77" width="1.96" height="5.04"/>
        <rect class="cls-2" x="311.43" y="539.77" width="2.79" height="5.04"/>
        <rect class="cls-2" x="314.22" y="539.77" width="1.53" height="5.04"/>
        <rect class="cls-2" x="303.9" y="530.9" width="1.95" height="13.9"/>
        <rect class="cls-2" x="305.84" y="530.9" width="2.79" height="13.9"/>
        <rect class="cls-2" x="308.63" y="530.9" width="2.79" height="13.9"/>
        <rect class="cls-2" x="311.43" y="530.9" width="2.79" height="13.9"/>
        <rect class="cls-2" x="314.22" y="530.9" width="1.29" height="13.9"/>
        <rect class="cls-2" x="284.34" y="530.9" width="1.95" height="14.1"/>
        <rect class="cls-2" x="286.3" y="530.9" width="2.79" height="14.1"/>
        <rect class="cls-2" x="289.09" y="530.9" width="2.79" height="14.1"/>
        <rect class="cls-2" x="291.88" y="530.9" width="2.79" height="14.1"/>
        <rect class="cls-2" x="294.67" y="530.9" width="1.83" height="14.1"/>
        <rect class="cls-2" x="266.97" y="530.9" width="2.58" height="13.9"/>
        <rect class="cls-2" x="269.54" y="530.9" width="2.79" height="13.9"/>
        <rect class="cls-2" x="272.34" y="530.9" width="2.79" height="13.9"/>
        <rect class="cls-2" x="275.13" y="530.9" width="2.79" height="13.9"/>
        <rect class="cls-2" x="277.92" y="530.9" width=".82" height="13.9"/>
        <rect class="cls-2" x="249.56" y="530.71" width=".44" height="14.29"/>
        <rect class="cls-2" x="250" y="530.71" width="2.79" height="14.29"/>
        <rect class="cls-2" x="252.79" y="530.71" width="2.79" height="14.29"/>
        <rect class="cls-2" x="255.58" y="530.71" width="2.79" height="14.29"/>
        <rect class="cls-2" x="258.38" y="530.71" width="2.79" height="14.29"/>
        <rect class="cls-2" x="261.17" y="530.71" width="1.34" height="14.29"/>
        <rect class="cls-2" x="231" y="530.9" width="2.25" height="14.1"/>
        <rect class="cls-2" x="233.25" y="530.9" width="2.79" height="14.1"/>
        <rect class="cls-2" x="236.04" y="530.9" width="2.79" height="14.1"/>
        <rect class="cls-2" x="238.83" y="530.9" width="2.79" height="14.1"/>
        <rect class="cls-2" x="241.62" y="530.9" width="1.55" height="14.1"/>
        <rect class="cls-2" x="214.28" y="531.82" width="2.21" height="8.05"/>
        <rect class="cls-2" x="216.5" y="531.82" width="2.79" height="8.05"/>
        <rect class="cls-2" x="219.29" y="531.82" width="2.59" height="8.05"/>
        <rect class="cls-2" x="218.42" y="539.77" width=".86" height="5.04"/>
        <rect class="cls-2" x="219.29" y="539.77" width="2.79" height="5.04"/>
        <rect class="cls-2" x="222.08" y="539.77" width="2.63" height="5.04"/>
        <rect class="cls-2" x="212.86" y="530.9" width=".85" height="13.9"/>
        <rect class="cls-2" x="213.7" y="530.9" width="2.79" height="13.9"/>
        <rect class="cls-2" x="216.5" y="530.9" width="2.79" height="13.9"/>
        <rect class="cls-2" x="219.29" y="530.9" width="2.79" height="13.9"/>
        <rect class="cls-2" x="222.08" y="530.9" width="2.39" height="13.9"/>
        <rect class="cls-2" x="195.35" y="530.9" width="1.6" height="13.9"/>
        <rect class="cls-2" x="196.95" y="530.9" width="2.79" height="13.9"/>
        <rect class="cls-2" x="199.74" y="530.9" width="2.79" height="13.9"/>
        <rect class="cls-2" x="202.53" y="530.9" width="2.79" height="13.9"/>
        <rect class="cls-2" x="205.33" y="530.9" width="1.8" height="13.9"/>
        <rect class="cls-2" x="179.7" y="530.71" width=".49" height="14.29"/>
        <rect class="cls-2" x="180.2" y="530.71" width="2.79" height="14.29"/>
        <rect class="cls-2" x="182.99" y="530.71" width="2.79" height="14.29"/>
        <rect class="cls-2" x="185.78" y="530.71" width="2.79" height="14.29"/>
        <rect class="cls-2" x="188.57" y="530.71" width="2.23" height="14.29"/>
        <rect class="cls-2" x="163.16" y="539.56" width=".29" height="2.03"/>
        <rect class="cls-2" x="163.45" y="539.56" width="2.79" height="2.03"/>
        <rect class="cls-2" x="166.24" y="539.56" width="2.79" height="2.03"/>
        <rect class="cls-2" x="169.03" y="539.56" width="2.79" height="2.03"/>
        <rect class="cls-2" x="171.82" y="539.56" width=".23" height="2.03"/>
        <rect class="cls-2" x="160.28" y="530.9" width=".37" height="13.9"/>
        <rect class="cls-2" x="160.65" y="530.9" width="2.79" height="13.9"/>
        <rect class="cls-2" x="163.45" y="530.9" width="2.79" height="13.9"/>
        <rect class="cls-2" x="166.24" y="530.9" width="2.79" height="13.9"/>
        <rect class="cls-2" x="169.03" y="530.9" width="2.79" height="13.9"/>
        <rect class="cls-2" x="171.82" y="530.9" width="2.79" height="13.9"/>
        <rect class="cls-2" x="174.61" y="530.9" width=".74" height="13.9"/>
        <rect class="cls-2" x="145.4" y="531.82" width="1.29" height="8.05"/>
        <rect class="cls-2" x="146.69" y="531.82" width="2.79" height="8.05"/>
        <rect class="cls-2" x="149.49" y="531.82" width="2.79" height="8.05"/>
        <rect class="cls-2" x="152.28" y="531.82" width=".72" height="8.05"/>
        <rect class="cls-2" x="149.54" y="539.77" width="2.73" height="5.04"/>
        <rect class="cls-2" x="152.28" y="539.77" width="2.79" height="5.04"/>
        <rect class="cls-2" x="155.07" y="539.77" width=".76" height="5.04"/>
        <rect class="cls-2" x="143.98" y="530.9" width="2.72" height="13.9"/>
        <rect class="cls-2" x="146.69" y="530.9" width="2.79" height="13.9"/>
        <rect class="cls-2" x="149.49" y="530.9" width="2.79" height="13.9"/>
        <rect class="cls-2" x="152.28" y="530.9" width="2.79" height="13.9"/>
        <rect class="cls-2" x="155.07" y="530.9" width=".54" height="13.9"/>
        <rect class="cls-2" x="127.56" y="530.9" width="2.38" height="13.9"/>
        <rect class="cls-2" x="129.94" y="530.9" width="2.79" height="13.9"/>
        <rect class="cls-2" x="132.73" y="530.9" width="2.79" height="13.9"/>
        <rect class="cls-2" x="135.53" y="530.9" width="2.18" height="13.9"/>
        <rect class="cls-2" x="129.93" y="537.3" width=".01" height="2.18"/>
        <rect class="cls-2" x="129.94" y="537.3" width="2.79" height="2.18"/>
        <rect class="cls-2" x="132.73" y="537.3" width="2.79" height="2.18"/>
        <rect class="cls-2" x="135.53" y="537.3" width="1.33" height="2.18"/>
        <rect class="cls-2" x="107.72" y="530.9" width="2.68" height="13.9"/>
        <rect class="cls-2" x="110.4" y="530.9" width="2.79" height="13.9"/>
        <rect class="cls-2" x="113.19" y="530.9" width="2.79" height="13.9"/>
        <rect class="cls-2" x="115.98" y="530.9" width="2.79" height="13.9"/>
        <rect class="cls-2" x="118.77" y="530.9" width="1.28" height="13.9"/>
        <rect class="cls-2" x="97.63" y="530.9" width="1.6" height="13.9"/>
        <rect class="cls-2" x="99.23" y="530.9" width=".97" height="13.9"/>
        <rect class="cls-2" x="71.31" y="530.9" width="0" height="13.9"/>
        <rect class="cls-2" x="71.31" y="530.9" width="2.79" height="13.9"/>
        <rect class="cls-2" x="74.1" y="530.9" width="2.79" height="13.9"/>
        <rect class="cls-2" x="76.89" y="530.9" width="2.79" height="13.9"/>
        <rect class="cls-2" x="79.68" y="530.9" width="2.04" height="13.9"/>
        <rect class="cls-2" x="73.69" y="536.68" width=".41" height="2.13"/>
        <rect class="cls-2" x="74.1" y="536.68" width="2.79" height="2.13"/>
        <rect class="cls-2" x="76.89" y="536.68" width="2.79" height="2.13"/>
        <rect class="cls-2" x="79.68" y="536.68" width=".92" height="2.13"/>
        <rect class="cls-2" x="48.59" y="530.9" width=".39" height="13.9"/>
        <rect class="cls-2" x="48.97" y="530.9" width="2.79" height="13.9"/>
        <rect class="cls-2" x="51.76" y="530.9" width="2.79" height="13.9"/>
        <rect class="cls-2" x="54.56" y="530.9" width="2.79" height="13.9"/>
        <rect class="cls-2" x="57.35" y="530.9" width="2.79" height="13.9"/>
        <rect class="cls-2" x="60.14" y="530.9" width="2.79" height="13.9"/>
        <rect class="cls-2" x="62.93" y="530.9" width=".85" height="13.9"/>
        <rect class="cls-2" x="30.87" y="539.56" width="1.34" height="2.03"/>
        <rect class="cls-2" x="32.22" y="539.56" width="2.79" height="2.03"/>
        <rect class="cls-2" x="35.01" y="539.56" width="2.79" height="2.03"/>
        <rect class="cls-2" x="37.8" y="539.56" width="1.95" height="2.03"/>
        <rect class="cls-2" x="27.99" y="530.9" width="1.43" height="13.9"/>
        <rect class="cls-2" x="29.43" y="530.9" width="2.79" height="13.9"/>
        <rect class="cls-2" x="32.22" y="530.9" width="2.79" height="13.9"/>
        <rect class="cls-2" x="35.01" y="530.9" width="2.79" height="13.9"/>
        <rect class="cls-2" x="37.8" y="530.9" width="2.79" height="13.9"/>
        <rect class="cls-2" x="40.59" y="530.9" width="2.45" height="13.9"/>
        <rect class="cls-2" x="20.35" y="537.7" width=".7" height="5.54"/>
        <rect class="cls-2" x="21.05" y="537.7" width="1.74" height="5.54"/>
        <rect class="cls-2" x="9.88" y="530.71" width="2.79" height="14.29"/>
        <rect class="cls-2" x="12.67" y="530.71" width="2.79" height="14.29"/>
        <rect class="cls-2" x="15.47" y="530.71" width="2.79" height="14.29"/>
        <rect class="cls-2" x="18.26" y="530.71" width="2.79" height="14.29"/>
        <rect class="cls-2" x="21.05" y="530.71" width="1.92" height="14.29"/>
      </g>
    </g>
    <g>
      <path class="cls-2" d="M53.29,516.5H19.47c-1.77,0-3.38-.43-4.83-1.3-1.45-.85-2.6-2.01-3.46-3.46-.86-1.45-1.3-3.06-1.3-4.83h0v-33.9c0-1.77.43-3.38,1.3-4.82.85-1.45,2.01-2.61,3.46-3.47,1.45-.86,3.06-1.3,4.83-1.3h33.82c1.77,0,3.39.43,4.86,1.3,1.47.86,2.64,2.02,3.5,3.47.85,1.44,1.28,3.05,1.28,4.82h0v3.17h-8.03v-2.94c0-.49-.17-.92-.51-1.3-.34-.36-.78-.54-1.33-.54H19.69c-.49,0-.92.18-1.3.54-.37.37-.56.81-.56,1.3h0v33.46c0,.49.19.92.56,1.3.37.36.81.54,1.3.54h33.38c.54,0,.99-.18,1.33-.54.34-.37.51-.81.51-1.3h0v-11.26h-12.53v-8.05h20.56v19.54c0,1.77-.43,3.38-1.28,4.83-.86,1.45-2.03,2.6-3.5,3.46-1.47.86-3.09,1.3-4.86,1.3h0ZM120.87,516.5h-33.9c-1.77,0-3.38-.44-4.83-1.33-1.44-.89-2.59-2.04-3.46-3.46-.86-1.43-1.3-3.03-1.3-4.8h0v-15.78h35.46v-7.58c0-.49-.17-.92-.51-1.3-.35-.36-.77-.54-1.26-.54h-33.68v-7.97h33.9c1.77,0,3.38.43,4.83,1.3,1.45.86,2.6,2.03,3.46,3.5.86,1.47,1.3,3.07,1.3,4.78h0v33.17ZM87.19,508.53h25.65v-9.94h-27.49v8.1c0,.49.18.92.54,1.3.37.36.81.54,1.3.54ZM141.66,516.5h-8.03v-42.75h54.61c1.82,0,3.45.44,4.86,1.33,1.43.89,2.57,2.04,3.42,3.47.86,1.42,1.3,3.01,1.3,4.78h0v33.17h-7.89v-32.94c0-.49-.18-.92-.54-1.3-.37-.36-.81-.54-1.3-.54h-16.43c-.54,0-.99.18-1.33.54-.34.37-.51.81-.51,1.3h0v32.94h-8.03v-32.94c0-.49-.19-.92-.56-1.3-.37-.36-.81-.54-1.3-.54h-16.5c-.49,0-.91.18-1.26.54-.34.37-.51.81-.51,1.3h0v32.94ZM220.58,516.5h0c-1.76,0-3.35-.44-4.78-1.33-1.43-.89-2.59-2.04-3.47-3.46-.87-1.43-1.31-3.03-1.31-4.8h0v-23.58c0-1.77.44-3.37,1.31-4.78.89-1.43,2.04-2.59,3.47-3.47,1.43-.89,3.02-1.33,4.78-1.33h24.32c1.77,0,3.38.43,4.83,1.3,1.45.86,2.61,2.03,3.47,3.5.85,1.47,1.28,3.07,1.28,4.78h0v15.78h-35.52v7.58c0,.49.19.92.56,1.3.36.36.79.54,1.28.54h33.68v7.97h-33.9ZM218.97,483.56v8.11h27.49v-8.11c0-.49-.17-.92-.51-1.3-.34-.36-.76-.54-1.25-.54h-23.89c-.49,0-.92.18-1.28.54-.37.37-.56.81-.56,1.3h0ZM269.24,516.5h0v-53.07h41.26c1.72,0,3.32.43,4.8,1.3,1.47.86,2.63,2.02,3.49,3.47.86,1.44,1.3,3.05,1.3,4.82h0v10.83c0,.64-.06,1.28-.19,1.92-.12.64-.33,1.23-.62,1.78h0c.98,1.38,1.73,2.67,2.26,3.87.51,1.19.77,2.41.77,3.65h0v11.86c0,1.77-.43,3.38-1.3,4.83-.85,1.45-2.02,2.6-3.49,3.46-1.47.86-3.09,1.3-4.86,1.3h-43.41ZM279.03,508.53h33.39c.54,0,.99-.18,1.33-.54.34-.37.51-.81.51-1.3h0v-11.42c0-.49-.17-.92-.51-1.28-.34-.37-.78-.56-1.33-.56h-33.39c-.49,0-.92.19-1.28.56-.37.36-.56.79-.56,1.28h0v11.42c0,.49.19.92.56,1.3.36.36.79.54,1.28.54ZM279.03,485.48h31.25c.49,0,.91-.19,1.26-.56.34-.36.51-.79.51-1.28h0v-10.4c0-.49-.17-.92-.51-1.3-.35-.36-.77-.54-1.26-.54h-31.25c-.49,0-.92.18-1.28.54-.37.37-.56.81-.56,1.3h0v10.4c0,.49.19.92.56,1.28.36.37.79.56,1.28.56ZM346.33,516.5h0c-1.77,0-3.38-.44-4.83-1.33-1.45-.89-2.6-2.04-3.46-3.46-.86-1.43-1.3-3.03-1.3-4.8h0v-33.17h7.95v32.94c0,.49.19.92.56,1.3.37.36.81.54,1.3.54h23.87c.49,0,.92-.18,1.3-.54.36-.37.54-.81.54-1.3h0v-32.94h7.97v33.17c0,1.77-.43,3.37-1.3,4.8-.86,1.42-2.02,2.57-3.46,3.46-1.45.89-3.06,1.33-4.83,1.33h-24.32ZM402.49,516.5h-7.97v-42.75h7.97v42.75ZM402.49,467.72h-7.97v-7.97h7.97v7.97ZM427.46,516.5h0c-1.77,0-3.37-.44-4.78-1.33-1.43-.89-2.59-2.04-3.47-3.46-.89-1.43-1.33-3.03-1.33-4.8h0v-47.17h7.97v46.94c0,.49.19.92.56,1.3.36.36.79.54,1.28.54h7.74v7.97h-7.97ZM456.21,516.5h0c-1.77,0-3.38-.43-4.83-1.3-1.45-.85-2.6-2.02-3.46-3.49-.86-1.48-1.3-3.08-1.3-4.8h0v-23.58c0-1.77.43-3.37,1.3-4.78.85-1.43,2.01-2.59,3.46-3.47s3.06-1.33,4.83-1.33h25.94v-14h7.97v56.75h-33.9ZM456.5,508.53h23.89c.49,0,.91-.18,1.25-.54.34-.37.51-.81.51-1.3h0v-23.14c0-.49-.17-.92-.51-1.3-.34-.36-.76-.54-1.25-.54h-23.89c-.49,0-.92.18-1.28.54-.37.37-.56.81-.56,1.3h0v23.14c0,.49.19.92.56,1.3.36.36.79.54,1.28.54Z"/>
      <g class="cls-1">
        <rect class="cls-2" x="454.66" y="481.72" width="1.95" height="26.82"/>
        <rect class="cls-2" x="456.61" y="481.72" width="2.79" height="26.82"/>
        <rect class="cls-2" x="459.41" y="481.72" width="2.79" height="26.82"/>
        <rect class="cls-2" x="462.2" y="481.72" width="2.79" height="26.82"/>
        <rect class="cls-2" x="464.99" y="481.72" width="2.79" height="26.82"/>
        <rect class="cls-2" x="467.78" y="481.72" width="2.79" height="26.82"/>
        <rect class="cls-2" x="470.57" y="481.72" width="2.79" height="26.82"/>
        <rect class="cls-2" x="473.37" y="481.72" width="2.79" height="26.82"/>
        <rect class="cls-2" x="476.16" y="481.72" width="2.79" height="26.82"/>
        <rect class="cls-2" x="478.95" y="481.72" width="2.79" height="26.82"/>
        <rect class="cls-2" x="481.74" y="481.72" width=".41" height="26.82"/>
        <rect class="cls-2" x="446.63" y="459.75" width="1.61" height="56.75"/>
        <rect class="cls-2" x="448.24" y="459.75" width="2.79" height="56.75"/>
        <rect class="cls-2" x="451.03" y="459.75" width="2.79" height="56.75"/>
        <rect class="cls-2" x="453.82" y="459.75" width="2.79" height="56.75"/>
        <rect class="cls-2" x="456.61" y="459.75" width="2.79" height="56.75"/>
        <rect class="cls-2" x="459.41" y="459.75" width="2.79" height="56.75"/>
        <rect class="cls-2" x="462.2" y="459.75" width="2.79" height="56.75"/>
        <rect class="cls-2" x="464.99" y="459.75" width="2.79" height="56.75"/>
        <rect class="cls-2" x="467.78" y="459.75" width="2.79" height="56.75"/>
        <rect class="cls-2" x="470.57" y="459.75" width="2.79" height="56.75"/>
        <rect class="cls-2" x="473.37" y="459.75" width="2.79" height="56.75"/>
        <rect class="cls-2" x="476.16" y="459.75" width="2.79" height="56.75"/>
        <rect class="cls-2" x="478.95" y="459.75" width="2.79" height="56.75"/>
        <rect class="cls-2" x="481.74" y="459.75" width="2.79" height="56.75"/>
        <rect class="cls-2" x="484.53" y="459.75" width="2.79" height="56.75"/>
        <rect class="cls-2" x="487.33" y="459.75" width="2.79" height="56.75"/>
        <rect class="cls-2" x="417.88" y="459.75" width="2.44" height="56.75"/>
        <rect class="cls-2" x="420.32" y="459.75" width="2.79" height="56.75"/>
        <rect class="cls-2" x="423.11" y="459.75" width="2.79" height="56.75"/>
        <rect class="cls-2" x="425.9" y="459.75" width="2.79" height="56.75"/>
        <rect class="cls-2" x="428.69" y="459.75" width="2.79" height="56.75"/>
        <rect class="cls-2" x="431.48" y="459.75" width="2.79" height="56.75"/>
        <rect class="cls-2" x="434.28" y="459.75" width="1.15" height="56.75"/>
        <rect class="cls-2" x="394.52" y="459.75" width=".67" height="7.97"/>
        <rect class="cls-2" x="395.19" y="459.75" width="2.79" height="7.97"/>
        <rect class="cls-2" x="397.98" y="459.75" width="2.79" height="7.97"/>
        <rect class="cls-2" x="400.77" y="459.75" width="1.71" height="7.97"/>
        <rect class="cls-2" x="394.52" y="473.75" width=".67" height="42.75"/>
        <rect class="cls-2" x="395.19" y="473.75" width="2.79" height="42.75"/>
        <rect class="cls-2" x="397.98" y="473.75" width="2.79" height="42.75"/>
        <rect class="cls-2" x="400.77" y="473.75" width="1.71" height="42.75"/>
        <rect class="cls-2" x="336.74" y="473.75" width="2.6" height="42.75"/>
        <rect class="cls-2" x="339.35" y="473.75" width="2.79" height="42.75"/>
        <rect class="cls-2" x="342.14" y="473.75" width="2.79" height="42.75"/>
        <rect class="cls-2" x="344.93" y="473.75" width="2.79" height="42.75"/>
        <rect class="cls-2" x="347.72" y="473.75" width="2.79" height="42.75"/>
        <rect class="cls-2" x="350.51" y="473.75" width="2.79" height="42.75"/>
        <rect class="cls-2" x="353.31" y="473.75" width="2.79" height="42.75"/>
        <rect class="cls-2" x="356.1" y="473.75" width="2.79" height="42.75"/>
        <rect class="cls-2" x="358.89" y="473.75" width="2.79" height="42.75"/>
        <rect class="cls-2" x="361.68" y="473.75" width="2.79" height="42.75"/>
        <rect class="cls-2" x="364.47" y="473.75" width="2.79" height="42.75"/>
        <rect class="cls-2" x="367.27" y="473.75" width="2.79" height="42.75"/>
        <rect class="cls-2" x="370.06" y="473.75" width="2.79" height="42.75"/>
        <rect class="cls-2" x="372.85" y="473.75" width="2.79" height="42.75"/>
        <rect class="cls-2" x="375.64" y="473.75" width="2.79" height="42.75"/>
        <rect class="cls-2" x="378.44" y="473.75" width="1.8" height="42.75"/>
        <rect class="cls-2" x="277.19" y="471.4" width=".73" height="14.08"/>
        <rect class="cls-2" x="277.92" y="471.4" width="2.79" height="14.08"/>
        <rect class="cls-2" x="280.71" y="471.4" width="2.79" height="14.08"/>
        <rect class="cls-2" x="283.5" y="471.4" width="2.79" height="14.08"/>
        <rect class="cls-2" x="286.3" y="471.4" width="2.79" height="14.08"/>
        <rect class="cls-2" x="289.09" y="471.4" width="2.79" height="14.08"/>
        <rect class="cls-2" x="291.88" y="471.4" width="2.79" height="14.08"/>
        <rect class="cls-2" x="294.67" y="471.4" width="2.79" height="14.08"/>
        <rect class="cls-2" x="297.47" y="471.4" width="2.79" height="14.08"/>
        <rect class="cls-2" x="300.26" y="471.4" width="2.79" height="14.08"/>
        <rect class="cls-2" x="303.05" y="471.4" width="2.79" height="14.08"/>
        <rect class="cls-2" x="305.84" y="471.4" width="2.79" height="14.08"/>
        <rect class="cls-2" x="308.63" y="471.4" width="2.79" height="14.08"/>
        <rect class="cls-2" x="311.43" y="471.4" width=".63" height="14.08"/>
        <rect class="cls-2" x="277.19" y="493.43" width=".73" height="15.1"/>
        <rect class="cls-2" x="277.92" y="493.43" width="2.79" height="15.1"/>
        <rect class="cls-2" x="280.71" y="493.43" width="2.79" height="15.1"/>
        <rect class="cls-2" x="283.5" y="493.43" width="2.79" height="15.1"/>
        <rect class="cls-2" x="286.3" y="493.43" width="2.79" height="15.1"/>
        <rect class="cls-2" x="289.09" y="493.43" width="2.79" height="15.1"/>
        <rect class="cls-2" x="291.88" y="493.43" width="2.79" height="15.1"/>
        <rect class="cls-2" x="294.67" y="493.43" width="2.79" height="15.1"/>
        <rect class="cls-2" x="297.47" y="493.43" width="2.79" height="15.1"/>
        <rect class="cls-2" x="300.26" y="493.43" width="2.79" height="15.1"/>
        <rect class="cls-2" x="303.05" y="493.43" width="2.79" height="15.1"/>
        <rect class="cls-2" x="305.84" y="493.43" width="2.79" height="15.1"/>
        <rect class="cls-2" x="308.63" y="493.43" width="2.79" height="15.1"/>
        <rect class="cls-2" x="311.43" y="493.43" width="2.79" height="15.1"/>
        <rect class="cls-2" x="314.22" y="493.43" width=".05" height="15.1"/>
        <rect class="cls-2" x="269.24" y="463.43" width=".3" height="53.07"/>
        <rect class="cls-2" x="269.54" y="463.43" width="2.79" height="53.07"/>
        <rect class="cls-2" x="272.34" y="463.43" width="2.79" height="53.07"/>
        <rect class="cls-2" x="275.13" y="463.43" width="2.79" height="53.07"/>
        <rect class="cls-2" x="277.92" y="463.43" width="2.79" height="53.07"/>
        <rect class="cls-2" x="280.71" y="463.43" width="2.79" height="53.07"/>
        <rect class="cls-2" x="283.5" y="463.43" width="2.79" height="53.07"/>
        <rect class="cls-2" x="286.3" y="463.43" width="2.79" height="53.07"/>
        <rect class="cls-2" x="289.09" y="463.43" width="2.79" height="53.07"/>
        <rect class="cls-2" x="291.88" y="463.43" width="2.79" height="53.07"/>
        <rect class="cls-2" x="294.67" y="463.43" width="2.79" height="53.07"/>
        <rect class="cls-2" x="297.47" y="463.43" width="2.79" height="53.07"/>
        <rect class="cls-2" x="300.26" y="463.43" width="2.79" height="53.07"/>
        <rect class="cls-2" x="303.05" y="463.43" width="2.79" height="53.07"/>
        <rect class="cls-2" x="305.84" y="463.43" width="2.79" height="53.07"/>
        <rect class="cls-2" x="308.63" y="463.43" width="2.79" height="53.07"/>
        <rect class="cls-2" x="311.43" y="463.43" width="2.79" height="53.07"/>
        <rect class="cls-2" x="314.22" y="463.43" width="2.79" height="53.07"/>
        <rect class="cls-2" x="317.01" y="463.43" width="2.79" height="53.07"/>
        <rect class="cls-2" x="319.8" y="463.43" width="2.49" height="53.07"/>
        <rect class="cls-2" x="218.97" y="481.72" width=".32" height="9.95"/>
        <rect class="cls-2" x="219.29" y="481.72" width="2.79" height="9.95"/>
        <rect class="cls-2" x="222.08" y="481.72" width="2.79" height="9.95"/>
        <rect class="cls-2" x="224.87" y="481.72" width="2.79" height="9.95"/>
        <rect class="cls-2" x="227.66" y="481.72" width="2.79" height="9.95"/>
        <rect class="cls-2" x="230.46" y="481.72" width="2.79" height="9.95"/>
        <rect class="cls-2" x="233.25" y="481.72" width="2.79" height="9.95"/>
        <rect class="cls-2" x="236.04" y="481.72" width="2.79" height="9.95"/>
        <rect class="cls-2" x="238.83" y="481.72" width="2.79" height="9.95"/>
        <rect class="cls-2" x="241.62" y="481.72" width="2.79" height="9.95"/>
        <rect class="cls-2" x="244.42" y="481.72" width="2.04" height="9.95"/>
        <rect class="cls-2" x="211.02" y="473.75" width="2.69" height="42.75"/>
        <rect class="cls-2" x="213.7" y="473.75" width="2.79" height="42.75"/>
        <rect class="cls-2" x="216.5" y="473.75" width="2.79" height="42.75"/>
        <rect class="cls-2" x="219.29" y="473.75" width="2.79" height="42.75"/>
        <rect class="cls-2" x="222.08" y="473.75" width="2.79" height="42.75"/>
        <rect class="cls-2" x="224.87" y="473.75" width="2.79" height="42.75"/>
        <rect class="cls-2" x="227.66" y="473.75" width="2.79" height="42.75"/>
        <rect class="cls-2" x="230.46" y="473.75" width="2.79" height="42.75"/>
        <rect class="cls-2" x="233.25" y="473.75" width="2.79" height="42.75"/>
        <rect class="cls-2" x="236.04" y="473.75" width="2.79" height="42.75"/>
        <rect class="cls-2" x="238.83" y="473.75" width="2.79" height="42.75"/>
        <rect class="cls-2" x="241.62" y="473.75" width="2.79" height="42.75"/>
        <rect class="cls-2" x="244.42" y="473.75" width="2.79" height="42.75"/>
        <rect class="cls-2" x="247.21" y="473.75" width="2.79" height="42.75"/>
        <rect class="cls-2" x="250" y="473.75" width="2.79" height="42.75"/>
        <rect class="cls-2" x="252.79" y="473.75" width="1.7" height="42.75"/>
        <rect class="cls-2" x="133.62" y="473.75" width="1.9" height="42.75"/>
        <rect class="cls-2" x="135.53" y="473.75" width="2.79" height="42.75"/>
        <rect class="cls-2" x="138.32" y="473.75" width="2.79" height="42.75"/>
        <rect class="cls-2" x="141.11" y="473.75" width="2.79" height="42.75"/>
        <rect class="cls-2" x="143.9" y="473.75" width="2.79" height="42.75"/>
        <rect class="cls-2" x="146.69" y="473.75" width="2.79" height="42.75"/>
        <rect class="cls-2" x="149.49" y="473.75" width="2.79" height="42.75"/>
        <rect class="cls-2" x="152.28" y="473.75" width="2.79" height="42.75"/>
        <rect class="cls-2" x="155.07" y="473.75" width="2.79" height="42.75"/>
        <rect class="cls-2" x="157.86" y="473.75" width="2.79" height="42.75"/>
        <rect class="cls-2" x="160.65" y="473.75" width="2.79" height="42.75"/>
        <rect class="cls-2" x="163.45" y="473.75" width="2.79" height="42.75"/>
        <rect class="cls-2" x="166.24" y="473.75" width="2.79" height="42.75"/>
        <rect class="cls-2" x="169.03" y="473.75" width="2.79" height="42.75"/>
        <rect class="cls-2" x="171.82" y="473.75" width="2.79" height="42.75"/>
        <rect class="cls-2" x="174.61" y="473.75" width="2.79" height="42.75"/>
        <rect class="cls-2" x="177.41" y="473.75" width="2.79" height="42.75"/>
        <rect class="cls-2" x="180.2" y="473.75" width="2.79" height="42.75"/>
        <rect class="cls-2" x="182.99" y="473.75" width="2.79" height="42.75"/>
        <rect class="cls-2" x="185.78" y="473.75" width="2.79" height="42.75"/>
        <rect class="cls-2" x="188.57" y="473.75" width="2.79" height="42.75"/>
        <rect class="cls-2" x="191.37" y="473.75" width="2.79" height="42.75"/>
        <rect class="cls-2" x="194.16" y="473.75" width="2.79" height="42.75"/>
        <rect class="cls-2" x="196.95" y="473.75" width=".87" height="42.75"/>
        <rect class="cls-2" x="85.35" y="498.6" width="2.71" height="9.94"/>
        <rect class="cls-2" x="88.06" y="498.6" width="2.79" height="9.94"/>
        <rect class="cls-2" x="90.85" y="498.6" width="2.79" height="9.94"/>
        <rect class="cls-2" x="93.64" y="498.6" width="2.79" height="9.94"/>
        <rect class="cls-2" x="96.44" y="498.6" width="2.79" height="9.94"/>
        <rect class="cls-2" x="99.23" y="498.6" width="2.79" height="9.94"/>
        <rect class="cls-2" x="102.02" y="498.6" width="2.79" height="9.94"/>
        <rect class="cls-2" x="104.81" y="498.6" width="2.79" height="9.94"/>
        <rect class="cls-2" x="107.6" y="498.6" width="2.79" height="9.94"/>
        <rect class="cls-2" x="110.4" y="498.6" width="2.44" height="9.94"/>
        <rect class="cls-2" x="77.39" y="473.75" width="2.3" height="42.75"/>
        <rect class="cls-2" x="79.68" y="473.75" width="2.79" height="42.75"/>
        <rect class="cls-2" x="82.48" y="473.75" width="2.79" height="42.75"/>
        <rect class="cls-2" x="85.27" y="473.75" width="2.79" height="42.75"/>
        <rect class="cls-2" x="88.06" y="473.75" width="2.79" height="42.75"/>
        <rect class="cls-2" x="90.85" y="473.75" width="2.79" height="42.75"/>
        <rect class="cls-2" x="93.64" y="473.75" width="2.79" height="42.75"/>
        <rect class="cls-2" x="96.44" y="473.75" width="2.79" height="42.75"/>
        <rect class="cls-2" x="99.23" y="473.75" width="2.79" height="42.75"/>
        <rect class="cls-2" x="102.02" y="473.75" width="2.79" height="42.75"/>
        <rect class="cls-2" x="104.81" y="473.75" width="2.79" height="42.75"/>
        <rect class="cls-2" x="107.6" y="473.75" width="2.79" height="42.75"/>
        <rect class="cls-2" x="110.4" y="473.75" width="2.79" height="42.75"/>
        <rect class="cls-2" x="113.19" y="473.75" width="2.79" height="42.75"/>
        <rect class="cls-2" x="115.98" y="473.75" width="2.79" height="42.75"/>
        <rect class="cls-2" x="118.77" y="473.75" width="2.1" height="42.75"/>
        <rect class="cls-2" x="9.88" y="463.43" width="2.79" height="53.07"/>
        <rect class="cls-2" x="12.67" y="463.43" width="2.79" height="53.07"/>
        <rect class="cls-2" x="15.47" y="463.43" width="2.79" height="53.07"/>
        <rect class="cls-2" x="18.26" y="463.43" width="2.79" height="53.07"/>
        <rect class="cls-2" x="21.05" y="463.43" width="2.79" height="53.07"/>
        <rect class="cls-2" x="23.84" y="463.43" width="2.79" height="53.07"/>
        <rect class="cls-2" x="26.63" y="463.43" width="2.79" height="53.07"/>
        <rect class="cls-2" x="29.43" y="463.43" width="2.79" height="53.07"/>
        <rect class="cls-2" x="32.22" y="463.43" width="2.79" height="53.07"/>
        <rect class="cls-2" x="35.01" y="463.43" width="2.79" height="53.07"/>
        <rect class="cls-2" x="37.8" y="463.43" width="2.79" height="53.07"/>
        <rect class="cls-2" x="40.59" y="463.43" width="2.79" height="53.07"/>
        <rect class="cls-2" x="43.39" y="463.43" width="2.79" height="53.07"/>
        <rect class="cls-2" x="46.18" y="463.43" width="2.79" height="53.07"/>
        <rect class="cls-2" x="48.97" y="463.43" width="2.79" height="53.07"/>
        <rect class="cls-2" x="51.76" y="463.43" width="2.79" height="53.07"/>
        <rect class="cls-2" x="54.56" y="463.43" width="2.79" height="53.07"/>
        <rect class="cls-2" x="57.35" y="463.43" width="2.79" height="53.07"/>
        <rect class="cls-2" x="60.14" y="463.43" width="2.79" height="53.07"/>
        <rect class="cls-2" x="62.93" y="463.43" width="0" height="53.07"/>
      </g>
    </g>
  </g>
  <g>
    <path class="cls-2" d="M80.67,410.61c-2.28,0-4.73-.04-7.43-.16-24.43-1.03-43.87-12.23-54.73-31.54-7.86-13.97-8.57-27.61-8.62-29.12,0-.23-.01-.46-.01-.69V73.19c0-26.46,10.49-42.03,19.28-50.43C47.44,5.3,71.46,5.01,76.15,5.14h202.23c10.63,0,19.25,8.62,19.25,19.25s-8.62,19.25-19.25,19.25H75.84c-.29,0-.59,0-.88-.02.1,0-11.9-.17-19.36,7.14-4.78,4.68-7.2,12.23-7.2,22.43v275.39c.48,6.71,4.08,22.46,26.48,23.4,5.07.21,8.96.11,13.14-.03,13.43-.45,21.32-6.9,30.3-17.9,3.96-5.32,52.94-71.18,70.38-94.48l.95-1.27c8.34-11.21,25.69-34.55,57.77-34.55s49.16,23.22,56.11,33.13c4.46,6.37,14.99,21,21.4,29.64,6.42,8.67,11.32,13.1,17.48,15.8,11.79,5.17,22.78,4.3,33.6-2.65,25.33-16.28,16.1-44.75,14.97-47.94-.05-.15-.16-.46-.21-.61-.15-.45-14.72-44.84-19.5-58.12-.81-2.26-1.6-4.52-2.39-6.8-5.84-16.73-10.89-31.18-22.68-40.12-8.48-6.42-10.14-18.5-3.72-26.97,6.42-8.47,18.49-10.14,26.97-3.72,21.06,15.96,28.88,38.36,35.78,58.12.76,2.16,1.51,4.33,2.28,6.47,4.78,13.3,18.25,54.28,19.73,58.78,7.65,20.89,10.99,66.67-30.41,93.29-21.88,14.07-46.04,15.98-69.88,5.53-15.81-6.93-25.54-18.12-32.97-28.15-6.68-9.02-17.3-23.78-21.98-30.45-6.65-9.49-12.68-16.74-24.58-16.74s-18.86,8.24-26.88,19.02l-1.02,1.37c-18.16,24.27-70.56,94.73-70.57,94.74-.16.22-.33.44-.5.65-11.83,14.56-29.24,31.4-59.14,32.41-2.67.09-5.49.17-8.63.17Z"/>
    <path class="cls-2" d="M428.51,410.47h-238.98c-10.63,0-19.25-8.62-19.25-19.25s8.62-19.25,19.25-19.25h237.63c6.43-1.08,24.17-6.45,24.17-32.04V69.67c0-11.9-3.96-26.08-22.82-26.08h-29.24c-.92,0-1.97-.02-3.12-.04-10.69-.21-26.92-.53-41.28,17.4-2.7,3.59-37.98,50.45-50.13,66.43-7.5,9.86-25.07,32.96-55.23,32.96-27.43,0-43.67-17.14-52.39-26.35-8.87-9.36-15.65-11.11-25.11-11.11-8.56,0-19.12,4.69-23.18,17.84-1.37,5.11-19.24,71.75-30.39,115.42-2.9,11.37.16,26.49,2.86,30.04,6.44,8.46,4.79,20.54-3.67,26.98-8.48,6.44-20.55,4.79-26.98-3.67-11.98-15.76-14.25-44.34-9.52-62.87,11.59-45.44,30.4-115.49,30.59-116.19.05-.19.1-.37.16-.55,8.19-27.22,32.35-45.5,60.13-45.5,14.5,0,33.62,2.61,52.92,22.98,8.08,8.53,14.48,14.47,24.58,14.47s17.46-8.4,24.58-17.77c12.61-16.57,50.17-66.48,50.17-66.49.1-.14.21-.27.31-.4,26.25-33.02,59.75-32.37,72.32-32.12.87.02,31.6.03,31.6.03,36.11,0,61.33,26.56,61.33,64.58v270.26c0,50.59-38.75,68.19-59.24,70.43-.69.08-1.39.11-2.09.11Z"/>
  </g>
</svg>