<?xml version="1.0" encoding="UTF-8"?>
<svg id="_레이어_1" data-name="레이어 1" xmlns="http://www.w3.org/2000/svg" xmlns:xlink="http://www.w3.org/1999/xlink" viewBox="0 0 1000 145">
  <defs>
    <style>
      .cls-1 {
        clip-path: url(#clippath-1);
      }

      .cls-2 {
        fill: #fff;
      }

      .cls-3 {
        clip-path: url(#clippath);
      }
    </style>
    <clipPath id="clippath">
      <path class="cls-2" d="M233,141.43h0c-1.76,0-3.37-.28-4.84-.85-1.45-.57-2.73-1.37-3.83-2.41-1.09-1.03-1.93-2.26-2.54-3.67-.59-1.41-.88-2.96-.88-4.63h0c0-1.66.29-3.19.88-4.61.6-1.41,1.46-2.64,2.56-3.67,1.1-1.03,2.39-1.84,3.86-2.41,1.48-.57,3.1-.85,4.86-.85h0c1.9,0,3.61.31,5.15.93,1.52.62,2.8,1.53,3.86,2.72h0l-2.64,2.59c-.86-.88-1.8-1.53-2.82-1.94-1.02-.43-2.14-.65-3.36-.65h0c-1.17,0-2.26.2-3.26.6-1.02.38-1.89.92-2.61,1.63-.72.71-1.29,1.54-1.68,2.51-.4.95-.6,2-.6,3.16h0c0,1.14.2,2.19.6,3.16s.96,1.8,1.68,2.51c.72.72,1.58,1.28,2.56,1.66.98.4,2.08.6,3.29.6h0c1.1,0,2.17-.18,3.21-.54,1.05-.34,2.04-.94,2.98-1.79h0l2.38,3.13c-1.17.93-2.54,1.64-4.09,2.12-1.55.48-3.12.72-4.71.72ZM241.8,138.58l-3.96-.57v-8.38h3.96v8.95ZM254.5,141.12h-4.29l10.12-22.48h4.09l10.14,22.48h-4.35l-8.72-20.26h1.68l-8.67,20.26ZM269.22,135.92h-14.36l1.11-3.29h12.13l1.11,3.29ZM287.49,141.12h-3.98v-22.48h3.44l9.81,16.4h-1.79l9.65-16.4h3.44l.03,22.48h-3.93l-.05-16.27h.85l-8.23,13.69h-1.86l-8.33-13.69h.96v16.27ZM324.1,131.41v-3.44h11.18v3.44h-11.18ZM324.41,122.15v15.45h12.68v3.52h-16.84v-22.48h16.4v3.52h-12.24ZM366.97,141.12h-4.17v-22.48h4.17v22.48ZM383.27,141.12h-4.14v-22.48h3.44l14.07,17.31h-1.71v-17.31h4.14v22.48h-3.42l-14.1-17.31h1.71v17.31ZM415.04,132.5v-3.52h11.2v3.52h-11.2ZM415.38,122.15v18.96h-4.17v-22.48h16.4v3.52h-12.24ZM441.93,141.12h-4.17v-22.48h9.24c1.98,0,3.69.33,5.12.98,1.41.64,2.51,1.55,3.29,2.74.78,1.21,1.16,2.63,1.16,4.27h0c0,1.66-.39,3.08-1.16,4.27-.78,1.17-1.87,2.08-3.29,2.72-1.43.64-3.14.96-5.12.96h-6.93l1.86-1.91v8.46ZM456.93,141.12h-4.48l-5.69-8.15h4.48l5.69,8.15ZM441.93,120.11v13.01l-1.86-1.99h6.75c1.83,0,3.21-.4,4.14-1.19.93-.79,1.4-1.9,1.4-3.31h0c0-1.43-.47-2.54-1.4-3.31-.93-.76-2.31-1.14-4.14-1.14h-6.75l1.86-2.07ZM468.42,141.12h-4.29l10.12-22.48h4.11l10.14,22.48h-4.37l-8.69-20.26h1.66l-8.67,20.26ZM483.17,135.92h-14.39l1.11-3.29h12.13l1.14,3.29ZM504.41,141.43h0c-1.76,0-3.44-.25-5.05-.75-1.6-.5-2.88-1.15-3.83-1.94h0l1.45-3.26c.9.71,2.01,1.3,3.34,1.79,1.33.47,2.69.7,4.09.7h0c1.17,0,2.12-.13,2.85-.39.72-.26,1.26-.6,1.6-1.03.34-.45.52-.95.52-1.5h0c0-.69-.25-1.24-.75-1.66-.48-.41-1.11-.74-1.89-.98-.79-.24-1.66-.47-2.61-.7-.95-.21-1.9-.46-2.85-.75-.95-.29-1.82-.66-2.61-1.11-.78-.47-1.41-1.09-1.89-1.86-.5-.76-.75-1.74-.75-2.95h0c0-1.22.33-2.34.98-3.34.66-1.02,1.65-1.84,2.98-2.46,1.35-.6,3.04-.91,5.1-.91h0c1.35,0,2.68.17,4.01.52,1.33.34,2.48.84,3.47,1.47h0l-1.32,3.23c-1-.6-2.04-1.04-3.1-1.32-1.07-.29-2.1-.44-3.08-.44h0c-1.16,0-2.1.14-2.82.41-.72.28-1.25.64-1.58,1.09-.33.45-.49.97-.49,1.55h0c0,.67.24,1.22.72,1.66.48.41,1.11.73,1.89.96.78.24,1.65.47,2.61.7s1.92.47,2.87.75c.95.28,1.82.64,2.61,1.09.78.45,1.41,1.06,1.89,1.84.48.78.72,1.75.72,2.92h0c0,1.19-.33,2.29-.98,3.31-.66,1.02-1.66,1.84-3,2.46-1.35.6-3.04.91-5.1.91ZM532.46,141.12h-4.19v-18.94h-7.43v-3.54h19.04v3.54h-7.43v18.94ZM553.31,141.12h-4.17v-22.48h9.24c1.98,0,3.69.33,5.12.98,1.41.64,2.51,1.55,3.29,2.74.76,1.21,1.14,2.63,1.14,4.27h0c0,1.66-.38,3.08-1.14,4.27-.78,1.17-1.87,2.08-3.29,2.72-1.43.64-3.14.96-5.12.96h-6.93l1.86-1.91v8.46ZM568.32,141.12h-4.48l-5.69-8.15h4.45l5.72,8.15ZM553.31,120.11v13.01l-1.86-1.99h6.73c1.85,0,3.23-.4,4.17-1.19.93-.79,1.4-1.9,1.4-3.31h0c0-1.43-.47-2.54-1.4-3.31-.93-.76-2.32-1.14-4.17-1.14h-6.73l1.86-2.07ZM588.34,141.43h0c-3.09,0-5.5-.87-7.24-2.61-1.74-1.72-2.61-4.23-2.61-7.5h0v-12.68h4.19v12.52c0,2.31.49,3.99,1.47,5.05,1,1.05,2.41,1.58,4.22,1.58h0c1.83,0,3.23-.53,4.22-1.58.98-1.05,1.47-2.73,1.47-5.05h0v-12.52h4.11v12.68c0,3.28-.88,5.78-2.64,7.5-1.74,1.74-4.14,2.61-7.19,2.61ZM620.5,141.43h0c-1.71,0-3.29-.28-4.76-.85-1.47-.57-2.74-1.37-3.83-2.41-1.09-1.03-1.92-2.26-2.51-3.67-.6-1.41-.91-2.96-.91-4.63h0c0-1.66.3-3.19.91-4.61.59-1.41,1.43-2.64,2.54-3.67,1.09-1.03,2.35-1.84,3.8-2.41,1.47-.57,3.06-.85,4.79-.85h0c1.85,0,3.53.32,5.05.96,1.52.62,2.8,1.55,3.86,2.79h0l-2.72,2.54c-.81-.88-1.72-1.54-2.72-1.97-1-.45-2.1-.67-3.29-.67h0c-1.17,0-2.24.2-3.21.6-.98.38-1.83.92-2.54,1.63-.72.71-1.29,1.54-1.68,2.51-.4.95-.6,2-.6,3.16h0c0,1.16.2,2.22.6,3.18.4.97.96,1.8,1.68,2.51.71.71,1.55,1.25,2.54,1.63.97.4,2.04.6,3.21.6h0c1.19,0,2.29-.22,3.29-.67,1-.43,1.91-1.1,2.72-1.99h0l2.72,2.56c-1.05,1.22-2.34,2.16-3.86,2.79-1.52.64-3.21.96-5.07.96ZM648.26,141.12h-4.19v-18.94h-7.43v-3.54h19.04v3.54h-7.43v18.94ZM674.6,141.43h0c-3.09,0-5.5-.87-7.24-2.61-1.74-1.72-2.61-4.23-2.61-7.5h0v-12.68h4.17v12.52c0,2.31.5,3.99,1.5,5.05,1,1.05,2.41,1.58,4.22,1.58h0c1.81,0,3.21-.53,4.19-1.58.98-1.05,1.47-2.73,1.47-5.05h0v-12.52h4.11v12.68c0,3.28-.87,5.78-2.61,7.5-1.74,1.74-4.14,2.61-7.19,2.61ZM700.53,141.12h-4.17v-22.48h9.24c1.98,0,3.69.33,5.12.98,1.41.64,2.51,1.55,3.29,2.74.76,1.21,1.14,2.63,1.14,4.27h0c0,1.66-.38,3.08-1.14,4.27-.78,1.17-1.87,2.08-3.29,2.72-1.43.64-3.14.96-5.12.96h-6.93l1.86-1.91v8.46ZM715.53,141.12h-4.48l-5.69-8.15h4.45l5.72,8.15ZM700.53,120.11v13.01l-1.86-1.99h6.73c1.85,0,3.23-.4,4.17-1.19.93-.79,1.4-1.9,1.4-3.31h0c0-1.43-.47-2.54-1.4-3.31-.93-.76-2.32-1.14-4.17-1.14h-6.73l1.86-2.07ZM729.77,131.41v-3.44h11.15v3.44h-11.15ZM730.08,122.15v15.45h12.68v3.52h-16.84v-22.48h16.4v3.52h-12.24ZM772.64,141.12h-4.19v-22.48h9.24c2,0,3.71.33,5.12.98,1.43.64,2.53,1.55,3.29,2.74.78,1.21,1.16,2.63,1.16,4.27h0c0,1.66-.39,3.08-1.16,4.27-.76,1.21-1.85,2.13-3.29,2.77-1.41.64-3.12.96-5.12.96h-6.91l1.86-1.97v8.46ZM772.64,120.11v13.01l-1.86-2.02h6.73c1.85,0,3.23-.4,4.17-1.19.93-.78,1.4-1.87,1.4-3.29h0c0-1.43-.47-2.54-1.4-3.31-.93-.76-2.32-1.14-4.17-1.14h-6.73l1.86-2.07ZM802.03,141.12h-4.19v-22.48h9.24c2,0,3.71.33,5.12.98,1.43.64,2.53,1.55,3.29,2.74.78,1.21,1.16,2.63,1.16,4.27h0c0,1.66-.39,3.08-1.16,4.27-.76,1.17-1.85,2.08-3.29,2.72-1.41.64-3.12.96-5.12.96h-6.91l1.86-1.91v8.46ZM817.04,141.12h-4.5l-5.67-8.15h4.45l5.72,8.15ZM802.03,120.11v13.01l-1.86-1.99h6.73c1.85,0,3.23-.4,4.17-1.19.93-.79,1.4-1.9,1.4-3.31h0c0-1.43-.47-2.54-1.4-3.31-.93-.76-2.32-1.14-4.17-1.14h-6.73l1.86-2.07ZM837.91,141.43h0c-1.74,0-3.35-.29-4.84-.88-1.48-.57-2.77-1.37-3.86-2.41-1.09-1.03-1.93-2.26-2.54-3.67-.59-1.4-.88-2.93-.88-4.61h0c0-1.66.29-3.19.88-4.61.6-1.4,1.45-2.61,2.54-3.65,1.09-1.03,2.37-1.85,3.86-2.43,1.48-.57,3.09-.85,4.81-.85h0c1.76,0,3.37.28,4.84.85,1.47.59,2.74,1.4,3.83,2.43,1.09,1.03,1.93,2.25,2.54,3.65.6,1.41.91,2.95.91,4.61h0c0,1.67-.3,3.22-.91,4.63-.6,1.41-1.45,2.63-2.54,3.65-1.09,1.03-2.36,1.84-3.83,2.41-1.47.59-3.07.88-4.81.88ZM837.89,137.78h0c1.14,0,2.19-.2,3.16-.6.95-.38,1.78-.93,2.48-1.66.71-.71,1.26-1.54,1.66-2.48.4-.97.6-2.03.6-3.18h0c0-1.16-.2-2.21-.6-3.16-.4-.95-.95-1.78-1.66-2.48-.71-.72-1.54-1.28-2.48-1.66-.97-.4-2.02-.6-3.16-.6h0c-1.14,0-2.18.2-3.13.6-.95.38-1.79.93-2.51,1.66-.71.71-1.26,1.54-1.66,2.48-.4.95-.6,2-.6,3.16h0c0,1.14.2,2.19.6,3.16.4.97.95,1.8,1.66,2.51.71.72,1.54,1.28,2.51,1.66.95.4,1.99.6,3.13.6ZM869.25,141.12h-4.17v-18.94h-7.45v-3.54h19.04v3.54h-7.43v18.94ZM896.44,141.43h0c-1.74,0-3.35-.29-4.84-.88-1.47-.57-2.75-1.37-3.86-2.41-1.09-1.03-1.93-2.26-2.54-3.67-.59-1.4-.88-2.93-.88-4.61h0c0-1.66.29-3.19.88-4.61.6-1.4,1.45-2.61,2.54-3.65,1.1-1.03,2.39-1.85,3.86-2.43,1.48-.57,3.09-.85,4.81-.85h0c1.76,0,3.37.28,4.84.85,1.47.59,2.74,1.4,3.83,2.43,1.09,1.03,1.93,2.25,2.54,3.65.6,1.41.91,2.95.91,4.61h0c0,1.67-.3,3.22-.91,4.63-.6,1.41-1.45,2.63-2.54,3.65-1.09,1.03-2.36,1.84-3.83,2.41-1.47.59-3.07.88-4.81.88ZM896.41,137.78h0c1.14,0,2.19-.2,3.16-.6.97-.38,1.79-.93,2.48-1.66.71-.71,1.26-1.54,1.66-2.48.4-.97.6-2.03.6-3.18h0c0-1.16-.2-2.21-.6-3.16-.4-.95-.95-1.78-1.66-2.48-.69-.72-1.52-1.28-2.48-1.66-.97-.4-2.02-.6-3.16-.6h0c-1.14,0-2.18.2-3.13.6-.95.38-1.78.93-2.48,1.66-.72.71-1.28,1.54-1.68,2.48-.4.95-.6,2-.6,3.16h0c0,1.14.2,2.19.6,3.16.4.97.95,1.8,1.66,2.51.71.72,1.54,1.28,2.51,1.66.95.4,1.99.6,3.13.6ZM929.43,141.43h0c-1.71,0-3.29-.28-4.76-.85-1.47-.57-2.73-1.37-3.8-2.41-1.09-1.03-1.93-2.26-2.54-3.67-.59-1.41-.88-2.96-.88-4.63h0c0-1.66.29-3.19.88-4.61.6-1.41,1.45-2.64,2.54-3.67,1.09-1.03,2.36-1.84,3.83-2.41,1.45-.57,3.04-.85,4.79-.85h0c1.83,0,3.5.32,5.02.96,1.52.62,2.8,1.55,3.86,2.79h0l-2.69,2.54c-.81-.88-1.72-1.54-2.72-1.97-1.02-.45-2.11-.67-3.29-.67h0c-1.17,0-2.25.2-3.23.6-.97.38-1.81.92-2.54,1.63-.71.71-1.26,1.54-1.66,2.51-.4.95-.6,2-.6,3.16h0c0,1.16.2,2.22.6,3.18.4.97.95,1.8,1.66,2.51.72.71,1.57,1.25,2.54,1.63.98.4,2.06.6,3.23.6h0c1.17,0,2.27-.22,3.29-.67,1-.43,1.91-1.1,2.72-1.99h0l2.69,2.56c-1.05,1.22-2.34,2.16-3.86,2.79-1.52.64-3.21.96-5.07.96ZM959,141.43h0c-1.76,0-3.38-.29-4.86-.88-1.47-.57-2.75-1.37-3.86-2.41-1.09-1.03-1.93-2.26-2.54-3.67-.59-1.4-.88-2.93-.88-4.61h0c0-1.66.29-3.19.88-4.61.6-1.4,1.45-2.61,2.54-3.65,1.1-1.03,2.39-1.85,3.86-2.43,1.48-.57,3.09-.85,4.81-.85h0c1.76,0,3.37.28,4.84.85,1.47.59,2.74,1.4,3.83,2.43,1.09,1.03,1.93,2.25,2.54,3.65.6,1.41.91,2.95.91,4.61h0c0,1.67-.3,3.22-.91,4.63-.6,1.41-1.45,2.63-2.54,3.65-1.09,1.03-2.36,1.84-3.83,2.41-1.47.59-3.06.88-4.79.88ZM958.95,137.78h0c1.14,0,2.19-.2,3.16-.6.97-.38,1.8-.93,2.51-1.66.71-.71,1.25-1.54,1.63-2.48.4-.97.6-2.03.6-3.18h0c0-1.16-.2-2.21-.6-3.16-.38-.95-.92-1.78-1.63-2.48-.71-.72-1.54-1.28-2.51-1.66-.97-.4-2.02-.6-3.16-.6h0c-1.12,0-2.16.2-3.13.6-.95.38-1.78.93-2.48,1.66-.72.71-1.29,1.54-1.68,2.48-.4.95-.6,2-.6,3.16h0c0,1.14.2,2.19.6,3.16.4.97.95,1.8,1.66,2.51.71.72,1.54,1.28,2.51,1.66.97.4,2.01.6,3.13.6ZM997.5,141.12h-15.91v-22.48h4.17v18.94h11.75v3.54Z"/>
    </clipPath>
    <clipPath id="clippath-1">
      <path class="cls-2" d="M291.11,95.34h-54.7c-2.86,0-5.47-.7-7.81-2.1-2.35-1.38-4.21-3.24-5.59-5.59-1.4-2.35-2.1-4.95-2.1-7.81h0V25.02c0-2.86.7-5.46,2.1-7.79,1.38-2.35,3.24-4.22,5.59-5.61,2.35-1.4,4.95-2.1,7.81-2.1h54.7c2.86,0,5.49.7,7.87,2.1,2.38,1.4,4.27,3.27,5.67,5.61,1.38,2.33,2.07,4.92,2.07,7.79h0v5.12h-12.99v-4.76c0-.79-.28-1.49-.83-2.1-.55-.59-1.27-.88-2.15-.88h-53.97c-.79,0-1.49.29-2.1.88-.6.6-.91,1.3-.91,2.1h0v54.1c0,.79.3,1.49.91,2.1.6.59,1.3.88,2.1.88h53.97c.88,0,1.6-.29,2.15-.88.55-.6.83-1.3.83-2.1h0v-18.21h-20.26v-13.01h33.25v31.59c0,2.86-.69,5.47-2.07,7.81-1.4,2.35-3.29,4.21-5.67,5.59-2.38,1.4-5,2.1-7.87,2.1h0ZM400.4,95.34h-54.83c-2.86,0-5.47-.72-7.81-2.15-2.33-1.43-4.19-3.29-5.59-5.59-1.4-2.31-2.1-4.9-2.1-7.76h0v-25.51h57.33v-12.26c0-.79-.28-1.49-.83-2.1-.57-.59-1.25-.88-2.04-.88h-54.46v-12.88h54.83c2.86,0,5.47.7,7.81,2.1,2.35,1.4,4.21,3.29,5.59,5.67,1.4,2.38,2.1,4.96,2.1,7.74h0v53.63ZM345.94,82.46h41.47v-16.07h-44.45v13.09c0,.79.29,1.49.88,2.1.6.59,1.3.88,2.1.88ZM434.01,95.34h-12.99V26.21h88.3c2.95,0,5.57.72,7.87,2.15,2.31,1.43,4.16,3.3,5.54,5.61,1.4,2.29,2.1,4.87,2.1,7.74h0v53.63h-12.76v-53.27c0-.79-.29-1.49-.88-2.1-.6-.59-1.3-.88-2.1-.88h-26.57c-.88,0-1.6.29-2.15.88-.55.6-.83,1.3-.83,2.1h0v53.27h-12.99v-53.27c0-.79-.3-1.49-.91-2.1-.6-.59-1.3-.88-2.1-.88h-26.68c-.79,0-1.47.29-2.04.88-.55.6-.83,1.3-.83,2.1h0v53.27ZM561.64,95.34h0c-2.85,0-5.42-.72-7.74-2.15-2.31-1.43-4.18-3.29-5.61-5.59-1.41-2.31-2.12-4.9-2.12-7.76h0v-38.14c0-2.86.71-5.44,2.12-7.74,1.43-2.31,3.3-4.18,5.61-5.61,2.31-1.43,4.89-2.15,7.74-2.15h39.33c2.86,0,5.47.7,7.81,2.1,2.35,1.4,4.22,3.29,5.61,5.67,1.38,2.38,2.07,4.96,2.07,7.74h0v25.51h-57.44v12.26c0,.79.3,1.49.91,2.1.59.59,1.28.88,2.07.88h54.46v12.88h-54.83ZM559.03,42.07v13.12h44.45v-13.12c0-.79-.28-1.49-.83-2.1-.55-.59-1.22-.88-2.02-.88h-38.63c-.79,0-1.48.29-2.07.88-.6.6-.91,1.3-.91,2.1h0ZM640.32,95.34h0V9.52h66.73c2.78,0,5.36.7,7.76,2.1,2.38,1.4,4.26,3.27,5.64,5.61,1.4,2.33,2.1,4.92,2.1,7.79h0v17.52c0,1.03-.1,2.07-.31,3.1-.19,1.03-.53,1.99-1.01,2.87h0c1.59,2.23,2.8,4.31,3.65,6.26.83,1.93,1.24,3.9,1.24,5.9h0v19.17c0,2.86-.7,5.47-2.1,7.81-1.38,2.35-3.26,4.21-5.64,5.59-2.38,1.4-5,2.1-7.87,2.1h-70.19ZM656.16,82.46h54c.88,0,1.6-.29,2.15-.88.55-.6.83-1.3.83-2.1h0v-18.47c0-.79-.28-1.48-.83-2.07-.55-.6-1.27-.91-2.15-.91h-54c-.79,0-1.48.3-2.07.91-.6.59-.91,1.28-.91,2.07h0v18.47c0,.79.3,1.49.91,2.1.59.59,1.28.88,2.07.88ZM656.16,45.18h50.53c.79,0,1.47-.3,2.04-.91.55-.59.83-1.28.83-2.07h0v-16.82c0-.79-.28-1.49-.83-2.1-.57-.59-1.25-.88-2.04-.88h-50.53c-.79,0-1.48.29-2.07.88-.6.6-.91,1.3-.91,2.1h0v16.82c0,.79.3,1.48.91,2.07.59.6,1.28.91,2.07.91ZM764.98,95.34h0c-2.86,0-5.47-.72-7.81-2.15-2.35-1.43-4.21-3.29-5.59-5.59-1.4-2.31-2.1-4.9-2.1-7.76h0V26.21h12.86v53.27c0,.79.3,1.49.91,2.1.6.59,1.3.88,2.1.88h38.6c.79,0,1.49-.29,2.1-.88.59-.6.88-1.3.88-2.1h0V26.21h12.88v53.63c0,2.86-.7,5.45-2.1,7.76-1.4,2.29-3.26,4.16-5.59,5.59-2.35,1.43-4.95,2.15-7.81,2.15h-39.33ZM855.79,95.34h-12.88V26.21h12.88v69.13ZM855.79,16.46h-12.88V3.57h12.88v12.88ZM896.18,95.34h0c-2.86,0-5.44-.72-7.74-2.15-2.31-1.43-4.18-3.29-5.61-5.59-1.43-2.31-2.15-4.9-2.15-7.76h0V3.57h12.88v75.91c0,.79.3,1.49.91,2.1.59.59,1.28.88,2.07.88h12.52v12.88h-12.88ZM942.67,95.34h0c-2.86,0-5.47-.7-7.81-2.1-2.35-1.38-4.21-3.26-5.59-5.64-1.4-2.4-2.1-4.98-2.1-7.76h0v-38.14c0-2.86.7-5.44,2.1-7.74,1.38-2.31,3.24-4.18,5.59-5.61,2.35-1.43,4.95-2.15,7.81-2.15h41.94V3.57h12.88v91.77h-54.83ZM943.14,82.46h38.63c.79,0,1.47-.29,2.02-.88.55-.6.83-1.3.83-2.1h0v-37.41c0-.79-.28-1.49-.83-2.1-.55-.59-1.22-.88-2.02-.88h-38.63c-.79,0-1.48.29-2.07.88-.6.6-.91,1.3-.91,2.1h0v37.41c0,.79.3,1.49.91,2.1.59.59,1.28.88,2.07.88Z"/>
    </clipPath>
  </defs>
  <g>
    <path class="cls-2" d="M26.56,141.43c-.78,0-1.61-.01-2.52-.05-8.3-.35-14.91-4.16-18.6-10.72-2.67-4.75-2.91-9.39-2.93-9.9,0-.08,0-.16,0-.24V26.75c0-8.99,3.56-14.28,6.55-17.14,6.21-5.93,14.37-6.03,15.97-5.99h68.73c3.61,0,6.54,2.93,6.54,6.54s-2.93,6.54-6.54,6.54H24.92c-.1,0-.2,0-.3,0,.03,0-4.04-.06-6.58,2.43-1.62,1.59-2.45,4.16-2.45,7.62v93.6c.16,2.28,1.39,7.63,9,7.95,1.72.07,3.04.04,4.47,0,4.56-.15,7.24-2.35,10.3-6.08,1.34-1.81,17.99-24.19,23.92-32.11l.32-.43c2.83-3.81,8.73-11.74,19.64-11.74s16.71,7.89,19.07,11.26c1.52,2.16,5.1,7.14,7.27,10.08,2.18,2.95,3.85,4.45,5.94,5.37,4.01,1.76,7.74,1.46,11.42-.9,8.61-5.53,5.47-15.21,5.09-16.29-.02-.05-.05-.16-.07-.21-.05-.15-5-15.24-6.63-19.75-.27-.77-.54-1.54-.81-2.31-1.99-5.69-3.7-10.6-7.71-13.63-2.88-2.18-3.45-6.29-1.26-9.17,2.18-2.88,6.28-3.45,9.17-1.26,7.16,5.42,9.82,13.04,12.16,19.75.26.74.51,1.47.78,2.2,1.62,4.52,6.2,18.45,6.71,19.98,2.6,7.1,3.74,22.66-10.33,31.71-7.44,4.78-15.65,5.43-23.75,1.88-5.37-2.36-8.68-6.16-11.2-9.57-2.27-3.07-5.88-8.08-7.47-10.35-2.26-3.23-4.31-5.69-8.35-5.69s-6.41,2.8-9.13,6.46l-.35.46c-6.17,8.25-23.98,32.2-23.98,32.2-.05.07-.11.15-.17.22-4.02,4.95-9.94,10.67-20.1,11.02-.91.03-1.87.06-2.93.06Z"/>
    <path class="cls-2" d="M144.78,141.38H63.56c-3.61,0-6.54-2.93-6.54-6.54s2.93-6.54,6.54-6.54h80.76c2.18-.37,8.21-2.19,8.21-10.89V25.55c0-4.04-1.35-8.86-7.76-8.86h-9.94c-.31,0-.67,0-1.06-.01-3.63-.07-9.15-.18-14.03,5.91-.92,1.22-12.91,17.15-17.04,22.58-2.55,3.35-8.52,11.2-18.77,11.2-9.32,0-14.84-5.83-17.81-8.95-3.01-3.18-5.32-3.77-8.53-3.77-2.91,0-6.5,1.59-7.88,6.06-.47,1.74-6.54,24.38-10.33,39.23-.99,3.86.05,9,.97,10.21,2.19,2.88,1.63,6.98-1.25,9.17-2.88,2.19-6.98,1.63-9.17-1.25-4.07-5.35-4.84-15.07-3.24-21.37,3.94-15.44,10.33-39.25,10.4-39.49.02-.06.03-.13.05-.19,2.78-9.25,10.99-15.46,20.44-15.46,4.93,0,11.43.89,17.99,7.81,2.75,2.9,4.92,4.92,8.35,4.92s5.93-2.86,8.36-6.04c4.28-5.63,17.05-22.6,17.05-22.6.03-.05.07-.09.11-.14,8.92-11.22,20.31-11,24.58-10.92.3,0,10.74.01,10.74.01,12.27,0,20.84,9.03,20.84,21.95v91.85c0,17.19-13.17,23.18-20.13,23.94-.24.03-.47.04-.71.04Z"/>
  </g>
  <g>
    <g>
      <path class="cls-2" d="M233,141.43h0c-1.76,0-3.37-.28-4.84-.85-1.45-.57-2.73-1.37-3.83-2.41-1.09-1.03-1.93-2.26-2.54-3.67-.59-1.41-.88-2.96-.88-4.63h0c0-1.66.29-3.19.88-4.61.6-1.41,1.46-2.64,2.56-3.67,1.1-1.03,2.39-1.84,3.86-2.41,1.48-.57,3.1-.85,4.86-.85h0c1.9,0,3.61.31,5.15.93,1.52.62,2.8,1.53,3.86,2.72h0l-2.64,2.59c-.86-.88-1.8-1.53-2.82-1.94-1.02-.43-2.14-.65-3.36-.65h0c-1.17,0-2.26.2-3.26.6-1.02.38-1.89.92-2.61,1.63-.72.71-1.29,1.54-1.68,2.51-.4.95-.6,2-.6,3.16h0c0,1.14.2,2.19.6,3.16s.96,1.8,1.68,2.51c.72.72,1.58,1.28,2.56,1.66.98.4,2.08.6,3.29.6h0c1.1,0,2.17-.18,3.21-.54,1.05-.34,2.04-.94,2.98-1.79h0l2.38,3.13c-1.17.93-2.54,1.64-4.09,2.12-1.55.48-3.12.72-4.71.72ZM241.8,138.58l-3.96-.57v-8.38h3.96v8.95ZM254.5,141.12h-4.29l10.12-22.48h4.09l10.14,22.48h-4.35l-8.72-20.26h1.68l-8.67,20.26ZM269.22,135.92h-14.36l1.11-3.29h12.13l1.11,3.29ZM287.49,141.12h-3.98v-22.48h3.44l9.81,16.4h-1.79l9.65-16.4h3.44l.03,22.48h-3.93l-.05-16.27h.85l-8.23,13.69h-1.86l-8.33-13.69h.96v16.27ZM324.1,131.41v-3.44h11.18v3.44h-11.18ZM324.41,122.15v15.45h12.68v3.52h-16.84v-22.48h16.4v3.52h-12.24ZM366.97,141.12h-4.17v-22.48h4.17v22.48ZM383.27,141.12h-4.14v-22.48h3.44l14.07,17.31h-1.71v-17.31h4.14v22.48h-3.42l-14.1-17.31h1.71v17.31ZM415.04,132.5v-3.52h11.2v3.52h-11.2ZM415.38,122.15v18.96h-4.17v-22.48h16.4v3.52h-12.24ZM441.93,141.12h-4.17v-22.48h9.24c1.98,0,3.69.33,5.12.98,1.41.64,2.51,1.55,3.29,2.74.78,1.21,1.16,2.63,1.16,4.27h0c0,1.66-.39,3.08-1.16,4.27-.78,1.17-1.87,2.08-3.29,2.72-1.43.64-3.14.96-5.12.96h-6.93l1.86-1.91v8.46ZM456.93,141.12h-4.48l-5.69-8.15h4.48l5.69,8.15ZM441.93,120.11v13.01l-1.86-1.99h6.75c1.83,0,3.21-.4,4.14-1.19.93-.79,1.4-1.9,1.4-3.31h0c0-1.43-.47-2.54-1.4-3.31-.93-.76-2.31-1.14-4.14-1.14h-6.75l1.86-2.07ZM468.42,141.12h-4.29l10.12-22.48h4.11l10.14,22.48h-4.37l-8.69-20.26h1.66l-8.67,20.26ZM483.17,135.92h-14.39l1.11-3.29h12.13l1.14,3.29ZM504.41,141.43h0c-1.76,0-3.44-.25-5.05-.75-1.6-.5-2.88-1.15-3.83-1.94h0l1.45-3.26c.9.71,2.01,1.3,3.34,1.79,1.33.47,2.69.7,4.09.7h0c1.17,0,2.12-.13,2.85-.39.72-.26,1.26-.6,1.6-1.03.34-.45.52-.95.52-1.5h0c0-.69-.25-1.24-.75-1.66-.48-.41-1.11-.74-1.89-.98-.79-.24-1.66-.47-2.61-.7-.95-.21-1.9-.46-2.85-.75-.95-.29-1.82-.66-2.61-1.11-.78-.47-1.41-1.09-1.89-1.86-.5-.76-.75-1.74-.75-2.95h0c0-1.22.33-2.34.98-3.34.66-1.02,1.65-1.84,2.98-2.46,1.35-.6,3.04-.91,5.1-.91h0c1.35,0,2.68.17,4.01.52,1.33.34,2.48.84,3.47,1.47h0l-1.32,3.23c-1-.6-2.04-1.04-3.1-1.32-1.07-.29-2.1-.44-3.08-.44h0c-1.16,0-2.1.14-2.82.41-.72.28-1.25.64-1.58,1.09-.33.45-.49.97-.49,1.55h0c0,.67.24,1.22.72,1.66.48.41,1.11.73,1.89.96.78.24,1.65.47,2.61.7s1.92.47,2.87.75c.95.28,1.82.64,2.61,1.09.78.45,1.41,1.06,1.89,1.84.48.78.72,1.75.72,2.92h0c0,1.19-.33,2.29-.98,3.31-.66,1.02-1.66,1.84-3,2.46-1.35.6-3.04.91-5.1.91ZM532.46,141.12h-4.19v-18.94h-7.43v-3.54h19.04v3.54h-7.43v18.94ZM553.31,141.12h-4.17v-22.48h9.24c1.98,0,3.69.33,5.12.98,1.41.64,2.51,1.55,3.29,2.74.76,1.21,1.14,2.63,1.14,4.27h0c0,1.66-.38,3.08-1.14,4.27-.78,1.17-1.87,2.08-3.29,2.72-1.43.64-3.14.96-5.12.96h-6.93l1.86-1.91v8.46ZM568.32,141.12h-4.48l-5.69-8.15h4.45l5.72,8.15ZM553.31,120.11v13.01l-1.86-1.99h6.73c1.85,0,3.23-.4,4.17-1.19.93-.79,1.4-1.9,1.4-3.31h0c0-1.43-.47-2.54-1.4-3.31-.93-.76-2.32-1.14-4.17-1.14h-6.73l1.86-2.07ZM588.34,141.43h0c-3.09,0-5.5-.87-7.24-2.61-1.74-1.72-2.61-4.23-2.61-7.5h0v-12.68h4.19v12.52c0,2.31.49,3.99,1.47,5.05,1,1.05,2.41,1.58,4.22,1.58h0c1.83,0,3.23-.53,4.22-1.58.98-1.05,1.47-2.73,1.47-5.05h0v-12.52h4.11v12.68c0,3.28-.88,5.78-2.64,7.5-1.74,1.74-4.14,2.61-7.19,2.61ZM620.5,141.43h0c-1.71,0-3.29-.28-4.76-.85-1.47-.57-2.74-1.37-3.83-2.41-1.09-1.03-1.92-2.26-2.51-3.67-.6-1.41-.91-2.96-.91-4.63h0c0-1.66.3-3.19.91-4.61.59-1.41,1.43-2.64,2.54-3.67,1.09-1.03,2.35-1.84,3.8-2.41,1.47-.57,3.06-.85,4.79-.85h0c1.85,0,3.53.32,5.05.96,1.52.62,2.8,1.55,3.86,2.79h0l-2.72,2.54c-.81-.88-1.72-1.54-2.72-1.97-1-.45-2.1-.67-3.29-.67h0c-1.17,0-2.24.2-3.21.6-.98.38-1.83.92-2.54,1.63-.72.71-1.29,1.54-1.68,2.51-.4.95-.6,2-.6,3.16h0c0,1.16.2,2.22.6,3.18.4.97.96,1.8,1.68,2.51.71.71,1.55,1.25,2.54,1.63.97.4,2.04.6,3.21.6h0c1.19,0,2.29-.22,3.29-.67,1-.43,1.91-1.1,2.72-1.99h0l2.72,2.56c-1.05,1.22-2.34,2.16-3.86,2.79-1.52.64-3.21.96-5.07.96ZM648.26,141.12h-4.19v-18.94h-7.43v-3.54h19.04v3.54h-7.43v18.94ZM674.6,141.43h0c-3.09,0-5.5-.87-7.24-2.61-1.74-1.72-2.61-4.23-2.61-7.5h0v-12.68h4.17v12.52c0,2.31.5,3.99,1.5,5.05,1,1.05,2.41,1.58,4.22,1.58h0c1.81,0,3.21-.53,4.19-1.58.98-1.05,1.47-2.73,1.47-5.05h0v-12.52h4.11v12.68c0,3.28-.87,5.78-2.61,7.5-1.74,1.74-4.14,2.61-7.19,2.61ZM700.53,141.12h-4.17v-22.48h9.24c1.98,0,3.69.33,5.12.98,1.41.64,2.51,1.55,3.29,2.74.76,1.21,1.14,2.63,1.14,4.27h0c0,1.66-.38,3.08-1.14,4.27-.78,1.17-1.87,2.08-3.29,2.72-1.43.64-3.14.96-5.12.96h-6.93l1.86-1.91v8.46ZM715.53,141.12h-4.48l-5.69-8.15h4.45l5.72,8.15ZM700.53,120.11v13.01l-1.86-1.99h6.73c1.85,0,3.23-.4,4.17-1.19.93-.79,1.4-1.9,1.4-3.31h0c0-1.43-.47-2.54-1.4-3.31-.93-.76-2.32-1.14-4.17-1.14h-6.73l1.86-2.07ZM729.77,131.41v-3.44h11.15v3.44h-11.15ZM730.08,122.15v15.45h12.68v3.52h-16.84v-22.48h16.4v3.52h-12.24ZM772.64,141.12h-4.19v-22.48h9.24c2,0,3.71.33,5.12.98,1.43.64,2.53,1.55,3.29,2.74.78,1.21,1.16,2.63,1.16,4.27h0c0,1.66-.39,3.08-1.16,4.27-.76,1.21-1.85,2.13-3.29,2.77-1.41.64-3.12.96-5.12.96h-6.91l1.86-1.97v8.46ZM772.64,120.11v13.01l-1.86-2.02h6.73c1.85,0,3.23-.4,4.17-1.19.93-.78,1.4-1.87,1.4-3.29h0c0-1.43-.47-2.54-1.4-3.31-.93-.76-2.32-1.14-4.17-1.14h-6.73l1.86-2.07ZM802.03,141.12h-4.19v-22.48h9.24c2,0,3.71.33,5.12.98,1.43.64,2.53,1.55,3.29,2.74.78,1.21,1.16,2.63,1.16,4.27h0c0,1.66-.39,3.08-1.16,4.27-.76,1.17-1.85,2.08-3.29,2.72-1.41.64-3.12.96-5.12.96h-6.91l1.86-1.91v8.46ZM817.04,141.12h-4.5l-5.67-8.15h4.45l5.72,8.15ZM802.03,120.11v13.01l-1.86-1.99h6.73c1.85,0,3.23-.4,4.17-1.19.93-.79,1.4-1.9,1.4-3.31h0c0-1.43-.47-2.54-1.4-3.31-.93-.76-2.32-1.14-4.17-1.14h-6.73l1.86-2.07ZM837.91,141.43h0c-1.74,0-3.35-.29-4.84-.88-1.48-.57-2.77-1.37-3.86-2.41-1.09-1.03-1.93-2.26-2.54-3.67-.59-1.4-.88-2.93-.88-4.61h0c0-1.66.29-3.19.88-4.61.6-1.4,1.45-2.61,2.54-3.65,1.09-1.03,2.37-1.85,3.86-2.43,1.48-.57,3.09-.85,4.81-.85h0c1.76,0,3.37.28,4.84.85,1.47.59,2.74,1.4,3.83,2.43,1.09,1.03,1.93,2.25,2.54,3.65.6,1.41.91,2.95.91,4.61h0c0,1.67-.3,3.22-.91,4.63-.6,1.41-1.45,2.63-2.54,3.65-1.09,1.03-2.36,1.84-3.83,2.41-1.47.59-3.07.88-4.81.88ZM837.89,137.78h0c1.14,0,2.19-.2,3.16-.6.95-.38,1.78-.93,2.48-1.66.71-.71,1.26-1.54,1.66-2.48.4-.97.6-2.03.6-3.18h0c0-1.16-.2-2.21-.6-3.16-.4-.95-.95-1.78-1.66-2.48-.71-.72-1.54-1.28-2.48-1.66-.97-.4-2.02-.6-3.16-.6h0c-1.14,0-2.18.2-3.13.6-.95.38-1.79.93-2.51,1.66-.71.71-1.26,1.54-1.66,2.48-.4.95-.6,2-.6,3.16h0c0,1.14.2,2.19.6,3.16.4.97.95,1.8,1.66,2.51.71.72,1.54,1.28,2.51,1.66.95.4,1.99.6,3.13.6ZM869.25,141.12h-4.17v-18.94h-7.45v-3.54h19.04v3.54h-7.43v18.94ZM896.44,141.43h0c-1.74,0-3.35-.29-4.84-.88-1.47-.57-2.75-1.37-3.86-2.41-1.09-1.03-1.93-2.26-2.54-3.67-.59-1.4-.88-2.93-.88-4.61h0c0-1.66.29-3.19.88-4.61.6-1.4,1.45-2.61,2.54-3.65,1.1-1.03,2.39-1.85,3.86-2.43,1.48-.57,3.09-.85,4.81-.85h0c1.76,0,3.37.28,4.84.85,1.47.59,2.74,1.4,3.83,2.43,1.09,1.03,1.93,2.25,2.54,3.65.6,1.41.91,2.95.91,4.61h0c0,1.67-.3,3.22-.91,4.63-.6,1.41-1.45,2.63-2.54,3.65-1.09,1.03-2.36,1.84-3.83,2.41-1.47.59-3.07.88-4.81.88ZM896.41,137.78h0c1.14,0,2.19-.2,3.16-.6.97-.38,1.79-.93,2.48-1.66.71-.71,1.26-1.54,1.66-2.48.4-.97.6-2.03.6-3.18h0c0-1.16-.2-2.21-.6-3.16-.4-.95-.95-1.78-1.66-2.48-.69-.72-1.52-1.28-2.48-1.66-.97-.4-2.02-.6-3.16-.6h0c-1.14,0-2.18.2-3.13.6-.95.38-1.78.93-2.48,1.66-.72.71-1.28,1.54-1.68,2.48-.4.95-.6,2-.6,3.16h0c0,1.14.2,2.19.6,3.16.4.97.95,1.8,1.66,2.51.71.72,1.54,1.28,2.51,1.66.95.4,1.99.6,3.13.6ZM929.43,141.43h0c-1.71,0-3.29-.28-4.76-.85-1.47-.57-2.73-1.37-3.8-2.41-1.09-1.03-1.93-2.26-2.54-3.67-.59-1.41-.88-2.96-.88-4.63h0c0-1.66.29-3.19.88-4.61.6-1.41,1.45-2.64,2.54-3.67,1.09-1.03,2.36-1.84,3.83-2.41,1.45-.57,3.04-.85,4.79-.85h0c1.83,0,3.5.32,5.02.96,1.52.62,2.8,1.55,3.86,2.79h0l-2.69,2.54c-.81-.88-1.72-1.54-2.72-1.97-1.02-.45-2.11-.67-3.29-.67h0c-1.17,0-2.25.2-3.23.6-.97.38-1.81.92-2.54,1.63-.71.71-1.26,1.54-1.66,2.51-.4.95-.6,2-.6,3.16h0c0,1.16.2,2.22.6,3.18.4.97.95,1.8,1.66,2.51.72.71,1.57,1.25,2.54,1.63.98.4,2.06.6,3.23.6h0c1.17,0,2.27-.22,3.29-.67,1-.43,1.91-1.1,2.72-1.99h0l2.69,2.56c-1.05,1.22-2.34,2.16-3.86,2.79-1.52.64-3.21.96-5.07.96ZM959,141.43h0c-1.76,0-3.38-.29-4.86-.88-1.47-.57-2.75-1.37-3.86-2.41-1.09-1.03-1.93-2.26-2.54-3.67-.59-1.4-.88-2.93-.88-4.61h0c0-1.66.29-3.19.88-4.61.6-1.4,1.45-2.61,2.54-3.65,1.1-1.03,2.39-1.85,3.86-2.43,1.48-.57,3.09-.85,4.81-.85h0c1.76,0,3.37.28,4.84.85,1.47.59,2.74,1.4,3.83,2.43,1.09,1.03,1.93,2.25,2.54,3.65.6,1.41.91,2.95.91,4.61h0c0,1.67-.3,3.22-.91,4.63-.6,1.41-1.45,2.63-2.54,3.65-1.09,1.03-2.36,1.84-3.83,2.41-1.47.59-3.06.88-4.79.88ZM958.95,137.78h0c1.14,0,2.19-.2,3.16-.6.97-.38,1.8-.93,2.51-1.66.71-.71,1.25-1.54,1.63-2.48.4-.97.6-2.03.6-3.18h0c0-1.16-.2-2.21-.6-3.16-.38-.95-.92-1.78-1.63-2.48-.71-.72-1.54-1.28-2.51-1.66-.97-.4-2.02-.6-3.16-.6h0c-1.12,0-2.16.2-3.13.6-.95.38-1.78.93-2.48,1.66-.72.71-1.29,1.54-1.68,2.48-.4.95-.6,2-.6,3.16h0c0,1.14.2,2.19.6,3.16.4.97.95,1.8,1.66,2.51.71.72,1.54,1.28,2.51,1.66.97.4,2.01.6,3.13.6ZM997.5,141.12h-15.91v-22.48h4.17v18.94h11.75v3.54Z"/>
      <g class="cls-3">
        <rect class="cls-2" x="981.59" y="118.63" width="2.37" height="22.48"/>
        <rect class="cls-2" x="983.95" y="118.63" width="4.52" height="22.48"/>
        <rect class="cls-2" x="988.47" y="118.63" width="4.52" height="22.48"/>
        <rect class="cls-2" x="992.98" y="118.63" width="4.52" height="22.48"/>
        <rect class="cls-2" x="951.06" y="121.97" width="1.29" height="15.81"/>
        <rect class="cls-2" x="952.35" y="121.97" width="4.52" height="15.81"/>
        <rect class="cls-2" x="956.86" y="121.97" width="4.52" height="15.81"/>
        <rect class="cls-2" x="961.38" y="121.97" width="4.52" height="15.81"/>
        <rect class="cls-2" x="965.89" y="121.97" width=".95" height="15.81"/>
        <rect class="cls-2" x="946.87" y="118.32" width=".97" height="23.1"/>
        <rect class="cls-2" x="947.83" y="118.32" width="4.52" height="23.1"/>
        <rect class="cls-2" x="952.35" y="118.32" width="4.52" height="23.1"/>
        <rect class="cls-2" x="956.86" y="118.32" width="4.52" height="23.1"/>
        <rect class="cls-2" x="961.38" y="118.32" width="4.52" height="23.1"/>
        <rect class="cls-2" x="965.89" y="118.32" width="4.52" height="23.1"/>
        <rect class="cls-2" x="970.41" y="118.32" width=".65" height="23.1"/>
        <rect class="cls-2" x="917.45" y="118.32" width="3.3" height="23.1"/>
        <rect class="cls-2" x="920.74" y="118.32" width="4.52" height="23.1"/>
        <rect class="cls-2" x="925.26" y="118.32" width="4.52" height="23.1"/>
        <rect class="cls-2" x="929.77" y="118.32" width="4.52" height="23.1"/>
        <rect class="cls-2" x="934.29" y="118.32" width="4.06" height="23.1"/>
        <rect class="cls-2" x="888.52" y="121.97" width=".62" height="15.81"/>
        <rect class="cls-2" x="889.14" y="121.97" width="4.52" height="15.81"/>
        <rect class="cls-2" x="893.65" y="121.97" width="4.52" height="15.81"/>
        <rect class="cls-2" x="898.17" y="121.97" width="4.52" height="15.81"/>
        <rect class="cls-2" x="902.68" y="121.97" width="1.62" height="15.81"/>
        <rect class="cls-2" x="884.33" y="118.32" width=".29" height="23.1"/>
        <rect class="cls-2" x="884.62" y="118.32" width="4.52" height="23.1"/>
        <rect class="cls-2" x="889.14" y="118.32" width="4.52" height="23.1"/>
        <rect class="cls-2" x="893.65" y="118.32" width="4.52" height="23.1"/>
        <rect class="cls-2" x="898.17" y="118.32" width="4.52" height="23.1"/>
        <rect class="cls-2" x="902.68" y="118.32" width="4.52" height="23.1"/>
        <rect class="cls-2" x="907.2" y="118.32" width="1.32" height="23.1"/>
        <rect class="cls-2" x="857.63" y="118.63" width="4.42" height="22.48"/>
        <rect class="cls-2" x="862.05" y="118.63" width="4.52" height="22.48"/>
        <rect class="cls-2" x="866.56" y="118.63" width="4.52" height="22.48"/>
        <rect class="cls-2" x="871.08" y="118.63" width="4.52" height="22.48"/>
        <rect class="cls-2" x="875.59" y="118.63" width="1.08" height="22.48"/>
        <rect class="cls-2" x="830" y="121.97" width=".45" height="15.81"/>
        <rect class="cls-2" x="830.44" y="121.97" width="4.52" height="15.81"/>
        <rect class="cls-2" x="834.96" y="121.97" width="4.52" height="15.81"/>
        <rect class="cls-2" x="839.47" y="121.97" width="4.52" height="15.81"/>
        <rect class="cls-2" x="843.99" y="121.97" width="1.79" height="15.81"/>
        <rect class="cls-2" x="825.81" y="118.32" width=".12" height="23.1"/>
        <rect class="cls-2" x="825.93" y="118.32" width="4.52" height="23.1"/>
        <rect class="cls-2" x="830.44" y="118.32" width="4.52" height="23.1"/>
        <rect class="cls-2" x="834.96" y="118.32" width="4.52" height="23.1"/>
        <rect class="cls-2" x="839.47" y="118.32" width="4.52" height="23.1"/>
        <rect class="cls-2" x="843.99" y="118.32" width="4.52" height="23.1"/>
        <rect class="cls-2" x="848.5" y="118.32" width="1.49" height="23.1"/>
        <rect class="cls-2" x="800.17" y="120.11" width="3.19" height="13.01"/>
        <rect class="cls-2" x="803.35" y="120.11" width="4.52" height="13.01"/>
        <rect class="cls-2" x="807.87" y="120.11" width="4.52" height="13.01"/>
        <rect class="cls-2" x="812.38" y="120.11" width=".07" height="13.01"/>
        <rect class="cls-2" x="806.87" y="132.97" width="1" height="8.15"/>
        <rect class="cls-2" x="807.87" y="132.97" width="4.52" height="8.15"/>
        <rect class="cls-2" x="812.38" y="132.97" width="4.52" height="8.15"/>
        <rect class="cls-2" x="816.9" y="132.97" width=".14" height="8.15"/>
        <rect class="cls-2" x="797.84" y="118.63" width="1" height="22.48"/>
        <rect class="cls-2" x="798.84" y="118.63" width="4.52" height="22.48"/>
        <rect class="cls-2" x="803.35" y="118.63" width="4.52" height="22.48"/>
        <rect class="cls-2" x="807.87" y="118.63" width="4.52" height="22.48"/>
        <rect class="cls-2" x="812.38" y="118.63" width="4.26" height="22.48"/>
        <rect class="cls-2" x="770.77" y="120.11" width=".98" height="13.01"/>
        <rect class="cls-2" x="771.75" y="120.11" width="4.52" height="13.01"/>
        <rect class="cls-2" x="776.26" y="120.11" width="4.52" height="13.01"/>
        <rect class="cls-2" x="780.78" y="120.11" width="2.28" height="13.01"/>
        <rect class="cls-2" x="768.45" y="118.63" width="3.3" height="22.48"/>
        <rect class="cls-2" x="771.75" y="118.63" width="4.52" height="22.48"/>
        <rect class="cls-2" x="776.26" y="118.63" width="4.52" height="22.48"/>
        <rect class="cls-2" x="780.78" y="118.63" width="4.52" height="22.48"/>
        <rect class="cls-2" x="785.29" y="118.63" width="1.96" height="22.48"/>
        <rect class="cls-2" x="725.91" y="118.63" width=".69" height="22.48"/>
        <rect class="cls-2" x="726.6" y="118.63" width="4.52" height="22.48"/>
        <rect class="cls-2" x="731.11" y="118.63" width="4.52" height="22.48"/>
        <rect class="cls-2" x="735.63" y="118.63" width="4.52" height="22.48"/>
        <rect class="cls-2" x="740.14" y="118.63" width="2.61" height="22.48"/>
        <rect class="cls-2" x="729.77" y="127.97" width="1.35" height="3.44"/>
        <rect class="cls-2" x="731.11" y="127.97" width="4.52" height="3.44"/>
        <rect class="cls-2" x="735.63" y="127.97" width="4.52" height="3.44"/>
        <rect class="cls-2" x="740.14" y="127.97" width=".77" height="3.44"/>
        <rect class="cls-2" x="698.67" y="120.11" width=".84" height="13.01"/>
        <rect class="cls-2" x="699.51" y="120.11" width="4.52" height="13.01"/>
        <rect class="cls-2" x="704.02" y="120.11" width="4.52" height="13.01"/>
        <rect class="cls-2" x="708.54" y="120.11" width="2.42" height="13.01"/>
        <rect class="cls-2" x="705.37" y="132.97" width="3.17" height="8.15"/>
        <rect class="cls-2" x="708.54" y="132.97" width="4.52" height="8.15"/>
        <rect class="cls-2" x="713.05" y="132.97" width="2.48" height="8.15"/>
        <rect class="cls-2" x="696.36" y="118.63" width="3.15" height="22.48"/>
        <rect class="cls-2" x="699.51" y="118.63" width="4.52" height="22.48"/>
        <rect class="cls-2" x="704.02" y="118.63" width="4.52" height="22.48"/>
        <rect class="cls-2" x="708.54" y="118.63" width="4.52" height="22.48"/>
        <rect class="cls-2" x="713.05" y="118.63" width="2.09" height="22.48"/>
        <rect class="cls-2" x="664.75" y="118.63" width="3.16" height="22.79"/>
        <rect class="cls-2" x="667.9" y="118.63" width="4.52" height="22.79"/>
        <rect class="cls-2" x="672.42" y="118.63" width="4.52" height="22.79"/>
        <rect class="cls-2" x="676.93" y="118.63" width="4.52" height="22.79"/>
        <rect class="cls-2" x="681.45" y="118.63" width="2.96" height="22.79"/>
        <rect class="cls-2" x="636.65" y="118.63" width="4.17" height="22.48"/>
        <rect class="cls-2" x="640.81" y="118.63" width="4.52" height="22.48"/>
        <rect class="cls-2" x="645.33" y="118.63" width="4.52" height="22.48"/>
        <rect class="cls-2" x="649.84" y="118.63" width="4.52" height="22.48"/>
        <rect class="cls-2" x="654.36" y="118.63" width="1.33" height="22.48"/>
        <rect class="cls-2" x="608.5" y="118.32" width=".71" height="23.1"/>
        <rect class="cls-2" x="609.21" y="118.32" width="4.52" height="23.1"/>
        <rect class="cls-2" x="613.72" y="118.32" width="4.52" height="23.1"/>
        <rect class="cls-2" x="618.24" y="118.32" width="4.52" height="23.1"/>
        <rect class="cls-2" x="622.75" y="118.32" width="4.52" height="23.1"/>
        <rect class="cls-2" x="627.27" y="118.32" width="2.16" height="23.1"/>
        <rect class="cls-2" x="578.49" y="118.63" width="3.63" height="22.79"/>
        <rect class="cls-2" x="582.12" y="118.63" width="4.52" height="22.79"/>
        <rect class="cls-2" x="586.63" y="118.63" width="4.52" height="22.79"/>
        <rect class="cls-2" x="591.15" y="118.63" width="4.52" height="22.79"/>
        <rect class="cls-2" x="595.66" y="118.63" width="2.51" height="22.79"/>
        <rect class="cls-2" x="551.45" y="120.11" width="3.58" height="13.01"/>
        <rect class="cls-2" x="555.03" y="120.11" width="4.52" height="13.01"/>
        <rect class="cls-2" x="559.54" y="120.11" width="4.19" height="13.01"/>
        <rect class="cls-2" x="558.15" y="132.97" width="1.4" height="8.15"/>
        <rect class="cls-2" x="559.54" y="132.97" width="4.52" height="8.15"/>
        <rect class="cls-2" x="564.06" y="132.97" width="4.26" height="8.15"/>
        <rect class="cls-2" x="549.15" y="118.63" width="1.37" height="22.48"/>
        <rect class="cls-2" x="550.51" y="118.63" width="4.52" height="22.48"/>
        <rect class="cls-2" x="555.03" y="118.63" width="4.52" height="22.48"/>
        <rect class="cls-2" x="559.54" y="118.63" width="4.52" height="22.48"/>
        <rect class="cls-2" x="564.06" y="118.63" width="3.87" height="22.48"/>
        <rect class="cls-2" x="520.84" y="118.63" width="2.58" height="22.48"/>
        <rect class="cls-2" x="523.42" y="118.63" width="4.52" height="22.48"/>
        <rect class="cls-2" x="527.94" y="118.63" width="4.52" height="22.48"/>
        <rect class="cls-2" x="532.45" y="118.63" width="4.52" height="22.48"/>
        <rect class="cls-2" x="536.97" y="118.63" width="2.91" height="22.48"/>
        <rect class="cls-2" x="495.54" y="118.32" width=".8" height="23.1"/>
        <rect class="cls-2" x="496.33" y="118.32" width="4.52" height="23.1"/>
        <rect class="cls-2" x="500.85" y="118.32" width="4.52" height="23.1"/>
        <rect class="cls-2" x="505.36" y="118.32" width="4.52" height="23.1"/>
        <rect class="cls-2" x="509.88" y="118.32" width="3.61" height="23.1"/>
        <rect class="cls-2" x="468.78" y="132.63" width=".46" height="3.29"/>
        <rect class="cls-2" x="469.24" y="132.63" width="4.52" height="3.29"/>
        <rect class="cls-2" x="473.76" y="132.63" width="4.52" height="3.29"/>
        <rect class="cls-2" x="478.27" y="132.63" width="4.52" height="3.29"/>
        <rect class="cls-2" x="482.79" y="132.63" width=".38" height="3.29"/>
        <rect class="cls-2" x="464.13" y="118.63" width=".6" height="22.48"/>
        <rect class="cls-2" x="464.73" y="118.63" width="4.52" height="22.48"/>
        <rect class="cls-2" x="469.24" y="118.63" width="4.52" height="22.48"/>
        <rect class="cls-2" x="473.76" y="118.63" width="4.52" height="22.48"/>
        <rect class="cls-2" x="478.27" y="118.63" width="4.52" height="22.48"/>
        <rect class="cls-2" x="482.79" y="118.63" width="4.52" height="22.48"/>
        <rect class="cls-2" x="487.3" y="118.63" width="1.19" height="22.48"/>
        <rect class="cls-2" x="440.06" y="120.11" width="2.09" height="13.01"/>
        <rect class="cls-2" x="442.15" y="120.11" width="4.52" height="13.01"/>
        <rect class="cls-2" x="446.67" y="120.11" width="4.52" height="13.01"/>
        <rect class="cls-2" x="451.18" y="120.11" width="1.17" height="13.01"/>
        <rect class="cls-2" x="446.77" y="132.97" width="4.42" height="8.15"/>
        <rect class="cls-2" x="451.18" y="132.97" width="4.52" height="8.15"/>
        <rect class="cls-2" x="455.7" y="132.97" width="1.23" height="8.15"/>
        <rect class="cls-2" x="437.76" y="118.63" width="4.39" height="22.48"/>
        <rect class="cls-2" x="442.15" y="118.63" width="4.52" height="22.48"/>
        <rect class="cls-2" x="446.67" y="118.63" width="4.52" height="22.48"/>
        <rect class="cls-2" x="451.18" y="118.63" width="4.52" height="22.48"/>
        <rect class="cls-2" x="455.7" y="118.63" width=".87" height="22.48"/>
        <rect class="cls-2" x="411.22" y="118.63" width="3.85" height="22.48"/>
        <rect class="cls-2" x="415.06" y="118.63" width="4.52" height="22.48"/>
        <rect class="cls-2" x="419.58" y="118.63" width="4.52" height="22.48"/>
        <rect class="cls-2" x="424.09" y="118.63" width="3.52" height="22.48"/>
        <rect class="cls-2" x="415.04" y="128.98" width=".02" height="3.52"/>
        <rect class="cls-2" x="415.06" y="128.98" width="4.52" height="3.52"/>
        <rect class="cls-2" x="419.58" y="128.98" width="4.52" height="3.52"/>
        <rect class="cls-2" x="424.09" y="128.98" width="2.15" height="3.52"/>
        <rect class="cls-2" x="379.13" y="118.63" width="4.33" height="22.48"/>
        <rect class="cls-2" x="383.46" y="118.63" width="4.52" height="22.48"/>
        <rect class="cls-2" x="387.97" y="118.63" width="4.52" height="22.48"/>
        <rect class="cls-2" x="392.49" y="118.63" width="4.52" height="22.48"/>
        <rect class="cls-2" x="397" y="118.63" width="2.08" height="22.48"/>
        <rect class="cls-2" x="362.81" y="118.63" width="2.59" height="22.48"/>
        <rect class="cls-2" x="365.4" y="118.63" width="1.57" height="22.48"/>
        <rect class="cls-2" x="320.25" y="118.63" width="0" height="22.48"/>
        <rect class="cls-2" x="320.25" y="118.63" width="4.52" height="22.48"/>
        <rect class="cls-2" x="324.76" y="118.63" width="4.52" height="22.48"/>
        <rect class="cls-2" x="329.28" y="118.63" width="4.52" height="22.48"/>
        <rect class="cls-2" x="333.79" y="118.63" width="3.3" height="22.48"/>
        <rect class="cls-2" x="324.1" y="127.97" width=".66" height="3.44"/>
        <rect class="cls-2" x="324.76" y="127.97" width="4.52" height="3.44"/>
        <rect class="cls-2" x="329.28" y="127.97" width="4.52" height="3.44"/>
        <rect class="cls-2" x="333.79" y="127.97" width="1.48" height="3.44"/>
        <rect class="cls-2" x="283.51" y="118.63" width=".62" height="22.48"/>
        <rect class="cls-2" x="284.13" y="118.63" width="4.52" height="22.48"/>
        <rect class="cls-2" x="288.64" y="118.63" width="4.52" height="22.48"/>
        <rect class="cls-2" x="293.16" y="118.63" width="4.52" height="22.48"/>
        <rect class="cls-2" x="297.67" y="118.63" width="4.52" height="22.48"/>
        <rect class="cls-2" x="302.19" y="118.63" width="4.52" height="22.48"/>
        <rect class="cls-2" x="306.7" y="118.63" width="1.38" height="22.48"/>
        <rect class="cls-2" x="254.86" y="132.63" width="2.17" height="3.29"/>
        <rect class="cls-2" x="257.04" y="132.63" width="4.52" height="3.29"/>
        <rect class="cls-2" x="261.55" y="132.63" width="4.52" height="3.29"/>
        <rect class="cls-2" x="266.07" y="132.63" width="3.16" height="3.29"/>
        <rect class="cls-2" x="250.21" y="118.63" width="2.32" height="22.48"/>
        <rect class="cls-2" x="252.52" y="118.63" width="4.52" height="22.48"/>
        <rect class="cls-2" x="257.04" y="118.63" width="4.52" height="22.48"/>
        <rect class="cls-2" x="261.55" y="118.63" width="4.52" height="22.48"/>
        <rect class="cls-2" x="266.07" y="118.63" width="4.52" height="22.48"/>
        <rect class="cls-2" x="270.58" y="118.63" width="3.97" height="22.48"/>
        <rect class="cls-2" x="237.84" y="129.63" width="1.14" height="8.95"/>
        <rect class="cls-2" x="238.98" y="129.63" width="2.82" height="8.95"/>
        <rect class="cls-2" x="220.92" y="118.32" width="4.52" height="23.1"/>
        <rect class="cls-2" x="225.43" y="118.32" width="4.52" height="23.1"/>
        <rect class="cls-2" x="229.95" y="118.32" width="4.52" height="23.1"/>
        <rect class="cls-2" x="234.46" y="118.32" width="4.52" height="23.1"/>
        <rect class="cls-2" x="238.98" y="118.32" width="3.1" height="23.1"/>
      </g>
    </g>
    <g>
      <path class="cls-2" d="M291.11,95.34h-54.7c-2.86,0-5.47-.7-7.81-2.1-2.35-1.38-4.21-3.24-5.59-5.59-1.4-2.35-2.1-4.95-2.1-7.81h0V25.02c0-2.86.7-5.46,2.1-7.79,1.38-2.35,3.24-4.22,5.59-5.61,2.35-1.4,4.95-2.1,7.81-2.1h54.7c2.86,0,5.49.7,7.87,2.1,2.38,1.4,4.27,3.27,5.67,5.61,1.38,2.33,2.07,4.92,2.07,7.79h0v5.12h-12.99v-4.76c0-.79-.28-1.49-.83-2.1-.55-.59-1.27-.88-2.15-.88h-53.97c-.79,0-1.49.29-2.1.88-.6.6-.91,1.3-.91,2.1h0v54.1c0,.79.3,1.49.91,2.1.6.59,1.3.88,2.1.88h53.97c.88,0,1.6-.29,2.15-.88.55-.6.83-1.3.83-2.1h0v-18.21h-20.26v-13.01h33.25v31.59c0,2.86-.69,5.47-2.07,7.81-1.4,2.35-3.29,4.21-5.67,5.59-2.38,1.4-5,2.1-7.87,2.1h0ZM400.4,95.34h-54.83c-2.86,0-5.47-.72-7.81-2.15-2.33-1.43-4.19-3.29-5.59-5.59-1.4-2.31-2.1-4.9-2.1-7.76h0v-25.51h57.33v-12.26c0-.79-.28-1.49-.83-2.1-.57-.59-1.25-.88-2.04-.88h-54.46v-12.88h54.83c2.86,0,5.47.7,7.81,2.1,2.35,1.4,4.21,3.29,5.59,5.67,1.4,2.38,2.1,4.96,2.1,7.74h0v53.63ZM345.94,82.46h41.47v-16.07h-44.45v13.09c0,.79.29,1.49.88,2.1.6.59,1.3.88,2.1.88ZM434.01,95.34h-12.99V26.21h88.3c2.95,0,5.57.72,7.87,2.15,2.31,1.43,4.16,3.3,5.54,5.61,1.4,2.29,2.1,4.87,2.1,7.74h0v53.63h-12.76v-53.27c0-.79-.29-1.49-.88-2.1-.6-.59-1.3-.88-2.1-.88h-26.57c-.88,0-1.6.29-2.15.88-.55.6-.83,1.3-.83,2.1h0v53.27h-12.99v-53.27c0-.79-.3-1.49-.91-2.1-.6-.59-1.3-.88-2.1-.88h-26.68c-.79,0-1.47.29-2.04.88-.55.6-.83,1.3-.83,2.1h0v53.27ZM561.64,95.34h0c-2.85,0-5.42-.72-7.74-2.15-2.31-1.43-4.18-3.29-5.61-5.59-1.41-2.31-2.12-4.9-2.12-7.76h0v-38.14c0-2.86.71-5.44,2.12-7.74,1.43-2.31,3.3-4.18,5.61-5.61,2.31-1.43,4.89-2.15,7.74-2.15h39.33c2.86,0,5.47.7,7.81,2.1,2.35,1.4,4.22,3.29,5.61,5.67,1.38,2.38,2.07,4.96,2.07,7.74h0v25.51h-57.44v12.26c0,.79.3,1.49.91,2.1.59.59,1.28.88,2.07.88h54.46v12.88h-54.83ZM559.03,42.07v13.12h44.45v-13.12c0-.79-.28-1.49-.83-2.1-.55-.59-1.22-.88-2.02-.88h-38.63c-.79,0-1.48.29-2.07.88-.6.6-.91,1.3-.91,2.1h0ZM640.32,95.34h0V9.52h66.73c2.78,0,5.36.7,7.76,2.1,2.38,1.4,4.26,3.27,5.64,5.61,1.4,2.33,2.1,4.92,2.1,7.79h0v17.52c0,1.03-.1,2.07-.31,3.1-.19,1.03-.53,1.99-1.01,2.87h0c1.59,2.23,2.8,4.31,3.65,6.26.83,1.93,1.24,3.9,1.24,5.9h0v19.17c0,2.86-.7,5.47-2.1,7.81-1.38,2.35-3.26,4.21-5.64,5.59-2.38,1.4-5,2.1-7.87,2.1h-70.19ZM656.16,82.46h54c.88,0,1.6-.29,2.15-.88.55-.6.83-1.3.83-2.1h0v-18.47c0-.79-.28-1.48-.83-2.07-.55-.6-1.27-.91-2.15-.91h-54c-.79,0-1.48.3-2.07.91-.6.59-.91,1.28-.91,2.07h0v18.47c0,.79.3,1.49.91,2.1.59.59,1.28.88,2.07.88ZM656.16,45.18h50.53c.79,0,1.47-.3,2.04-.91.55-.59.83-1.28.83-2.07h0v-16.82c0-.79-.28-1.49-.83-2.1-.57-.59-1.25-.88-2.04-.88h-50.53c-.79,0-1.48.29-2.07.88-.6.6-.91,1.3-.91,2.1h0v16.82c0,.79.3,1.48.91,2.07.59.6,1.28.91,2.07.91ZM764.98,95.34h0c-2.86,0-5.47-.72-7.81-2.15-2.35-1.43-4.21-3.29-5.59-5.59-1.4-2.31-2.1-4.9-2.1-7.76h0V26.21h12.86v53.27c0,.79.3,1.49.91,2.1.6.59,1.3.88,2.1.88h38.6c.79,0,1.49-.29,2.1-.88.59-.6.88-1.3.88-2.1h0V26.21h12.88v53.63c0,2.86-.7,5.45-2.1,7.76-1.4,2.29-3.26,4.16-5.59,5.59-2.35,1.43-4.95,2.15-7.81,2.15h-39.33ZM855.79,95.34h-12.88V26.21h12.88v69.13ZM855.79,16.46h-12.88V3.57h12.88v12.88ZM896.18,95.34h0c-2.86,0-5.44-.72-7.74-2.15-2.31-1.43-4.18-3.29-5.61-5.59-1.43-2.31-2.15-4.9-2.15-7.76h0V3.57h12.88v75.91c0,.79.3,1.49.91,2.1.59.59,1.28.88,2.07.88h12.52v12.88h-12.88ZM942.67,95.34h0c-2.86,0-5.47-.7-7.81-2.1-2.35-1.38-4.21-3.26-5.59-5.64-1.4-2.4-2.1-4.98-2.1-7.76h0v-38.14c0-2.86.7-5.44,2.1-7.74,1.38-2.31,3.24-4.18,5.59-5.61,2.35-1.43,4.95-2.15,7.81-2.15h41.94V3.57h12.88v91.77h-54.83ZM943.14,82.46h38.63c.79,0,1.47-.29,2.02-.88.55-.6.83-1.3.83-2.1h0v-37.41c0-.79-.28-1.49-.83-2.1-.55-.59-1.22-.88-2.02-.88h-38.63c-.79,0-1.48.29-2.07.88-.6.6-.91,1.3-.91,2.1h0v37.41c0,.79.3,1.49.91,2.1.59.59,1.28.88,2.07.88Z"/>
      <g class="cls-1">
        <rect class="cls-2" x="940.17" y="39.1" width="3.15" height="43.36"/>
        <rect class="cls-2" x="943.32" y="39.1" width="4.52" height="43.36"/>
        <rect class="cls-2" x="947.83" y="39.1" width="4.52" height="43.36"/>
        <rect class="cls-2" x="952.35" y="39.1" width="4.52" height="43.36"/>
        <rect class="cls-2" x="956.86" y="39.1" width="4.52" height="43.36"/>
        <rect class="cls-2" x="961.38" y="39.1" width="4.52" height="43.36"/>
        <rect class="cls-2" x="965.89" y="39.1" width="4.52" height="43.36"/>
        <rect class="cls-2" x="970.41" y="39.1" width="4.52" height="43.36"/>
        <rect class="cls-2" x="974.92" y="39.1" width="4.52" height="43.36"/>
        <rect class="cls-2" x="979.44" y="39.1" width="4.52" height="43.36"/>
        <rect class="cls-2" x="983.95" y="39.1" width=".66" height="43.36"/>
        <rect class="cls-2" x="927.18" y="3.57" width="2.6" height="91.77"/>
        <rect class="cls-2" x="929.77" y="3.57" width="4.52" height="91.77"/>
        <rect class="cls-2" x="934.29" y="3.57" width="4.52" height="91.77"/>
        <rect class="cls-2" x="938.8" y="3.57" width="4.52" height="91.77"/>
        <rect class="cls-2" x="943.32" y="3.57" width="4.52" height="91.77"/>
        <rect class="cls-2" x="947.83" y="3.57" width="4.52" height="91.77"/>
        <rect class="cls-2" x="952.35" y="3.57" width="4.52" height="91.77"/>
        <rect class="cls-2" x="956.86" y="3.57" width="4.52" height="91.77"/>
        <rect class="cls-2" x="961.38" y="3.57" width="4.52" height="91.77"/>
        <rect class="cls-2" x="965.89" y="3.57" width="4.52" height="91.77"/>
        <rect class="cls-2" x="970.41" y="3.57" width="4.52" height="91.77"/>
        <rect class="cls-2" x="974.92" y="3.57" width="4.52" height="91.77"/>
        <rect class="cls-2" x="979.44" y="3.57" width="4.52" height="91.77"/>
        <rect class="cls-2" x="983.95" y="3.57" width="4.52" height="91.77"/>
        <rect class="cls-2" x="988.47" y="3.57" width="4.52" height="91.77"/>
        <rect class="cls-2" x="992.98" y="3.57" width="4.52" height="91.77"/>
        <rect class="cls-2" x="880.68" y="3.57" width="3.94" height="91.77"/>
        <rect class="cls-2" x="884.62" y="3.57" width="4.52" height="91.77"/>
        <rect class="cls-2" x="889.14" y="3.57" width="4.52" height="91.77"/>
        <rect class="cls-2" x="893.65" y="3.57" width="4.52" height="91.77"/>
        <rect class="cls-2" x="898.17" y="3.57" width="4.52" height="91.77"/>
        <rect class="cls-2" x="902.68" y="3.57" width="4.52" height="91.77"/>
        <rect class="cls-2" x="907.2" y="3.57" width="1.87" height="91.77"/>
        <rect class="cls-2" x="842.91" y="3.57" width="1.08" height="12.88"/>
        <rect class="cls-2" x="843.99" y="3.57" width="4.52" height="12.88"/>
        <rect class="cls-2" x="848.5" y="3.57" width="4.52" height="12.88"/>
        <rect class="cls-2" x="853.02" y="3.57" width="2.77" height="12.88"/>
        <rect class="cls-2" x="842.91" y="26.21" width="1.08" height="69.13"/>
        <rect class="cls-2" x="843.99" y="26.21" width="4.52" height="69.13"/>
        <rect class="cls-2" x="848.5" y="26.21" width="4.52" height="69.13"/>
        <rect class="cls-2" x="853.02" y="26.21" width="2.77" height="69.13"/>
        <rect class="cls-2" x="749.48" y="26.21" width="4.21" height="69.13"/>
        <rect class="cls-2" x="753.69" y="26.21" width="4.52" height="69.13"/>
        <rect class="cls-2" x="758.2" y="26.21" width="4.52" height="69.13"/>
        <rect class="cls-2" x="762.72" y="26.21" width="4.52" height="69.13"/>
        <rect class="cls-2" x="767.23" y="26.21" width="4.52" height="69.13"/>
        <rect class="cls-2" x="771.75" y="26.21" width="4.52" height="69.13"/>
        <rect class="cls-2" x="776.26" y="26.21" width="4.52" height="69.13"/>
        <rect class="cls-2" x="780.78" y="26.21" width="4.52" height="69.13"/>
        <rect class="cls-2" x="785.29" y="26.21" width="4.52" height="69.13"/>
        <rect class="cls-2" x="789.81" y="26.21" width="4.52" height="69.13"/>
        <rect class="cls-2" x="794.32" y="26.21" width="4.52" height="69.13"/>
        <rect class="cls-2" x="798.84" y="26.21" width="4.52" height="69.13"/>
        <rect class="cls-2" x="803.35" y="26.21" width="4.52" height="69.13"/>
        <rect class="cls-2" x="807.87" y="26.21" width="4.52" height="69.13"/>
        <rect class="cls-2" x="812.38" y="26.21" width="4.52" height="69.13"/>
        <rect class="cls-2" x="816.9" y="26.21" width="2.9" height="69.13"/>
        <rect class="cls-2" x="653.18" y="22.41" width="1.18" height="22.77"/>
        <rect class="cls-2" x="654.36" y="22.41" width="4.52" height="22.77"/>
        <rect class="cls-2" x="658.87" y="22.41" width="4.52" height="22.77"/>
        <rect class="cls-2" x="663.39" y="22.41" width="4.52" height="22.77"/>
        <rect class="cls-2" x="667.9" y="22.41" width="4.52" height="22.77"/>
        <rect class="cls-2" x="672.42" y="22.41" width="4.52" height="22.77"/>
        <rect class="cls-2" x="676.93" y="22.41" width="4.52" height="22.77"/>
        <rect class="cls-2" x="681.45" y="22.41" width="4.52" height="22.77"/>
        <rect class="cls-2" x="685.96" y="22.41" width="4.52" height="22.77"/>
        <rect class="cls-2" x="690.48" y="22.41" width="4.52" height="22.77"/>
        <rect class="cls-2" x="694.99" y="22.41" width="4.52" height="22.77"/>
        <rect class="cls-2" x="699.51" y="22.41" width="4.52" height="22.77"/>
        <rect class="cls-2" x="704.02" y="22.41" width="4.52" height="22.77"/>
        <rect class="cls-2" x="708.54" y="22.41" width="1.02" height="22.77"/>
        <rect class="cls-2" x="653.18" y="58.04" width="1.18" height="24.42"/>
        <rect class="cls-2" x="654.36" y="58.04" width="4.52" height="24.42"/>
        <rect class="cls-2" x="658.87" y="58.04" width="4.52" height="24.42"/>
        <rect class="cls-2" x="663.39" y="58.04" width="4.52" height="24.42"/>
        <rect class="cls-2" x="667.9" y="58.04" width="4.52" height="24.42"/>
        <rect class="cls-2" x="672.42" y="58.04" width="4.52" height="24.42"/>
        <rect class="cls-2" x="676.93" y="58.04" width="4.52" height="24.42"/>
        <rect class="cls-2" x="681.45" y="58.04" width="4.52" height="24.42"/>
        <rect class="cls-2" x="685.96" y="58.04" width="4.52" height="24.42"/>
        <rect class="cls-2" x="690.48" y="58.04" width="4.52" height="24.42"/>
        <rect class="cls-2" x="694.99" y="58.04" width="4.52" height="24.42"/>
        <rect class="cls-2" x="699.51" y="58.04" width="4.52" height="24.42"/>
        <rect class="cls-2" x="704.02" y="58.04" width="4.52" height="24.42"/>
        <rect class="cls-2" x="708.54" y="58.04" width="4.52" height="24.42"/>
        <rect class="cls-2" x="713.05" y="58.04" width=".07" height="24.42"/>
        <rect class="cls-2" x="640.32" y="9.52" width=".49" height="85.82"/>
        <rect class="cls-2" x="640.81" y="9.52" width="4.52" height="85.82"/>
        <rect class="cls-2" x="645.33" y="9.52" width="4.52" height="85.82"/>
        <rect class="cls-2" x="649.84" y="9.52" width="4.52" height="85.82"/>
        <rect class="cls-2" x="654.36" y="9.52" width="4.52" height="85.82"/>
        <rect class="cls-2" x="658.87" y="9.52" width="4.52" height="85.82"/>
        <rect class="cls-2" x="663.39" y="9.52" width="4.52" height="85.82"/>
        <rect class="cls-2" x="667.9" y="9.52" width="4.52" height="85.82"/>
        <rect class="cls-2" x="672.42" y="9.52" width="4.52" height="85.82"/>
        <rect class="cls-2" x="676.93" y="9.52" width="4.52" height="85.82"/>
        <rect class="cls-2" x="681.45" y="9.52" width="4.52" height="85.82"/>
        <rect class="cls-2" x="685.96" y="9.52" width="4.52" height="85.82"/>
        <rect class="cls-2" x="690.48" y="9.52" width="4.52" height="85.82"/>
        <rect class="cls-2" x="694.99" y="9.52" width="4.52" height="85.82"/>
        <rect class="cls-2" x="699.51" y="9.52" width="4.52" height="85.82"/>
        <rect class="cls-2" x="704.02" y="9.52" width="4.52" height="85.82"/>
        <rect class="cls-2" x="708.54" y="9.52" width="4.52" height="85.82"/>
        <rect class="cls-2" x="713.05" y="9.52" width="4.52" height="85.82"/>
        <rect class="cls-2" x="717.57" y="9.52" width="4.52" height="85.82"/>
        <rect class="cls-2" x="722.08" y="9.52" width="4.03" height="85.82"/>
        <rect class="cls-2" x="559.03" y="39.1" width=".52" height="16.09"/>
        <rect class="cls-2" x="559.54" y="39.1" width="4.52" height="16.09"/>
        <rect class="cls-2" x="564.06" y="39.1" width="4.52" height="16.09"/>
        <rect class="cls-2" x="568.57" y="39.1" width="4.52" height="16.09"/>
        <rect class="cls-2" x="573.09" y="39.1" width="4.52" height="16.09"/>
        <rect class="cls-2" x="577.6" y="39.1" width="4.52" height="16.09"/>
        <rect class="cls-2" x="582.12" y="39.1" width="4.52" height="16.09"/>
        <rect class="cls-2" x="586.63" y="39.1" width="4.52" height="16.09"/>
        <rect class="cls-2" x="591.15" y="39.1" width="4.52" height="16.09"/>
        <rect class="cls-2" x="595.66" y="39.1" width="4.52" height="16.09"/>
        <rect class="cls-2" x="600.18" y="39.1" width="3.3" height="16.09"/>
        <rect class="cls-2" x="546.17" y="26.21" width="4.34" height="69.13"/>
        <rect class="cls-2" x="550.51" y="26.21" width="4.52" height="69.13"/>
        <rect class="cls-2" x="555.03" y="26.21" width="4.52" height="69.13"/>
        <rect class="cls-2" x="559.54" y="26.21" width="4.52" height="69.13"/>
        <rect class="cls-2" x="564.06" y="26.21" width="4.52" height="69.13"/>
        <rect class="cls-2" x="568.57" y="26.21" width="4.52" height="69.13"/>
        <rect class="cls-2" x="573.09" y="26.21" width="4.52" height="69.13"/>
        <rect class="cls-2" x="577.6" y="26.21" width="4.52" height="69.13"/>
        <rect class="cls-2" x="582.12" y="26.21" width="4.52" height="69.13"/>
        <rect class="cls-2" x="586.63" y="26.21" width="4.52" height="69.13"/>
        <rect class="cls-2" x="591.15" y="26.21" width="4.52" height="69.13"/>
        <rect class="cls-2" x="595.66" y="26.21" width="4.52" height="69.13"/>
        <rect class="cls-2" x="600.18" y="26.21" width="4.52" height="69.13"/>
        <rect class="cls-2" x="604.69" y="26.21" width="4.52" height="69.13"/>
        <rect class="cls-2" x="609.21" y="26.21" width="4.52" height="69.13"/>
        <rect class="cls-2" x="613.72" y="26.21" width="2.74" height="69.13"/>
        <rect class="cls-2" x="421.02" y="26.21" width="3.07" height="69.13"/>
        <rect class="cls-2" x="424.09" y="26.21" width="4.52" height="69.13"/>
        <rect class="cls-2" x="428.61" y="26.21" width="4.52" height="69.13"/>
        <rect class="cls-2" x="433.12" y="26.21" width="4.52" height="69.13"/>
        <rect class="cls-2" x="437.64" y="26.21" width="4.52" height="69.13"/>
        <rect class="cls-2" x="442.15" y="26.21" width="4.52" height="69.13"/>
        <rect class="cls-2" x="446.67" y="26.21" width="4.52" height="69.13"/>
        <rect class="cls-2" x="451.18" y="26.21" width="4.52" height="69.13"/>
        <rect class="cls-2" x="455.7" y="26.21" width="4.52" height="69.13"/>
        <rect class="cls-2" x="460.21" y="26.21" width="4.52" height="69.13"/>
        <rect class="cls-2" x="464.73" y="26.21" width="4.52" height="69.13"/>
        <rect class="cls-2" x="469.24" y="26.21" width="4.52" height="69.13"/>
        <rect class="cls-2" x="473.76" y="26.21" width="4.52" height="69.13"/>
        <rect class="cls-2" x="478.27" y="26.21" width="4.52" height="69.13"/>
        <rect class="cls-2" x="482.79" y="26.21" width="4.52" height="69.13"/>
        <rect class="cls-2" x="487.3" y="26.21" width="4.52" height="69.13"/>
        <rect class="cls-2" x="491.82" y="26.21" width="4.52" height="69.13"/>
        <rect class="cls-2" x="496.33" y="26.21" width="4.52" height="69.13"/>
        <rect class="cls-2" x="500.85" y="26.21" width="4.52" height="69.13"/>
        <rect class="cls-2" x="505.36" y="26.21" width="4.52" height="69.13"/>
        <rect class="cls-2" x="509.88" y="26.21" width="4.52" height="69.13"/>
        <rect class="cls-2" x="514.39" y="26.21" width="4.52" height="69.13"/>
        <rect class="cls-2" x="518.91" y="26.21" width="4.52" height="69.13"/>
        <rect class="cls-2" x="523.42" y="26.21" width="1.4" height="69.13"/>
        <rect class="cls-2" x="342.96" y="66.39" width="4.38" height="16.07"/>
        <rect class="cls-2" x="347.34" y="66.39" width="4.52" height="16.07"/>
        <rect class="cls-2" x="351.85" y="66.39" width="4.52" height="16.07"/>
        <rect class="cls-2" x="356.37" y="66.39" width="4.52" height="16.07"/>
        <rect class="cls-2" x="360.88" y="66.39" width="4.52" height="16.07"/>
        <rect class="cls-2" x="365.4" y="66.39" width="4.52" height="16.07"/>
        <rect class="cls-2" x="369.91" y="66.39" width="4.52" height="16.07"/>
        <rect class="cls-2" x="374.43" y="66.39" width="4.52" height="16.07"/>
        <rect class="cls-2" x="378.94" y="66.39" width="4.52" height="16.07"/>
        <rect class="cls-2" x="383.46" y="66.39" width="3.95" height="16.07"/>
        <rect class="cls-2" x="330.08" y="26.21" width="3.72" height="69.13"/>
        <rect class="cls-2" x="333.79" y="26.21" width="4.52" height="69.13"/>
        <rect class="cls-2" x="338.31" y="26.21" width="4.52" height="69.13"/>
        <rect class="cls-2" x="342.82" y="26.21" width="4.52" height="69.13"/>
        <rect class="cls-2" x="347.34" y="26.21" width="4.52" height="69.13"/>
        <rect class="cls-2" x="351.85" y="26.21" width="4.52" height="69.13"/>
        <rect class="cls-2" x="356.37" y="26.21" width="4.52" height="69.13"/>
        <rect class="cls-2" x="360.88" y="26.21" width="4.52" height="69.13"/>
        <rect class="cls-2" x="365.4" y="26.21" width="4.52" height="69.13"/>
        <rect class="cls-2" x="369.91" y="26.21" width="4.52" height="69.13"/>
        <rect class="cls-2" x="374.43" y="26.21" width="4.52" height="69.13"/>
        <rect class="cls-2" x="378.94" y="26.21" width="4.52" height="69.13"/>
        <rect class="cls-2" x="383.46" y="26.21" width="4.52" height="69.13"/>
        <rect class="cls-2" x="387.97" y="26.21" width="4.52" height="69.13"/>
        <rect class="cls-2" x="392.49" y="26.21" width="4.52" height="69.13"/>
        <rect class="cls-2" x="397" y="26.21" width="3.4" height="69.13"/>
        <rect class="cls-2" x="220.92" y="9.52" width="4.52" height="85.82"/>
        <rect class="cls-2" x="225.43" y="9.52" width="4.52" height="85.82"/>
        <rect class="cls-2" x="229.95" y="9.52" width="4.52" height="85.82"/>
        <rect class="cls-2" x="234.46" y="9.52" width="4.52" height="85.82"/>
        <rect class="cls-2" x="238.98" y="9.52" width="4.52" height="85.82"/>
        <rect class="cls-2" x="243.49" y="9.52" width="4.52" height="85.82"/>
        <rect class="cls-2" x="248.01" y="9.52" width="4.52" height="85.82"/>
        <rect class="cls-2" x="252.52" y="9.52" width="4.52" height="85.82"/>
        <rect class="cls-2" x="257.04" y="9.52" width="4.52" height="85.82"/>
        <rect class="cls-2" x="261.55" y="9.52" width="4.52" height="85.82"/>
        <rect class="cls-2" x="266.07" y="9.52" width="4.52" height="85.82"/>
        <rect class="cls-2" x="270.58" y="9.52" width="4.52" height="85.82"/>
        <rect class="cls-2" x="275.1" y="9.52" width="4.52" height="85.82"/>
        <rect class="cls-2" x="279.61" y="9.52" width="4.52" height="85.82"/>
        <rect class="cls-2" x="284.13" y="9.52" width="4.52" height="85.82"/>
        <rect class="cls-2" x="288.64" y="9.52" width="4.52" height="85.82"/>
        <rect class="cls-2" x="293.16" y="9.52" width="4.52" height="85.82"/>
        <rect class="cls-2" x="297.67" y="9.52" width="4.52" height="85.82"/>
        <rect class="cls-2" x="302.19" y="9.52" width="4.52" height="85.82"/>
        <rect class="cls-2" x="306.7" y="9.52" width=".01" height="85.82"/>
      </g>
    </g>
  </g>
</svg>