<?xml version="1.0" encoding="UTF-8"?>
<svg id="_레이어_1" data-name="레이어 1" xmlns="http://www.w3.org/2000/svg" viewBox="0 0 500 500">
  <defs>
    <style>
      .cls-1 {
        fill: #fff;
      }
    </style>
  </defs>
  <path class="cls-1" d="M80.8,452.82c-2.28,0-4.73-.04-7.43-.16-24.43-1.03-43.87-12.23-54.74-31.54-7.86-13.98-8.57-27.62-8.62-29.13,0-.23-.01-.46-.01-.69V115.38c0-26.46,10.49-42.03,19.28-50.44,18.28-17.46,42.3-17.76,46.99-17.62h202.25c10.63,0,19.25,8.62,19.25,19.25s-8.62,19.25-19.25,19.25H75.96c-.29,0-.59,0-.88-.02.1,0-11.9-.17-19.37,7.14-4.78,4.68-7.21,12.23-7.21,22.43v275.42c.48,6.71,4.08,22.46,26.48,23.4,5.07.21,8.96.11,13.14-.03,13.43-.45,21.32-6.9,30.3-17.9,3.96-5.32,52.94-71.18,70.39-94.49l.95-1.27c8.34-11.21,25.69-34.55,57.78-34.55s49.16,23.22,56.11,33.14c4.46,6.37,14.99,21,21.4,29.65,6.42,8.67,11.32,13.1,17.49,15.81,11.79,5.17,22.78,4.3,33.6-2.65,25.33-16.28,16.11-44.75,14.97-47.95-.05-.15-.16-.46-.21-.61-.15-.45-14.72-44.84-19.5-58.13-.81-2.26-1.6-4.52-2.39-6.8-5.84-16.73-10.89-31.18-22.68-40.12-8.48-6.42-10.14-18.5-3.72-26.97,6.42-8.47,18.49-10.14,26.97-3.72,21.07,15.96,28.88,38.36,35.78,58.12.76,2.17,1.51,4.33,2.28,6.47,4.78,13.3,18.25,54.29,19.73,58.79,7.65,20.89,10.99,66.68-30.41,93.3-21.88,14.07-46.05,15.98-69.89,5.53-15.81-6.93-25.54-18.12-32.97-28.15-6.68-9.02-17.31-23.78-21.98-30.46-6.65-9.49-12.68-16.74-24.58-16.74s-18.87,8.24-26.88,19.02l-1.02,1.37c-18.16,24.28-70.57,94.74-70.57,94.74-.16.22-.33.44-.5.65-11.83,14.56-29.25,31.4-59.14,32.41-2.67.09-5.49.17-8.63.17Z"/>
  <path class="cls-1" d="M428.67,452.68h-239c-10.63,0-19.25-8.62-19.25-19.25s8.62-19.25,19.25-19.25h237.66c6.43-1.08,24.17-6.45,24.17-32.04V111.85c0-11.9-3.96-26.08-22.83-26.08h-29.24c-.93,0-1.97-.02-3.12-.04-10.69-.21-26.92-.53-41.28,17.4-2.7,3.59-37.98,50.46-50.13,66.43-7.5,9.86-25.07,32.96-55.23,32.96-27.44,0-43.67-17.14-52.4-26.35-8.87-9.36-15.65-11.11-25.11-11.11-8.56,0-19.12,4.69-23.18,17.85-1.37,5.11-19.25,71.76-30.39,115.43-2.9,11.37.16,26.49,2.86,30.04,6.44,8.46,4.79,20.54-3.67,26.98-8.48,6.44-20.55,4.79-26.98-3.67-11.98-15.76-14.26-44.34-9.53-62.87,11.59-45.45,30.4-115.5,30.59-116.2.05-.19.1-.37.16-.55,8.19-27.22,32.35-45.51,60.13-45.51,14.5,0,33.63,2.61,52.93,22.99,8.09,8.53,14.49,14.47,24.58,14.47s17.46-8.4,24.59-17.77c12.61-16.58,50.17-66.49,50.18-66.49.1-.14.21-.27.31-.4,26.25-33.03,59.75-32.38,72.33-32.13.87.02,31.61.03,31.61.03,36.11,0,61.33,26.56,61.33,64.59v270.28c0,50.59-38.75,68.2-59.24,70.44-.69.08-1.39.11-2.09.11Z"/>
</svg>