<?xml version="1.0" encoding="UTF-8"?>
<svg id="Layer_2" xmlns="http://www.w3.org/2000/svg" xmlns:xlink="http://www.w3.org/1999/xlink" viewBox="0 0 553.58 553.58">
  <defs>
    <style>
      .cls-1 {
        fill: url(#linear-gradient-2);
      }

      .cls-2 {
        fill: url(#radial-gradient);
      }

      .cls-3 {
        fill: url(#linear-gradient);
      }
    </style>
    <radialGradient id="radial-gradient" cx="54.66" cy="326.81" fx="54.66" fy="326.81" r="520.23" gradientTransform="translate(0 -415.99)" gradientUnits="userSpaceOnUse">
      <stop offset="0" stop-color="#000131"/>
      <stop offset=".7" stop-color="#12284a"/>
      <stop offset=".8" stop-color="#0c1c34"/>
      <stop offset=".9" stop-color="#03070e"/>
      <stop offset="1" stop-color="#000"/>
    </radialGradient>
    <linearGradient id="linear-gradient" x1="232.87" y1="794.96" x2="448.5" y2="595.04" gradientTransform="translate(0 -415.99)" gradientUnits="userSpaceOnUse">
      <stop offset="0" stop-color="#b76bff"/>
      <stop offset="1" stop-color="#01fffd"/>
    </linearGradient>
    <linearGradient id="linear-gradient-2" x1="171.02" y1="754.06" x2="378.54" y2="539.93" xlink:href="#linear-gradient"/>
  </defs>
  <g id="logo">
    <g>
      <rect class="cls-2" width="553.58" height="553.58"/>
      <g>
        <path class="cls-3" d="M405,419.03h-175.6c-5.36,0-9.73-4.37-9.73-9.73s4.37-9.73,9.73-9.73h175.6c12.1,0,21.83-9.85,21.83-21.83v-202.04c0-12.1-9.85-21.83-21.83-21.83h-39.78c-5.74,0-11.35,2.87-14.84,7.61l-39.16,57.12c0,.12-.12.25-.25.37-5.74,7.73-13.59,15.71-26.32,15.71h-17.09c-11.47,0-21.83-6.36-26.94-16.71l-.25-.37c-1.75-3.37-5.24-5.49-9.48-5.61h-17.21c-4.61,0-8.98,3.24-10.48,7.86l-28.06,93.29h0c-9.73,30.68,3.62,35.92,8.11,37.41,4.99,2,7.48,7.61,5.49,12.6-2,4.99-7.61,7.48-12.6,5.49-12.47-4.86-20.33-14.09-22.82-26.94-2-9.73-.75-21.08,3.37-34.17l28.06-93.29h0c4.12-12.97,16.09-21.7,29.18-21.58h17.21c11.35.25,21.58,6.61,26.44,16.34l.25.37c1.87,3.62,5.61,5.99,9.73,5.99h16.71c3.24,0,5.74-1.12,10.73-7.86l39.16-56.87h0c7.11-9.98,18.46-15.84,30.68-15.84h39.91c22.82,0,41.28,18.46,41.28,41.28v202.04c0,22.82-18.46,41.41-41.28,41.41v-.37l.25-.12Z"/>
        <path class="cls-1" d="M164.17,419.4h-14.97c-23.07,0-41.66-18.71-41.66-41.66v-202.04c0-23.07,18.71-41.66,41.66-41.66h154.65c5.61,0,10.1,4.49,10.1,10.1s-4.49,10.1-10.1,10.1h-154.77c-11.97,0-21.45,9.73-21.45,21.45v202.04c0,11.97,9.73,21.45,21.45,21.45h14.97c5.61,0,10.85-2.74,14.34-7.11h0l67.85-87.93c.12-.25.25-.37.37-.5,5.49-6.11,13.47-9.98,21.7-10.23l10.23-.37c10.23-.37,19.95,4.49,25.82,12.6l23.7,32.93c8.11,11.22,22.95,15.71,36.04,10.85l1.12-.37c15.71-5.86,23.82-23.57,18.21-39.41l-33.17-91.79c-.87-2.62-2.87-4.74-5.24-5.86-4.99-2.49-7.11-8.36-4.74-13.47,2.49-4.99,8.36-7.11,13.47-4.74,7.23,3.49,12.72,9.73,15.46,17.21l33.3,91.79c4.61,12.72,3.99,26.44-1.75,38.79-5.61,12.22-15.71,21.58-28.44,26.44l-1.12.37c-21.45,8.11-46.02.75-59.49-17.83l-23.7-32.93c-2-2.87-5.24-4.49-8.73-4.37l-10.23.37c-2.74,0-5.36,1.37-7.23,3.24l-67.6,87.55c-7.23,9.48-18.58,15.09-30.43,15.09h.25l.12-.12Z"/>
      </g>
    </g>
  </g>
</svg>