<?xml version="1.0" encoding="UTF-8"?>
<svg id="Layer_2" xmlns="http://www.w3.org/2000/svg" xmlns:xlink="http://www.w3.org/1999/xlink" viewBox="0 0 738.99 144.44">
  <defs>
    <style>
      .cls-1 {
        fill: url(#linear-gradient-2);
      }

      .cls-2 {
        fill: url(#linear-gradient-4);
      }

      .cls-3 {
        fill: url(#linear-gradient-3);
      }

      .cls-4 {
        fill: url(#linear-gradient);
      }
    </style>
    <linearGradient id="linear-gradient" x1="58.06" y1="127.28" x2="173.5" y2="23.34" gradientUnits="userSpaceOnUse">
      <stop offset="0" stop-color="#9e3afc"/>
      <stop offset="1" stop-color="#00e6e4"/>
    </linearGradient>
    <linearGradient id="linear-gradient-2" x1="9.13" y1="118.36" x2="127.42" y2="11.85" xlink:href="#linear-gradient"/>
    <linearGradient id="linear-gradient-3" x1="202.86" y1="129.6" x2="738.98" y2="94.51" xlink:href="#linear-gradient"/>
    <linearGradient id="linear-gradient-4" x1="203.15" y1="76.69" x2="739.15" y2="40.64" xlink:href="#linear-gradient"/>
  </defs>
  <g id="logo">
    <g>
      <path class="cls-4" d="M150.44,144.27H61.57c-2.74,0-4.91-2.17-4.91-4.91s2.17-4.91,4.91-4.91h88.87c6.11,0,11.08-4.97,11.08-11.08V21.07c0-6.11-4.97-11.08-11.08-11.08h-20.22c-2.97,0-5.77,1.43-7.48,3.83l-19.88,28.9c0,.06-.06.11-.11.17-2.97,3.94-6.85,7.94-13.36,7.94h-8.62c-5.83,0-11.08-3.26-13.71-8.45l-.11-.23c-.86-1.71-2.63-2.8-4.74-2.86h-8.68c-2.34,0-4.57,1.6-5.31,4l-14.16,47.23s0,.02,0,.06c-4.85,15.42,1.83,18.05,4.06,18.9,2.51.97,3.77,3.88,2.8,6.34-.97,2.51-3.88,3.77-6.34,2.8-6.28-2.46-10.22-7.2-11.59-13.71-.97-4.85-.4-10.68,1.71-17.31l14.16-47.23v-.06c2.06-6.51,8.17-10.97,14.85-10.91h8.68c5.77.11,10.91,3.31,13.42,8.28l.11.23c.97,1.83,2.86,3.03,4.91,3.03h8.51c1.6,0,2.91-.63,5.43-4l19.82-28.78v-.06C118.17,3.14,123.94.11,130.05.11h20.22c11.54,0,20.9,9.37,20.9,20.9v102.23c0,11.59-9.37,20.96-20.9,20.96l.17.06Z"/>
      <path class="cls-1" d="M28.61,144.44h-7.54c-11.65,0-21.07-9.48-21.07-21.07V21.07C0,9.42,9.48,0,21.07,0h78.24c2.86,0,5.08,2.28,5.08,5.08s-2.28,5.08-5.08,5.08H21.02c-6,0-10.91,4.85-10.91,10.91v102.23c0,6,4.85,10.91,10.91,10.91h7.54c2.86,0,5.54-1.37,7.2-3.6h0l34.38-44.49c.06-.11.17-.17.23-.29,2.8-3.14,6.85-5.03,11.02-5.2l5.14-.17c5.2-.17,10.05,2.23,13.08,6.4l12.05,16.62c4.11,5.71,11.59,7.94,18.22,5.48l.63-.23c8-2.97,12.11-11.94,9.2-19.99l-16.73-46.49c-.46-1.31-1.43-2.4-2.68-2.97-2.51-1.26-3.6-4.28-2.4-6.8,1.26-2.51,4.28-3.6,6.8-2.4,3.66,1.77,6.45,4.85,7.82,8.68l16.85,46.49c2.28,6.45,2,13.36-.86,19.65-2.86,6.23-8,10.97-14.39,13.36l-.63.23c-10.91,4.11-23.24.4-30.1-9.02l-12.05-16.62c-1.03-1.43-2.68-2.23-4.45-2.17l-5.14.17c-1.37,0-2.74.63-3.66,1.66l-34.21,44.26c-3.66,4.74-9.42,7.6-15.36,7.6l.11.06Z"/>
      <path class="cls-3" d="M210.12,119.88h0c-1.2,0-2.34-.17-3.37-.57s-1.88-.97-2.63-1.66c-.74-.74-1.31-1.54-1.77-2.51-.4-.97-.63-2.06-.63-3.2h0c0-1.14.23-2.23.63-3.2s1.03-1.83,1.77-2.51,1.66-1.26,2.68-1.66c1.03-.4,2.17-.57,3.37-.57h0c1.31,0,2.51.23,3.54.63,1.03.46,1.94,1.03,2.68,1.88h0l-1.83,1.77c-.57-.63-1.26-1.03-1.94-1.37-.69-.29-1.48-.46-2.34-.46h0c-.8,0-1.54.11-2.23.4-.69.29-1.31.63-1.83,1.14-.51.51-.91,1.09-1.14,1.71-.29.63-.4,1.37-.4,2.17h0c0,.8.11,1.54.4,2.17s.69,1.26,1.14,1.71c.51.51,1.09.86,1.77,1.14s1.43.4,2.28.4h0c.74,0,1.48-.11,2.23-.4.74-.23,1.43-.63,2.06-1.26h0l1.66,2.17c-.8.63-1.77,1.14-2.86,1.48s-2.17.51-3.26.51v.06ZM216.23,117.88l-2.74-.4v-5.83h2.74v6.23ZM225.03,119.65h-2.97l7.02-15.53h2.86l7.02,15.53h-3.03l-6.05-13.99h1.14l-6,13.99h0ZM235.19,116.05h-9.94l.74-2.28h8.4l.74,2.28h.06ZM247.81,119.65h-2.74v-15.53h2.4l6.8,11.37h-1.26l6.68-11.37h2.4v15.53h-2.68v-11.25h.57l-5.71,9.48h-1.31l-5.77-9.48h.69v11.25h-.06ZM273.17,112.97v-2.4h7.71v2.4h-7.71ZM273.4,106.52v10.68h8.8v2.46h-11.65v-15.53h11.37v2.46h-8.45l-.06-.06ZM302.81,119.65h-2.86v-15.53h2.86v15.53ZM314.12,119.65h-2.86v-15.53h2.4l9.71,11.99h-1.2v-11.99h2.86v15.53h-2.34l-9.77-11.99h1.2v11.99h0ZM336.05,113.71v-2.46h7.77v2.46h-7.77ZM336.28,106.52v13.14h-2.86v-15.53h11.37v2.46h-8.45l-.06-.06ZM354.67,119.65h-2.86v-15.53h6.4c1.37,0,2.57.23,3.54.69s1.71,1.09,2.28,1.88c.51.86.8,1.83.8,2.97h0c0,1.14-.29,2.11-.8,2.97-.51.8-1.31,1.43-2.28,1.88s-2.17.69-3.54.69h-4.8l1.31-1.31v5.83l-.06-.06ZM365.07,119.65h-3.08l-3.94-5.65h3.08l3.94,5.65ZM354.67,105.15v9.02l-1.31-1.37h4.68c1.26,0,2.23-.29,2.86-.8.63-.57.97-1.31.97-2.28h0c0-.97-.34-1.77-.97-2.28-.63-.51-1.6-.8-2.86-.8h-4.68l1.31-1.43v-.06ZM373.01,119.65h-2.97l7.02-15.53h2.86l7.02,15.53h-3.03l-6-13.99h1.14l-6,13.99h-.06ZM383.17,116.05h-9.94l.74-2.28h8.4l.8,2.28ZM397.91,119.88h0c-1.2,0-2.4-.17-3.48-.51-1.09-.34-2-.8-2.63-1.37h0l1.03-2.23c.63.51,1.37.91,2.28,1.26.91.34,1.88.46,2.86.46h0c.8,0,1.48-.11,1.94-.29s.86-.4,1.09-.74c.23-.29.34-.63.34-1.03h0c0-.46-.17-.86-.51-1.14-.34-.29-.74-.51-1.31-.69-.57-.17-1.14-.34-1.83-.46-.63-.17-1.31-.34-1.94-.51-.63-.23-1.26-.46-1.83-.74-.51-.34-.97-.74-1.31-1.31-.34-.51-.51-1.2-.51-2.06h0c0-.86.23-1.6.69-2.28.46-.69,1.14-1.26,2.06-1.71.91-.4,2.11-.63,3.54-.63h0c.91,0,1.83.11,2.8.34.91.23,1.71.57,2.4,1.03h0l-.91,2.23c-.69-.4-1.43-.74-2.17-.91-.74-.23-1.43-.29-2.11-.29h0c-.8,0-1.43.11-1.94.29s-.86.46-1.09.74-.34.69-.34,1.09h0c0,.46.17.86.51,1.14.34.29.74.51,1.31.69.51.17,1.14.34,1.83.46s1.31.34,2,.51c.63.17,1.26.46,1.83.74.51.29.97.74,1.31,1.26.34.51.51,1.2.51,2h0c0,.8-.23,1.6-.69,2.28s-1.14,1.26-2.06,1.71c-.91.4-2.11.63-3.54.63l-.11.06ZM417.27,119.65h-2.91v-13.08h-5.14v-2.46h13.19v2.46h-5.14v13.08ZM431.72,119.65h-2.86v-15.53h6.4c1.37,0,2.57.23,3.54.69s1.71,1.09,2.28,1.88c.51.86.8,1.83.8,2.97h0c0,1.14-.29,2.11-.8,2.97-.51.8-1.31,1.43-2.28,1.88s-2.17.69-3.54.69h-4.8l1.31-1.31v5.83l-.06-.06ZM442.11,119.65h-3.08l-3.94-5.65h3.08l3.94,5.65ZM431.72,105.15v9.02l-1.31-1.37h4.63c1.26,0,2.23-.29,2.86-.8.63-.57.97-1.31.97-2.28h0c0-.97-.34-1.77-.97-2.28-.63-.51-1.6-.8-2.86-.8h-4.63l1.31-1.43v-.06ZM455.93,119.88h0c-2.11,0-3.83-.63-5.03-1.83-1.2-1.2-1.83-2.91-1.83-5.2h0v-8.8h2.91v8.68c0,1.6.34,2.74,1.03,3.48.69.74,1.66,1.09,2.91,1.09h0c1.26,0,2.23-.34,2.91-1.09.69-.74,1.03-1.88,1.03-3.48h0v-8.68h2.86v8.8c0,2.28-.63,4-1.83,5.2-1.2,1.2-2.86,1.83-4.97,1.83h0ZM478.21,119.88h0c-1.2,0-2.28-.17-3.31-.57s-1.88-.97-2.63-1.66c-.74-.74-1.31-1.54-1.71-2.51-.4-.97-.63-2.06-.63-3.2h0c0-1.14.23-2.23.63-3.2.4-.97.97-1.83,1.77-2.51.74-.74,1.66-1.26,2.63-1.66,1.03-.4,2.11-.57,3.31-.57h0c1.26,0,2.46.23,3.48.69s1.94,1.09,2.68,1.94h0l-1.88,1.77c-.57-.63-1.2-1.09-1.88-1.37s-1.43-.46-2.28-.46h0c-.8,0-1.54.11-2.23.4s-1.26.63-1.77,1.14c-.51.51-.91,1.09-1.14,1.71-.29.63-.4,1.37-.4,2.17h0c0,.8.11,1.54.4,2.23.29.69.69,1.26,1.14,1.71.51.51,1.09.86,1.77,1.14.69.29,1.43.4,2.23.4h0c.8,0,1.6-.17,2.28-.46s1.31-.74,1.88-1.37h0l1.88,1.77c-.74.86-1.6,1.48-2.68,1.94-1.03.46-2.23.69-3.48.69l-.06-.17ZM497.4,119.65h-2.91v-13.08h-5.14v-2.46h13.19v2.46h-5.14v13.08ZM515.62,119.88h0c-2.11,0-3.83-.63-5.03-1.83s-1.83-2.91-1.83-5.2h0v-8.8h2.86v8.68c0,1.6.34,2.74,1.03,3.48.69.74,1.66,1.09,2.91,1.09h0c1.26,0,2.23-.34,2.91-1.09.69-.74,1.03-1.88,1.03-3.48h0v-8.68h2.86v8.8c0,2.28-.63,4-1.83,5.2-1.2,1.2-2.86,1.83-4.97,1.83h.06ZM533.55,119.65h-2.86v-15.53h6.4c1.37,0,2.57.23,3.54.69s1.71,1.09,2.28,1.88c.51.86.8,1.83.8,2.97h0c0,1.14-.29,2.11-.8,2.97-.51.8-1.31,1.43-2.28,1.88s-2.17.69-3.54.69h-4.8l1.31-1.31v5.83l-.06-.06ZM543.94,119.65h-3.08l-3.94-5.65h3.08l3.94,5.65ZM533.55,105.15v9.02l-1.31-1.37h4.63c1.26,0,2.23-.29,2.86-.8.63-.57.97-1.31.97-2.28h0c0-.97-.34-1.77-.97-2.28-.63-.51-1.6-.8-2.86-.8h-4.63l1.31-1.43v-.06ZM553.77,112.97v-2.4h7.71v2.4h-7.71ZM554,106.52v10.68h8.8v2.46h-11.65v-15.53h11.37v2.46h-8.45l-.06-.06ZM583.41,119.65h-2.91v-15.53h6.4c1.37,0,2.57.23,3.54.69s1.77,1.09,2.28,1.88c.51.86.8,1.83.8,2.97h0c0,1.14-.29,2.11-.8,2.97s-1.26,1.48-2.28,1.94c-.97.46-2.17.69-3.54.69h-4.8l1.31-1.37v5.83-.06ZM583.41,105.15v9.02l-1.31-1.37h4.63c1.26,0,2.23-.29,2.86-.8s.97-1.31.97-2.28h0c0-.97-.34-1.77-.97-2.28s-1.6-.8-2.86-.8h-4.63l1.31-1.43v-.06ZM603.74,119.65h-2.91v-15.53h6.4c1.37,0,2.57.23,3.54.69s1.77,1.09,2.28,1.88c.51.86.8,1.83.8,2.97h0c0,1.14-.29,2.11-.8,2.97-.51.8-1.26,1.43-2.28,1.88-.97.46-2.17.69-3.54.69h-4.8l1.31-1.31v5.83-.06ZM614.14,119.65h-3.14l-3.94-5.65h3.08l3.94,5.65h.06ZM603.74,105.15v9.02l-1.31-1.37h4.63c1.26,0,2.23-.29,2.86-.8.63-.57.97-1.31.97-2.28h0c0-.97-.34-1.77-.97-2.28s-1.6-.8-2.86-.8h-4.63l1.31-1.43v-.06ZM628.59,119.88h0c-1.2,0-2.34-.23-3.37-.63s-1.94-.97-2.68-1.66c-.74-.74-1.31-1.54-1.77-2.51-.4-.97-.63-2.06-.63-3.2h0c0-1.14.23-2.23.63-3.2.4-.97,1.03-1.83,1.77-2.51.74-.74,1.66-1.26,2.68-1.66,1.03-.4,2.11-.57,3.31-.57h0c1.2,0,2.34.17,3.37.57s1.88.97,2.63,1.66c.74.74,1.31,1.54,1.77,2.51.4.97.63,2.06.63,3.2h0c0,1.14-.23,2.23-.63,3.2-.4.97-1.03,1.83-1.77,2.51-.74.74-1.66,1.26-2.63,1.66-1.03.4-2.11.63-3.31.63ZM628.59,117.37h0c.8,0,1.54-.11,2.17-.4.63-.29,1.26-.63,1.71-1.14.51-.51.86-1.09,1.14-1.71.29-.69.4-1.43.4-2.23h0c0-.8-.11-1.54-.4-2.17-.29-.63-.63-1.26-1.14-1.71-.51-.51-1.09-.86-1.71-1.14-.69-.29-1.37-.4-2.17-.4h0c-.8,0-1.48.11-2.17.4-.63.29-1.26.63-1.71,1.14-.51.51-.86,1.09-1.14,1.71s-.4,1.37-.4,2.17h0c0,.8.11,1.54.4,2.17s.63,1.26,1.14,1.71c.51.51,1.09.86,1.71,1.14s1.37.4,2.17.4v.06ZM650.23,119.65h-2.86v-13.08h-5.14v-2.46h13.19v2.46h-5.14v13.08h-.06ZM669.08,119.88h0c-1.2,0-2.34-.23-3.37-.63s-1.88-.97-2.68-1.66c-.74-.74-1.31-1.54-1.77-2.51-.4-.97-.63-2.06-.63-3.2h0c0-1.14.23-2.23.63-3.2.4-.97,1.03-1.83,1.77-2.51.74-.74,1.66-1.26,2.68-1.66,1.03-.4,2.11-.57,3.31-.57h0c1.2,0,2.34.17,3.37.57s1.88.97,2.63,1.66c.74.74,1.31,1.54,1.77,2.51.4.97.63,2.06.63,3.2h0c0,1.14-.23,2.23-.63,3.2-.4.97-1.03,1.83-1.77,2.51-.74.74-1.66,1.26-2.63,1.66-1.03.4-2.11.63-3.31.63ZM669.08,117.37h0c.8,0,1.54-.11,2.17-.4.69-.29,1.26-.63,1.71-1.14.51-.51.86-1.09,1.14-1.71.29-.69.4-1.43.4-2.23h0c0-.8-.11-1.54-.4-2.17-.29-.63-.63-1.26-1.14-1.71-.46-.51-1.03-.86-1.71-1.14s-1.37-.4-2.17-.4h0c-.8,0-1.48.11-2.17.4-.63.29-1.26.63-1.71,1.14-.51.51-.91,1.09-1.14,1.71s-.4,1.37-.4,2.17h0c0,.8.11,1.54.4,2.17s.63,1.26,1.14,1.71c.51.51,1.09.86,1.71,1.14s1.37.4,2.17.4v.06ZM691.87,119.88h0c-1.2,0-2.28-.17-3.31-.57s-1.88-.97-2.63-1.66c-.74-.74-1.31-1.54-1.77-2.51-.4-.97-.63-2.06-.63-3.2h0c0-1.14.23-2.23.63-3.2s1.03-1.83,1.77-2.51c.74-.74,1.66-1.26,2.63-1.66,1.03-.4,2.11-.57,3.31-.57h0c1.26,0,2.4.23,3.48.69,1.03.46,1.94,1.09,2.68,1.94h0l-1.88,1.77c-.57-.63-1.2-1.09-1.88-1.37-.69-.29-1.48-.46-2.28-.46h0c-.8,0-1.54.11-2.23.4-.69.29-1.26.63-1.77,1.14s-.86,1.09-1.14,1.71-.4,1.37-.4,2.17h0c0,.8.11,1.54.4,2.23.29.69.63,1.26,1.14,1.71.51.51,1.09.86,1.77,1.14s1.43.4,2.23.4h0c.8,0,1.54-.17,2.28-.46.69-.29,1.31-.74,1.88-1.37h0l1.88,1.77c-.74.86-1.6,1.48-2.68,1.94s-2.23.69-3.48.69v-.17ZM712.37,119.88h0c-1.2,0-2.34-.23-3.37-.63s-1.88-.97-2.68-1.66c-.74-.74-1.31-1.54-1.77-2.51-.4-.97-.63-2.06-.63-3.2h0c0-1.14.23-2.23.63-3.2s1.03-1.83,1.77-2.51c.74-.74,1.66-1.26,2.68-1.66,1.03-.4,2.11-.57,3.31-.57h0c1.2,0,2.34.17,3.37.57s1.88.97,2.63,1.66c.74.74,1.31,1.54,1.77,2.51.4.97.63,2.06.63,3.2h0c0,1.14-.23,2.23-.63,3.2s-1.03,1.83-1.77,2.51c-.74.74-1.66,1.26-2.63,1.66-1.03.4-2.11.63-3.31.63ZM712.31,117.37h0c.8,0,1.54-.11,2.17-.4.69-.29,1.26-.63,1.71-1.14.51-.51.86-1.09,1.14-1.71.29-.69.4-1.43.4-2.23h0c0-.8-.11-1.54-.4-2.17-.29-.63-.63-1.26-1.14-1.71-.51-.51-1.09-.86-1.71-1.14-.69-.29-1.37-.4-2.17-.4h0c-.8,0-1.48.11-2.17.4-.63.29-1.26.63-1.71,1.14-.51.51-.91,1.09-1.14,1.71-.29.63-.4,1.37-.4,2.17h0c0,.8.11,1.54.4,2.17.29.69.63,1.26,1.14,1.71.51.51,1.09.86,1.71,1.14.69.29,1.37.4,2.17.4v.06ZM738.99,119.65h-11.02v-15.53h2.86v13.08h8.11v2.46h.06Z"/>
      <path class="cls-2" d="M250.33,88.01h-37.81c-2,0-3.77-.46-5.43-1.43-1.6-.97-2.91-2.23-3.88-3.88-.97-1.6-1.43-3.43-1.43-5.43h0v-37.92c0-2,.46-3.77,1.43-5.37.97-1.6,2.23-2.91,3.88-3.88,1.6-.97,3.43-1.43,5.43-1.43h37.81c2,0,3.77.46,5.43,1.43,1.66.97,2.97,2.28,3.94,3.88s1.43,3.43,1.43,5.37h0v3.54h-8.97v-3.31c0-.57-.17-1.03-.57-1.43s-.86-.63-1.48-.63h-37.35c-.57,0-1.03.23-1.43.63-.4.4-.63.91-.63,1.43h0v37.41c0,.57.23,1.03.63,1.43s.91.63,1.43.63h37.35c.63,0,1.09-.23,1.48-.63.4-.4.57-.91.57-1.43h0v-12.62h-13.99v-9.02h23.02v21.87c0,2-.46,3.77-1.43,5.43-.97,1.6-2.28,2.91-3.94,3.88-1.66.97-3.48,1.43-5.43,1.43h0l-.06.06ZM325.94,88.01h-37.92c-2,0-3.77-.51-5.43-1.48-1.6-.97-2.91-2.28-3.88-3.88s-1.43-3.37-1.43-5.37h0v-17.65h39.64v-8.51c0-.57-.17-1.03-.57-1.43s-.86-.63-1.43-.63h-37.69v-8.91h37.92c2,0,3.77.46,5.43,1.43,1.6.97,2.91,2.28,3.88,3.94s1.43,3.43,1.43,5.37h0v37.12h.06ZM288.25,79.1h28.67v-11.14h-30.73v9.08c0,.57.23,1.03.63,1.43.4.4.91.63,1.43.63ZM349.19,88.01h-8.97v-47.8h61.11c2.06,0,3.83.51,5.43,1.48,1.6.97,2.86,2.28,3.83,3.88.97,1.6,1.43,3.37,1.43,5.37h0v37.12h-8.8v-36.84c0-.57-.23-1.03-.63-1.43-.4-.4-.91-.63-1.43-.63h-18.39c-.63,0-1.09.23-1.48.63-.4.4-.57.91-.57,1.43h0v36.84h-8.97v-36.84c0-.57-.23-1.03-.63-1.43-.4-.4-.91-.63-1.43-.63h-18.45c-.57,0-1.03.23-1.43.63-.4.4-.57.91-.57,1.43h0v36.84l-.06-.06ZM437.49,88.01h0c-1.94,0-3.77-.51-5.37-1.48-1.6-.97-2.91-2.28-3.88-3.88-.97-1.6-1.48-3.37-1.48-5.37h0v-26.39c0-2,.51-3.77,1.48-5.37.97-1.6,2.28-2.91,3.88-3.88,1.6-.97,3.37-1.48,5.37-1.48h27.19c2,0,3.77.46,5.43,1.43,1.6.97,2.91,2.28,3.88,3.94s1.43,3.43,1.43,5.37h0v17.65h-39.75v8.51c0,.57.23,1.03.63,1.43.4.4.86.63,1.43.63h37.69v8.91h-37.92,0ZM435.66,51.17v9.08h30.73v-9.08c0-.57-.17-1.03-.57-1.43s-.86-.63-1.37-.63h-26.73c-.57,0-1.03.23-1.43.63-.4.4-.63.91-.63,1.43h0ZM491.91,88.01h0V28.67h46.15c1.94,0,3.71.46,5.37,1.43s2.97,2.28,3.88,3.88c.97,1.6,1.43,3.43,1.43,5.37h0v12.11c0,.74-.06,1.43-.23,2.17-.11.74-.34,1.37-.69,2h0c1.09,1.54,1.94,2.97,2.51,4.34.57,1.31.86,2.68.86,4.06h0v13.25c0,2-.46,3.77-1.43,5.43-.97,1.6-2.23,2.91-3.88,3.88-1.66.97-3.48,1.43-5.43,1.43h-48.55ZM502.88,79.1h37.35c.63,0,1.09-.23,1.48-.63.4-.4.57-.91.57-1.43h0v-12.79c0-.57-.17-1.03-.57-1.43s-.86-.63-1.48-.63h-37.35c-.57,0-1.03.23-1.43.63-.4.4-.63.86-.63,1.43h0v12.79c0,.57.23,1.03.63,1.43.4.4.86.63,1.43.63ZM502.88,53.29h34.95c.57,0,1.03-.23,1.43-.63.4-.4.57-.86.57-1.43h0v-11.65c0-.57-.17-1.03-.57-1.43s-.86-.63-1.43-.63h-34.95c-.57,0-1.03.23-1.43.63-.4.4-.63.91-.63,1.43h0v11.65c0,.57.23,1.03.63,1.43.4.4.86.63,1.43.63ZM578.15,88.01h0c-2,0-3.77-.51-5.43-1.48-1.6-.97-2.91-2.28-3.88-3.88-.97-1.6-1.43-3.37-1.43-5.37h0v-37.12h8.91v36.84c0,.57.23,1.03.63,1.43s.91.63,1.43.63h26.73c.57,0,1.03-.23,1.43-.63.4-.4.63-.91.63-1.43h0v-36.84h8.91v37.12c0,2-.46,3.77-1.43,5.37-.97,1.6-2.23,2.86-3.88,3.88-1.6.97-3.43,1.48-5.43,1.48h-27.19,0ZM640.98,88.01h-8.91v-47.8h8.91v47.8ZM640.98,33.41h-8.91v-8.91h8.91v8.91ZM668.91,88.01h0c-2,0-3.77-.51-5.37-1.48-1.6-.97-2.91-2.28-3.88-3.88-.97-1.6-1.48-3.37-1.48-5.37h0V24.5h8.91v52.49c0,.57.23,1.03.63,1.43s.86.63,1.43.63h8.68v8.91h-8.91v.06ZM701.06,88.01h0c-2,0-3.77-.46-5.43-1.43-1.6-.97-2.91-2.23-3.88-3.88-.97-1.66-1.43-3.43-1.43-5.37h0v-26.39c0-2,.46-3.77,1.43-5.37.97-1.6,2.23-2.91,3.88-3.88s3.43-1.48,5.43-1.48h29.01v-15.65h8.91v63.51h-37.92v-.06ZM701.35,79.1h26.73c.57,0,1.03-.23,1.37-.63.4-.4.57-.91.57-1.43h0v-25.87c0-.57-.17-1.03-.57-1.43s-.86-.63-1.37-.63h-26.73c-.57,0-1.03.23-1.43.63-.4.4-.63.91-.63,1.43h0v25.87c0,.57.23,1.03.63,1.43s.86.63,1.43.63Z"/>
    </g>
  </g>
</svg>