<?xml version="1.0" encoding="UTF-8"?>
<svg id="_레이어_1" data-name="레이어 1" xmlns="http://www.w3.org/2000/svg" xmlns:xlink="http://www.w3.org/1999/xlink" viewBox="0 0 500 550">
  <defs>
    <style>
      .cls-1 {
        fill: #1000aa;
      }

      .cls-2 {
        clip-path: url(#clippath);
      }
    </style>
    <clipPath id="clippath">
      <path class="cls-1" d="M53.29,530.75H19.47c-1.77,0-3.38-.43-4.83-1.3-1.45-.85-2.6-2.01-3.46-3.46-.86-1.45-1.3-3.06-1.3-4.83h0v-33.9c0-1.77.43-3.38,1.3-4.82.85-1.45,2.01-2.61,3.46-3.47,1.45-.86,3.06-1.3,4.83-1.3h33.82c1.77,0,3.39.43,4.86,1.3,1.47.86,2.64,2.02,3.5,3.47.85,1.44,1.28,3.05,1.28,4.82h0v3.17h-8.03v-2.94c0-.49-.17-.92-.51-1.3-.34-.36-.78-.54-1.33-.54H19.69c-.49,0-.92.18-1.3.54-.37.37-.56.81-.56,1.3h0v33.46c0,.49.19.92.56,1.3.37.36.81.54,1.3.54h33.38c.54,0,.99-.18,1.33-.54.34-.37.51-.81.51-1.3h0v-11.26h-12.53v-8.05h20.56v19.54c0,1.77-.43,3.38-1.28,4.83-.86,1.45-2.03,2.6-3.5,3.46-1.47.86-3.09,1.3-4.86,1.3h0ZM120.87,530.75h-33.9c-1.77,0-3.38-.44-4.83-1.33-1.44-.89-2.59-2.04-3.46-3.46-.86-1.43-1.3-3.03-1.3-4.8h0v-15.78h35.46v-7.58c0-.49-.17-.92-.51-1.3-.35-.36-.77-.54-1.26-.54h-33.68v-7.97h33.9c1.77,0,3.38.43,4.83,1.3,1.45.86,2.6,2.03,3.46,3.5.86,1.47,1.3,3.07,1.3,4.78h0v33.17ZM87.19,522.78h25.65v-9.94h-27.49v8.1c0,.49.18.92.54,1.3.37.36.81.54,1.3.54ZM141.66,530.75h-8.03v-42.75h54.61c1.82,0,3.45.44,4.86,1.33,1.43.89,2.57,2.04,3.42,3.47.86,1.42,1.3,3.01,1.3,4.78h0v33.17h-7.89v-32.94c0-.49-.18-.92-.54-1.3-.37-.36-.81-.54-1.3-.54h-16.43c-.54,0-.99.18-1.33.54-.34.37-.51.81-.51,1.3h0v32.94h-8.03v-32.94c0-.49-.19-.92-.56-1.3-.37-.36-.81-.54-1.3-.54h-16.5c-.49,0-.91.18-1.26.54-.34.37-.51.81-.51,1.3h0v32.94ZM220.58,530.75h0c-1.76,0-3.35-.44-4.78-1.33-1.43-.89-2.59-2.04-3.47-3.46-.87-1.43-1.31-3.03-1.31-4.8h0v-23.58c0-1.77.44-3.37,1.31-4.78.89-1.43,2.04-2.59,3.47-3.47s3.02-1.33,4.78-1.33h24.32c1.77,0,3.38.43,4.83,1.3,1.45.86,2.61,2.03,3.47,3.5.85,1.47,1.28,3.07,1.28,4.78h0v15.78h-35.52v7.58c0,.49.19.92.56,1.3.36.36.79.54,1.28.54h33.68v7.97h-33.9ZM218.97,497.81v8.11h27.49v-8.11c0-.49-.17-.92-.51-1.3-.34-.36-.76-.54-1.25-.54h-23.89c-.49,0-.92.18-1.28.54-.37.37-.56.81-.56,1.3h0ZM269.24,530.75h0v-53.07h41.26c1.72,0,3.32.43,4.8,1.3,1.47.86,2.63,2.02,3.49,3.47.86,1.44,1.3,3.05,1.3,4.82h0v10.83c0,.64-.06,1.28-.19,1.92-.12.64-.33,1.23-.62,1.78h0c.98,1.38,1.73,2.67,2.26,3.87.51,1.19.77,2.41.77,3.65h0v11.86c0,1.77-.43,3.38-1.3,4.83-.85,1.45-2.02,2.6-3.49,3.46-1.47.86-3.09,1.3-4.86,1.3h-43.41ZM279.03,522.78h33.39c.54,0,.99-.18,1.33-.54.34-.37.51-.81.51-1.3h0v-11.42c0-.49-.17-.92-.51-1.28-.34-.37-.78-.56-1.33-.56h-33.39c-.49,0-.92.19-1.28.56-.37.36-.56.79-.56,1.28h0v11.42c0,.49.19.92.56,1.3.36.36.79.54,1.28.54ZM279.03,499.73h31.25c.49,0,.91-.19,1.26-.56.34-.36.51-.79.51-1.28h0v-10.4c0-.49-.17-.92-.51-1.3-.35-.36-.77-.54-1.26-.54h-31.25c-.49,0-.92.18-1.28.54-.37.37-.56.81-.56,1.3h0v10.4c0,.49.19.92.56,1.28.36.37.79.56,1.28.56ZM346.33,530.75h0c-1.77,0-3.38-.44-4.83-1.33-1.45-.89-2.6-2.04-3.46-3.46-.86-1.43-1.3-3.03-1.3-4.8h0v-33.17h7.95v32.94c0,.49.19.92.56,1.3.37.36.81.54,1.3.54h23.87c.49,0,.92-.18,1.3-.54.36-.37.54-.81.54-1.3h0v-32.94h7.97v33.17c0,1.77-.43,3.37-1.3,4.8-.86,1.42-2.02,2.57-3.46,3.46-1.45.89-3.06,1.33-4.83,1.33h-24.32ZM402.49,530.75h-7.97v-42.75h7.97v42.75ZM402.49,481.97h-7.97v-7.97h7.97v7.97ZM427.46,530.75h0c-1.77,0-3.37-.44-4.78-1.33-1.43-.89-2.59-2.04-3.47-3.46-.89-1.43-1.33-3.03-1.33-4.8h0v-47.17h7.97v46.94c0,.49.19.92.56,1.3.36.36.79.54,1.28.54h7.74v7.97h-7.97ZM456.21,530.75h0c-1.77,0-3.38-.43-4.83-1.3-1.45-.85-2.6-2.02-3.46-3.49-.86-1.48-1.3-3.08-1.3-4.8h0v-23.58c0-1.77.43-3.37,1.3-4.78.85-1.43,2.01-2.59,3.46-3.47,1.45-.89,3.06-1.33,4.83-1.33h25.94v-14h7.97v56.75h-33.9ZM456.5,522.78h23.89c.49,0,.91-.18,1.25-.54.34-.37.51-.81.51-1.3h0v-23.14c0-.49-.17-.92-.51-1.3-.34-.36-.76-.54-1.25-.54h-23.89c-.49,0-.92.18-1.28.54-.37.37-.56.81-.56,1.3h0v23.14c0,.49.19.92.56,1.3.36.36.79.54,1.28.54Z"/>
    </clipPath>
  </defs>
  <g>
    <path class="cls-1" d="M53.29,530.75H19.47c-1.77,0-3.38-.43-4.83-1.3-1.45-.85-2.6-2.01-3.46-3.46-.86-1.45-1.3-3.06-1.3-4.83h0v-33.9c0-1.77.43-3.38,1.3-4.82.85-1.45,2.01-2.61,3.46-3.47,1.45-.86,3.06-1.3,4.83-1.3h33.82c1.77,0,3.39.43,4.86,1.3,1.47.86,2.64,2.02,3.5,3.47.85,1.44,1.28,3.05,1.28,4.82h0v3.17h-8.03v-2.94c0-.49-.17-.92-.51-1.3-.34-.36-.78-.54-1.33-.54H19.69c-.49,0-.92.18-1.3.54-.37.37-.56.81-.56,1.3h0v33.46c0,.49.19.92.56,1.3.37.36.81.54,1.3.54h33.38c.54,0,.99-.18,1.33-.54.34-.37.51-.81.51-1.3h0v-11.26h-12.53v-8.05h20.56v19.54c0,1.77-.43,3.38-1.28,4.83-.86,1.45-2.03,2.6-3.5,3.46-1.47.86-3.09,1.3-4.86,1.3h0ZM120.87,530.75h-33.9c-1.77,0-3.38-.44-4.83-1.33-1.44-.89-2.59-2.04-3.46-3.46-.86-1.43-1.3-3.03-1.3-4.8h0v-15.78h35.46v-7.58c0-.49-.17-.92-.51-1.3-.35-.36-.77-.54-1.26-.54h-33.68v-7.97h33.9c1.77,0,3.38.43,4.83,1.3,1.45.86,2.6,2.03,3.46,3.5.86,1.47,1.3,3.07,1.3,4.78h0v33.17ZM87.19,522.78h25.65v-9.94h-27.49v8.1c0,.49.18.92.54,1.3.37.36.81.54,1.3.54ZM141.66,530.75h-8.03v-42.75h54.61c1.82,0,3.45.44,4.86,1.33,1.43.89,2.57,2.04,3.42,3.47.86,1.42,1.3,3.01,1.3,4.78h0v33.17h-7.89v-32.94c0-.49-.18-.92-.54-1.3-.37-.36-.81-.54-1.3-.54h-16.43c-.54,0-.99.18-1.33.54-.34.37-.51.81-.51,1.3h0v32.94h-8.03v-32.94c0-.49-.19-.92-.56-1.3-.37-.36-.81-.54-1.3-.54h-16.5c-.49,0-.91.18-1.26.54-.34.37-.51.81-.51,1.3h0v32.94ZM220.58,530.75h0c-1.76,0-3.35-.44-4.78-1.33-1.43-.89-2.59-2.04-3.47-3.46-.87-1.43-1.31-3.03-1.31-4.8h0v-23.58c0-1.77.44-3.37,1.31-4.78.89-1.43,2.04-2.59,3.47-3.47s3.02-1.33,4.78-1.33h24.32c1.77,0,3.38.43,4.83,1.3,1.45.86,2.61,2.03,3.47,3.5.85,1.47,1.28,3.07,1.28,4.78h0v15.78h-35.52v7.58c0,.49.19.92.56,1.3.36.36.79.54,1.28.54h33.68v7.97h-33.9ZM218.97,497.81v8.11h27.49v-8.11c0-.49-.17-.92-.51-1.3-.34-.36-.76-.54-1.25-.54h-23.89c-.49,0-.92.18-1.28.54-.37.37-.56.81-.56,1.3h0ZM269.24,530.75h0v-53.07h41.26c1.72,0,3.32.43,4.8,1.3,1.47.86,2.63,2.02,3.49,3.47.86,1.44,1.3,3.05,1.3,4.82h0v10.83c0,.64-.06,1.28-.19,1.92-.12.64-.33,1.23-.62,1.78h0c.98,1.38,1.73,2.67,2.26,3.87.51,1.19.77,2.41.77,3.65h0v11.86c0,1.77-.43,3.38-1.3,4.83-.85,1.45-2.02,2.6-3.49,3.46-1.47.86-3.09,1.3-4.86,1.3h-43.41ZM279.03,522.78h33.39c.54,0,.99-.18,1.33-.54.34-.37.51-.81.51-1.3h0v-11.42c0-.49-.17-.92-.51-1.28-.34-.37-.78-.56-1.33-.56h-33.39c-.49,0-.92.19-1.28.56-.37.36-.56.79-.56,1.28h0v11.42c0,.49.19.92.56,1.3.36.36.79.54,1.28.54ZM279.03,499.73h31.25c.49,0,.91-.19,1.26-.56.34-.36.51-.79.51-1.28h0v-10.4c0-.49-.17-.92-.51-1.3-.35-.36-.77-.54-1.26-.54h-31.25c-.49,0-.92.18-1.28.54-.37.37-.56.81-.56,1.3h0v10.4c0,.49.19.92.56,1.28.36.37.79.56,1.28.56ZM346.33,530.75h0c-1.77,0-3.38-.44-4.83-1.33-1.45-.89-2.6-2.04-3.46-3.46-.86-1.43-1.3-3.03-1.3-4.8h0v-33.17h7.95v32.94c0,.49.19.92.56,1.3.37.36.81.54,1.3.54h23.87c.49,0,.92-.18,1.3-.54.36-.37.54-.81.54-1.3h0v-32.94h7.97v33.17c0,1.77-.43,3.37-1.3,4.8-.86,1.42-2.02,2.57-3.46,3.46-1.45.89-3.06,1.33-4.83,1.33h-24.32ZM402.49,530.75h-7.97v-42.75h7.97v42.75ZM402.49,481.97h-7.97v-7.97h7.97v7.97ZM427.46,530.75h0c-1.77,0-3.37-.44-4.78-1.33-1.43-.89-2.59-2.04-3.47-3.46-.89-1.43-1.33-3.03-1.33-4.8h0v-47.17h7.97v46.94c0,.49.19.92.56,1.3.36.36.79.54,1.28.54h7.74v7.97h-7.97ZM456.21,530.75h0c-1.77,0-3.38-.43-4.83-1.3-1.45-.85-2.6-2.02-3.46-3.49-.86-1.48-1.3-3.08-1.3-4.8h0v-23.58c0-1.77.43-3.37,1.3-4.78.85-1.43,2.01-2.59,3.46-3.47,1.45-.89,3.06-1.33,4.83-1.33h25.94v-14h7.97v56.75h-33.9ZM456.5,522.78h23.89c.49,0,.91-.18,1.25-.54.34-.37.51-.81.51-1.3h0v-23.14c0-.49-.17-.92-.51-1.3-.34-.36-.76-.54-1.25-.54h-23.89c-.49,0-.92.18-1.28.54-.37.37-.56.81-.56,1.3h0v23.14c0,.49.19.92.56,1.3.36.36.79.54,1.28.54Z"/>
    <g class="cls-2">
      <rect class="cls-1" x="454.66" y="495.97" width="1.95" height="26.82"/>
      <rect class="cls-1" x="456.61" y="495.97" width="2.79" height="26.82"/>
      <rect class="cls-1" x="459.41" y="495.97" width="2.79" height="26.82"/>
      <rect class="cls-1" x="462.2" y="495.97" width="2.79" height="26.82"/>
      <rect class="cls-1" x="464.99" y="495.97" width="2.79" height="26.82"/>
      <rect class="cls-1" x="467.78" y="495.97" width="2.79" height="26.82"/>
      <rect class="cls-1" x="470.57" y="495.97" width="2.79" height="26.82"/>
      <rect class="cls-1" x="473.37" y="495.97" width="2.79" height="26.82"/>
      <rect class="cls-1" x="476.16" y="495.97" width="2.79" height="26.82"/>
      <rect class="cls-1" x="478.95" y="495.97" width="2.79" height="26.82"/>
      <rect class="cls-1" x="481.74" y="495.97" width=".41" height="26.82"/>
      <rect class="cls-1" x="446.63" y="474" width="1.61" height="56.75"/>
      <rect class="cls-1" x="448.24" y="474" width="2.79" height="56.75"/>
      <rect class="cls-1" x="451.03" y="474" width="2.79" height="56.75"/>
      <rect class="cls-1" x="453.82" y="474" width="2.79" height="56.75"/>
      <rect class="cls-1" x="456.61" y="474" width="2.79" height="56.75"/>
      <rect class="cls-1" x="459.41" y="474" width="2.79" height="56.75"/>
      <rect class="cls-1" x="462.2" y="474" width="2.79" height="56.75"/>
      <rect class="cls-1" x="464.99" y="474" width="2.79" height="56.75"/>
      <rect class="cls-1" x="467.78" y="474" width="2.79" height="56.75"/>
      <rect class="cls-1" x="470.57" y="474" width="2.79" height="56.75"/>
      <rect class="cls-1" x="473.37" y="474" width="2.79" height="56.75"/>
      <rect class="cls-1" x="476.16" y="474" width="2.79" height="56.75"/>
      <rect class="cls-1" x="478.95" y="474" width="2.79" height="56.75"/>
      <rect class="cls-1" x="481.74" y="474" width="2.79" height="56.75"/>
      <rect class="cls-1" x="484.53" y="474" width="2.79" height="56.75"/>
      <rect class="cls-1" x="487.33" y="474" width="2.79" height="56.75"/>
      <rect class="cls-1" x="417.88" y="474" width="2.44" height="56.75"/>
      <rect class="cls-1" x="420.32" y="474" width="2.79" height="56.75"/>
      <rect class="cls-1" x="423.11" y="474" width="2.79" height="56.75"/>
      <rect class="cls-1" x="425.9" y="474" width="2.79" height="56.75"/>
      <rect class="cls-1" x="428.69" y="474" width="2.79" height="56.75"/>
      <rect class="cls-1" x="431.48" y="474" width="2.79" height="56.75"/>
      <rect class="cls-1" x="434.28" y="474" width="1.15" height="56.75"/>
      <rect class="cls-1" x="394.52" y="474" width=".67" height="7.97"/>
      <rect class="cls-1" x="395.19" y="474" width="2.79" height="7.97"/>
      <rect class="cls-1" x="397.98" y="474" width="2.79" height="7.97"/>
      <rect class="cls-1" x="400.77" y="474" width="1.71" height="7.97"/>
      <rect class="cls-1" x="394.52" y="488" width=".67" height="42.75"/>
      <rect class="cls-1" x="395.19" y="488" width="2.79" height="42.75"/>
      <rect class="cls-1" x="397.98" y="488" width="2.79" height="42.75"/>
      <rect class="cls-1" x="400.77" y="488" width="1.71" height="42.75"/>
      <rect class="cls-1" x="336.74" y="488" width="2.6" height="42.75"/>
      <rect class="cls-1" x="339.35" y="488" width="2.79" height="42.75"/>
      <rect class="cls-1" x="342.14" y="488" width="2.79" height="42.75"/>
      <rect class="cls-1" x="344.93" y="488" width="2.79" height="42.75"/>
      <rect class="cls-1" x="347.72" y="488" width="2.79" height="42.75"/>
      <rect class="cls-1" x="350.51" y="488" width="2.79" height="42.75"/>
      <rect class="cls-1" x="353.31" y="488" width="2.79" height="42.75"/>
      <rect class="cls-1" x="356.1" y="488" width="2.79" height="42.75"/>
      <rect class="cls-1" x="358.89" y="488" width="2.79" height="42.75"/>
      <rect class="cls-1" x="361.68" y="488" width="2.79" height="42.75"/>
      <rect class="cls-1" x="364.47" y="488" width="2.79" height="42.75"/>
      <rect class="cls-1" x="367.27" y="488" width="2.79" height="42.75"/>
      <rect class="cls-1" x="370.06" y="488" width="2.79" height="42.75"/>
      <rect class="cls-1" x="372.85" y="488" width="2.79" height="42.75"/>
      <rect class="cls-1" x="375.64" y="488" width="2.79" height="42.75"/>
      <rect class="cls-1" x="378.44" y="488" width="1.8" height="42.75"/>
      <rect class="cls-1" x="277.19" y="485.65" width=".73" height="14.08"/>
      <rect class="cls-1" x="277.92" y="485.65" width="2.79" height="14.08"/>
      <rect class="cls-1" x="280.71" y="485.65" width="2.79" height="14.08"/>
      <rect class="cls-1" x="283.5" y="485.65" width="2.79" height="14.08"/>
      <rect class="cls-1" x="286.3" y="485.65" width="2.79" height="14.08"/>
      <rect class="cls-1" x="289.09" y="485.65" width="2.79" height="14.08"/>
      <rect class="cls-1" x="291.88" y="485.65" width="2.79" height="14.08"/>
      <rect class="cls-1" x="294.67" y="485.65" width="2.79" height="14.08"/>
      <rect class="cls-1" x="297.47" y="485.65" width="2.79" height="14.08"/>
      <rect class="cls-1" x="300.26" y="485.65" width="2.79" height="14.08"/>
      <rect class="cls-1" x="303.05" y="485.65" width="2.79" height="14.08"/>
      <rect class="cls-1" x="305.84" y="485.65" width="2.79" height="14.08"/>
      <rect class="cls-1" x="308.63" y="485.65" width="2.79" height="14.08"/>
      <rect class="cls-1" x="311.43" y="485.65" width=".63" height="14.08"/>
      <rect class="cls-1" x="277.19" y="507.68" width=".73" height="15.1"/>
      <rect class="cls-1" x="277.92" y="507.68" width="2.79" height="15.1"/>
      <rect class="cls-1" x="280.71" y="507.68" width="2.79" height="15.1"/>
      <rect class="cls-1" x="283.5" y="507.68" width="2.79" height="15.1"/>
      <rect class="cls-1" x="286.3" y="507.68" width="2.79" height="15.1"/>
      <rect class="cls-1" x="289.09" y="507.68" width="2.79" height="15.1"/>
      <rect class="cls-1" x="291.88" y="507.68" width="2.79" height="15.1"/>
      <rect class="cls-1" x="294.67" y="507.68" width="2.79" height="15.1"/>
      <rect class="cls-1" x="297.47" y="507.68" width="2.79" height="15.1"/>
      <rect class="cls-1" x="300.26" y="507.68" width="2.79" height="15.1"/>
      <rect class="cls-1" x="303.05" y="507.68" width="2.79" height="15.1"/>
      <rect class="cls-1" x="305.84" y="507.68" width="2.79" height="15.1"/>
      <rect class="cls-1" x="308.63" y="507.68" width="2.79" height="15.1"/>
      <rect class="cls-1" x="311.43" y="507.68" width="2.79" height="15.1"/>
      <rect class="cls-1" x="314.22" y="507.68" width=".05" height="15.1"/>
      <rect class="cls-1" x="269.24" y="477.68" width=".3" height="53.07"/>
      <rect class="cls-1" x="269.54" y="477.68" width="2.79" height="53.07"/>
      <rect class="cls-1" x="272.34" y="477.68" width="2.79" height="53.07"/>
      <rect class="cls-1" x="275.13" y="477.68" width="2.79" height="53.07"/>
      <rect class="cls-1" x="277.92" y="477.68" width="2.79" height="53.07"/>
      <rect class="cls-1" x="280.71" y="477.68" width="2.79" height="53.07"/>
      <rect class="cls-1" x="283.5" y="477.68" width="2.79" height="53.07"/>
      <rect class="cls-1" x="286.3" y="477.68" width="2.79" height="53.07"/>
      <rect class="cls-1" x="289.09" y="477.68" width="2.79" height="53.07"/>
      <rect class="cls-1" x="291.88" y="477.68" width="2.79" height="53.07"/>
      <rect class="cls-1" x="294.67" y="477.68" width="2.79" height="53.07"/>
      <rect class="cls-1" x="297.47" y="477.68" width="2.79" height="53.07"/>
      <rect class="cls-1" x="300.26" y="477.68" width="2.79" height="53.07"/>
      <rect class="cls-1" x="303.05" y="477.68" width="2.79" height="53.07"/>
      <rect class="cls-1" x="305.84" y="477.68" width="2.79" height="53.07"/>
      <rect class="cls-1" x="308.63" y="477.68" width="2.79" height="53.07"/>
      <rect class="cls-1" x="311.43" y="477.68" width="2.79" height="53.07"/>
      <rect class="cls-1" x="314.22" y="477.68" width="2.79" height="53.07"/>
      <rect class="cls-1" x="317.01" y="477.68" width="2.79" height="53.07"/>
      <rect class="cls-1" x="319.8" y="477.68" width="2.49" height="53.07"/>
      <rect class="cls-1" x="218.97" y="495.97" width=".32" height="9.95"/>
      <rect class="cls-1" x="219.29" y="495.97" width="2.79" height="9.95"/>
      <rect class="cls-1" x="222.08" y="495.97" width="2.79" height="9.95"/>
      <rect class="cls-1" x="224.87" y="495.97" width="2.79" height="9.95"/>
      <rect class="cls-1" x="227.66" y="495.97" width="2.79" height="9.95"/>
      <rect class="cls-1" x="230.46" y="495.97" width="2.79" height="9.95"/>
      <rect class="cls-1" x="233.25" y="495.97" width="2.79" height="9.95"/>
      <rect class="cls-1" x="236.04" y="495.97" width="2.79" height="9.95"/>
      <rect class="cls-1" x="238.83" y="495.97" width="2.79" height="9.95"/>
      <rect class="cls-1" x="241.62" y="495.97" width="2.79" height="9.95"/>
      <rect class="cls-1" x="244.42" y="495.97" width="2.04" height="9.95"/>
      <rect class="cls-1" x="211.02" y="488" width="2.69" height="42.75"/>
      <rect class="cls-1" x="213.7" y="488" width="2.79" height="42.75"/>
      <rect class="cls-1" x="216.5" y="488" width="2.79" height="42.75"/>
      <rect class="cls-1" x="219.29" y="488" width="2.79" height="42.75"/>
      <rect class="cls-1" x="222.08" y="488" width="2.79" height="42.75"/>
      <rect class="cls-1" x="224.87" y="488" width="2.79" height="42.75"/>
      <rect class="cls-1" x="227.66" y="488" width="2.79" height="42.75"/>
      <rect class="cls-1" x="230.46" y="488" width="2.79" height="42.75"/>
      <rect class="cls-1" x="233.25" y="488" width="2.79" height="42.75"/>
      <rect class="cls-1" x="236.04" y="488" width="2.79" height="42.75"/>
      <rect class="cls-1" x="238.83" y="488" width="2.79" height="42.75"/>
      <rect class="cls-1" x="241.62" y="488" width="2.79" height="42.75"/>
      <rect class="cls-1" x="244.42" y="488" width="2.79" height="42.75"/>
      <rect class="cls-1" x="247.21" y="488" width="2.79" height="42.75"/>
      <rect class="cls-1" x="250" y="488" width="2.79" height="42.75"/>
      <rect class="cls-1" x="252.79" y="488" width="1.7" height="42.75"/>
      <rect class="cls-1" x="133.62" y="488" width="1.9" height="42.75"/>
      <rect class="cls-1" x="135.53" y="488" width="2.79" height="42.75"/>
      <rect class="cls-1" x="138.32" y="488" width="2.79" height="42.75"/>
      <rect class="cls-1" x="141.11" y="488" width="2.79" height="42.75"/>
      <rect class="cls-1" x="143.9" y="488" width="2.79" height="42.75"/>
      <rect class="cls-1" x="146.69" y="488" width="2.79" height="42.75"/>
      <rect class="cls-1" x="149.49" y="488" width="2.79" height="42.75"/>
      <rect class="cls-1" x="152.28" y="488" width="2.79" height="42.75"/>
      <rect class="cls-1" x="155.07" y="488" width="2.79" height="42.75"/>
      <rect class="cls-1" x="157.86" y="488" width="2.79" height="42.75"/>
      <rect class="cls-1" x="160.65" y="488" width="2.79" height="42.75"/>
      <rect class="cls-1" x="163.45" y="488" width="2.79" height="42.75"/>
      <rect class="cls-1" x="166.24" y="488" width="2.79" height="42.75"/>
      <rect class="cls-1" x="169.03" y="488" width="2.79" height="42.75"/>
      <rect class="cls-1" x="171.82" y="488" width="2.79" height="42.75"/>
      <rect class="cls-1" x="174.61" y="488" width="2.79" height="42.75"/>
      <rect class="cls-1" x="177.41" y="488" width="2.79" height="42.75"/>
      <rect class="cls-1" x="180.2" y="488" width="2.79" height="42.75"/>
      <rect class="cls-1" x="182.99" y="488" width="2.79" height="42.75"/>
      <rect class="cls-1" x="185.78" y="488" width="2.79" height="42.75"/>
      <rect class="cls-1" x="188.57" y="488" width="2.79" height="42.75"/>
      <rect class="cls-1" x="191.37" y="488" width="2.79" height="42.75"/>
      <rect class="cls-1" x="194.16" y="488" width="2.79" height="42.75"/>
      <rect class="cls-1" x="196.95" y="488" width=".87" height="42.75"/>
      <rect class="cls-1" x="85.35" y="512.85" width="2.71" height="9.94"/>
      <rect class="cls-1" x="88.06" y="512.85" width="2.79" height="9.94"/>
      <rect class="cls-1" x="90.85" y="512.85" width="2.79" height="9.94"/>
      <rect class="cls-1" x="93.64" y="512.85" width="2.79" height="9.94"/>
      <rect class="cls-1" x="96.44" y="512.85" width="2.79" height="9.94"/>
      <rect class="cls-1" x="99.23" y="512.85" width="2.79" height="9.94"/>
      <rect class="cls-1" x="102.02" y="512.85" width="2.79" height="9.94"/>
      <rect class="cls-1" x="104.81" y="512.85" width="2.79" height="9.94"/>
      <rect class="cls-1" x="107.6" y="512.85" width="2.79" height="9.94"/>
      <rect class="cls-1" x="110.4" y="512.85" width="2.44" height="9.94"/>
      <rect class="cls-1" x="77.39" y="488" width="2.3" height="42.75"/>
      <rect class="cls-1" x="79.68" y="488" width="2.79" height="42.75"/>
      <rect class="cls-1" x="82.48" y="488" width="2.79" height="42.75"/>
      <rect class="cls-1" x="85.27" y="488" width="2.79" height="42.75"/>
      <rect class="cls-1" x="88.06" y="488" width="2.79" height="42.75"/>
      <rect class="cls-1" x="90.85" y="488" width="2.79" height="42.75"/>
      <rect class="cls-1" x="93.64" y="488" width="2.79" height="42.75"/>
      <rect class="cls-1" x="96.44" y="488" width="2.79" height="42.75"/>
      <rect class="cls-1" x="99.23" y="488" width="2.79" height="42.75"/>
      <rect class="cls-1" x="102.02" y="488" width="2.79" height="42.75"/>
      <rect class="cls-1" x="104.81" y="488" width="2.79" height="42.75"/>
      <rect class="cls-1" x="107.6" y="488" width="2.79" height="42.75"/>
      <rect class="cls-1" x="110.4" y="488" width="2.79" height="42.75"/>
      <rect class="cls-1" x="113.19" y="488" width="2.79" height="42.75"/>
      <rect class="cls-1" x="115.98" y="488" width="2.79" height="42.75"/>
      <rect class="cls-1" x="118.77" y="488" width="2.1" height="42.75"/>
      <rect class="cls-1" x="9.88" y="477.68" width="2.79" height="53.07"/>
      <rect class="cls-1" x="12.67" y="477.68" width="2.79" height="53.07"/>
      <rect class="cls-1" x="15.47" y="477.68" width="2.79" height="53.07"/>
      <rect class="cls-1" x="18.26" y="477.68" width="2.79" height="53.07"/>
      <rect class="cls-1" x="21.05" y="477.68" width="2.79" height="53.07"/>
      <rect class="cls-1" x="23.84" y="477.68" width="2.79" height="53.07"/>
      <rect class="cls-1" x="26.63" y="477.68" width="2.79" height="53.07"/>
      <rect class="cls-1" x="29.43" y="477.68" width="2.79" height="53.07"/>
      <rect class="cls-1" x="32.22" y="477.68" width="2.79" height="53.07"/>
      <rect class="cls-1" x="35.01" y="477.68" width="2.79" height="53.07"/>
      <rect class="cls-1" x="37.8" y="477.68" width="2.79" height="53.07"/>
      <rect class="cls-1" x="40.59" y="477.68" width="2.79" height="53.07"/>
      <rect class="cls-1" x="43.39" y="477.68" width="2.79" height="53.07"/>
      <rect class="cls-1" x="46.18" y="477.68" width="2.79" height="53.07"/>
      <rect class="cls-1" x="48.97" y="477.68" width="2.79" height="53.07"/>
      <rect class="cls-1" x="51.76" y="477.68" width="2.79" height="53.07"/>
      <rect class="cls-1" x="54.56" y="477.68" width="2.79" height="53.07"/>
      <rect class="cls-1" x="57.35" y="477.68" width="2.79" height="53.07"/>
      <rect class="cls-1" x="60.14" y="477.68" width="2.79" height="53.07"/>
      <rect class="cls-1" x="62.93" y="477.68" width="0" height="53.07"/>
    </g>
  </g>
  <g>
    <path class="cls-1" d="M80.67,424.86c-2.28,0-4.73-.04-7.43-.16-24.43-1.03-43.87-12.23-54.73-31.54-7.86-13.97-8.57-27.61-8.62-29.12,0-.23-.01-.46-.01-.69V87.44c0-26.46,10.49-42.03,19.28-50.43,18.28-17.46,42.29-17.76,46.98-17.62h202.23c10.63,0,19.25,8.62,19.25,19.25s-8.62,19.25-19.25,19.25H75.84c-.29,0-.59,0-.88-.02.1,0-11.9-.17-19.36,7.14-4.78,4.68-7.2,12.23-7.2,22.43v275.39c.48,6.71,4.08,22.46,26.48,23.4,5.07.21,8.96.11,13.14-.03,13.43-.45,21.32-6.9,30.3-17.9,3.96-5.32,52.94-71.18,70.38-94.48l.95-1.27c8.34-11.21,25.69-34.55,57.77-34.55s49.16,23.22,56.11,33.13c4.46,6.37,14.99,21,21.4,29.64,6.42,8.67,11.32,13.1,17.48,15.8,11.79,5.17,22.78,4.3,33.6-2.65,25.33-16.28,16.1-44.75,14.97-47.94-.05-.15-.16-.46-.21-.61-.15-.45-14.72-44.84-19.5-58.12-.81-2.26-1.6-4.52-2.39-6.8-5.84-16.73-10.89-31.18-22.68-40.12-8.48-6.42-10.14-18.5-3.72-26.97,6.42-8.47,18.49-10.14,26.97-3.72,21.06,15.96,28.88,38.36,35.78,58.12.76,2.16,1.51,4.33,2.28,6.47,4.78,13.3,18.25,54.28,19.73,58.78,7.65,20.89,10.99,66.67-30.41,93.29-21.88,14.07-46.04,15.98-69.88,5.53-15.81-6.93-25.54-18.12-32.97-28.15-6.68-9.02-17.3-23.78-21.98-30.45-6.65-9.49-12.68-16.74-24.58-16.74s-18.86,8.24-26.88,19.02l-1.02,1.37c-18.16,24.27-70.56,94.73-70.57,94.74-.16.22-.33.44-.5.65-11.83,14.56-29.24,31.4-59.14,32.41-2.67.09-5.49.17-8.63.17Z"/>
    <path class="cls-1" d="M428.51,424.72h-238.98c-10.63,0-19.25-8.62-19.25-19.25s8.62-19.25,19.25-19.25h237.63c6.43-1.08,24.17-6.45,24.17-32.04V83.92c0-11.9-3.96-26.08-22.82-26.08h-29.24c-.92,0-1.97-.02-3.12-.04-10.69-.21-26.92-.53-41.28,17.4-2.7,3.59-37.98,50.45-50.13,66.43-7.5,9.86-25.07,32.96-55.23,32.96-27.43,0-43.67-17.14-52.39-26.35-8.87-9.36-15.65-11.11-25.11-11.11-8.56,0-19.12,4.69-23.18,17.84-1.37,5.11-19.24,71.75-30.39,115.42-2.9,11.37.16,26.49,2.86,30.04,6.44,8.46,4.79,20.54-3.67,26.98-8.48,6.44-20.55,4.79-26.98-3.67-11.98-15.76-14.25-44.34-9.52-62.87,11.59-45.44,30.4-115.49,30.59-116.19.05-.19.1-.37.16-.55,8.19-27.22,32.35-45.5,60.13-45.5,14.5,0,33.62,2.61,52.92,22.98,8.08,8.53,14.48,14.47,24.58,14.47s17.46-8.4,24.58-17.77c12.61-16.57,50.17-66.48,50.17-66.49.1-.14.21-.27.31-.4,26.25-33.02,59.75-32.37,72.32-32.12.87.02,31.6.03,31.6.03,36.11,0,61.33,26.56,61.33,64.58v270.26c0,50.59-38.75,68.19-59.24,70.43-.69.08-1.39.11-2.09.11Z"/>
  </g>
</svg>