<?xml version="1.0" encoding="UTF-8"?>
<svg id="_레이어_1" data-name="레이어 1" xmlns="http://www.w3.org/2000/svg" viewBox="0 0 500 500">
  <defs>
    <style>
      .cls-1 {
        fill: #1000aa;
      }
    </style>
  </defs>
  <path class="cls-1" d="M250,5C114.69,5,5,114.69,5,250s109.69,245,245,245,245-109.69,245-245S385.31,5,250,5ZM185.83,357.71c-7.49,9.21-18.5,19.87-37.42,20.51-1.69.06-3.47.11-5.46.11-1.44,0-2.99-.03-4.7-.1-15.46-.65-27.76-7.74-34.63-19.96-4.98-8.84-5.42-17.47-5.46-18.43,0-.15,0-.29,0-.44v-174.58c0-16.74,6.64-26.59,12.2-31.91,11.57-11.05,26.76-11.24,29.73-11.15h127.97c6.73,0,12.18,5.45,12.18,12.18s-5.45,12.18-12.18,12.18h-128.17c-.19,0-.37,0-.56-.01.06,0-7.53-.1-12.25,4.52-3.02,2.96-4.56,7.74-4.56,14.19v174.26c.3,4.24,2.58,14.21,16.76,14.8,3.21.13,5.67.07,8.32-.02,8.5-.29,13.49-4.37,19.17-11.33,2.5-3.36,33.5-45.04,44.54-59.79l.6-.81c5.28-7.1,16.26-21.86,36.56-21.86s31.11,14.69,35.5,20.97c2.82,4.03,9.49,13.29,13.54,18.76,4.06,5.49,7.16,8.29,11.06,10,7.46,3.27,14.41,2.72,21.26-1.68,16.03-10.3,10.19-28.32,9.47-30.34-.03-.09-.1-.29-.13-.38-.09-.28-9.32-28.37-12.34-36.78-.51-1.43-1.01-2.86-1.51-4.3-3.7-10.59-6.89-19.73-14.35-25.38-5.36-4.06-6.42-11.7-2.35-17.07,4.06-5.36,11.7-6.42,17.07-2.35,13.33,10.1,18.28,24.27,22.64,36.78.48,1.37.96,2.74,1.44,4.1,3.02,8.42,11.55,34.35,12.48,37.2,4.84,13.22,6.95,42.19-19.24,59.03-13.85,8.9-29.14,10.11-44.22,3.5-10.01-4.39-16.16-11.47-20.86-17.81-4.23-5.71-10.95-15.05-13.91-19.27-4.21-6.01-8.02-10.59-15.55-10.59s-11.94,5.22-17.01,12.03l-.64.87c-11.49,15.36-44.65,59.94-44.65,59.95-.1.14-.21.28-.32.41ZM401.85,333.6c0,32.01-24.52,43.15-37.48,44.57-.44.05-.88.07-1.32.07h-151.22c-6.73,0-12.18-5.45-12.18-12.18s5.45-12.18,12.18-12.18h150.37c4.07-.68,15.29-4.08,15.29-20.27v-171.01c0-7.53-2.51-16.5-14.44-16.5h-18.5c-.59,0-1.25-.01-1.97-.03-6.76-.14-17.03-.33-26.12,11.01-1.71,2.27-24.03,31.93-31.72,42.03-4.75,6.24-15.86,20.86-34.95,20.86-17.36,0-27.63-10.85-33.15-16.67-5.61-5.92-9.9-7.03-15.89-7.03-5.42,0-12.1,2.97-14.67,11.29-.87,3.23-12.18,45.4-19.23,73.03-1.84,7.19.1,16.76,1.81,19.01,4.07,5.36,3.03,13-2.32,17.07-5.36,4.07-13,3.03-17.07-2.32-7.58-9.97-9.02-28.06-6.03-39.78,7.34-28.75,19.24-73.08,19.36-73.52.03-.12.06-.23.1-.35,5.18-17.22,20.47-28.79,38.05-28.79,9.18,0,21.28,1.65,33.49,14.54,5.12,5.4,9.17,9.16,15.55,9.16s11.05-5.32,15.56-11.24c7.98-10.49,31.75-42.07,31.75-42.07.06-.09.13-.17.2-.25,16.61-20.9,37.81-20.48,45.76-20.33.55.01,20,.02,20,.02,22.85,0,38.81,16.81,38.81,40.87v171.01Z"/>
</svg>