<?xml version="1.0" encoding="UTF-8"?>
<svg id="_레이어_1" data-name="레이어 1" xmlns="http://www.w3.org/2000/svg" xmlns:xlink="http://www.w3.org/1999/xlink" viewBox="0 0 1000 145">
  <defs>
    <style>
      .cls-1 {
        fill: #1000aa;
      }

      .cls-2 {
        clip-path: url(#clippath);
      }
    </style>
    <clipPath id="clippath">
      <path class="cls-1" d="M290.46,118.43h-54.75c-2.87,0-5.47-.7-7.82-2.1-2.35-1.38-4.21-3.25-5.59-5.59-1.4-2.35-2.1-4.95-2.1-7.82h0v-54.88c0-2.87.7-5.46,2.1-7.8,1.38-2.35,3.25-4.22,5.59-5.62,2.35-1.4,4.95-2.1,7.82-2.1h54.75c2.87,0,5.49.7,7.87,2.1,2.38,1.4,4.27,3.27,5.67,5.62,1.38,2.33,2.07,4.93,2.07,7.8h0v5.13h-13v-4.77c0-.79-.28-1.49-.83-2.1-.55-.59-1.27-.88-2.15-.88h-54.02c-.79,0-1.49.29-2.1.88-.6.6-.91,1.3-.91,2.1h0v54.15c0,.79.3,1.49.91,2.1.6.59,1.3.88,2.1.88h54.02c.88,0,1.6-.29,2.15-.88.55-.6.83-1.3.83-2.1h0v-18.23h-20.28v-13.03h33.28v31.62c0,2.87-.69,5.47-2.07,7.82-1.4,2.35-3.29,4.21-5.67,5.59-2.38,1.4-5.01,2.1-7.87,2.1h0ZM399.85,118.43h-54.88c-2.87,0-5.47-.72-7.82-2.15-2.33-1.43-4.2-3.3-5.59-5.59-1.4-2.31-2.1-4.9-2.1-7.77h0v-25.53h57.39v-12.28c0-.79-.28-1.49-.83-2.1-.57-.59-1.25-.88-2.05-.88h-54.51v-12.9h54.88c2.87,0,5.47.7,7.82,2.1,2.35,1.4,4.21,3.29,5.59,5.67,1.4,2.38,2.1,4.96,2.1,7.74h0v53.68ZM345.33,105.53h41.51v-16.08h-44.49v13.1c0,.79.29,1.49.88,2.1.6.59,1.3.88,2.1.88ZM433.49,118.43h-13V49.23h88.39c2.95,0,5.58.72,7.87,2.15,2.31,1.43,4.16,3.31,5.54,5.62,1.4,2.3,2.1,4.88,2.1,7.74h0v53.68h-12.77v-53.32c0-.79-.29-1.49-.88-2.1-.6-.59-1.3-.88-2.1-.88h-26.6c-.88,0-1.6.29-2.15.88-.55.6-.83,1.3-.83,2.1h0v53.32h-13v-53.32c0-.79-.3-1.49-.91-2.1-.6-.59-1.3-.88-2.1-.88h-26.7c-.79,0-1.48.29-2.05.88-.55.6-.83,1.3-.83,2.1h0v53.32ZM561.24,118.43h0c-2.85,0-5.43-.72-7.74-2.15-2.31-1.43-4.19-3.3-5.62-5.59-1.42-2.31-2.12-4.9-2.12-7.77h0v-38.17c0-2.87.71-5.45,2.12-7.74,1.43-2.31,3.31-4.19,5.62-5.62,2.31-1.43,4.89-2.15,7.74-2.15h39.36c2.87,0,5.47.7,7.82,2.1,2.35,1.4,4.22,3.29,5.62,5.67,1.38,2.38,2.07,4.96,2.07,7.74h0v25.53h-57.49v12.28c0,.79.3,1.49.91,2.1.59.59,1.28.88,2.07.88h54.51v12.9h-54.88ZM558.62,65.11v13.13h44.49v-13.13c0-.79-.28-1.49-.83-2.1-.55-.59-1.23-.88-2.02-.88h-38.66c-.79,0-1.48.29-2.07.88-.6.6-.91,1.3-.91,2.1h0ZM639.99,118.43h0V32.53h66.79c2.78,0,5.37.7,7.77,2.1,2.38,1.4,4.26,3.27,5.65,5.62,1.4,2.33,2.1,4.93,2.1,7.8h0v17.53c0,1.04-.1,2.07-.31,3.11-.19,1.04-.53,1.99-1.01,2.87h0c1.59,2.23,2.81,4.32,3.65,6.27.83,1.93,1.24,3.9,1.24,5.9h0v19.19c0,2.87-.7,5.47-2.1,7.82-1.38,2.35-3.26,4.21-5.65,5.59-2.38,1.4-5.01,2.1-7.87,2.1h-70.26ZM655.84,105.53h54.05c.88,0,1.6-.29,2.15-.88.55-.6.83-1.3.83-2.1h0v-18.49c0-.79-.28-1.48-.83-2.07-.55-.6-1.27-.91-2.15-.91h-54.05c-.79,0-1.48.3-2.07.91-.6.59-.91,1.28-.91,2.07h0v18.49c0,.79.3,1.49.91,2.1.59.59,1.28.88,2.07.88ZM655.84,68.21h50.58c.79,0,1.48-.3,2.05-.91.55-.59.83-1.28.83-2.07h0v-16.83c0-.79-.28-1.49-.83-2.1-.57-.59-1.25-.88-2.05-.88h-50.58c-.79,0-1.48.29-2.07.88-.6.6-.91,1.3-.91,2.1h0v16.83c0,.79.3,1.48.91,2.07.59.6,1.28.91,2.07.91ZM764.76,118.43h0c-2.87,0-5.47-.72-7.82-2.15-2.35-1.43-4.21-3.3-5.59-5.59-1.4-2.31-2.1-4.9-2.1-7.77h0v-53.68h12.87v53.32c0,.79.3,1.49.91,2.1.6.59,1.3.88,2.1.88h38.64c.79,0,1.49-.29,2.1-.88.59-.6.88-1.3.88-2.1h0v-53.32h12.9v53.68c0,2.87-.7,5.46-2.1,7.77-1.4,2.3-3.26,4.16-5.59,5.59-2.35,1.43-4.95,2.15-7.82,2.15h-39.36ZM855.66,118.43h-12.9V49.23h12.9v69.2ZM855.66,39.47h-12.9v-12.9h12.9v12.9ZM896.09,118.43h0c-2.87,0-5.45-.72-7.74-2.15-2.31-1.43-4.19-3.3-5.62-5.59-1.43-2.31-2.15-4.9-2.15-7.77h0V26.57h12.9v75.98c0,.79.3,1.49.91,2.1.59.59,1.28.88,2.07.88h12.53v12.9h-12.9ZM942.62,118.43h0c-2.87,0-5.47-.7-7.82-2.1-2.35-1.38-4.21-3.26-5.59-5.65-1.4-2.4-2.1-4.99-2.1-7.77h0v-38.17c0-2.87.7-5.45,2.1-7.74,1.38-2.31,3.25-4.19,5.59-5.62,2.35-1.43,4.96-2.15,7.82-2.15h41.98v-22.66h12.9v91.86h-54.88ZM943.09,105.53h38.66c.79,0,1.47-.29,2.02-.88.55-.6.83-1.3.83-2.1h0v-37.45c0-.79-.28-1.49-.83-2.1-.55-.59-1.23-.88-2.02-.88h-38.66c-.79,0-1.48.29-2.07.88-.6.6-.91,1.3-.91,2.1h0v37.45c0,.79.3,1.49.91,2.1.59.59,1.28.88,2.07.88Z"/>
    </clipPath>
  </defs>
  <g>
    <path class="cls-1" d="M26.52,141.32c-.77,0-1.61-.01-2.52-.05-8.29-.35-14.88-4.15-18.57-10.7-2.67-4.74-2.91-9.37-2.93-9.88,0-.08,0-.16,0-.24V26.82c0-8.98,3.56-14.26,6.54-17.11,6.2-5.93,14.35-6.02,15.94-5.98h68.62c3.61,0,6.53,2.92,6.53,6.53s-2.92,6.53-6.53,6.53H24.88c-.1,0-.2,0-.3,0,.03,0-4.04-.06-6.57,2.42-1.62,1.59-2.44,4.15-2.44,7.61v93.45c.16,2.28,1.38,7.62,8.99,7.94,1.72.07,3.04.04,4.46,0,4.56-.15,7.23-2.34,10.28-6.07,1.34-1.8,17.96-24.15,23.88-32.06l.32-.43c2.83-3.8,8.72-11.72,19.6-11.72s16.68,7.88,19.04,11.24c1.51,2.16,5.09,7.12,7.26,10.06,2.18,2.94,3.84,4.45,5.93,5.36,4,1.75,7.73,1.46,11.4-.9,8.6-5.53,5.46-15.18,5.08-16.27-.02-.05-.05-.16-.07-.21-.05-.15-5-15.21-6.62-19.72-.27-.77-.54-1.53-.81-2.31-1.98-5.68-3.69-10.58-7.7-13.61-2.88-2.18-3.44-6.28-1.26-9.15,2.18-2.88,6.28-3.44,9.15-1.26,7.15,5.42,9.8,13.02,12.14,19.72.26.73.51,1.47.77,2.2,1.62,4.51,6.19,18.42,6.69,19.95,2.6,7.09,3.73,22.62-10.32,31.66-7.42,4.77-15.62,5.42-23.71,1.88-5.37-2.35-8.66-6.15-11.19-9.55-2.27-3.06-5.87-8.07-7.46-10.33-2.26-3.22-4.3-5.68-8.34-5.68s-6.4,2.8-9.12,6.45l-.35.46c-6.16,8.24-23.94,32.15-23.95,32.15-.05.07-.11.15-.17.22-4.01,4.94-9.92,10.66-20.07,11-.91.03-1.86.06-2.93.06Z"/>
    <path class="cls-1" d="M144.55,141.27H63.46c-3.61,0-6.53-2.92-6.53-6.53s2.92-6.53,6.53-6.53h80.64c2.18-.37,8.2-2.19,8.2-10.87V25.63c0-4.04-1.34-8.85-7.74-8.85h-9.92c-.31,0-.67,0-1.06-.01-3.63-.07-9.13-.18-14.01,5.9-.92,1.22-12.89,17.12-17.01,22.54-2.55,3.35-8.51,11.18-18.74,11.18-9.31,0-14.82-5.82-17.78-8.94-3.01-3.18-5.31-3.77-8.52-3.77-2.91,0-6.49,1.59-7.87,6.05-.47,1.73-6.53,24.35-10.31,39.16-.99,3.86.05,8.99.97,10.19,2.18,2.87,1.63,6.97-1.24,9.15-2.88,2.18-6.97,1.63-9.15-1.24-4.07-5.35-4.84-15.05-3.23-21.33,3.93-15.42,10.32-39.19,10.38-39.43.02-.06.03-.13.05-.19,2.78-9.23,10.98-15.44,20.4-15.44,4.92,0,11.41.89,17.96,7.8,2.74,2.9,4.91,4.91,8.34,4.91s5.93-2.85,8.34-6.03c4.28-5.62,17.02-22.56,17.02-22.56.03-.05.07-.09.11-.14,8.91-11.21,20.27-10.98,24.54-10.9.3,0,10.72.01,10.72.01,12.25,0,20.81,9.01,20.81,21.91v91.71c0,17.17-13.15,23.14-20.1,23.9-.23.03-.47.04-.71.04Z"/>
  </g>
  <g>
    <path class="cls-1" d="M290.46,118.43h-54.75c-2.87,0-5.47-.7-7.82-2.1-2.35-1.38-4.21-3.25-5.59-5.59-1.4-2.35-2.1-4.95-2.1-7.82h0v-54.88c0-2.87.7-5.46,2.1-7.8,1.38-2.35,3.25-4.22,5.59-5.62,2.35-1.4,4.95-2.1,7.82-2.1h54.75c2.87,0,5.49.7,7.87,2.1,2.38,1.4,4.27,3.27,5.67,5.62,1.38,2.33,2.07,4.93,2.07,7.8h0v5.13h-13v-4.77c0-.79-.28-1.49-.83-2.1-.55-.59-1.27-.88-2.15-.88h-54.02c-.79,0-1.49.29-2.1.88-.6.6-.91,1.3-.91,2.1h0v54.15c0,.79.3,1.49.91,2.1.6.59,1.3.88,2.1.88h54.02c.88,0,1.6-.29,2.15-.88.55-.6.83-1.3.83-2.1h0v-18.23h-20.28v-13.03h33.28v31.62c0,2.87-.69,5.47-2.07,7.82-1.4,2.35-3.29,4.21-5.67,5.59-2.38,1.4-5.01,2.1-7.87,2.1h0ZM399.85,118.43h-54.88c-2.87,0-5.47-.72-7.82-2.15-2.33-1.43-4.2-3.3-5.59-5.59-1.4-2.31-2.1-4.9-2.1-7.77h0v-25.53h57.39v-12.28c0-.79-.28-1.49-.83-2.1-.57-.59-1.25-.88-2.05-.88h-54.51v-12.9h54.88c2.87,0,5.47.7,7.82,2.1,2.35,1.4,4.21,3.29,5.59,5.67,1.4,2.38,2.1,4.96,2.1,7.74h0v53.68ZM345.33,105.53h41.51v-16.08h-44.49v13.1c0,.79.29,1.49.88,2.1.6.59,1.3.88,2.1.88ZM433.49,118.43h-13V49.23h88.39c2.95,0,5.58.72,7.87,2.15,2.31,1.43,4.16,3.31,5.54,5.62,1.4,2.3,2.1,4.88,2.1,7.74h0v53.68h-12.77v-53.32c0-.79-.29-1.49-.88-2.1-.6-.59-1.3-.88-2.1-.88h-26.6c-.88,0-1.6.29-2.15.88-.55.6-.83,1.3-.83,2.1h0v53.32h-13v-53.32c0-.79-.3-1.49-.91-2.1-.6-.59-1.3-.88-2.1-.88h-26.7c-.79,0-1.48.29-2.05.88-.55.6-.83,1.3-.83,2.1h0v53.32ZM561.24,118.43h0c-2.85,0-5.43-.72-7.74-2.15-2.31-1.43-4.19-3.3-5.62-5.59-1.42-2.31-2.12-4.9-2.12-7.77h0v-38.17c0-2.87.71-5.45,2.12-7.74,1.43-2.31,3.31-4.19,5.62-5.62,2.31-1.43,4.89-2.15,7.74-2.15h39.36c2.87,0,5.47.7,7.82,2.1,2.35,1.4,4.22,3.29,5.62,5.67,1.38,2.38,2.07,4.96,2.07,7.74h0v25.53h-57.49v12.28c0,.79.3,1.49.91,2.1.59.59,1.28.88,2.07.88h54.51v12.9h-54.88ZM558.62,65.11v13.13h44.49v-13.13c0-.79-.28-1.49-.83-2.1-.55-.59-1.23-.88-2.02-.88h-38.66c-.79,0-1.48.29-2.07.88-.6.6-.91,1.3-.91,2.1h0ZM639.99,118.43h0V32.53h66.79c2.78,0,5.37.7,7.77,2.1,2.38,1.4,4.26,3.27,5.65,5.62,1.4,2.33,2.1,4.93,2.1,7.8h0v17.53c0,1.04-.1,2.07-.31,3.11-.19,1.04-.53,1.99-1.01,2.87h0c1.59,2.23,2.81,4.32,3.65,6.27.83,1.93,1.24,3.9,1.24,5.9h0v19.19c0,2.87-.7,5.47-2.1,7.82-1.38,2.35-3.26,4.21-5.65,5.59-2.38,1.4-5.01,2.1-7.87,2.1h-70.26ZM655.84,105.53h54.05c.88,0,1.6-.29,2.15-.88.55-.6.83-1.3.83-2.1h0v-18.49c0-.79-.28-1.48-.83-2.07-.55-.6-1.27-.91-2.15-.91h-54.05c-.79,0-1.48.3-2.07.91-.6.59-.91,1.28-.91,2.07h0v18.49c0,.79.3,1.49.91,2.1.59.59,1.28.88,2.07.88ZM655.84,68.21h50.58c.79,0,1.48-.3,2.05-.91.55-.59.83-1.28.83-2.07h0v-16.83c0-.79-.28-1.49-.83-2.1-.57-.59-1.25-.88-2.05-.88h-50.58c-.79,0-1.48.29-2.07.88-.6.6-.91,1.3-.91,2.1h0v16.83c0,.79.3,1.48.91,2.07.59.6,1.28.91,2.07.91ZM764.76,118.43h0c-2.87,0-5.47-.72-7.82-2.15-2.35-1.43-4.21-3.3-5.59-5.59-1.4-2.31-2.1-4.9-2.1-7.77h0v-53.68h12.87v53.32c0,.79.3,1.49.91,2.1.6.59,1.3.88,2.1.88h38.64c.79,0,1.49-.29,2.1-.88.59-.6.88-1.3.88-2.1h0v-53.32h12.9v53.68c0,2.87-.7,5.46-2.1,7.77-1.4,2.3-3.26,4.16-5.59,5.59-2.35,1.43-4.95,2.15-7.82,2.15h-39.36ZM855.66,118.43h-12.9V49.23h12.9v69.2ZM855.66,39.47h-12.9v-12.9h12.9v12.9ZM896.09,118.43h0c-2.87,0-5.45-.72-7.74-2.15-2.31-1.43-4.19-3.3-5.62-5.59-1.43-2.31-2.15-4.9-2.15-7.77h0V26.57h12.9v75.98c0,.79.3,1.49.91,2.1.59.59,1.28.88,2.07.88h12.53v12.9h-12.9ZM942.62,118.43h0c-2.87,0-5.47-.7-7.82-2.1-2.35-1.38-4.21-3.26-5.59-5.65-1.4-2.4-2.1-4.99-2.1-7.77h0v-38.17c0-2.87.7-5.45,2.1-7.74,1.38-2.31,3.25-4.19,5.59-5.62,2.35-1.43,4.96-2.15,7.82-2.15h41.98v-22.66h12.9v91.86h-54.88ZM943.09,105.53h38.66c.79,0,1.47-.29,2.02-.88.55-.6.83-1.3.83-2.1h0v-37.45c0-.79-.28-1.49-.83-2.1-.55-.59-1.23-.88-2.02-.88h-38.66c-.79,0-1.48.29-2.07.88-.6.6-.91,1.3-.91,2.1h0v37.45c0,.79.3,1.49.91,2.1.59.59,1.28.88,2.07.88Z"/>
    <g class="cls-2">
      <rect class="cls-1" x="940.11" y="62.13" width="3.16" height="43.4"/>
      <rect class="cls-1" x="943.27" y="62.13" width="4.52" height="43.4"/>
      <rect class="cls-1" x="947.79" y="62.13" width="4.52" height="43.4"/>
      <rect class="cls-1" x="952.31" y="62.13" width="4.52" height="43.4"/>
      <rect class="cls-1" x="956.83" y="62.13" width="4.52" height="43.4"/>
      <rect class="cls-1" x="961.35" y="62.13" width="4.52" height="43.4"/>
      <rect class="cls-1" x="965.87" y="62.13" width="4.52" height="43.4"/>
      <rect class="cls-1" x="970.38" y="62.13" width="4.52" height="43.4"/>
      <rect class="cls-1" x="974.9" y="62.13" width="4.52" height="43.4"/>
      <rect class="cls-1" x="979.42" y="62.13" width="4.52" height="43.4"/>
      <rect class="cls-1" x="983.94" y="62.13" width=".66" height="43.4"/>
      <rect class="cls-1" x="927.11" y="26.57" width="2.6" height="91.86"/>
      <rect class="cls-1" x="929.71" y="26.57" width="4.52" height="91.86"/>
      <rect class="cls-1" x="934.23" y="26.57" width="4.52" height="91.86"/>
      <rect class="cls-1" x="938.75" y="26.57" width="4.52" height="91.86"/>
      <rect class="cls-1" x="943.27" y="26.57" width="4.52" height="91.86"/>
      <rect class="cls-1" x="947.79" y="26.57" width="4.52" height="91.86"/>
      <rect class="cls-1" x="952.31" y="26.57" width="4.52" height="91.86"/>
      <rect class="cls-1" x="956.83" y="26.57" width="4.52" height="91.86"/>
      <rect class="cls-1" x="961.35" y="26.57" width="4.52" height="91.86"/>
      <rect class="cls-1" x="965.87" y="26.57" width="4.52" height="91.86"/>
      <rect class="cls-1" x="970.38" y="26.57" width="4.52" height="91.86"/>
      <rect class="cls-1" x="974.9" y="26.57" width="4.52" height="91.86"/>
      <rect class="cls-1" x="979.42" y="26.57" width="4.52" height="91.86"/>
      <rect class="cls-1" x="983.94" y="26.57" width="4.52" height="91.86"/>
      <rect class="cls-1" x="988.46" y="26.57" width="4.52" height="91.86"/>
      <rect class="cls-1" x="992.98" y="26.57" width="4.52" height="91.86"/>
      <rect class="cls-1" x="880.57" y="26.57" width="3.95" height="91.86"/>
      <rect class="cls-1" x="884.52" y="26.57" width="4.52" height="91.86"/>
      <rect class="cls-1" x="889.04" y="26.57" width="4.52" height="91.86"/>
      <rect class="cls-1" x="893.56" y="26.57" width="4.52" height="91.86"/>
      <rect class="cls-1" x="898.08" y="26.57" width="4.52" height="91.86"/>
      <rect class="cls-1" x="902.6" y="26.57" width="4.52" height="91.86"/>
      <rect class="cls-1" x="907.12" y="26.57" width="1.87" height="91.86"/>
      <rect class="cls-1" x="842.76" y="26.57" width="1.08" height="12.9"/>
      <rect class="cls-1" x="843.85" y="26.57" width="4.52" height="12.9"/>
      <rect class="cls-1" x="848.37" y="26.57" width="4.52" height="12.9"/>
      <rect class="cls-1" x="852.89" y="26.57" width="2.78" height="12.9"/>
      <rect class="cls-1" x="842.76" y="49.23" width="1.08" height="69.2"/>
      <rect class="cls-1" x="843.85" y="49.23" width="4.52" height="69.2"/>
      <rect class="cls-1" x="848.37" y="49.23" width="4.52" height="69.2"/>
      <rect class="cls-1" x="852.89" y="49.23" width="2.78" height="69.2"/>
      <rect class="cls-1" x="749.25" y="49.23" width="4.21" height="69.2"/>
      <rect class="cls-1" x="753.46" y="49.23" width="4.52" height="69.2"/>
      <rect class="cls-1" x="757.98" y="49.23" width="4.52" height="69.2"/>
      <rect class="cls-1" x="762.5" y="49.23" width="4.52" height="69.2"/>
      <rect class="cls-1" x="767.02" y="49.23" width="4.52" height="69.2"/>
      <rect class="cls-1" x="771.54" y="49.23" width="4.52" height="69.2"/>
      <rect class="cls-1" x="776.06" y="49.23" width="4.52" height="69.2"/>
      <rect class="cls-1" x="780.58" y="49.23" width="4.52" height="69.2"/>
      <rect class="cls-1" x="785.1" y="49.23" width="4.52" height="69.2"/>
      <rect class="cls-1" x="789.62" y="49.23" width="4.52" height="69.2"/>
      <rect class="cls-1" x="794.14" y="49.23" width="4.52" height="69.2"/>
      <rect class="cls-1" x="798.66" y="49.23" width="4.52" height="69.2"/>
      <rect class="cls-1" x="803.17" y="49.23" width="4.52" height="69.2"/>
      <rect class="cls-1" x="807.69" y="49.23" width="4.52" height="69.2"/>
      <rect class="cls-1" x="812.21" y="49.23" width="4.52" height="69.2"/>
      <rect class="cls-1" x="816.73" y="49.23" width="2.91" height="69.2"/>
      <rect class="cls-1" x="652.86" y="45.42" width="1.18" height="22.79"/>
      <rect class="cls-1" x="654.04" y="45.42" width="4.52" height="22.79"/>
      <rect class="cls-1" x="658.56" y="45.42" width="4.52" height="22.79"/>
      <rect class="cls-1" x="663.08" y="45.42" width="4.52" height="22.79"/>
      <rect class="cls-1" x="667.6" y="45.42" width="4.52" height="22.79"/>
      <rect class="cls-1" x="672.12" y="45.42" width="4.52" height="22.79"/>
      <rect class="cls-1" x="676.64" y="45.42" width="4.52" height="22.79"/>
      <rect class="cls-1" x="681.16" y="45.42" width="4.52" height="22.79"/>
      <rect class="cls-1" x="685.68" y="45.42" width="4.52" height="22.79"/>
      <rect class="cls-1" x="690.19" y="45.42" width="4.52" height="22.79"/>
      <rect class="cls-1" x="694.71" y="45.42" width="4.52" height="22.79"/>
      <rect class="cls-1" x="699.23" y="45.42" width="4.52" height="22.79"/>
      <rect class="cls-1" x="703.75" y="45.42" width="4.52" height="22.79"/>
      <rect class="cls-1" x="708.27" y="45.42" width="1.02" height="22.79"/>
      <rect class="cls-1" x="652.86" y="81.08" width="1.18" height="24.45"/>
      <rect class="cls-1" x="654.04" y="81.08" width="4.52" height="24.45"/>
      <rect class="cls-1" x="658.56" y="81.08" width="4.52" height="24.45"/>
      <rect class="cls-1" x="663.08" y="81.08" width="4.52" height="24.45"/>
      <rect class="cls-1" x="667.6" y="81.08" width="4.52" height="24.45"/>
      <rect class="cls-1" x="672.12" y="81.08" width="4.52" height="24.45"/>
      <rect class="cls-1" x="676.64" y="81.08" width="4.52" height="24.45"/>
      <rect class="cls-1" x="681.16" y="81.08" width="4.52" height="24.45"/>
      <rect class="cls-1" x="685.68" y="81.08" width="4.52" height="24.45"/>
      <rect class="cls-1" x="690.19" y="81.08" width="4.52" height="24.45"/>
      <rect class="cls-1" x="694.71" y="81.08" width="4.52" height="24.45"/>
      <rect class="cls-1" x="699.23" y="81.08" width="4.52" height="24.45"/>
      <rect class="cls-1" x="703.75" y="81.08" width="4.52" height="24.45"/>
      <rect class="cls-1" x="708.27" y="81.08" width="4.52" height="24.45"/>
      <rect class="cls-1" x="712.79" y="81.08" width=".07" height="24.45"/>
      <rect class="cls-1" x="639.99" y="32.53" width=".49" height="85.9"/>
      <rect class="cls-1" x="640.48" y="32.53" width="4.52" height="85.9"/>
      <rect class="cls-1" x="645" y="32.53" width="4.52" height="85.9"/>
      <rect class="cls-1" x="649.52" y="32.53" width="4.52" height="85.9"/>
      <rect class="cls-1" x="654.04" y="32.53" width="4.52" height="85.9"/>
      <rect class="cls-1" x="658.56" y="32.53" width="4.52" height="85.9"/>
      <rect class="cls-1" x="663.08" y="32.53" width="4.52" height="85.9"/>
      <rect class="cls-1" x="667.6" y="32.53" width="4.52" height="85.9"/>
      <rect class="cls-1" x="672.12" y="32.53" width="4.52" height="85.9"/>
      <rect class="cls-1" x="676.64" y="32.53" width="4.52" height="85.9"/>
      <rect class="cls-1" x="681.16" y="32.53" width="4.52" height="85.9"/>
      <rect class="cls-1" x="685.68" y="32.53" width="4.52" height="85.9"/>
      <rect class="cls-1" x="690.19" y="32.53" width="4.52" height="85.9"/>
      <rect class="cls-1" x="694.71" y="32.53" width="4.52" height="85.9"/>
      <rect class="cls-1" x="699.23" y="32.53" width="4.52" height="85.9"/>
      <rect class="cls-1" x="703.75" y="32.53" width="4.52" height="85.9"/>
      <rect class="cls-1" x="708.27" y="32.53" width="4.52" height="85.9"/>
      <rect class="cls-1" x="712.79" y="32.53" width="4.52" height="85.9"/>
      <rect class="cls-1" x="717.31" y="32.53" width="4.52" height="85.9"/>
      <rect class="cls-1" x="721.83" y="32.53" width="4.04" height="85.9"/>
      <rect class="cls-1" x="558.62" y="62.13" width=".52" height="16.11"/>
      <rect class="cls-1" x="559.14" y="62.13" width="4.52" height="16.11"/>
      <rect class="cls-1" x="563.66" y="62.13" width="4.52" height="16.11"/>
      <rect class="cls-1" x="568.18" y="62.13" width="4.52" height="16.11"/>
      <rect class="cls-1" x="572.7" y="62.13" width="4.52" height="16.11"/>
      <rect class="cls-1" x="577.21" y="62.13" width="4.52" height="16.11"/>
      <rect class="cls-1" x="581.73" y="62.13" width="4.52" height="16.11"/>
      <rect class="cls-1" x="586.25" y="62.13" width="4.52" height="16.11"/>
      <rect class="cls-1" x="590.77" y="62.13" width="4.52" height="16.11"/>
      <rect class="cls-1" x="595.29" y="62.13" width="4.52" height="16.11"/>
      <rect class="cls-1" x="599.81" y="62.13" width="3.3" height="16.11"/>
      <rect class="cls-1" x="545.75" y="49.23" width="4.35" height="69.2"/>
      <rect class="cls-1" x="550.1" y="49.23" width="4.52" height="69.2"/>
      <rect class="cls-1" x="554.62" y="49.23" width="4.52" height="69.2"/>
      <rect class="cls-1" x="559.14" y="49.23" width="4.52" height="69.2"/>
      <rect class="cls-1" x="563.66" y="49.23" width="4.52" height="69.2"/>
      <rect class="cls-1" x="568.18" y="49.23" width="4.52" height="69.2"/>
      <rect class="cls-1" x="572.7" y="49.23" width="4.52" height="69.2"/>
      <rect class="cls-1" x="577.21" y="49.23" width="4.52" height="69.2"/>
      <rect class="cls-1" x="581.73" y="49.23" width="4.52" height="69.2"/>
      <rect class="cls-1" x="586.25" y="49.23" width="4.52" height="69.2"/>
      <rect class="cls-1" x="590.77" y="49.23" width="4.52" height="69.2"/>
      <rect class="cls-1" x="595.29" y="49.23" width="4.52" height="69.2"/>
      <rect class="cls-1" x="599.81" y="49.23" width="4.52" height="69.2"/>
      <rect class="cls-1" x="604.33" y="49.23" width="4.52" height="69.2"/>
      <rect class="cls-1" x="608.85" y="49.23" width="4.52" height="69.2"/>
      <rect class="cls-1" x="613.37" y="49.23" width="2.74" height="69.2"/>
      <rect class="cls-1" x="420.49" y="49.23" width="3.08" height="69.2"/>
      <rect class="cls-1" x="423.56" y="49.23" width="4.52" height="69.2"/>
      <rect class="cls-1" x="428.08" y="49.23" width="4.52" height="69.2"/>
      <rect class="cls-1" x="432.6" y="49.23" width="4.52" height="69.2"/>
      <rect class="cls-1" x="437.12" y="49.23" width="4.52" height="69.2"/>
      <rect class="cls-1" x="441.64" y="49.23" width="4.52" height="69.2"/>
      <rect class="cls-1" x="446.16" y="49.23" width="4.52" height="69.2"/>
      <rect class="cls-1" x="450.68" y="49.23" width="4.52" height="69.2"/>
      <rect class="cls-1" x="455.2" y="49.23" width="4.52" height="69.2"/>
      <rect class="cls-1" x="459.72" y="49.23" width="4.52" height="69.2"/>
      <rect class="cls-1" x="464.23" y="49.23" width="4.52" height="69.2"/>
      <rect class="cls-1" x="468.75" y="49.23" width="4.52" height="69.2"/>
      <rect class="cls-1" x="473.27" y="49.23" width="4.52" height="69.2"/>
      <rect class="cls-1" x="477.79" y="49.23" width="4.52" height="69.2"/>
      <rect class="cls-1" x="482.31" y="49.23" width="4.52" height="69.2"/>
      <rect class="cls-1" x="486.83" y="49.23" width="4.52" height="69.2"/>
      <rect class="cls-1" x="491.35" y="49.23" width="4.52" height="69.2"/>
      <rect class="cls-1" x="495.87" y="49.23" width="4.52" height="69.2"/>
      <rect class="cls-1" x="500.39" y="49.23" width="4.52" height="69.2"/>
      <rect class="cls-1" x="504.91" y="49.23" width="4.52" height="69.2"/>
      <rect class="cls-1" x="509.43" y="49.23" width="4.52" height="69.2"/>
      <rect class="cls-1" x="513.95" y="49.23" width="4.52" height="69.2"/>
      <rect class="cls-1" x="518.46" y="49.23" width="4.52" height="69.2"/>
      <rect class="cls-1" x="522.98" y="49.23" width="1.4" height="69.2"/>
      <rect class="cls-1" x="342.35" y="89.45" width="4.38" height="16.08"/>
      <rect class="cls-1" x="346.74" y="89.45" width="4.52" height="16.08"/>
      <rect class="cls-1" x="351.25" y="89.45" width="4.52" height="16.08"/>
      <rect class="cls-1" x="355.77" y="89.45" width="4.52" height="16.08"/>
      <rect class="cls-1" x="360.29" y="89.45" width="4.52" height="16.08"/>
      <rect class="cls-1" x="364.81" y="89.45" width="4.52" height="16.08"/>
      <rect class="cls-1" x="369.33" y="89.45" width="4.52" height="16.08"/>
      <rect class="cls-1" x="373.85" y="89.45" width="4.52" height="16.08"/>
      <rect class="cls-1" x="378.37" y="89.45" width="4.52" height="16.08"/>
      <rect class="cls-1" x="382.89" y="89.45" width="3.96" height="16.08"/>
      <rect class="cls-1" x="329.46" y="49.23" width="3.72" height="69.2"/>
      <rect class="cls-1" x="333.18" y="49.23" width="4.52" height="69.2"/>
      <rect class="cls-1" x="337.7" y="49.23" width="4.52" height="69.2"/>
      <rect class="cls-1" x="342.22" y="49.23" width="4.52" height="69.2"/>
      <rect class="cls-1" x="346.74" y="49.23" width="4.52" height="69.2"/>
      <rect class="cls-1" x="351.25" y="49.23" width="4.52" height="69.2"/>
      <rect class="cls-1" x="355.77" y="49.23" width="4.52" height="69.2"/>
      <rect class="cls-1" x="360.29" y="49.23" width="4.52" height="69.2"/>
      <rect class="cls-1" x="364.81" y="49.23" width="4.52" height="69.2"/>
      <rect class="cls-1" x="369.33" y="49.23" width="4.52" height="69.2"/>
      <rect class="cls-1" x="373.85" y="49.23" width="4.52" height="69.2"/>
      <rect class="cls-1" x="378.37" y="49.23" width="4.52" height="69.2"/>
      <rect class="cls-1" x="382.89" y="49.23" width="4.52" height="69.2"/>
      <rect class="cls-1" x="387.41" y="49.23" width="4.52" height="69.2"/>
      <rect class="cls-1" x="391.93" y="49.23" width="4.52" height="69.2"/>
      <rect class="cls-1" x="396.45" y="49.23" width="3.4" height="69.2"/>
      <rect class="cls-1" x="220.2" y="32.53" width="4.52" height="85.9"/>
      <rect class="cls-1" x="224.72" y="32.53" width="4.52" height="85.9"/>
      <rect class="cls-1" x="229.24" y="32.53" width="4.52" height="85.9"/>
      <rect class="cls-1" x="233.76" y="32.53" width="4.52" height="85.9"/>
      <rect class="cls-1" x="238.27" y="32.53" width="4.52" height="85.9"/>
      <rect class="cls-1" x="242.79" y="32.53" width="4.52" height="85.9"/>
      <rect class="cls-1" x="247.31" y="32.53" width="4.52" height="85.9"/>
      <rect class="cls-1" x="251.83" y="32.53" width="4.52" height="85.9"/>
      <rect class="cls-1" x="256.35" y="32.53" width="4.52" height="85.9"/>
      <rect class="cls-1" x="260.87" y="32.53" width="4.52" height="85.9"/>
      <rect class="cls-1" x="265.39" y="32.53" width="4.52" height="85.9"/>
      <rect class="cls-1" x="269.91" y="32.53" width="4.52" height="85.9"/>
      <rect class="cls-1" x="274.43" y="32.53" width="4.52" height="85.9"/>
      <rect class="cls-1" x="278.95" y="32.53" width="4.52" height="85.9"/>
      <rect class="cls-1" x="283.47" y="32.53" width="4.52" height="85.9"/>
      <rect class="cls-1" x="287.99" y="32.53" width="4.52" height="85.9"/>
      <rect class="cls-1" x="292.5" y="32.53" width="4.52" height="85.9"/>
      <rect class="cls-1" x="297.02" y="32.53" width="4.52" height="85.9"/>
      <rect class="cls-1" x="301.54" y="32.53" width="4.52" height="85.9"/>
      <rect class="cls-1" x="306.06" y="32.53" width=".01" height="85.9"/>
    </g>
  </g>
</svg>