<?xml version="1.0" encoding="UTF-8"?>
<svg id="Layer_2" xmlns="http://www.w3.org/2000/svg" xmlns:xlink="http://www.w3.org/1999/xlink" viewBox="0 0 508.6 508.6">
  <defs>
    <style>
      .cls-1 {
        fill: url(#linear-gradient-2);
      }

      .cls-2 {
        fill: url(#linear-gradient-4);
      }

      .cls-3 {
        fill: url(#radial-gradient);
      }

      .cls-4 {
        fill: url(#linear-gradient-3);
      }

      .cls-5 {
        fill: url(#linear-gradient);
      }
    </style>
    <radialGradient id="radial-gradient" cx="3229.14" cy="-3562.23" fx="3229.14" fy="-3562.23" r="477.94" gradientTransform="translate(3480.25 -3179.04) rotate(90) scale(1 -1)" gradientUnits="userSpaceOnUse">
      <stop offset="0" stop-color="#010102"/>
      <stop offset=".7" stop-color="#12284a"/>
      <stop offset=".8" stop-color="#0c1c34"/>
      <stop offset=".9" stop-color="#03070e"/>
      <stop offset="1" stop-color="#000"/>
    </radialGradient>
    <linearGradient id="linear-gradient" x1="220.26" y1="721.08" x2="396.35" y2="557.83" gradientTransform="translate(0 -415.99)" gradientUnits="userSpaceOnUse">
      <stop offset="0" stop-color="#b76bff"/>
      <stop offset="1" stop-color="#01fffd"/>
    </linearGradient>
    <linearGradient id="linear-gradient-2" x1="169.76" y1="687.69" x2="339.22" y2="512.83" xlink:href="#linear-gradient"/>
    <linearGradient id="linear-gradient-3" x1="122.11" y1="-3170.29" x2="388.63" y2="-3170.29" gradientTransform="translate(0 -2765.32) scale(1 -1)" xlink:href="#linear-gradient"/>
    <linearGradient id="linear-gradient-4" x1="122.21" y1="-3142.74" x2="388.53" y2="-3142.74" gradientTransform="translate(0 -2765.32) scale(1 -1)" xlink:href="#linear-gradient"/>
  </defs>
  <g id="logo">
    <g>
      <circle class="cls-3" cx="254.3" cy="254.3" r="254.3"/>
      <path class="cls-5" d="M360.82,337.81h-143.39c-4.38,0-7.94-3.56-7.94-7.94s3.56-7.94,7.94-7.94h143.39c9.88,0,17.82-8.05,17.82-17.82v-164.98c0-9.88-8.05-17.82-17.82-17.82h-32.49c-4.68,0-9.27,2.34-12.12,6.21l-31.98,46.64c0,.1-.1.2-.2.31-4.68,6.31-11.1,12.83-21.49,12.83h-13.95c-9.37,0-17.82-5.19-22-13.65l-.2-.31c-1.43-2.75-4.28-4.48-7.74-4.58h-14.05c-3.77,0-7.33,2.65-8.55,6.42l-22.91,76.18h0c-7.94,25.05,2.95,29.33,6.62,30.55,4.07,1.63,6.11,6.21,4.48,10.29-1.63,4.07-6.21,6.11-10.29,4.48-10.18-3.97-16.6-11.51-18.64-22-1.63-7.94-.61-17.21,2.75-27.9l22.91-76.18h0c3.36-10.59,13.14-17.72,23.83-17.62h14.05c9.27.2,17.62,5.4,21.59,13.34l.2.31c1.53,2.95,4.58,4.89,7.94,4.89h13.65c2.65,0,4.68-.92,8.76-6.42l31.98-46.44h0c5.8-8.15,15.07-12.93,25.05-12.93h32.59c18.64,0,33.71,15.07,33.71,33.71v164.98c0,18.64-15.07,33.81-33.71,33.81v-.31l.2-.1Z"/>
      <path class="cls-1" d="M164.17,338.11h-12.22c-18.84,0-34.02-15.28-34.02-34.02v-164.98c0-18.84,15.28-34.02,34.02-34.02h126.28c4.58,0,8.25,3.67,8.25,8.25s-3.67,8.25-8.25,8.25h-126.39c-9.78,0-17.52,7.94-17.52,17.52v164.98c0,9.78,7.94,17.52,17.52,17.52h12.22c4.58,0,8.86-2.24,11.71-5.8h0l55.4-71.8c.1-.2.2-.31.31-.41,4.48-4.99,11-8.15,17.72-8.35l8.35-.31c8.35-.31,16.29,3.67,21.08,10.29l19.35,26.89c6.62,9.17,18.74,12.83,29.43,8.86l.92-.31c12.83-4.79,19.45-19.25,14.87-32.18l-27.09-74.96c-.71-2.14-2.34-3.87-4.28-4.79-4.07-2.04-5.8-6.82-3.87-11,2.04-4.07,6.82-5.8,11-3.87,5.91,2.85,10.39,7.94,12.63,14.05l27.19,74.96c3.77,10.39,3.26,21.59-1.43,31.67-4.58,9.98-12.83,17.62-23.22,21.59l-.92.31c-17.52,6.62-37.58.61-48.58-14.56l-19.35-26.89c-1.63-2.34-4.28-3.67-7.13-3.56l-8.35.31c-2.24,0-4.38,1.12-5.91,2.65l-55.2,71.49c-5.91,7.74-15.17,12.32-24.85,12.32h.2l.1-.1Z"/>
      <g>
        <path class="cls-4" d="M126.28,408.89h0c-.61,0-1.12,0-1.63-.31-.51-.2-.92-.51-1.32-.81s-.71-.81-.92-1.22c-.2-.51-.31-1.02-.31-1.63h0c0-.61,0-1.12.31-1.63.2-.51.51-.92.92-1.22s.81-.61,1.32-.81,1.02-.31,1.63-.31h0c.61,0,1.22.1,1.73.31s.92.51,1.32.92h0l-.92.92c-.31-.31-.61-.51-1.02-.71-.31-.1-.71-.2-1.12-.2h0c-.41,0-.81,0-1.12.2-.31.1-.61.31-.92.51-.2.2-.41.51-.61.81-.1.31-.2.71-.2,1.12h0c0,.41,0,.71.2,1.12.1.31.31.61.61.81.2.2.51.41.92.61.31.1.71.2,1.12.2h0c.41,0,.71,0,1.12-.2.41-.1.71-.31,1.02-.61h0l.81,1.12c-.41.31-.92.61-1.43.71-.51.2-1.12.2-1.63.2l.1.1ZM129.34,407.87l-1.32-.2v-2.85h1.32v3.06ZM133.62,408.79h-1.43l3.46-7.74h1.43l3.46,7.74h-1.53l-2.95-6.93h.61l-2.95,6.93h-.1ZM138.71,406.96h-4.89l.41-1.12h4.18l.41,1.12h-.1ZM145.02,408.79h-1.32v-7.74h1.22l3.36,5.6h-.61l3.36-5.6h1.22v7.74h-1.32v-5.6h.31l-2.85,4.68h-.61l-2.85-4.68h.31v5.6h-.2ZM157.55,405.43v-1.22h3.87v1.22h-3.87ZM157.65,402.27v5.3h4.38v1.22h-5.8v-7.74h5.6v1.22h-4.18ZM172.21,408.79h-1.43v-7.74h1.43v7.74ZM177.82,408.79h-1.43v-7.74h1.22l4.79,5.91h-.61v-5.91h1.43v7.74h-1.22l-4.89-5.91h.61v5.91h.1ZM188.71,405.84v-1.22h3.87v1.22h-3.87ZM188.81,402.27v6.52h-1.43v-7.74h5.6v1.22h-4.18ZM197.98,408.79h-1.43v-7.74h3.16c.71,0,1.22.1,1.73.31s.81.51,1.12.92c.31.41.41.92.41,1.43h0c0,.61-.1,1.02-.41,1.43s-.61.71-1.12.92-1.12.31-1.73.31h-2.34l.61-.61v3.06ZM203.07,408.79h-1.53l-1.94-2.75h1.53l1.94,2.75ZM197.98,401.56v4.48l-.61-.71h2.34c.61,0,1.12-.1,1.43-.41.31-.31.51-.61.51-1.12h0c0-.51-.2-.92-.51-1.12-.31-.31-.81-.41-1.43-.41h-2.34l.61-.71ZM207.04,408.79h-1.43l3.46-7.74h1.43l3.46,7.74h-1.53l-2.95-6.93h.61l-2.95,6.93h-.1ZM212.14,406.96h-4.89l.41-1.12h4.18l.41,1.12h-.1ZM219.37,408.89h0c-.61,0-1.22,0-1.73-.31s-1.02-.41-1.32-.71h0l.51-1.12c.31.2.71.41,1.12.61.41.2.92.2,1.43.2h0c.41,0,.71,0,1.02-.1s.41-.2.51-.31c.1-.2.2-.31.2-.51h0c0-.2,0-.41-.31-.61l-.61-.31c-.31,0-.61-.2-.92-.2s-.61-.2-1.02-.31c-.31,0-.61-.2-.92-.41s-.51-.41-.61-.61c-.2-.31-.31-.61-.31-1.02h0c0-.41.1-.81.31-1.12.2-.31.61-.61,1.02-.81.51-.2,1.02-.31,1.73-.31h0c.51,0,.92,0,1.43.2.41.1.81.31,1.22.51h0l-.41,1.12c-.31-.2-.71-.41-1.02-.41-.41,0-.71-.1-1.02-.1h0c-.41,0-.71,0-1.02.1-.2,0-.41.2-.51.41s-.2.31-.2.51h0c0,.2,0,.41.2.61l.61.31c.31,0,.61.2.92.2s.61.2,1.02.31c.31,0,.61.2.92.41s.51.41.61.61c.2.31.2.61.2,1.02h0c0,.41-.1.81-.31,1.12-.2.31-.61.61-1.02.81-.51.2-1.02.31-1.73.31v-.1ZM229.04,408.79h-1.43v-6.52h-2.55v-1.22h6.52v1.22h-2.55v6.52ZM236.17,408.79h-1.43v-7.74h3.16c.71,0,1.22.1,1.73.31s.81.51,1.12.92c.31.41.41.92.41,1.43h0c0,.61-.1,1.02-.41,1.43s-.61.71-1.12.92-1.12.31-1.73.31h-2.34l.61-.61v3.06ZM241.36,408.79h-1.53l-1.94-2.75h1.53l1.94,2.75ZM236.17,401.56v4.48l-.61-.71h2.34c.61,0,1.12-.1,1.43-.41.31-.31.51-.61.51-1.12h0c0-.51-.2-.92-.51-1.12-.31-.31-.81-.41-1.43-.41h-2.34l.61-.71ZM248.19,408.89h0c-1.02,0-1.94-.31-2.44-.92-.61-.61-.92-1.43-.92-2.55h0v-4.38h1.43v4.28c0,.81.2,1.32.51,1.73s.81.51,1.43.51h0c.61,0,1.12-.2,1.43-.51.31-.41.51-.92.51-1.73h0v-4.28h1.43v4.38c0,1.12-.31,1.94-.92,2.55s-1.43.92-2.44.92ZM259.29,408.89h0c-.61,0-1.12,0-1.63-.31-.51-.2-.92-.51-1.32-.81s-.61-.81-.81-1.22c-.2-.51-.31-1.02-.31-1.63h0c0-.61.1-1.12.31-1.63.2-.51.51-.92.92-1.22s.81-.61,1.32-.81,1.02-.31,1.63-.31h0c.61,0,1.22.1,1.73.31s.92.51,1.32.92h0l-.92.92c-.31-.31-.61-.51-.92-.71s-.71-.2-1.12-.2h0c-.41,0-.81,0-1.12.2-.31.1-.61.31-.92.51-.2.2-.41.51-.61.81-.1.31-.2.71-.2,1.12h0c0,.41,0,.71.2,1.12.1.31.31.61.61.81.2.2.51.41.92.51.31.1.71.2,1.12.2h0c.41,0,.81,0,1.12-.2.31-.1.61-.41.92-.71h0l.92.92c-.41.41-.81.71-1.32.92s-1.12.31-1.73.31l-.1.2ZM268.76,408.79h-1.43v-6.52h-2.55v-1.22h6.52v1.22h-2.55v6.52ZM277.82,408.89h0c-1.02,0-1.94-.31-2.44-.92-.61-.61-.92-1.43-.92-2.55h0v-4.38h1.43v4.28c0,.81.2,1.32.51,1.73s.81.51,1.43.51h0c.61,0,1.12-.2,1.43-.51.31-.41.51-.92.51-1.73h0v-4.28h1.43v4.38c0,1.12-.31,1.94-.92,2.55s-1.43.92-2.44.92ZM286.68,408.79h-1.43v-7.74h3.16c.71,0,1.22.1,1.73.31s.81.51,1.12.92c.31.41.41.92.41,1.43h0c0,.61-.1,1.02-.41,1.43s-.61.71-1.12.92-1.12.31-1.73.31h-2.34l.61-.61v3.06ZM291.88,408.79h-1.53l-1.94-2.75h1.53l1.94,2.75ZM286.68,401.56v4.48l-.61-.71h2.34c.61,0,1.12-.1,1.43-.41.31-.31.51-.61.51-1.12h0c0-.51-.2-.92-.51-1.12-.31-.31-.81-.41-1.43-.41h-2.34l.61-.71ZM296.77,405.43v-1.22h3.87v1.22h-3.87ZM296.87,402.27v5.3h4.38v1.22h-5.8v-7.74h5.6v1.22h-4.18ZM311.43,408.79h-1.43v-7.74h3.16c.71,0,1.22.1,1.73.31s.92.51,1.12.92c.31.41.41.92.41,1.43h0c0,.61-.1,1.02-.41,1.43s-.61.71-1.12.92-1.12.31-1.73.31h-2.34l.61-.71v3.16ZM311.43,401.56v4.48l-.61-.71h2.34c.61,0,1.12-.1,1.43-.41.31-.31.51-.61.51-1.12h0c0-.51-.2-.92-.51-1.12-.31-.31-.81-.41-1.43-.41h-2.34l.61-.71ZM321.51,408.79h-1.43v-7.74h3.16c.71,0,1.22.1,1.73.31s.92.51,1.12.92c.31.41.41.92.41,1.43h0c0,.61-.1,1.02-.41,1.43s-.61.71-1.12.92-1.12.31-1.73.31h-2.34l.61-.61v3.06ZM326.71,408.79h-1.53l-1.94-2.75h1.53l1.94,2.75ZM321.51,401.56v4.48l-.61-.71h2.34c.61,0,1.12-.1,1.43-.41.31-.31.51-.61.51-1.12h0c0-.51-.2-.92-.51-1.12-.31-.31-.81-.41-1.43-.41h-2.34l.61-.71ZM333.84,408.89h0c-.61,0-1.12,0-1.63-.31-.51-.2-.92-.51-1.32-.81s-.71-.81-.92-1.22c-.2-.51-.31-1.02-.31-1.63h0c0-.61,0-1.12.31-1.63.2-.51.51-.92.92-1.22s.81-.61,1.32-.81,1.02-.31,1.63-.31h0c.61,0,1.12,0,1.63.31.51.2.92.51,1.32.81s.71.81.92,1.22c.2.51.31,1.02.31,1.63h0c0,.61-.1,1.12-.31,1.63s-.51.92-.92,1.22-.81.61-1.32.81-1.02.31-1.63.31ZM333.84,407.67h0c.41,0,.71,0,1.12-.2.31-.1.61-.31.81-.61.2-.2.41-.51.61-.81.1-.31.2-.71.2-1.12h0c0-.41,0-.71-.2-1.12-.1-.31-.31-.61-.61-.81-.2-.2-.51-.41-.81-.61-.31-.1-.71-.2-1.12-.2h0c-.41,0-.71,0-1.12.2-.31.1-.61.31-.81.61-.2.2-.41.51-.61.81s-.2.71-.2,1.12h0c0,.41,0,.71.2,1.12s.31.61.61.81c.2.2.51.41.81.61.31.1.71.2,1.12.2ZM344.63,408.79h-1.43v-6.52h-2.55v-1.22h6.52v1.22h-2.55v6.52ZM353.9,408.89h0c-.61,0-1.12,0-1.63-.31-.51-.2-.92-.51-1.32-.81s-.71-.81-.92-1.22c-.2-.51-.31-1.02-.31-1.63h0c0-.61,0-1.12.31-1.63.2-.51.51-.92.92-1.22s.81-.61,1.32-.81,1.02-.31,1.63-.31h0c.61,0,1.12,0,1.63.31.51.2.92.51,1.32.81s.71.81.92,1.22c.2.51.31,1.02.31,1.63h0c0,.61-.1,1.12-.31,1.63s-.51.92-.92,1.22-.81.61-1.32.81-1.02.31-1.63.31ZM353.9,407.67h0c.41,0,.71,0,1.12-.2.31-.1.61-.31.81-.61.2-.2.41-.51.61-.81.1-.31.2-.71.2-1.12h0c0-.41,0-.71-.2-1.12-.1-.31-.31-.61-.61-.81-.2-.2-.51-.41-.81-.61-.31-.1-.71-.2-1.12-.2h0c-.41,0-.71,0-1.12.2-.31.1-.61.31-.81.61-.2.2-.41.51-.61.81s-.2.71-.2,1.12h0c0,.41,0,.71.2,1.12s.31.61.61.81c.2.2.51.41.81.61.31.1.71.2,1.12.2ZM365.2,408.89h0c-.61,0-1.12,0-1.63-.31-.51-.2-.92-.51-1.32-.81s-.71-.81-.92-1.22c-.2-.51-.31-1.02-.31-1.63h0c0-.61,0-1.12.31-1.63.2-.51.51-.92.92-1.22s.81-.61,1.32-.81,1.02-.31,1.63-.31h0c.61,0,1.22.1,1.73.31s.92.51,1.32.92h0l-.92.92c-.31-.31-.61-.51-.92-.71s-.71-.2-1.12-.2h0c-.41,0-.81,0-1.12.2-.31.1-.61.31-.92.51-.2.2-.41.51-.61.81-.1.31-.2.71-.2,1.12h0c0,.41,0,.71.2,1.12.1.31.31.61.61.81.2.2.51.41.92.51.31.1.71.2,1.12.2h0c.41,0,.81,0,1.12-.2.31-.1.61-.41.92-.71h0l.92.92c-.41.41-.81.71-1.32.92s-1.12.31-1.73.31v.2ZM375.39,408.89h0c-.61,0-1.12,0-1.63-.31-.51-.2-.92-.51-1.32-.81s-.71-.81-.92-1.22c-.2-.51-.31-1.02-.31-1.63h0c0-.61,0-1.12.31-1.63.2-.51.51-.92.92-1.22s.81-.61,1.32-.81,1.02-.31,1.63-.31h0c.61,0,1.12,0,1.63.31.51.2.92.51,1.32.81s.71.81.92,1.22c.2.51.31,1.02.31,1.63h0c0,.61-.1,1.12-.31,1.63s-.51.92-.92,1.22-.81.61-1.32.81-1.02.31-1.63.31ZM375.39,407.67h0c.41,0,.71,0,1.12-.2.31-.1.61-.31.81-.61.2-.2.41-.51.51-.81s.2-.71.2-1.12h0c0-.41,0-.71-.2-1.12-.1-.31-.31-.61-.51-.81s-.51-.41-.81-.61c-.31-.1-.71-.2-1.12-.2h0c-.41,0-.71,0-1.12.2-.31.1-.61.31-.81.61-.2.2-.41.51-.61.81-.1.31-.2.71-.2,1.12h0c0,.41,0,.71.2,1.12.1.31.31.61.61.81.2.2.51.41.81.61.31.1.71.2,1.12.2ZM388.63,408.79h-5.5v-7.74h1.43v6.52h4.07v1.22h0Z"/>
        <path class="cls-2" d="M146.24,393.11h-18.74c-1.02,0-1.83-.2-2.65-.71-.81-.51-1.43-1.12-1.94-1.94-.51-.81-.71-1.73-.71-2.65h0v-18.84c0-1.02.2-1.83.71-2.65s1.12-1.43,1.94-1.94,1.73-.71,2.65-.71h18.74c1.02,0,1.83.2,2.75.71.81.51,1.43,1.12,1.94,1.94.51.81.71,1.73.71,2.65h0v1.73h-4.48v-1.63c0-.31,0-.51-.31-.71-.2-.2-.41-.31-.71-.31h-18.54c-.31,0-.51,0-.71.31-.2.2-.31.41-.31.71h0v18.54c0,.31.1.51.31.71.2.2.41.31.71.31h18.54c.31,0,.51,0,.71-.31.2-.2.31-.41.31-.71h0v-6.21h-6.93v-4.48h11.41v10.8c0,1.02-.2,1.83-.71,2.65s-1.12,1.43-1.94,1.94-1.73.71-2.75.71h0v.1ZM183.72,393.11h-18.84c-1.02,0-1.83-.2-2.65-.71-.81-.51-1.43-1.12-1.94-1.94-.51-.81-.71-1.73-.71-2.65h0v-8.76h19.66v-4.18c0-.31,0-.51-.31-.71-.2-.2-.41-.31-.71-.31h-18.74v-4.38h18.84c1.02,0,1.83.2,2.65.71.81.51,1.43,1.12,1.94,1.94.51.81.71,1.73.71,2.65h0v18.43l.1-.1ZM164.98,388.63h14.26v-5.5h-15.28v4.48c0,.31,0,.51.31.71.2.2.41.31.71.31ZM195.23,393.11h-4.48v-23.73h30.35c1.02,0,1.94.2,2.75.71.81.51,1.43,1.12,1.94,1.94.51.81.71,1.63.71,2.65h0v18.43h-4.38v-18.23c0-.31,0-.51-.31-.71-.2-.2-.41-.31-.71-.31h-9.17c-.31,0-.51,0-.71.31-.2.2-.31.41-.31.71h0v18.23h-4.48v-18.23c0-.31-.1-.51-.31-.71-.2-.2-.41-.31-.71-.31h-9.17c-.31,0-.51,0-.71.31-.2.2-.31.41-.31.71h0v18.23h0ZM239.02,393.11h0c-1.02,0-1.83-.2-2.65-.71-.81-.51-1.43-1.12-1.94-1.94-.51-.81-.71-1.73-.71-2.65h0v-13.04c0-1.02.2-1.83.71-2.65.51-.81,1.12-1.43,1.94-1.94.81-.51,1.63-.71,2.65-.71h13.54c1.02,0,1.83.2,2.65.71.81.51,1.43,1.12,1.94,1.94.51.81.71,1.73.71,2.65h0v8.76h-19.76v4.18c0,.31.1.51.31.71.2.2.41.31.71.31h18.74v4.38h-18.84ZM238.11,374.78v4.48h15.28v-4.48c0-.31,0-.51-.31-.71-.2-.2-.41-.31-.71-.31h-13.24c-.31,0-.51,0-.71.31-.2.2-.31.41-.31.71h0ZM266.01,393.11h0v-29.43h22.91c.92,0,1.83.2,2.65.71.81.51,1.43,1.12,1.94,1.94.51.81.71,1.73.71,2.65h0v6.01c0,.31,0,.71-.1,1.02,0,.31-.2.71-.31,1.02h0c.51.71.92,1.53,1.22,2.14.31.71.41,1.32.41,2.04h0v6.62c0,1.02-.2,1.83-.71,2.65s-1.12,1.43-1.94,1.94-1.73.71-2.75.71h-24.14.1ZM271.51,388.63h18.54c.31,0,.51,0,.71-.31.2-.2.31-.41.31-.71h0v-6.31c0-.31,0-.51-.31-.71-.2-.2-.41-.31-.71-.31h-18.54c-.31,0-.51.1-.71.31s-.31.41-.31.71h0v6.31c0,.31.1.51.31.71.2.2.41.31.71.31ZM271.51,375.9h17.31c.31,0,.51-.1.71-.31s.31-.41.31-.71h0v-5.8c0-.31,0-.51-.31-.71-.2-.2-.41-.31-.71-.31h-17.31c-.31,0-.51,0-.71.31-.2.2-.31.41-.31.71h0v5.8c0,.31.1.51.31.71.2.2.41.31.71.31ZM308.78,393.11h0c-1.02,0-1.83-.2-2.65-.71-.81-.51-1.43-1.12-1.94-1.94-.51-.81-.71-1.73-.71-2.65h0v-18.43h4.38v18.23c0,.31.1.51.31.71.2.2.41.31.71.31h13.24c.31,0,.51,0,.71-.31.2-.2.31-.41.31-.71h0v-18.23h4.38v18.43c0,1.02-.2,1.83-.71,2.65s-1.12,1.43-1.94,1.94-1.73.71-2.65.71h-13.54.1ZM339.95,393.11h-4.38v-23.73h4.38v23.73ZM339.95,366.02h-4.38v-4.38h4.38v4.38ZM353.8,393.11h0c-1.02,0-1.83-.2-2.65-.71-.81-.51-1.43-1.12-1.94-1.94-.51-.81-.71-1.73-.71-2.65h0v-26.17h4.38v26.07c0,.31.1.51.31.71.2.2.41.31.71.31h4.28v4.38h-4.38ZM369.79,393.11h0c-1.02,0-1.83-.2-2.65-.71-.81-.51-1.43-1.12-1.94-1.94-.51-.81-.71-1.73-.71-2.65h0v-13.04c0-1.02.2-1.83.71-2.65.51-.81,1.12-1.43,1.94-1.94.81-.51,1.73-.71,2.65-.71h14.36v-7.74h4.38v31.47h-18.84l.1-.1ZM369.99,388.63h13.24c.31,0,.51,0,.71-.31.2-.2.31-.41.31-.71h0v-12.83c0-.31,0-.51-.31-.71-.2-.2-.41-.31-.71-.31h-13.24c-.31,0-.51,0-.71.31-.2.2-.31.41-.31.71h0v12.83c0,.31.1.51.31.71.2.2.41.31.71.31Z"/>
      </g>
    </g>
  </g>
</svg>