<?xml version="1.0" encoding="UTF-8"?>
<svg id="_레이어_1" data-name="레이어 1" xmlns="http://www.w3.org/2000/svg" viewBox="0 0 500 500">
  <defs>
    <style>
      .cls-1 {
        fill: #1000aa;
      }
    </style>
  </defs>
  <path class="cls-1" d="M80.76,452.85c-2.28,0-4.72-.04-7.41-.16-24.43-1.03-43.88-12.23-54.75-31.55-7.86-13.98-8.57-27.62-8.62-29.13v-.69s-.01-275.97-.01-275.97c0-26.46,10.49-42.04,19.29-50.44,18.28-17.46,42.28-17.73,46.99-17.63h202.28v38.51l-203.48-.02c.1,0-11.9-.16-19.37,7.15-4.78,4.68-7.21,12.23-7.21,22.43v275.46c.48,6.71,4.08,22.46,26.49,23.4,5.07.21,8.95.11,13.14-.03,13.43-.46,21.32-6.9,30.3-17.9,3.95-5.31,52.95-71.19,70.4-94.51l.95-1.27c8.34-11.22,25.7-34.56,57.79-34.56s49.18,23.23,56.12,33.15c4.42,6.31,14.95,20.94,21.4,29.64,6.42,8.67,11.33,13.1,17.48,15.8,11.79,5.17,22.79,4.3,33.61-2.65,25.34-16.29,16.11-44.76,14.97-47.95l-39.73-110.66,36.25-13.01,39.69,110.55c7.67,20.45,11.33,66.67-30.36,93.47-21.89,14.07-46.06,15.98-69.9,5.53-15.81-6.93-25.54-18.12-32.97-28.15-6.62-8.94-17.44-23.97-21.99-30.46-6.65-9.49-12.67-16.74-24.59-16.74s-18.87,8.25-26.89,19.03l-1.02,1.37c-18.17,24.28-70.58,94.75-70.58,94.76l-.51.65c-11.83,14.56-29.25,31.41-59.15,32.42-2.68.09-5.51.17-8.65.17Z"/>
  <path class="cls-1" d="M429.74,452.72h-240.09v-38.51h237.69c6.43-1.08,24.18-6.45,24.18-32.05V111.83c0-11.9-3.96-26.08-22.83-26.08h-29.25c-.93,0-1.97-.02-3.12-.04-10.72-.22-26.93-.53-41.29,17.4-2.7,3.59-37.99,50.46-50.14,66.44-7.51,9.87-25.08,32.97-55.24,32.97-27.44,0-43.68-17.14-52.4-26.35-8.87-9.37-15.65-11.11-25.12-11.11-8.47,0-18.89,4.6-23.05,17.43-2.45,11.44-28.4,132.97-31.69,152.99l-38-6.24c3.58-21.8,31.05-150.2,32.21-155.66l.39-1.52c8.19-27.22,32.36-45.51,60.14-45.51,14.51,0,33.63,2.61,52.94,22.99,8.08,8.54,14.49,14.47,24.58,14.47s17.46-8.41,24.59-17.77c12.61-16.58,50.18-66.5,50.18-66.5l.31-.4c26.25-33.03,59.75-32.38,72.34-32.13.87.02,1.66.03,2.37.03h29.25c36.12,0,61.34,26.56,61.34,64.6v270.32c0,50.6-38.76,68.21-59.25,70.45l-1.04.11Z"/>
</svg>