<?xml version="1.0" encoding="UTF-8"?>
<svg id="_레이어_1" data-name="레이어 1" xmlns="http://www.w3.org/2000/svg" xmlns:xlink="http://www.w3.org/1999/xlink" viewBox="0 0 1000 550">
  <defs>
    <style>
      .cls-1 {
        fill: #fff;
      }

      .cls-2 {
        clip-path: url(#clippath);
      }
    </style>
    <clipPath id="clippath">
      <path class="cls-1" d="M92.44,510.55H22.36c-3.67,0-7.01-.9-10.01-2.69-3.01-1.77-5.39-4.15-7.16-7.16-1.79-3.01-2.69-6.34-2.69-10.01h0v-70.25c0-3.67.9-6.99,2.69-9.98,1.77-3.01,4.15-5.4,7.16-7.19,3.01-1.79,6.34-2.69,10.01-2.69h70.08c3.67,0,7.03.9,10.08,2.69,3.05,1.79,5.47,4.19,7.26,7.19,1.77,2.98,2.65,6.31,2.65,9.98h0v6.56h-16.64v-6.1c0-1.02-.35-1.91-1.06-2.69-.71-.75-1.62-1.13-2.75-1.13H22.82c-1.02,0-1.91.38-2.69,1.13-.77.77-1.16,1.67-1.16,2.69h0v69.32c0,1.02.39,1.91,1.16,2.69.77.75,1.67,1.13,2.69,1.13h69.15c1.13,0,2.04-.38,2.75-1.13.71-.77,1.06-1.67,1.06-2.69h0v-23.34h-25.96v-16.67h42.6v40.48c0,3.67-.88,7.01-2.65,10.01-1.79,3.01-4.21,5.39-7.26,7.16-3.05,1.79-6.41,2.69-10.08,2.69h0ZM232.46,510.55h-70.25c-3.67,0-7.01-.92-10.01-2.75-2.98-1.83-5.37-4.22-7.16-7.16-1.79-2.96-2.69-6.28-2.69-9.95h0v-32.69h73.46v-15.71c0-1.02-.35-1.91-1.06-2.69-.73-.75-1.6-1.13-2.62-1.13h-69.78v-16.51h70.25c3.67,0,7.01.9,10.01,2.69,3.01,1.79,5.39,4.21,7.16,7.26,1.79,3.05,2.69,6.35,2.69,9.91h0v68.72ZM162.68,494.04h53.14v-20.59h-56.95v16.77c0,1.02.38,1.91,1.13,2.69.77.75,1.67,1.13,2.69,1.13ZM275.52,510.55h-16.64v-88.58h113.14c3.78,0,7.14.92,10.08,2.75,2.96,1.83,5.33,4.23,7.09,7.19,1.79,2.94,2.69,6.24,2.69,9.91h0v68.72h-16.34v-68.26c0-1.02-.38-1.91-1.13-2.69-.77-.75-1.67-1.13-2.69-1.13h-34.05c-1.13,0-2.04.38-2.75,1.13-.71.77-1.06,1.67-1.06,2.69h0v68.26h-16.64v-68.26c0-1.02-.39-1.91-1.16-2.69-.77-.75-1.67-1.13-2.69-1.13h-34.18c-1.02,0-1.89.38-2.62,1.13-.71.77-1.06,1.67-1.06,2.69h0v68.26ZM439.05,510.55h0c-3.65,0-6.95-.92-9.91-2.75-2.96-1.83-5.36-4.22-7.19-7.16-1.81-2.96-2.72-6.28-2.72-9.95h0v-48.86c0-3.67.91-6.97,2.72-9.91,1.83-2.96,4.23-5.36,7.19-7.19,2.96-1.83,6.27-2.75,9.91-2.75h50.39c3.67,0,7.01.9,10.01,2.69,3.01,1.79,5.4,4.21,7.19,7.26,1.77,3.05,2.65,6.35,2.65,9.91h0v32.69h-73.59v15.71c0,1.02.39,1.91,1.16,2.69.75.75,1.64,1.13,2.65,1.13h69.78v16.51h-70.25ZM435.71,442.3v16.81h56.95v-16.81c0-1.02-.35-1.91-1.06-2.69-.71-.75-1.57-1.13-2.59-1.13h-49.49c-1.02,0-1.9.38-2.65,1.13-.77.77-1.16,1.67-1.16,2.69h0ZM539.86,510.55h0v-109.96h85.49c3.56,0,6.87.9,9.95,2.69,3.05,1.79,5.46,4.19,7.23,7.19,1.79,2.98,2.69,6.31,2.69,9.98h0v22.44c0,1.33-.13,2.65-.4,3.98-.24,1.33-.67,2.55-1.29,3.68h0c2.03,2.85,3.59,5.53,4.67,8.02,1.06,2.48,1.59,4.99,1.59,7.56h0v24.56c0,3.67-.9,7.01-2.69,10.01-1.77,3.01-4.18,5.39-7.23,7.16-3.05,1.79-6.41,2.69-10.08,2.69h-89.94ZM560.15,494.04h69.18c1.13,0,2.04-.38,2.75-1.13.71-.77,1.06-1.67,1.06-2.69h0v-23.67c0-1.02-.35-1.9-1.06-2.65-.71-.77-1.62-1.16-2.75-1.16h-69.18c-1.02,0-1.9.39-2.65,1.16-.77.75-1.16,1.64-1.16,2.65h0v23.67c0,1.02.39,1.91,1.16,2.69.75.75,1.64,1.13,2.65,1.13ZM560.15,446.27h64.74c1.02,0,1.89-.39,2.62-1.16.71-.75,1.06-1.64,1.06-2.65h0v-21.55c0-1.02-.35-1.91-1.06-2.69-.73-.75-1.6-1.13-2.62-1.13h-64.74c-1.02,0-1.9.38-2.65,1.13-.77.77-1.16,1.67-1.16,2.69h0v21.55c0,1.02.39,1.9,1.16,2.65.75.77,1.64,1.16,2.65,1.16ZM699.58,510.55h0c-3.67,0-7.01-.92-10.01-2.75-3.01-1.83-5.39-4.22-7.16-7.16-1.79-2.96-2.69-6.28-2.69-9.95h0v-68.72h16.48v68.26c0,1.02.39,1.91,1.16,2.69.77.75,1.67,1.13,2.69,1.13h49.46c1.02,0,1.91-.38,2.69-1.13.75-.77,1.13-1.67,1.13-2.69h0v-68.26h16.51v68.72c0,3.67-.9,6.98-2.69,9.95-1.79,2.94-4.18,5.33-7.16,7.16-3.01,1.83-6.34,2.75-10.01,2.75h-50.39ZM815.94,510.55h-16.51v-88.58h16.51v88.58ZM815.94,409.48h-16.51v-16.51h16.51v16.51ZM867.68,510.55h0c-3.67,0-6.97-.92-9.91-2.75-2.96-1.83-5.36-4.22-7.19-7.16-1.83-2.96-2.75-6.28-2.75-9.95h0v-97.73h16.51v97.26c0,1.02.39,1.91,1.16,2.69.75.75,1.64,1.13,2.65,1.13h16.04v16.51h-16.51ZM927.25,510.55h0c-3.67,0-7.01-.9-10.01-2.69-3.01-1.77-5.39-4.18-7.16-7.23-1.79-3.07-2.69-6.39-2.69-9.95h0v-48.86c0-3.67.9-6.97,2.69-9.91,1.77-2.96,4.15-5.36,7.16-7.19,3.01-1.83,6.34-2.75,10.01-2.75h53.74v-29.01h16.51v117.58h-70.25ZM927.85,494.04h49.49c1.02,0,1.88-.38,2.59-1.13.71-.77,1.06-1.67,1.06-2.69h0v-47.94c0-1.02-.35-1.91-1.06-2.69-.71-.75-1.57-1.13-2.59-1.13h-49.49c-1.02,0-1.9.38-2.65,1.13-.77.77-1.16,1.67-1.16,2.69h0v47.94c0,1.02.39,1.91,1.16,2.69.75.75,1.64,1.13,2.65,1.13Z"/>
    </clipPath>
  </defs>
  <g>
    <path class="cls-1" d="M92.44,510.55H22.36c-3.67,0-7.01-.9-10.01-2.69-3.01-1.77-5.39-4.15-7.16-7.16-1.79-3.01-2.69-6.34-2.69-10.01h0v-70.25c0-3.67.9-6.99,2.69-9.98,1.77-3.01,4.15-5.4,7.16-7.19,3.01-1.79,6.34-2.69,10.01-2.69h70.08c3.67,0,7.03.9,10.08,2.69,3.05,1.79,5.47,4.19,7.26,7.19,1.77,2.98,2.65,6.31,2.65,9.98h0v6.56h-16.64v-6.1c0-1.02-.35-1.91-1.06-2.69-.71-.75-1.62-1.13-2.75-1.13H22.82c-1.02,0-1.91.38-2.69,1.13-.77.77-1.16,1.67-1.16,2.69h0v69.32c0,1.02.39,1.91,1.16,2.69.77.75,1.67,1.13,2.69,1.13h69.15c1.13,0,2.04-.38,2.75-1.13.71-.77,1.06-1.67,1.06-2.69h0v-23.34h-25.96v-16.67h42.6v40.48c0,3.67-.88,7.01-2.65,10.01-1.79,3.01-4.21,5.39-7.26,7.16-3.05,1.79-6.41,2.69-10.08,2.69h0ZM232.46,510.55h-70.25c-3.67,0-7.01-.92-10.01-2.75-2.98-1.83-5.37-4.22-7.16-7.16-1.79-2.96-2.69-6.28-2.69-9.95h0v-32.69h73.46v-15.71c0-1.02-.35-1.91-1.06-2.69-.73-.75-1.6-1.13-2.62-1.13h-69.78v-16.51h70.25c3.67,0,7.01.9,10.01,2.69,3.01,1.79,5.39,4.21,7.16,7.26,1.79,3.05,2.69,6.35,2.69,9.91h0v68.72ZM162.68,494.04h53.14v-20.59h-56.95v16.77c0,1.02.38,1.91,1.13,2.69.77.75,1.67,1.13,2.69,1.13ZM275.52,510.55h-16.64v-88.58h113.14c3.78,0,7.14.92,10.08,2.75,2.96,1.83,5.33,4.23,7.09,7.19,1.79,2.94,2.69,6.24,2.69,9.91h0v68.72h-16.34v-68.26c0-1.02-.38-1.91-1.13-2.69-.77-.75-1.67-1.13-2.69-1.13h-34.05c-1.13,0-2.04.38-2.75,1.13-.71.77-1.06,1.67-1.06,2.69h0v68.26h-16.64v-68.26c0-1.02-.39-1.91-1.16-2.69-.77-.75-1.67-1.13-2.69-1.13h-34.18c-1.02,0-1.89.38-2.62,1.13-.71.77-1.06,1.67-1.06,2.69h0v68.26ZM439.05,510.55h0c-3.65,0-6.95-.92-9.91-2.75-2.96-1.83-5.36-4.22-7.19-7.16-1.81-2.96-2.72-6.28-2.72-9.95h0v-48.86c0-3.67.91-6.97,2.72-9.91,1.83-2.96,4.23-5.36,7.19-7.19,2.96-1.83,6.27-2.75,9.91-2.75h50.39c3.67,0,7.01.9,10.01,2.69,3.01,1.79,5.4,4.21,7.19,7.26,1.77,3.05,2.65,6.35,2.65,9.91h0v32.69h-73.59v15.71c0,1.02.39,1.91,1.16,2.69.75.75,1.64,1.13,2.65,1.13h69.78v16.51h-70.25ZM435.71,442.3v16.81h56.95v-16.81c0-1.02-.35-1.91-1.06-2.69-.71-.75-1.57-1.13-2.59-1.13h-49.49c-1.02,0-1.9.38-2.65,1.13-.77.77-1.16,1.67-1.16,2.69h0ZM539.86,510.55h0v-109.96h85.49c3.56,0,6.87.9,9.95,2.69,3.05,1.79,5.46,4.19,7.23,7.19,1.79,2.98,2.69,6.31,2.69,9.98h0v22.44c0,1.33-.13,2.65-.4,3.98-.24,1.33-.67,2.55-1.29,3.68h0c2.03,2.85,3.59,5.53,4.67,8.02,1.06,2.48,1.59,4.99,1.59,7.56h0v24.56c0,3.67-.9,7.01-2.69,10.01-1.77,3.01-4.18,5.39-7.23,7.16-3.05,1.79-6.41,2.69-10.08,2.69h-89.94ZM560.15,494.04h69.18c1.13,0,2.04-.38,2.75-1.13.71-.77,1.06-1.67,1.06-2.69h0v-23.67c0-1.02-.35-1.9-1.06-2.65-.71-.77-1.62-1.16-2.75-1.16h-69.18c-1.02,0-1.9.39-2.65,1.16-.77.75-1.16,1.64-1.16,2.65h0v23.67c0,1.02.39,1.91,1.16,2.69.75.75,1.64,1.13,2.65,1.13ZM560.15,446.27h64.74c1.02,0,1.89-.39,2.62-1.16.71-.75,1.06-1.64,1.06-2.65h0v-21.55c0-1.02-.35-1.91-1.06-2.69-.73-.75-1.6-1.13-2.62-1.13h-64.74c-1.02,0-1.9.38-2.65,1.13-.77.77-1.16,1.67-1.16,2.69h0v21.55c0,1.02.39,1.9,1.16,2.65.75.77,1.64,1.16,2.65,1.16ZM699.58,510.55h0c-3.67,0-7.01-.92-10.01-2.75-3.01-1.83-5.39-4.22-7.16-7.16-1.79-2.96-2.69-6.28-2.69-9.95h0v-68.72h16.48v68.26c0,1.02.39,1.91,1.16,2.69.77.75,1.67,1.13,2.69,1.13h49.46c1.02,0,1.91-.38,2.69-1.13.75-.77,1.13-1.67,1.13-2.69h0v-68.26h16.51v68.72c0,3.67-.9,6.98-2.69,9.95-1.79,2.94-4.18,5.33-7.16,7.16-3.01,1.83-6.34,2.75-10.01,2.75h-50.39ZM815.94,510.55h-16.51v-88.58h16.51v88.58ZM815.94,409.48h-16.51v-16.51h16.51v16.51ZM867.68,510.55h0c-3.67,0-6.97-.92-9.91-2.75-2.96-1.83-5.36-4.22-7.19-7.16-1.83-2.96-2.75-6.28-2.75-9.95h0v-97.73h16.51v97.26c0,1.02.39,1.91,1.16,2.69.75.75,1.64,1.13,2.65,1.13h16.04v16.51h-16.51ZM927.25,510.55h0c-3.67,0-7.01-.9-10.01-2.69-3.01-1.77-5.39-4.18-7.16-7.23-1.79-3.07-2.69-6.39-2.69-9.95h0v-48.86c0-3.67.9-6.97,2.69-9.91,1.77-2.96,4.15-5.36,7.16-7.19,3.01-1.83,6.34-2.75,10.01-2.75h53.74v-29.01h16.51v117.58h-70.25ZM927.85,494.04h49.49c1.02,0,1.88-.38,2.59-1.13.71-.77,1.06-1.67,1.06-2.69h0v-47.94c0-1.02-.35-1.91-1.06-2.69-.71-.75-1.57-1.13-2.59-1.13h-49.49c-1.02,0-1.9.38-2.65,1.13-.77.77-1.16,1.67-1.16,2.69h0v47.94c0,1.02.39,1.91,1.16,2.69.75.75,1.64,1.13,2.65,1.13Z"/>
    <g class="cls-2">
      <rect class="cls-1" x="924.04" y="438.48" width="4.04" height="55.56"/>
      <rect class="cls-1" x="928.08" y="438.48" width="5.78" height="55.56"/>
      <rect class="cls-1" x="933.87" y="438.48" width="5.78" height="55.56"/>
      <rect class="cls-1" x="939.65" y="438.48" width="5.78" height="55.56"/>
      <rect class="cls-1" x="945.44" y="438.48" width="5.78" height="55.56"/>
      <rect class="cls-1" x="951.22" y="438.48" width="5.78" height="55.56"/>
      <rect class="cls-1" x="957.01" y="438.48" width="5.78" height="55.56"/>
      <rect class="cls-1" x="962.79" y="438.48" width="5.78" height="55.56"/>
      <rect class="cls-1" x="968.58" y="438.48" width="5.78" height="55.56"/>
      <rect class="cls-1" x="974.36" y="438.48" width="5.78" height="55.56"/>
      <rect class="cls-1" x="980.15" y="438.48" width=".85" height="55.56"/>
      <rect class="cls-1" x="907.4" y="392.97" width="3.33" height="117.58"/>
      <rect class="cls-1" x="910.73" y="392.97" width="5.78" height="117.58"/>
      <rect class="cls-1" x="916.51" y="392.97" width="5.78" height="117.58"/>
      <rect class="cls-1" x="922.3" y="392.97" width="5.78" height="117.58"/>
      <rect class="cls-1" x="928.08" y="392.97" width="5.78" height="117.58"/>
      <rect class="cls-1" x="933.87" y="392.97" width="5.78" height="117.58"/>
      <rect class="cls-1" x="939.65" y="392.97" width="5.78" height="117.58"/>
      <rect class="cls-1" x="945.44" y="392.97" width="5.78" height="117.58"/>
      <rect class="cls-1" x="951.22" y="392.97" width="5.78" height="117.58"/>
      <rect class="cls-1" x="957.01" y="392.97" width="5.78" height="117.58"/>
      <rect class="cls-1" x="962.79" y="392.97" width="5.78" height="117.58"/>
      <rect class="cls-1" x="968.58" y="392.97" width="5.78" height="117.58"/>
      <rect class="cls-1" x="974.36" y="392.97" width="5.78" height="117.58"/>
      <rect class="cls-1" x="980.15" y="392.97" width="5.78" height="117.58"/>
      <rect class="cls-1" x="985.93" y="392.97" width="5.78" height="117.58"/>
      <rect class="cls-1" x="991.72" y="392.97" width="5.78" height="117.58"/>
      <rect class="cls-1" x="847.83" y="392.97" width="5.05" height="117.58"/>
      <rect class="cls-1" x="852.88" y="392.97" width="5.78" height="117.58"/>
      <rect class="cls-1" x="858.66" y="392.97" width="5.78" height="117.58"/>
      <rect class="cls-1" x="864.45" y="392.97" width="5.78" height="117.58"/>
      <rect class="cls-1" x="870.23" y="392.97" width="5.78" height="117.58"/>
      <rect class="cls-1" x="876.02" y="392.97" width="5.78" height="117.58"/>
      <rect class="cls-1" x="881.8" y="392.97" width="2.39" height="117.58"/>
      <rect class="cls-1" x="799.43" y="392.97" width="1.39" height="16.51"/>
      <rect class="cls-1" x="800.81" y="392.97" width="5.78" height="16.51"/>
      <rect class="cls-1" x="806.6" y="392.97" width="5.78" height="16.51"/>
      <rect class="cls-1" x="812.38" y="392.97" width="3.55" height="16.51"/>
      <rect class="cls-1" x="799.43" y="421.97" width="1.39" height="88.58"/>
      <rect class="cls-1" x="800.81" y="421.97" width="5.78" height="88.58"/>
      <rect class="cls-1" x="806.6" y="421.97" width="5.78" height="88.58"/>
      <rect class="cls-1" x="812.38" y="421.97" width="3.55" height="88.58"/>
      <rect class="cls-1" x="679.72" y="421.97" width="5.39" height="88.58"/>
      <rect class="cls-1" x="685.12" y="421.97" width="5.78" height="88.58"/>
      <rect class="cls-1" x="690.9" y="421.97" width="5.78" height="88.58"/>
      <rect class="cls-1" x="696.69" y="421.97" width="5.78" height="88.58"/>
      <rect class="cls-1" x="702.47" y="421.97" width="5.78" height="88.58"/>
      <rect class="cls-1" x="708.26" y="421.97" width="5.78" height="88.58"/>
      <rect class="cls-1" x="714.04" y="421.97" width="5.78" height="88.58"/>
      <rect class="cls-1" x="719.83" y="421.97" width="5.78" height="88.58"/>
      <rect class="cls-1" x="725.61" y="421.97" width="5.78" height="88.58"/>
      <rect class="cls-1" x="731.4" y="421.97" width="5.78" height="88.58"/>
      <rect class="cls-1" x="737.18" y="421.97" width="5.78" height="88.58"/>
      <rect class="cls-1" x="742.97" y="421.97" width="5.78" height="88.58"/>
      <rect class="cls-1" x="748.75" y="421.97" width="5.78" height="88.58"/>
      <rect class="cls-1" x="754.53" y="421.97" width="5.78" height="88.58"/>
      <rect class="cls-1" x="760.32" y="421.97" width="5.78" height="88.58"/>
      <rect class="cls-1" x="766.1" y="421.97" width="3.72" height="88.58"/>
      <rect class="cls-1" x="556.34" y="417.1" width="1.51" height="29.17"/>
      <rect class="cls-1" x="557.85" y="417.1" width="5.78" height="29.17"/>
      <rect class="cls-1" x="563.63" y="417.1" width="5.78" height="29.17"/>
      <rect class="cls-1" x="569.42" y="417.1" width="5.78" height="29.17"/>
      <rect class="cls-1" x="575.2" y="417.1" width="5.78" height="29.17"/>
      <rect class="cls-1" x="580.99" y="417.1" width="5.78" height="29.17"/>
      <rect class="cls-1" x="586.77" y="417.1" width="5.78" height="29.17"/>
      <rect class="cls-1" x="592.56" y="417.1" width="5.78" height="29.17"/>
      <rect class="cls-1" x="598.34" y="417.1" width="5.78" height="29.17"/>
      <rect class="cls-1" x="604.13" y="417.1" width="5.78" height="29.17"/>
      <rect class="cls-1" x="609.91" y="417.1" width="5.78" height="29.17"/>
      <rect class="cls-1" x="615.7" y="417.1" width="5.78" height="29.17"/>
      <rect class="cls-1" x="621.48" y="417.1" width="5.78" height="29.17"/>
      <rect class="cls-1" x="627.27" y="417.1" width="1.31" height="29.17"/>
      <rect class="cls-1" x="556.34" y="462.75" width="1.51" height="31.29"/>
      <rect class="cls-1" x="557.85" y="462.75" width="5.78" height="31.29"/>
      <rect class="cls-1" x="563.63" y="462.75" width="5.78" height="31.29"/>
      <rect class="cls-1" x="569.42" y="462.75" width="5.78" height="31.29"/>
      <rect class="cls-1" x="575.2" y="462.75" width="5.78" height="31.29"/>
      <rect class="cls-1" x="580.99" y="462.75" width="5.78" height="31.29"/>
      <rect class="cls-1" x="586.77" y="462.75" width="5.78" height="31.29"/>
      <rect class="cls-1" x="592.56" y="462.75" width="5.78" height="31.29"/>
      <rect class="cls-1" x="598.34" y="462.75" width="5.78" height="31.29"/>
      <rect class="cls-1" x="604.13" y="462.75" width="5.78" height="31.29"/>
      <rect class="cls-1" x="609.91" y="462.75" width="5.78" height="31.29"/>
      <rect class="cls-1" x="615.7" y="462.75" width="5.78" height="31.29"/>
      <rect class="cls-1" x="621.48" y="462.75" width="5.78" height="31.29"/>
      <rect class="cls-1" x="627.27" y="462.75" width="5.78" height="31.29"/>
      <rect class="cls-1" x="633.05" y="462.75" width=".1" height="31.29"/>
      <rect class="cls-1" x="539.86" y="400.59" width=".63" height="109.96"/>
      <rect class="cls-1" x="540.49" y="400.59" width="5.78" height="109.96"/>
      <rect class="cls-1" x="546.28" y="400.59" width="5.78" height="109.96"/>
      <rect class="cls-1" x="552.06" y="400.59" width="5.78" height="109.96"/>
      <rect class="cls-1" x="557.85" y="400.59" width="5.78" height="109.96"/>
      <rect class="cls-1" x="563.63" y="400.59" width="5.78" height="109.96"/>
      <rect class="cls-1" x="569.42" y="400.59" width="5.78" height="109.96"/>
      <rect class="cls-1" x="575.2" y="400.59" width="5.78" height="109.96"/>
      <rect class="cls-1" x="580.99" y="400.59" width="5.78" height="109.96"/>
      <rect class="cls-1" x="586.77" y="400.59" width="5.78" height="109.96"/>
      <rect class="cls-1" x="592.56" y="400.59" width="5.78" height="109.96"/>
      <rect class="cls-1" x="598.34" y="400.59" width="5.78" height="109.96"/>
      <rect class="cls-1" x="604.13" y="400.59" width="5.78" height="109.96"/>
      <rect class="cls-1" x="609.91" y="400.59" width="5.78" height="109.96"/>
      <rect class="cls-1" x="615.7" y="400.59" width="5.78" height="109.96"/>
      <rect class="cls-1" x="621.48" y="400.59" width="5.78" height="109.96"/>
      <rect class="cls-1" x="627.27" y="400.59" width="5.78" height="109.96"/>
      <rect class="cls-1" x="633.05" y="400.59" width="5.78" height="109.96"/>
      <rect class="cls-1" x="638.84" y="400.59" width="5.78" height="109.96"/>
      <rect class="cls-1" x="644.62" y="400.59" width="5.17" height="109.96"/>
      <rect class="cls-1" x="435.71" y="438.48" width=".66" height="20.62"/>
      <rect class="cls-1" x="436.37" y="438.48" width="5.78" height="20.62"/>
      <rect class="cls-1" x="442.15" y="438.48" width="5.78" height="20.62"/>
      <rect class="cls-1" x="447.94" y="438.48" width="5.78" height="20.62"/>
      <rect class="cls-1" x="453.72" y="438.48" width="5.78" height="20.62"/>
      <rect class="cls-1" x="459.51" y="438.48" width="5.78" height="20.62"/>
      <rect class="cls-1" x="465.29" y="438.48" width="5.78" height="20.62"/>
      <rect class="cls-1" x="471.08" y="438.48" width="5.78" height="20.62"/>
      <rect class="cls-1" x="476.86" y="438.48" width="5.78" height="20.62"/>
      <rect class="cls-1" x="482.65" y="438.48" width="5.78" height="20.62"/>
      <rect class="cls-1" x="488.43" y="438.48" width="4.23" height="20.62"/>
      <rect class="cls-1" x="419.23" y="421.97" width="5.57" height="88.58"/>
      <rect class="cls-1" x="424.8" y="421.97" width="5.78" height="88.58"/>
      <rect class="cls-1" x="430.58" y="421.97" width="5.78" height="88.58"/>
      <rect class="cls-1" x="436.37" y="421.97" width="5.78" height="88.58"/>
      <rect class="cls-1" x="442.15" y="421.97" width="5.78" height="88.58"/>
      <rect class="cls-1" x="447.94" y="421.97" width="5.78" height="88.58"/>
      <rect class="cls-1" x="453.72" y="421.97" width="5.78" height="88.58"/>
      <rect class="cls-1" x="459.51" y="421.97" width="5.78" height="88.58"/>
      <rect class="cls-1" x="465.29" y="421.97" width="5.78" height="88.58"/>
      <rect class="cls-1" x="471.08" y="421.97" width="5.78" height="88.58"/>
      <rect class="cls-1" x="476.86" y="421.97" width="5.78" height="88.58"/>
      <rect class="cls-1" x="482.65" y="421.97" width="5.78" height="88.58"/>
      <rect class="cls-1" x="488.43" y="421.97" width="5.78" height="88.58"/>
      <rect class="cls-1" x="494.22" y="421.97" width="5.78" height="88.58"/>
      <rect class="cls-1" x="500" y="421.97" width="5.78" height="88.58"/>
      <rect class="cls-1" x="505.78" y="421.97" width="3.51" height="88.58"/>
      <rect class="cls-1" x="258.88" y="421.97" width="3.94" height="88.58"/>
      <rect class="cls-1" x="262.82" y="421.97" width="5.78" height="88.58"/>
      <rect class="cls-1" x="268.6" y="421.97" width="5.78" height="88.58"/>
      <rect class="cls-1" x="274.39" y="421.97" width="5.78" height="88.58"/>
      <rect class="cls-1" x="280.17" y="421.97" width="5.78" height="88.58"/>
      <rect class="cls-1" x="285.96" y="421.97" width="5.78" height="88.58"/>
      <rect class="cls-1" x="291.74" y="421.97" width="5.78" height="88.58"/>
      <rect class="cls-1" x="297.53" y="421.97" width="5.78" height="88.58"/>
      <rect class="cls-1" x="303.31" y="421.97" width="5.78" height="88.58"/>
      <rect class="cls-1" x="309.1" y="421.97" width="5.78" height="88.58"/>
      <rect class="cls-1" x="314.88" y="421.97" width="5.78" height="88.58"/>
      <rect class="cls-1" x="320.67" y="421.97" width="5.78" height="88.58"/>
      <rect class="cls-1" x="326.45" y="421.97" width="5.78" height="88.58"/>
      <rect class="cls-1" x="332.24" y="421.97" width="5.78" height="88.58"/>
      <rect class="cls-1" x="338.02" y="421.97" width="5.78" height="88.58"/>
      <rect class="cls-1" x="343.81" y="421.97" width="5.78" height="88.58"/>
      <rect class="cls-1" x="349.59" y="421.97" width="5.78" height="88.58"/>
      <rect class="cls-1" x="355.38" y="421.97" width="5.78" height="88.58"/>
      <rect class="cls-1" x="361.16" y="421.97" width="5.78" height="88.58"/>
      <rect class="cls-1" x="366.95" y="421.97" width="5.78" height="88.58"/>
      <rect class="cls-1" x="372.73" y="421.97" width="5.78" height="88.58"/>
      <rect class="cls-1" x="378.52" y="421.97" width="5.78" height="88.58"/>
      <rect class="cls-1" x="384.3" y="421.97" width="5.78" height="88.58"/>
      <rect class="cls-1" x="390.09" y="421.97" width="1.79" height="88.58"/>
      <rect class="cls-1" x="158.87" y="473.46" width="5.61" height="20.59"/>
      <rect class="cls-1" x="164.48" y="473.46" width="5.78" height="20.59"/>
      <rect class="cls-1" x="170.26" y="473.46" width="5.78" height="20.59"/>
      <rect class="cls-1" x="176.05" y="473.46" width="5.78" height="20.59"/>
      <rect class="cls-1" x="181.83" y="473.46" width="5.78" height="20.59"/>
      <rect class="cls-1" x="187.62" y="473.46" width="5.78" height="20.59"/>
      <rect class="cls-1" x="193.4" y="473.46" width="5.78" height="20.59"/>
      <rect class="cls-1" x="199.19" y="473.46" width="5.78" height="20.59"/>
      <rect class="cls-1" x="204.97" y="473.46" width="5.78" height="20.59"/>
      <rect class="cls-1" x="210.76" y="473.46" width="5.07" height="20.59"/>
      <rect class="cls-1" x="142.36" y="421.97" width="4.76" height="88.58"/>
      <rect class="cls-1" x="147.12" y="421.97" width="5.78" height="88.58"/>
      <rect class="cls-1" x="152.91" y="421.97" width="5.78" height="88.58"/>
      <rect class="cls-1" x="158.69" y="421.97" width="5.78" height="88.58"/>
      <rect class="cls-1" x="164.48" y="421.97" width="5.78" height="88.58"/>
      <rect class="cls-1" x="170.26" y="421.97" width="5.78" height="88.58"/>
      <rect class="cls-1" x="176.05" y="421.97" width="5.78" height="88.58"/>
      <rect class="cls-1" x="181.83" y="421.97" width="5.78" height="88.58"/>
      <rect class="cls-1" x="187.62" y="421.97" width="5.78" height="88.58"/>
      <rect class="cls-1" x="193.4" y="421.97" width="5.78" height="88.58"/>
      <rect class="cls-1" x="199.19" y="421.97" width="5.78" height="88.58"/>
      <rect class="cls-1" x="204.97" y="421.97" width="5.78" height="88.58"/>
      <rect class="cls-1" x="210.76" y="421.97" width="5.78" height="88.58"/>
      <rect class="cls-1" x="216.54" y="421.97" width="5.78" height="88.58"/>
      <rect class="cls-1" x="222.33" y="421.97" width="5.78" height="88.58"/>
      <rect class="cls-1" x="228.11" y="421.97" width="4.35" height="88.58"/>
      <rect class="cls-1" x="2.5" y="400.59" width="5.78" height="109.96"/>
      <rect class="cls-1" x="8.28" y="400.59" width="5.78" height="109.96"/>
      <rect class="cls-1" x="14.07" y="400.59" width="5.78" height="109.96"/>
      <rect class="cls-1" x="19.85" y="400.59" width="5.78" height="109.96"/>
      <rect class="cls-1" x="25.64" y="400.59" width="5.78" height="109.96"/>
      <rect class="cls-1" x="31.42" y="400.59" width="5.78" height="109.96"/>
      <rect class="cls-1" x="37.21" y="400.59" width="5.78" height="109.96"/>
      <rect class="cls-1" x="42.99" y="400.59" width="5.78" height="109.96"/>
      <rect class="cls-1" x="48.78" y="400.59" width="5.78" height="109.96"/>
      <rect class="cls-1" x="54.56" y="400.59" width="5.78" height="109.96"/>
      <rect class="cls-1" x="60.35" y="400.59" width="5.78" height="109.96"/>
      <rect class="cls-1" x="66.13" y="400.59" width="5.78" height="109.96"/>
      <rect class="cls-1" x="71.92" y="400.59" width="5.78" height="109.96"/>
      <rect class="cls-1" x="77.7" y="400.59" width="5.78" height="109.96"/>
      <rect class="cls-1" x="83.49" y="400.59" width="5.78" height="109.96"/>
      <rect class="cls-1" x="89.27" y="400.59" width="5.78" height="109.96"/>
      <rect class="cls-1" x="95.06" y="400.59" width="5.78" height="109.96"/>
      <rect class="cls-1" x="100.84" y="400.59" width="5.78" height="109.96"/>
      <rect class="cls-1" x="106.63" y="400.59" width="5.78" height="109.96"/>
      <rect class="cls-1" x="112.41" y="400.59" width=".01" height="109.96"/>
    </g>
  </g>
  <g>
    <path class="cls-1" d="M377.94,332.08c-1.65,0-3.41-.03-5.36-.11-17.63-.74-31.65-8.82-39.49-22.76-5.67-10.08-6.18-19.92-6.22-21.01,0-.17,0-.33,0-.5V88.65c0-19.09,7.57-30.32,13.91-36.38,13.19-12.6,30.51-12.81,33.9-12.71h145.9c7.67,0,13.89,6.22,13.89,13.89s-6.22,13.89-13.89,13.89h-146.13c-.21,0-.42,0-.63-.01.07,0-8.58-.12-13.97,5.15-3.45,3.38-5.2,8.82-5.2,16.18v198.68c.35,4.84,2.94,16.2,19.1,16.88,3.66.15,6.46.08,9.48-.02,9.69-.33,15.38-4.98,21.86-12.91,2.85-3.84,38.19-51.35,50.78-68.17l.68-.92c6.02-8.09,18.53-24.92,41.68-24.92s35.46,16.75,40.48,23.91c3.22,4.59,10.82,15.15,15.44,21.39,4.63,6.26,8.17,9.45,12.61,11.4,8.51,3.73,16.43,3.1,24.24-1.92,18.28-11.75,11.62-32.29,10.8-34.59-.04-.11-.12-.33-.15-.44-.11-.32-10.62-32.35-14.07-41.93-.58-1.63-1.16-3.26-1.73-4.9-4.22-12.07-7.85-22.5-16.36-28.94-6.11-4.63-7.32-13.34-2.68-19.46,4.63-6.11,13.34-7.32,19.46-2.68,15.2,11.51,20.84,27.67,25.81,41.93.55,1.56,1.09,3.12,1.65,4.67,3.45,9.6,13.17,39.16,14.23,42.41,5.52,15.07,7.93,48.1-21.94,67.3-15.79,10.15-33.22,11.53-50.42,3.99-11.41-5-18.42-13.07-23.78-20.31-4.82-6.51-12.48-17.16-15.86-21.97-4.8-6.85-9.14-12.08-17.73-12.08s-13.61,5.95-19.39,13.72l-.74.99c-13.1,17.51-50.91,68.35-50.91,68.35-.12.16-.24.32-.36.47-8.53,10.5-21.1,22.65-42.66,23.38-1.93.07-3.96.12-6.23.12Z"/>
    <path class="cls-1" d="M628.89,331.98h-172.42c-7.67,0-13.89-6.22-13.89-13.89s6.22-13.89,13.89-13.89h171.44c4.64-.78,17.44-4.65,17.44-23.12V86.11c0-8.58-2.86-18.82-16.47-18.82h-21.09c-.67,0-1.42-.01-2.25-.03-7.71-.15-19.42-.38-29.78,12.55-1.95,2.59-27.4,36.4-36.16,47.93-5.41,7.12-18.09,23.78-39.85,23.78-19.79,0-31.51-12.37-37.8-19.01-6.4-6.75-11.29-8.01-18.11-8.01-6.18,0-13.79,3.39-16.72,12.87-.99,3.69-13.88,51.76-21.92,83.27-2.09,8.2.12,19.11,2.06,21.67,4.64,6.11,3.46,14.82-2.64,19.46-6.11,4.64-14.82,3.46-19.46-2.65-8.65-11.37-10.28-31.99-6.87-45.36,8.36-32.78,21.93-83.32,22.07-83.83.04-.13.07-.27.11-.4,5.91-19.63,23.34-32.83,43.38-32.83,10.46,0,24.26,1.88,38.18,16.58,5.83,6.16,10.45,10.44,17.73,10.44s12.6-6.06,17.74-12.82c9.1-11.96,36.19-47.97,36.2-47.97.07-.1.15-.19.23-.29,18.94-23.83,43.1-23.36,52.18-23.17.63.01,22.8.02,22.8.02,26.05,0,44.25,19.16,44.25,46.59v194.98c0,36.5-27.96,49.2-42.74,50.81-.5.05-1,.08-1.51.08Z"/>
  </g>
</svg>