<?xml version="1.0" encoding="UTF-8"?>
<svg id="_레이어_1" data-name="레이어 1" xmlns="http://www.w3.org/2000/svg" xmlns:xlink="http://www.w3.org/1999/xlink" viewBox="0 0 1000 145">
  <defs>
    <style>
      .cls-1 {
        fill: #1000aa;
      }

      .cls-2 {
        clip-path: url(#clippath-1);
      }

      .cls-3 {
        clip-path: url(#clippath);
      }
    </style>
    <clipPath id="clippath">
      <path class="cls-1" d="M233.92,141.34h0c-1.76,0-3.37-.28-4.83-.85-1.45-.57-2.72-1.37-3.82-2.4-1.09-1.03-1.93-2.26-2.53-3.67-.59-1.41-.88-2.95-.88-4.63h0c0-1.65.29-3.19.88-4.6.6-1.41,1.46-2.64,2.56-3.67,1.1-1.03,2.39-1.83,3.85-2.4,1.48-.57,3.1-.85,4.86-.85h0c1.9,0,3.61.31,5.14.93,1.52.62,2.8,1.52,3.85,2.71h0l-2.64,2.58c-.86-.88-1.8-1.52-2.82-1.94-1.02-.43-2.14-.65-3.36-.65h0c-1.17,0-2.26.2-3.26.59-1.02.38-1.89.92-2.61,1.63-.72.71-1.28,1.54-1.68,2.51-.4.95-.59,2-.59,3.15h0c0,1.14.2,2.19.59,3.15s.96,1.8,1.68,2.51c.72.72,1.58,1.27,2.56,1.65.98.4,2.08.59,3.28.59h0c1.1,0,2.17-.18,3.2-.54,1.05-.34,2.04-.94,2.97-1.78h0l2.38,3.13c-1.17.93-2.53,1.64-4.08,2.12-1.55.48-3.12.72-4.7.72ZM242.7,138.5l-3.95-.57v-8.37h3.95v8.94ZM255.39,141.03h-4.29l10.1-22.46h4.08l10.13,22.46h-4.34l-8.71-20.23h1.68l-8.66,20.23ZM270.09,135.84h-14.34l1.11-3.28h12.12l1.11,3.28ZM288.34,141.03h-3.98v-22.46h3.44l9.79,16.38h-1.78l9.64-16.38h3.44l.03,22.46h-3.93l-.05-16.25h.85l-8.22,13.67h-1.86l-8.32-13.67h.96v16.25ZM324.91,131.34v-3.44h11.16v3.44h-11.16ZM325.22,122.09v15.43h12.66v3.51h-16.82v-22.46h16.38v3.51h-12.22ZM367.73,141.03h-4.16v-22.46h4.16v22.46ZM384.01,141.03h-4.13v-22.46h3.44l14.06,17.29h-1.71v-17.29h4.13v22.46h-3.41l-14.08-17.29h1.71v17.29ZM415.74,132.43v-3.51h11.19v3.51h-11.19ZM416.08,122.09v18.94h-4.16v-22.46h16.38v3.51h-12.22ZM442.59,141.03h-4.16v-22.46h9.23c1.98,0,3.69.33,5.12.98,1.41.64,2.51,1.55,3.28,2.74.78,1.21,1.16,2.63,1.16,4.26h0c0,1.65-.39,3.08-1.16,4.26-.78,1.17-1.87,2.08-3.28,2.71-1.43.64-3.14.96-5.12.96h-6.93l1.86-1.91v8.45ZM457.58,141.03h-4.47l-5.69-8.14h4.47l5.69,8.14ZM442.59,120.05v13l-1.86-1.99h6.74c1.83,0,3.2-.4,4.13-1.19.93-.79,1.4-1.9,1.4-3.31h0c0-1.43-.47-2.53-1.4-3.31-.93-.76-2.31-1.14-4.13-1.14h-6.74l1.86-2.07ZM469.05,141.03h-4.29l10.1-22.46h4.11l10.13,22.46h-4.37l-8.68-20.23h1.65l-8.66,20.23ZM483.78,135.84h-14.37l1.11-3.28h12.12l1.14,3.28ZM505,141.34h0c-1.76,0-3.44-.25-5.04-.75-1.6-.5-2.88-1.15-3.82-1.94h0l1.45-3.26c.9.71,2.01,1.3,3.33,1.78,1.33.47,2.69.7,4.08.7h0c1.17,0,2.12-.13,2.84-.39.72-.26,1.26-.6,1.6-1.03.34-.45.52-.95.52-1.5h0c0-.69-.25-1.24-.75-1.65-.48-.41-1.11-.74-1.89-.98-.79-.24-1.66-.47-2.61-.7-.95-.21-1.9-.46-2.84-.75-.95-.29-1.82-.66-2.61-1.11-.78-.47-1.4-1.09-1.89-1.86-.5-.76-.75-1.74-.75-2.95h0c0-1.22.33-2.33.98-3.33.65-1.02,1.65-1.83,2.97-2.46,1.34-.6,3.04-.9,5.09-.9h0c1.34,0,2.68.17,4.01.52,1.33.34,2.48.84,3.46,1.47h0l-1.32,3.23c-1-.6-2.03-1.04-3.1-1.32-1.07-.29-2.09-.44-3.08-.44h0c-1.15,0-2.09.14-2.82.41-.72.28-1.25.64-1.58,1.09-.33.45-.49.96-.49,1.55h0c0,.67.24,1.22.72,1.65.48.41,1.11.73,1.89.96.78.24,1.65.47,2.61.7.96.22,1.92.47,2.87.75.95.28,1.82.64,2.61,1.09.78.45,1.4,1.06,1.89,1.83.48.78.72,1.75.72,2.92h0c0,1.19-.33,2.29-.98,3.31-.65,1.02-1.65,1.83-3,2.46-1.34.6-3.04.9-5.09.9ZM533.01,141.03h-4.19v-18.92h-7.42v-3.54h19.02v3.54h-7.42v18.92ZM553.84,141.03h-4.16v-22.46h9.23c1.98,0,3.69.33,5.12.98,1.41.64,2.51,1.55,3.28,2.74.76,1.21,1.14,2.63,1.14,4.26h0c0,1.65-.38,3.08-1.14,4.26-.78,1.17-1.87,2.08-3.28,2.71-1.43.64-3.14.96-5.12.96h-6.93l1.86-1.91v8.45ZM568.83,141.03h-4.47l-5.69-8.14h4.44l5.71,8.14ZM553.84,120.05v13l-1.86-1.99h6.72c1.84,0,3.23-.4,4.16-1.19.93-.79,1.4-1.9,1.4-3.31h0c0-1.43-.47-2.53-1.4-3.31-.93-.76-2.32-1.14-4.16-1.14h-6.72l1.86-2.07ZM588.83,141.34h0c-3.08,0-5.5-.87-7.24-2.61-1.74-1.72-2.61-4.22-2.61-7.49h0v-12.66h4.19v12.51c0,2.31.49,3.99,1.47,5.04,1,1.05,2.4,1.58,4.21,1.58h0c1.83,0,3.23-.53,4.21-1.58.98-1.05,1.47-2.73,1.47-5.04h0v-12.51h4.11v12.66c0,3.27-.88,5.77-2.64,7.49-1.74,1.74-4.13,2.61-7.18,2.61ZM620.95,141.34h0c-1.71,0-3.29-.28-4.75-.85-1.46-.57-2.74-1.37-3.82-2.4-1.09-1.03-1.92-2.26-2.51-3.67-.6-1.41-.9-2.95-.9-4.63h0c0-1.65.3-3.19.9-4.6.59-1.41,1.43-2.64,2.53-3.67,1.09-1.03,2.35-1.83,3.8-2.4,1.46-.57,3.06-.85,4.78-.85h0c1.84,0,3.52.32,5.04.96,1.52.62,2.8,1.55,3.85,2.79h0l-2.71,2.53c-.81-.88-1.71-1.53-2.71-1.96-1-.45-2.09-.67-3.28-.67h0c-1.17,0-2.24.2-3.2.59-.98.38-1.83.92-2.53,1.63-.72.71-1.28,1.54-1.68,2.51-.4.95-.59,2-.59,3.15h0c0,1.15.2,2.21.59,3.18.4.96.96,1.8,1.68,2.51.71.71,1.55,1.25,2.53,1.63.96.4,2.03.59,3.2.59h0c1.19,0,2.28-.22,3.28-.67,1-.43,1.9-1.09,2.71-1.99h0l2.71,2.56c-1.05,1.22-2.33,2.15-3.85,2.79-1.52.64-3.2.96-5.07.96ZM648.68,141.03h-4.19v-18.92h-7.42v-3.54h19.02v3.54h-7.42v18.92ZM674.99,141.34h0c-3.08,0-5.5-.87-7.24-2.61-1.74-1.72-2.61-4.22-2.61-7.49h0v-12.66h4.16v12.51c0,2.31.5,3.99,1.5,5.04,1,1.05,2.4,1.58,4.21,1.58h0c1.81,0,3.2-.53,4.19-1.58.98-1.05,1.47-2.73,1.47-5.04h0v-12.51h4.11v12.66c0,3.27-.87,5.77-2.61,7.49-1.74,1.74-4.13,2.61-7.18,2.61ZM700.88,141.03h-4.16v-22.46h9.23c1.98,0,3.69.33,5.12.98,1.41.64,2.51,1.55,3.28,2.74.76,1.21,1.14,2.63,1.14,4.26h0c0,1.65-.38,3.08-1.14,4.26-.78,1.17-1.87,2.08-3.28,2.71-1.43.64-3.14.96-5.12.96h-6.93l1.86-1.91v8.45ZM715.87,141.03h-4.47l-5.69-8.14h4.44l5.71,8.14ZM700.88,120.05v13l-1.86-1.99h6.72c1.84,0,3.23-.4,4.16-1.19.93-.79,1.4-1.9,1.4-3.31h0c0-1.43-.47-2.53-1.4-3.31-.93-.76-2.32-1.14-4.16-1.14h-6.72l1.86-2.07ZM730.09,131.34v-3.44h11.14v3.44h-11.14ZM730.4,122.09v15.43h12.66v3.51h-16.82v-22.46h16.38v3.51h-12.22ZM772.91,141.03h-4.19v-22.46h9.23c2,0,3.7.33,5.12.98,1.43.64,2.52,1.55,3.28,2.74.78,1.21,1.16,2.63,1.16,4.26h0c0,1.65-.39,3.08-1.16,4.26-.76,1.21-1.85,2.13-3.28,2.77-1.41.64-3.12.96-5.12.96h-6.9l1.86-1.96v8.45ZM772.91,120.05v13l-1.86-2.02h6.72c1.84,0,3.23-.4,4.16-1.19.93-.78,1.4-1.87,1.4-3.28h0c0-1.43-.47-2.53-1.4-3.31-.93-.76-2.32-1.14-4.16-1.14h-6.72l1.86-2.07ZM802.26,141.03h-4.19v-22.46h9.23c2,0,3.7.33,5.12.98,1.43.64,2.52,1.55,3.28,2.74.78,1.21,1.16,2.63,1.16,4.26h0c0,1.65-.39,3.08-1.16,4.26-.76,1.17-1.85,2.08-3.28,2.71-1.41.64-3.12.96-5.12.96h-6.9l1.86-1.91v8.45ZM817.25,141.03h-4.5l-5.66-8.14h4.44l5.71,8.14ZM802.26,120.05v13l-1.86-1.99h6.72c1.84,0,3.23-.4,4.16-1.19.93-.79,1.4-1.9,1.4-3.31h0c0-1.43-.47-2.53-1.4-3.31-.93-.76-2.32-1.14-4.16-1.14h-6.72l1.86-2.07ZM838.11,141.34h0c-1.74,0-3.35-.29-4.83-.88-1.48-.57-2.77-1.37-3.85-2.4-1.09-1.03-1.93-2.26-2.53-3.67-.59-1.4-.88-2.93-.88-4.6h0c0-1.65.29-3.19.88-4.6.6-1.4,1.45-2.61,2.53-3.64,1.09-1.03,2.37-1.84,3.85-2.43,1.48-.57,3.08-.85,4.81-.85h0c1.76,0,3.37.28,4.83.85,1.46.59,2.74,1.4,3.82,2.43,1.09,1.03,1.93,2.25,2.53,3.64.6,1.41.9,2.95.9,4.6h0c0,1.67-.3,3.21-.9,4.63-.6,1.41-1.45,2.63-2.53,3.64-1.09,1.03-2.36,1.83-3.82,2.4-1.46.59-3.07.88-4.81.88ZM838.08,137.7h0c1.14,0,2.19-.2,3.15-.59.95-.38,1.77-.93,2.48-1.65.71-.71,1.26-1.53,1.65-2.48.4-.96.59-2.02.59-3.18h0c0-1.15-.2-2.21-.59-3.15-.4-.95-.95-1.77-1.65-2.48-.71-.72-1.53-1.27-2.48-1.65-.96-.4-2.02-.59-3.15-.59h0c-1.14,0-2.18.2-3.13.59-.95.38-1.78.93-2.51,1.65-.71.71-1.26,1.53-1.65,2.48-.4.95-.59,2-.59,3.15h0c0,1.14.2,2.19.59,3.15.4.96.95,1.8,1.65,2.51.71.72,1.54,1.27,2.51,1.65.95.4,1.99.59,3.13.59ZM869.4,141.03h-4.16v-18.92h-7.44v-3.54h19.02v3.54h-7.42v18.92ZM896.56,141.34h0c-1.74,0-3.35-.29-4.83-.88-1.46-.57-2.75-1.37-3.85-2.4-1.09-1.03-1.93-2.26-2.53-3.67-.59-1.4-.88-2.93-.88-4.6h0c0-1.65.29-3.19.88-4.6.6-1.4,1.45-2.61,2.53-3.64,1.1-1.03,2.39-1.84,3.85-2.43,1.48-.57,3.08-.85,4.81-.85h0c1.76,0,3.37.28,4.83.85,1.46.59,2.74,1.4,3.82,2.43,1.09,1.03,1.93,2.25,2.53,3.64.6,1.41.9,2.95.9,4.6h0c0,1.67-.3,3.21-.9,4.63-.6,1.41-1.45,2.63-2.53,3.64-1.09,1.03-2.36,1.83-3.82,2.4-1.46.59-3.07.88-4.81.88ZM896.53,137.7h0c1.14,0,2.19-.2,3.15-.59.96-.38,1.79-.93,2.48-1.65.71-.71,1.26-1.53,1.65-2.48.4-.96.59-2.02.59-3.18h0c0-1.15-.2-2.21-.59-3.15-.4-.95-.95-1.77-1.65-2.48-.69-.72-1.52-1.27-2.48-1.65-.96-.4-2.02-.59-3.15-.59h0c-1.14,0-2.18.2-3.13.59-.95.38-1.77.93-2.48,1.65-.72.71-1.28,1.53-1.68,2.48s-.59,2-.59,3.15h0c0,1.14.2,2.19.59,3.15s.95,1.8,1.65,2.51c.71.72,1.54,1.27,2.51,1.65.95.4,1.99.59,3.13.59ZM929.51,141.34h0c-1.71,0-3.29-.28-4.76-.85-1.46-.57-2.73-1.37-3.8-2.4-1.09-1.03-1.93-2.26-2.53-3.67-.59-1.41-.88-2.95-.88-4.63h0c0-1.65.29-3.19.88-4.6.6-1.41,1.45-2.64,2.53-3.67,1.09-1.03,2.36-1.83,3.82-2.4,1.45-.57,3.04-.85,4.78-.85h0c1.83,0,3.5.32,5.01.96,1.52.62,2.8,1.55,3.85,2.79h0l-2.69,2.53c-.81-.88-1.71-1.53-2.71-1.96-1.02-.45-2.11-.67-3.28-.67h0c-1.17,0-2.25.2-3.23.59-.96.38-1.81.92-2.53,1.63-.71.71-1.26,1.54-1.65,2.51-.4.95-.59,2-.59,3.15h0c0,1.15.2,2.21.59,3.18.4.96.95,1.8,1.65,2.51.72.71,1.57,1.25,2.53,1.63.98.4,2.06.59,3.23.59h0c1.17,0,2.27-.22,3.28-.67,1-.43,1.9-1.09,2.71-1.99h0l2.69,2.56c-1.05,1.22-2.33,2.15-3.85,2.79-1.52.64-3.2.96-5.07.96ZM959.05,141.34h0c-1.76,0-3.38-.29-4.86-.88-1.46-.57-2.75-1.37-3.85-2.4-1.09-1.03-1.93-2.26-2.53-3.67-.59-1.4-.88-2.93-.88-4.6h0c0-1.65.29-3.19.88-4.6.6-1.4,1.45-2.61,2.53-3.64,1.1-1.03,2.39-1.84,3.85-2.43,1.48-.57,3.08-.85,4.81-.85h0c1.76,0,3.37.28,4.83.85,1.46.59,2.74,1.4,3.82,2.43,1.09,1.03,1.93,2.25,2.53,3.64.6,1.41.9,2.95.9,4.6h0c0,1.67-.3,3.21-.9,4.63-.6,1.41-1.45,2.63-2.53,3.64-1.09,1.03-2.36,1.83-3.82,2.4-1.46.59-3.06.88-4.78.88ZM959,137.7h0c1.14,0,2.19-.2,3.15-.59.96-.38,1.8-.93,2.51-1.65.71-.71,1.25-1.53,1.63-2.48.4-.96.59-2.02.59-3.18h0c0-1.15-.2-2.21-.59-3.15-.38-.95-.92-1.77-1.63-2.48-.71-.72-1.54-1.27-2.51-1.65-.96-.4-2.02-.59-3.15-.59h0c-1.12,0-2.16.2-3.13.59-.95.38-1.77.93-2.48,1.65-.72.71-1.28,1.53-1.68,2.48-.4.95-.59,2-.59,3.15h0c0,1.14.2,2.19.59,3.15.4.96.95,1.8,1.65,2.51.71.72,1.54,1.27,2.51,1.65.96.4,2.01.59,3.13.59ZM997.5,141.03h-15.89v-22.46h4.16v18.92h11.73v3.54Z"/>
    </clipPath>
    <clipPath id="clippath-1">
      <path class="cls-1" d="M291.96,95.32h-54.63c-2.86,0-5.46-.7-7.8-2.09-2.34-1.38-4.2-3.24-5.58-5.58-1.4-2.34-2.09-4.94-2.09-7.8h0V25.08c0-2.86.7-5.45,2.09-7.78,1.38-2.34,3.24-4.21,5.58-5.61,2.34-1.4,4.94-2.09,7.8-2.09h54.63c2.86,0,5.48.7,7.86,2.09,2.38,1.4,4.26,3.26,5.66,5.61,1.38,2.33,2.07,4.92,2.07,7.78h0v5.12h-12.97v-4.75c0-.79-.28-1.49-.83-2.09-.55-.59-1.27-.88-2.14-.88h-53.91c-.79,0-1.49.29-2.09.88-.6.6-.9,1.3-.9,2.09h0v54.04c0,.79.3,1.49.9,2.09.6.59,1.3.88,2.09.88h53.91c.88,0,1.59-.29,2.14-.88.55-.6.83-1.3.83-2.09h0v-18.19h-20.23v-13h33.21v31.55c0,2.86-.69,5.46-2.07,7.8-1.4,2.34-3.28,4.2-5.66,5.58-2.38,1.4-5,2.09-7.86,2.09h0ZM401.11,95.32h-54.76c-2.86,0-5.46-.71-7.8-2.14-2.33-1.43-4.19-3.29-5.58-5.58-1.4-2.31-2.09-4.89-2.09-7.75h0v-25.48h57.27v-12.25c0-.79-.28-1.49-.83-2.09-.57-.59-1.25-.88-2.04-.88h-54.4v-12.87h54.76c2.86,0,5.46.7,7.8,2.09,2.34,1.4,4.2,3.28,5.58,5.66,1.4,2.38,2.09,4.95,2.09,7.73h0v53.57ZM346.72,82.45h41.43v-16.05h-44.4v13.08c0,.79.29,1.49.88,2.09.6.59,1.3.88,2.09.88ZM434.68,95.32h-12.97V26.27h88.2c2.95,0,5.56.71,7.86,2.14,2.31,1.43,4.15,3.3,5.53,5.61,1.4,2.29,2.09,4.87,2.09,7.73h0v53.57h-12.74v-53.21c0-.79-.29-1.49-.88-2.09-.6-.59-1.3-.88-2.09-.88h-26.54c-.88,0-1.59.29-2.14.88-.55.6-.83,1.3-.83,2.09h0v53.21h-12.97v-53.21c0-.79-.3-1.49-.9-2.09-.6-.59-1.3-.88-2.09-.88h-26.64c-.79,0-1.47.29-2.04.88-.55.6-.83,1.3-.83,2.09h0v53.21ZM562.16,95.32h0c-2.84,0-5.42-.71-7.73-2.14-2.31-1.43-4.18-3.29-5.61-5.58-1.41-2.31-2.12-4.89-2.12-7.75h0v-38.09c0-2.86.71-5.44,2.12-7.73,1.43-2.31,3.3-4.18,5.61-5.61,2.31-1.43,4.88-2.14,7.73-2.14h39.28c2.86,0,5.46.7,7.8,2.09,2.34,1.4,4.21,3.28,5.61,5.66,1.38,2.38,2.07,4.95,2.07,7.73h0v25.48h-57.37v12.25c0,.79.3,1.49.9,2.09.59.59,1.27.88,2.07.88h54.4v12.87h-54.76ZM559.55,42.11v13.1h44.4v-13.1c0-.79-.28-1.49-.83-2.09-.55-.59-1.22-.88-2.02-.88h-38.58c-.79,0-1.48.29-2.07.88-.6.6-.9,1.3-.9,2.09h0ZM640.75,95.32h0V9.6h66.65c2.77,0,5.36.7,7.75,2.09,2.38,1.4,4.26,3.26,5.63,5.61,1.4,2.33,2.09,4.92,2.09,7.78h0v17.5c0,1.03-.1,2.07-.31,3.1-.19,1.03-.53,1.99-1.01,2.87h0c1.59,2.22,2.8,4.31,3.64,6.25.83,1.93,1.24,3.89,1.24,5.89h0v19.15c0,2.86-.7,5.46-2.09,7.8-1.38,2.34-3.26,4.2-5.63,5.58-2.38,1.4-5,2.09-7.86,2.09h-70.11ZM656.56,82.45h53.93c.88,0,1.59-.29,2.14-.88.55-.6.83-1.3.83-2.09h0v-18.45c0-.79-.28-1.48-.83-2.07-.55-.6-1.27-.9-2.14-.9h-53.93c-.79,0-1.48.3-2.07.9-.6.59-.9,1.27-.9,2.07h0v18.45c0,.79.3,1.49.9,2.09.59.59,1.27.88,2.07.88ZM656.56,45.21h50.47c.79,0,1.47-.3,2.04-.9.55-.59.83-1.27.83-2.07h0v-16.8c0-.79-.28-1.49-.83-2.09-.57-.59-1.25-.88-2.04-.88h-50.47c-.79,0-1.48.29-2.07.88-.6.6-.9,1.3-.9,2.09h0v16.8c0,.79.3,1.48.9,2.07.59.6,1.27.9,2.07.9ZM765.26,95.32h0c-2.86,0-5.46-.71-7.8-2.14-2.34-1.43-4.2-3.29-5.58-5.58-1.4-2.31-2.09-4.89-2.09-7.75h0V26.27h12.84v53.21c0,.79.3,1.49.9,2.09.6.59,1.3.88,2.09.88h38.56c.79,0,1.49-.29,2.09-.88.59-.6.88-1.3.88-2.09h0V26.27h12.87v53.57c0,2.86-.7,5.44-2.09,7.75-1.4,2.29-3.26,4.15-5.58,5.58-2.34,1.43-4.94,2.14-7.8,2.14h-39.28ZM855.96,95.32h-12.87V26.27h12.87v69.05ZM855.96,16.52h-12.87V3.66h12.87v12.87ZM896.3,95.32h0c-2.86,0-5.44-.71-7.73-2.14-2.31-1.43-4.18-3.29-5.61-5.58-1.43-2.31-2.14-4.89-2.14-7.75h0V3.66h12.87v75.82c0,.79.3,1.49.9,2.09.59.59,1.27.88,2.07.88h12.51v12.87h-12.87ZM942.74,95.32h0c-2.86,0-5.46-.7-7.8-2.09-2.34-1.38-4.2-3.26-5.58-5.63-1.4-2.39-2.09-4.98-2.09-7.75h0v-38.09c0-2.86.7-5.44,2.09-7.73,1.38-2.31,3.24-4.18,5.58-5.61,2.34-1.43,4.94-2.14,7.8-2.14h41.89V3.66h12.87v91.66h-54.76ZM943.21,82.45h38.58c.79,0,1.46-.29,2.02-.88.55-.6.83-1.3.83-2.09h0v-37.37c0-.79-.28-1.49-.83-2.09-.55-.59-1.22-.88-2.02-.88h-38.58c-.79,0-1.48.29-2.07.88-.6.6-.9,1.3-.9,2.09h0v37.37c0,.79.3,1.49.9,2.09.59.59,1.27.88,2.07.88Z"/>
    </clipPath>
  </defs>
  <g>
    <path class="cls-1" d="M26.48,141.07c-.77,0-1.6-.01-2.51-.05-8.28-.35-14.86-4.14-18.54-10.69-2.66-4.73-2.9-9.36-2.92-9.87v-.24s0-93.47,0-93.47c0-8.96,3.55-14.24,6.53-17.08,6.19-5.91,14.32-6,15.92-5.97h68.51v13.04H24.54s-4.03-.06-6.56,2.41c-1.62,1.59-2.44,4.14-2.44,7.6v93.3c.16,2.27,1.38,7.61,8.97,7.93,1.72.07,3.03.04,4.45,0,4.55-.15,7.22-2.34,10.26-6.06,1.34-1.8,17.93-24.11,23.84-32.01l.32-.43c2.82-3.8,8.7-11.7,19.57-11.7s16.66,7.87,19.01,11.23c1.5,2.14,5.06,7.09,7.25,10.04,2.18,2.94,3.84,4.44,5.92,5.35,3.99,1.75,7.72,1.46,11.38-.9,8.58-5.52,5.46-15.16,5.07-16.24l-13.46-37.48,12.28-4.41,13.44,37.44c2.6,6.92,3.84,22.58-10.28,31.66-7.41,4.76-15.6,5.41-23.67,1.87-5.36-2.35-8.65-6.14-11.17-9.53-2.24-3.03-5.91-8.12-7.45-10.32-2.25-3.21-4.29-5.67-8.33-5.67s-6.39,2.79-9.11,6.44l-.34.46c-6.15,8.22-23.91,32.09-23.91,32.09l-.17.22c-4.01,4.93-9.91,10.64-20.03,10.98-.91.03-1.86.06-2.93.06Z"/>
    <path class="cls-1" d="M144.68,141.02H63.36v-13.04h80.5c2.18-.37,8.19-2.18,8.19-10.85V25.56c0-4.03-1.34-8.83-7.73-8.83h-9.91c-.31,0-.67,0-1.06-.01-3.63-.08-9.12-.18-13.98,5.89-.91,1.21-12.87,17.09-16.98,22.5-2.54,3.34-8.49,11.17-18.71,11.17-9.29,0-14.79-5.81-17.75-8.93-3-3.17-5.3-3.76-8.51-3.76-2.87,0-6.4,1.56-7.81,5.9-.83,3.87-9.62,45.04-10.73,51.82l-12.87-2.11c1.21-7.39,10.52-50.87,10.91-52.72l.13-.51c2.77-9.22,10.96-15.41,20.37-15.41,4.91,0,11.39.89,17.93,7.79,2.74,2.89,4.91,4.9,8.33,4.9s5.92-2.85,8.33-6.02c4.27-5.61,17-22.52,17-22.52l.11-.14c8.89-11.19,20.24-10.97,24.5-10.88.3,0,.56.01.8.01h9.91c12.23,0,20.78,9,20.78,21.88v91.56c0,17.14-13.13,23.1-20.07,23.86l-.35.04Z"/>
  </g>
  <g>
    <path class="cls-1" d="M233.92,141.34h0c-1.76,0-3.37-.28-4.83-.85-1.45-.57-2.72-1.37-3.82-2.4-1.09-1.03-1.93-2.26-2.53-3.67-.59-1.41-.88-2.95-.88-4.63h0c0-1.65.29-3.19.88-4.6.6-1.41,1.46-2.64,2.56-3.67,1.1-1.03,2.39-1.83,3.85-2.4,1.48-.57,3.1-.85,4.86-.85h0c1.9,0,3.61.31,5.14.93,1.52.62,2.8,1.52,3.85,2.71h0l-2.64,2.58c-.86-.88-1.8-1.52-2.82-1.94-1.02-.43-2.14-.65-3.36-.65h0c-1.17,0-2.26.2-3.26.59-1.02.38-1.89.92-2.61,1.63-.72.71-1.28,1.54-1.68,2.51-.4.95-.59,2-.59,3.15h0c0,1.14.2,2.19.59,3.15s.96,1.8,1.68,2.51c.72.72,1.58,1.27,2.56,1.65.98.4,2.08.59,3.28.59h0c1.1,0,2.17-.18,3.2-.54,1.05-.34,2.04-.94,2.97-1.78h0l2.38,3.13c-1.17.93-2.53,1.64-4.08,2.12-1.55.48-3.12.72-4.7.72ZM242.7,138.5l-3.95-.57v-8.37h3.95v8.94ZM255.39,141.03h-4.29l10.1-22.46h4.08l10.13,22.46h-4.34l-8.71-20.23h1.68l-8.66,20.23ZM270.09,135.84h-14.34l1.11-3.28h12.12l1.11,3.28ZM288.34,141.03h-3.98v-22.46h3.44l9.79,16.38h-1.78l9.64-16.38h3.44l.03,22.46h-3.93l-.05-16.25h.85l-8.22,13.67h-1.86l-8.32-13.67h.96v16.25ZM324.91,131.34v-3.44h11.16v3.44h-11.16ZM325.22,122.09v15.43h12.66v3.51h-16.82v-22.46h16.38v3.51h-12.22ZM367.73,141.03h-4.16v-22.46h4.16v22.46ZM384.01,141.03h-4.13v-22.46h3.44l14.06,17.29h-1.71v-17.29h4.13v22.46h-3.41l-14.08-17.29h1.71v17.29ZM415.74,132.43v-3.51h11.19v3.51h-11.19ZM416.08,122.09v18.94h-4.16v-22.46h16.38v3.51h-12.22ZM442.59,141.03h-4.16v-22.46h9.23c1.98,0,3.69.33,5.12.98,1.41.64,2.51,1.55,3.28,2.74.78,1.21,1.16,2.63,1.16,4.26h0c0,1.65-.39,3.08-1.16,4.26-.78,1.17-1.87,2.08-3.28,2.71-1.43.64-3.14.96-5.12.96h-6.93l1.86-1.91v8.45ZM457.58,141.03h-4.47l-5.69-8.14h4.47l5.69,8.14ZM442.59,120.05v13l-1.86-1.99h6.74c1.83,0,3.2-.4,4.13-1.19.93-.79,1.4-1.9,1.4-3.31h0c0-1.43-.47-2.53-1.4-3.31-.93-.76-2.31-1.14-4.13-1.14h-6.74l1.86-2.07ZM469.05,141.03h-4.29l10.1-22.46h4.11l10.13,22.46h-4.37l-8.68-20.23h1.65l-8.66,20.23ZM483.78,135.84h-14.37l1.11-3.28h12.12l1.14,3.28ZM505,141.34h0c-1.76,0-3.44-.25-5.04-.75-1.6-.5-2.88-1.15-3.82-1.94h0l1.45-3.26c.9.71,2.01,1.3,3.33,1.78,1.33.47,2.69.7,4.08.7h0c1.17,0,2.12-.13,2.84-.39.72-.26,1.26-.6,1.6-1.03.34-.45.52-.95.52-1.5h0c0-.69-.25-1.24-.75-1.65-.48-.41-1.11-.74-1.89-.98-.79-.24-1.66-.47-2.61-.7-.95-.21-1.9-.46-2.84-.75-.95-.29-1.82-.66-2.61-1.11-.78-.47-1.4-1.09-1.89-1.86-.5-.76-.75-1.74-.75-2.95h0c0-1.22.33-2.33.98-3.33.65-1.02,1.65-1.83,2.97-2.46,1.34-.6,3.04-.9,5.09-.9h0c1.34,0,2.68.17,4.01.52,1.33.34,2.48.84,3.46,1.47h0l-1.32,3.23c-1-.6-2.03-1.04-3.1-1.32-1.07-.29-2.09-.44-3.08-.44h0c-1.15,0-2.09.14-2.82.41-.72.28-1.25.64-1.58,1.09-.33.45-.49.96-.49,1.55h0c0,.67.24,1.22.72,1.65.48.41,1.11.73,1.89.96.78.24,1.65.47,2.61.7.96.22,1.92.47,2.87.75.95.28,1.82.64,2.61,1.09.78.45,1.4,1.06,1.89,1.83.48.78.72,1.75.72,2.92h0c0,1.19-.33,2.29-.98,3.31-.65,1.02-1.65,1.83-3,2.46-1.34.6-3.04.9-5.09.9ZM533.01,141.03h-4.19v-18.92h-7.42v-3.54h19.02v3.54h-7.42v18.92ZM553.84,141.03h-4.16v-22.46h9.23c1.98,0,3.69.33,5.12.98,1.41.64,2.51,1.55,3.28,2.74.76,1.21,1.14,2.63,1.14,4.26h0c0,1.65-.38,3.08-1.14,4.26-.78,1.17-1.87,2.08-3.28,2.71-1.43.64-3.14.96-5.12.96h-6.93l1.86-1.91v8.45ZM568.83,141.03h-4.47l-5.69-8.14h4.44l5.71,8.14ZM553.84,120.05v13l-1.86-1.99h6.72c1.84,0,3.23-.4,4.16-1.19.93-.79,1.4-1.9,1.4-3.31h0c0-1.43-.47-2.53-1.4-3.31-.93-.76-2.32-1.14-4.16-1.14h-6.72l1.86-2.07ZM588.83,141.34h0c-3.08,0-5.5-.87-7.24-2.61-1.74-1.72-2.61-4.22-2.61-7.49h0v-12.66h4.19v12.51c0,2.31.49,3.99,1.47,5.04,1,1.05,2.4,1.58,4.21,1.58h0c1.83,0,3.23-.53,4.21-1.58.98-1.05,1.47-2.73,1.47-5.04h0v-12.51h4.11v12.66c0,3.27-.88,5.77-2.64,7.49-1.74,1.74-4.13,2.61-7.18,2.61ZM620.95,141.34h0c-1.71,0-3.29-.28-4.75-.85-1.46-.57-2.74-1.37-3.82-2.4-1.09-1.03-1.92-2.26-2.51-3.67-.6-1.41-.9-2.95-.9-4.63h0c0-1.65.3-3.19.9-4.6.59-1.41,1.43-2.64,2.53-3.67,1.09-1.03,2.35-1.83,3.8-2.4,1.46-.57,3.06-.85,4.78-.85h0c1.84,0,3.52.32,5.04.96,1.52.62,2.8,1.55,3.85,2.79h0l-2.71,2.53c-.81-.88-1.71-1.53-2.71-1.96-1-.45-2.09-.67-3.28-.67h0c-1.17,0-2.24.2-3.2.59-.98.38-1.83.92-2.53,1.63-.72.71-1.28,1.54-1.68,2.51-.4.95-.59,2-.59,3.15h0c0,1.15.2,2.21.59,3.18.4.96.96,1.8,1.68,2.51.71.71,1.55,1.25,2.53,1.63.96.4,2.03.59,3.2.59h0c1.19,0,2.28-.22,3.28-.67,1-.43,1.9-1.09,2.71-1.99h0l2.71,2.56c-1.05,1.22-2.33,2.15-3.85,2.79-1.52.64-3.2.96-5.07.96ZM648.68,141.03h-4.19v-18.92h-7.42v-3.54h19.02v3.54h-7.42v18.92ZM674.99,141.34h0c-3.08,0-5.5-.87-7.24-2.61-1.74-1.72-2.61-4.22-2.61-7.49h0v-12.66h4.16v12.51c0,2.31.5,3.99,1.5,5.04,1,1.05,2.4,1.58,4.21,1.58h0c1.81,0,3.2-.53,4.19-1.58.98-1.05,1.47-2.73,1.47-5.04h0v-12.51h4.11v12.66c0,3.27-.87,5.77-2.61,7.49-1.74,1.74-4.13,2.61-7.18,2.61ZM700.88,141.03h-4.16v-22.46h9.23c1.98,0,3.69.33,5.12.98,1.41.64,2.51,1.55,3.28,2.74.76,1.21,1.14,2.63,1.14,4.26h0c0,1.65-.38,3.08-1.14,4.26-.78,1.17-1.87,2.08-3.28,2.71-1.43.64-3.14.96-5.12.96h-6.93l1.86-1.91v8.45ZM715.87,141.03h-4.47l-5.69-8.14h4.44l5.71,8.14ZM700.88,120.05v13l-1.86-1.99h6.72c1.84,0,3.23-.4,4.16-1.19.93-.79,1.4-1.9,1.4-3.31h0c0-1.43-.47-2.53-1.4-3.31-.93-.76-2.32-1.14-4.16-1.14h-6.72l1.86-2.07ZM730.09,131.34v-3.44h11.14v3.44h-11.14ZM730.4,122.09v15.43h12.66v3.51h-16.82v-22.46h16.38v3.51h-12.22ZM772.91,141.03h-4.19v-22.46h9.23c2,0,3.7.33,5.12.98,1.43.64,2.52,1.55,3.28,2.74.78,1.21,1.16,2.63,1.16,4.26h0c0,1.65-.39,3.08-1.16,4.26-.76,1.21-1.85,2.13-3.28,2.77-1.41.64-3.12.96-5.12.96h-6.9l1.86-1.96v8.45ZM772.91,120.05v13l-1.86-2.02h6.72c1.84,0,3.23-.4,4.16-1.19.93-.78,1.4-1.87,1.4-3.28h0c0-1.43-.47-2.53-1.4-3.31-.93-.76-2.32-1.14-4.16-1.14h-6.72l1.86-2.07ZM802.26,141.03h-4.19v-22.46h9.23c2,0,3.7.33,5.12.98,1.43.64,2.52,1.55,3.28,2.74.78,1.21,1.16,2.63,1.16,4.26h0c0,1.65-.39,3.08-1.16,4.26-.76,1.17-1.85,2.08-3.28,2.71-1.41.64-3.12.96-5.12.96h-6.9l1.86-1.91v8.45ZM817.25,141.03h-4.5l-5.66-8.14h4.44l5.71,8.14ZM802.26,120.05v13l-1.86-1.99h6.72c1.84,0,3.23-.4,4.16-1.19.93-.79,1.4-1.9,1.4-3.31h0c0-1.43-.47-2.53-1.4-3.31-.93-.76-2.32-1.14-4.16-1.14h-6.72l1.86-2.07ZM838.11,141.34h0c-1.74,0-3.35-.29-4.83-.88-1.48-.57-2.77-1.37-3.85-2.4-1.09-1.03-1.93-2.26-2.53-3.67-.59-1.4-.88-2.93-.88-4.6h0c0-1.65.29-3.19.88-4.6.6-1.4,1.45-2.61,2.53-3.64,1.09-1.03,2.37-1.84,3.85-2.43,1.48-.57,3.08-.85,4.81-.85h0c1.76,0,3.37.28,4.83.85,1.46.59,2.74,1.4,3.82,2.43,1.09,1.03,1.93,2.25,2.53,3.64.6,1.41.9,2.95.9,4.6h0c0,1.67-.3,3.21-.9,4.63-.6,1.41-1.45,2.63-2.53,3.64-1.09,1.03-2.36,1.83-3.82,2.4-1.46.59-3.07.88-4.81.88ZM838.08,137.7h0c1.14,0,2.19-.2,3.15-.59.95-.38,1.77-.93,2.48-1.65.71-.71,1.26-1.53,1.65-2.48.4-.96.59-2.02.59-3.18h0c0-1.15-.2-2.21-.59-3.15-.4-.95-.95-1.77-1.65-2.48-.71-.72-1.53-1.27-2.48-1.65-.96-.4-2.02-.59-3.15-.59h0c-1.14,0-2.18.2-3.13.59-.95.38-1.78.93-2.51,1.65-.71.71-1.26,1.53-1.65,2.48-.4.95-.59,2-.59,3.15h0c0,1.14.2,2.19.59,3.15.4.96.95,1.8,1.65,2.51.71.72,1.54,1.27,2.51,1.65.95.4,1.99.59,3.13.59ZM869.4,141.03h-4.16v-18.92h-7.44v-3.54h19.02v3.54h-7.42v18.92ZM896.56,141.34h0c-1.74,0-3.35-.29-4.83-.88-1.46-.57-2.75-1.37-3.85-2.4-1.09-1.03-1.93-2.26-2.53-3.67-.59-1.4-.88-2.93-.88-4.6h0c0-1.65.29-3.19.88-4.6.6-1.4,1.45-2.61,2.53-3.64,1.1-1.03,2.39-1.84,3.85-2.43,1.48-.57,3.08-.85,4.81-.85h0c1.76,0,3.37.28,4.83.85,1.46.59,2.74,1.4,3.82,2.43,1.09,1.03,1.93,2.25,2.53,3.64.6,1.41.9,2.95.9,4.6h0c0,1.67-.3,3.21-.9,4.63-.6,1.41-1.45,2.63-2.53,3.64-1.09,1.03-2.36,1.83-3.82,2.4-1.46.59-3.07.88-4.81.88ZM896.53,137.7h0c1.14,0,2.19-.2,3.15-.59.96-.38,1.79-.93,2.48-1.65.71-.71,1.26-1.53,1.65-2.48.4-.96.59-2.02.59-3.18h0c0-1.15-.2-2.21-.59-3.15-.4-.95-.95-1.77-1.65-2.48-.69-.72-1.52-1.27-2.48-1.65-.96-.4-2.02-.59-3.15-.59h0c-1.14,0-2.18.2-3.13.59-.95.38-1.77.93-2.48,1.65-.72.71-1.28,1.53-1.68,2.48s-.59,2-.59,3.15h0c0,1.14.2,2.19.59,3.15s.95,1.8,1.65,2.51c.71.72,1.54,1.27,2.51,1.65.95.4,1.99.59,3.13.59ZM929.51,141.34h0c-1.71,0-3.29-.28-4.76-.85-1.46-.57-2.73-1.37-3.8-2.4-1.09-1.03-1.93-2.26-2.53-3.67-.59-1.41-.88-2.95-.88-4.63h0c0-1.65.29-3.19.88-4.6.6-1.41,1.45-2.64,2.53-3.67,1.09-1.03,2.36-1.83,3.82-2.4,1.45-.57,3.04-.85,4.78-.85h0c1.83,0,3.5.32,5.01.96,1.52.62,2.8,1.55,3.85,2.79h0l-2.69,2.53c-.81-.88-1.71-1.53-2.71-1.96-1.02-.45-2.11-.67-3.28-.67h0c-1.17,0-2.25.2-3.23.59-.96.38-1.81.92-2.53,1.63-.71.71-1.26,1.54-1.65,2.51-.4.95-.59,2-.59,3.15h0c0,1.15.2,2.21.59,3.18.4.96.95,1.8,1.65,2.51.72.71,1.57,1.25,2.53,1.63.98.4,2.06.59,3.23.59h0c1.17,0,2.27-.22,3.28-.67,1-.43,1.9-1.09,2.71-1.99h0l2.69,2.56c-1.05,1.22-2.33,2.15-3.85,2.79-1.52.64-3.2.96-5.07.96ZM959.05,141.34h0c-1.76,0-3.38-.29-4.86-.88-1.46-.57-2.75-1.37-3.85-2.4-1.09-1.03-1.93-2.26-2.53-3.67-.59-1.4-.88-2.93-.88-4.6h0c0-1.65.29-3.19.88-4.6.6-1.4,1.45-2.61,2.53-3.64,1.1-1.03,2.39-1.84,3.85-2.43,1.48-.57,3.08-.85,4.81-.85h0c1.76,0,3.37.28,4.83.85,1.46.59,2.74,1.4,3.82,2.43,1.09,1.03,1.93,2.25,2.53,3.64.6,1.41.9,2.95.9,4.6h0c0,1.67-.3,3.21-.9,4.63-.6,1.41-1.45,2.63-2.53,3.64-1.09,1.03-2.36,1.83-3.82,2.4-1.46.59-3.06.88-4.78.88ZM959,137.7h0c1.14,0,2.19-.2,3.15-.59.96-.38,1.8-.93,2.51-1.65.71-.71,1.25-1.53,1.63-2.48.4-.96.59-2.02.59-3.18h0c0-1.15-.2-2.21-.59-3.15-.38-.95-.92-1.77-1.63-2.48-.71-.72-1.54-1.27-2.51-1.65-.96-.4-2.02-.59-3.15-.59h0c-1.12,0-2.16.2-3.13.59-.95.38-1.77.93-2.48,1.65-.72.71-1.28,1.53-1.68,2.48-.4.95-.59,2-.59,3.15h0c0,1.14.2,2.19.59,3.15.4.96.95,1.8,1.65,2.51.71.72,1.54,1.27,2.51,1.65.96.4,2.01.59,3.13.59ZM997.5,141.03h-15.89v-22.46h4.16v18.92h11.73v3.54Z"/>
    <g class="cls-3">
      <rect class="cls-1" x="981.61" y="118.58" width="2.36" height="22.46"/>
      <rect class="cls-1" x="983.97" y="118.58" width="4.51" height="22.46"/>
      <rect class="cls-1" x="988.48" y="118.58" width="4.51" height="22.46"/>
      <rect class="cls-1" x="992.99" y="118.58" width="4.51" height="22.46"/>
      <rect class="cls-1" x="951.11" y="121.91" width="1.29" height="15.79"/>
      <rect class="cls-1" x="952.4" y="121.91" width="4.51" height="15.79"/>
      <rect class="cls-1" x="956.91" y="121.91" width="4.51" height="15.79"/>
      <rect class="cls-1" x="961.42" y="121.91" width="4.51" height="15.79"/>
      <rect class="cls-1" x="965.93" y="121.91" width=".94" height="15.79"/>
      <rect class="cls-1" x="946.93" y="118.27" width=".97" height="23.08"/>
      <rect class="cls-1" x="947.89" y="118.27" width="4.51" height="23.08"/>
      <rect class="cls-1" x="952.4" y="118.27" width="4.51" height="23.08"/>
      <rect class="cls-1" x="956.91" y="118.27" width="4.51" height="23.08"/>
      <rect class="cls-1" x="961.42" y="118.27" width="4.51" height="23.08"/>
      <rect class="cls-1" x="965.93" y="118.27" width="4.51" height="23.08"/>
      <rect class="cls-1" x="970.44" y="118.27" width=".65" height="23.08"/>
      <rect class="cls-1" x="917.54" y="118.27" width="3.29" height="23.08"/>
      <rect class="cls-1" x="920.84" y="118.27" width="4.51" height="23.08"/>
      <rect class="cls-1" x="925.35" y="118.27" width="4.51" height="23.08"/>
      <rect class="cls-1" x="929.86" y="118.27" width="4.51" height="23.08"/>
      <rect class="cls-1" x="934.37" y="118.27" width="4.06" height="23.08"/>
      <rect class="cls-1" x="888.65" y="121.91" width=".62" height="15.79"/>
      <rect class="cls-1" x="889.27" y="121.91" width="4.51" height="15.79"/>
      <rect class="cls-1" x="893.78" y="121.91" width="4.51" height="15.79"/>
      <rect class="cls-1" x="898.29" y="121.91" width="4.51" height="15.79"/>
      <rect class="cls-1" x="902.8" y="121.91" width="1.62" height="15.79"/>
      <rect class="cls-1" x="884.47" y="118.27" width=".29" height="23.08"/>
      <rect class="cls-1" x="884.76" y="118.27" width="4.51" height="23.08"/>
      <rect class="cls-1" x="889.27" y="118.27" width="4.51" height="23.08"/>
      <rect class="cls-1" x="893.78" y="118.27" width="4.51" height="23.08"/>
      <rect class="cls-1" x="898.29" y="118.27" width="4.51" height="23.08"/>
      <rect class="cls-1" x="902.8" y="118.27" width="4.51" height="23.08"/>
      <rect class="cls-1" x="907.31" y="118.27" width="1.32" height="23.08"/>
      <rect class="cls-1" x="857.8" y="118.58" width="4.41" height="22.46"/>
      <rect class="cls-1" x="862.21" y="118.58" width="4.51" height="22.46"/>
      <rect class="cls-1" x="866.72" y="118.58" width="4.51" height="22.46"/>
      <rect class="cls-1" x="871.23" y="118.58" width="4.51" height="22.46"/>
      <rect class="cls-1" x="875.74" y="118.58" width="1.08" height="22.46"/>
      <rect class="cls-1" x="830.2" y="121.91" width=".45" height="15.79"/>
      <rect class="cls-1" x="830.64" y="121.91" width="4.51" height="15.79"/>
      <rect class="cls-1" x="835.15" y="121.91" width="4.51" height="15.79"/>
      <rect class="cls-1" x="839.66" y="121.91" width="4.51" height="15.79"/>
      <rect class="cls-1" x="844.17" y="121.91" width="1.79" height="15.79"/>
      <rect class="cls-1" x="826.01" y="118.27" width=".12" height="23.08"/>
      <rect class="cls-1" x="826.13" y="118.27" width="4.51" height="23.08"/>
      <rect class="cls-1" x="830.64" y="118.27" width="4.51" height="23.08"/>
      <rect class="cls-1" x="835.15" y="118.27" width="4.51" height="23.08"/>
      <rect class="cls-1" x="839.66" y="118.27" width="4.51" height="23.08"/>
      <rect class="cls-1" x="844.17" y="118.27" width="4.51" height="23.08"/>
      <rect class="cls-1" x="848.68" y="118.27" width="1.49" height="23.08"/>
      <rect class="cls-1" x="800.4" y="120.05" width="3.19" height="13"/>
      <rect class="cls-1" x="803.59" y="120.05" width="4.51" height="13"/>
      <rect class="cls-1" x="808.1" y="120.05" width="4.51" height="13"/>
      <rect class="cls-1" x="812.61" y="120.05" width=".07" height="13"/>
      <rect class="cls-1" x="807.09" y="132.89" width="1" height="8.14"/>
      <rect class="cls-1" x="808.1" y="132.89" width="4.51" height="8.14"/>
      <rect class="cls-1" x="812.61" y="132.89" width="4.51" height="8.14"/>
      <rect class="cls-1" x="817.12" y="132.89" width=".14" height="8.14"/>
      <rect class="cls-1" x="798.08" y="118.58" width="1" height="22.46"/>
      <rect class="cls-1" x="799.08" y="118.58" width="4.51" height="22.46"/>
      <rect class="cls-1" x="803.59" y="118.58" width="4.51" height="22.46"/>
      <rect class="cls-1" x="808.1" y="118.58" width="4.51" height="22.46"/>
      <rect class="cls-1" x="812.61" y="118.58" width="4.26" height="22.46"/>
      <rect class="cls-1" x="771.05" y="120.05" width=".97" height="13"/>
      <rect class="cls-1" x="772.02" y="120.05" width="4.51" height="13"/>
      <rect class="cls-1" x="776.53" y="120.05" width="4.51" height="13"/>
      <rect class="cls-1" x="781.04" y="120.05" width="2.28" height="13"/>
      <rect class="cls-1" x="768.72" y="118.58" width="3.3" height="22.46"/>
      <rect class="cls-1" x="772.02" y="118.58" width="4.51" height="22.46"/>
      <rect class="cls-1" x="776.53" y="118.58" width="4.51" height="22.46"/>
      <rect class="cls-1" x="781.04" y="118.58" width="4.51" height="22.46"/>
      <rect class="cls-1" x="785.55" y="118.58" width="1.96" height="22.46"/>
      <rect class="cls-1" x="726.23" y="118.58" width=".69" height="22.46"/>
      <rect class="cls-1" x="726.92" y="118.58" width="4.51" height="22.46"/>
      <rect class="cls-1" x="731.43" y="118.58" width="4.51" height="22.46"/>
      <rect class="cls-1" x="735.94" y="118.58" width="4.51" height="22.46"/>
      <rect class="cls-1" x="740.45" y="118.58" width="2.61" height="22.46"/>
      <rect class="cls-1" x="730.09" y="127.91" width="1.35" height="3.44"/>
      <rect class="cls-1" x="731.43" y="127.91" width="4.51" height="3.44"/>
      <rect class="cls-1" x="735.94" y="127.91" width="4.51" height="3.44"/>
      <rect class="cls-1" x="740.45" y="127.91" width=".77" height="3.44"/>
      <rect class="cls-1" x="699.02" y="120.05" width=".84" height="13"/>
      <rect class="cls-1" x="699.87" y="120.05" width="4.51" height="13"/>
      <rect class="cls-1" x="704.38" y="120.05" width="4.51" height="13"/>
      <rect class="cls-1" x="708.88" y="120.05" width="2.41" height="13"/>
      <rect class="cls-1" x="705.72" y="132.89" width="3.17" height="8.14"/>
      <rect class="cls-1" x="708.88" y="132.89" width="4.51" height="8.14"/>
      <rect class="cls-1" x="713.39" y="132.89" width="2.48" height="8.14"/>
      <rect class="cls-1" x="696.72" y="118.58" width="3.14" height="22.46"/>
      <rect class="cls-1" x="699.87" y="118.58" width="4.51" height="22.46"/>
      <rect class="cls-1" x="704.38" y="118.58" width="4.51" height="22.46"/>
      <rect class="cls-1" x="708.88" y="118.58" width="4.51" height="22.46"/>
      <rect class="cls-1" x="713.39" y="118.58" width="2.09" height="22.46"/>
      <rect class="cls-1" x="665.14" y="118.58" width="3.15" height="22.77"/>
      <rect class="cls-1" x="668.3" y="118.58" width="4.51" height="22.77"/>
      <rect class="cls-1" x="672.81" y="118.58" width="4.51" height="22.77"/>
      <rect class="cls-1" x="677.32" y="118.58" width="4.51" height="22.77"/>
      <rect class="cls-1" x="681.83" y="118.58" width="2.96" height="22.77"/>
      <rect class="cls-1" x="637.08" y="118.58" width="4.16" height="22.46"/>
      <rect class="cls-1" x="641.24" y="118.58" width="4.51" height="22.46"/>
      <rect class="cls-1" x="645.75" y="118.58" width="4.51" height="22.46"/>
      <rect class="cls-1" x="650.26" y="118.58" width="4.51" height="22.46"/>
      <rect class="cls-1" x="654.77" y="118.58" width="1.33" height="22.46"/>
      <rect class="cls-1" x="608.96" y="118.27" width=".71" height="23.08"/>
      <rect class="cls-1" x="609.67" y="118.27" width="4.51" height="23.08"/>
      <rect class="cls-1" x="614.18" y="118.27" width="4.51" height="23.08"/>
      <rect class="cls-1" x="618.69" y="118.27" width="4.51" height="23.08"/>
      <rect class="cls-1" x="623.2" y="118.27" width="4.51" height="23.08"/>
      <rect class="cls-1" x="627.71" y="118.27" width="2.16" height="23.08"/>
      <rect class="cls-1" x="578.99" y="118.58" width="3.63" height="22.77"/>
      <rect class="cls-1" x="582.62" y="118.58" width="4.51" height="22.77"/>
      <rect class="cls-1" x="587.13" y="118.58" width="4.51" height="22.77"/>
      <rect class="cls-1" x="591.64" y="118.58" width="4.51" height="22.77"/>
      <rect class="cls-1" x="596.14" y="118.58" width="2.51" height="22.77"/>
      <rect class="cls-1" x="551.98" y="120.05" width="3.58" height="13"/>
      <rect class="cls-1" x="555.56" y="120.05" width="4.51" height="13"/>
      <rect class="cls-1" x="560.07" y="120.05" width="4.19" height="13"/>
      <rect class="cls-1" x="558.67" y="132.89" width="1.39" height="8.14"/>
      <rect class="cls-1" x="560.07" y="132.89" width="4.51" height="8.14"/>
      <rect class="cls-1" x="564.58" y="132.89" width="4.25" height="8.14"/>
      <rect class="cls-1" x="549.68" y="118.58" width="1.37" height="22.46"/>
      <rect class="cls-1" x="551.05" y="118.58" width="4.51" height="22.46"/>
      <rect class="cls-1" x="555.56" y="118.58" width="4.51" height="22.46"/>
      <rect class="cls-1" x="560.07" y="118.58" width="4.51" height="22.46"/>
      <rect class="cls-1" x="564.58" y="118.58" width="3.86" height="22.46"/>
      <rect class="cls-1" x="521.41" y="118.58" width="2.58" height="22.46"/>
      <rect class="cls-1" x="523.99" y="118.58" width="4.51" height="22.46"/>
      <rect class="cls-1" x="528.5" y="118.58" width="4.51" height="22.46"/>
      <rect class="cls-1" x="533.01" y="118.58" width="4.51" height="22.46"/>
      <rect class="cls-1" x="537.52" y="118.58" width="2.91" height="22.46"/>
      <rect class="cls-1" x="496.14" y="118.27" width=".8" height="23.08"/>
      <rect class="cls-1" x="496.93" y="118.27" width="4.51" height="23.08"/>
      <rect class="cls-1" x="501.44" y="118.27" width="4.51" height="23.08"/>
      <rect class="cls-1" x="505.95" y="118.27" width="4.51" height="23.08"/>
      <rect class="cls-1" x="510.46" y="118.27" width="3.61" height="23.08"/>
      <rect class="cls-1" x="469.42" y="132.56" width=".46" height="3.28"/>
      <rect class="cls-1" x="469.88" y="132.56" width="4.51" height="3.28"/>
      <rect class="cls-1" x="474.39" y="132.56" width="4.51" height="3.28"/>
      <rect class="cls-1" x="478.89" y="132.56" width="4.51" height="3.28"/>
      <rect class="cls-1" x="483.4" y="132.56" width=".38" height="3.28"/>
      <rect class="cls-1" x="464.76" y="118.58" width=".6" height="22.46"/>
      <rect class="cls-1" x="465.37" y="118.58" width="4.51" height="22.46"/>
      <rect class="cls-1" x="469.88" y="118.58" width="4.51" height="22.46"/>
      <rect class="cls-1" x="474.39" y="118.58" width="4.51" height="22.46"/>
      <rect class="cls-1" x="478.89" y="118.58" width="4.51" height="22.46"/>
      <rect class="cls-1" x="483.4" y="118.58" width="4.51" height="22.46"/>
      <rect class="cls-1" x="487.91" y="118.58" width="1.19" height="22.46"/>
      <rect class="cls-1" x="440.73" y="120.05" width="2.09" height="13"/>
      <rect class="cls-1" x="442.82" y="120.05" width="4.51" height="13"/>
      <rect class="cls-1" x="447.33" y="120.05" width="4.51" height="13"/>
      <rect class="cls-1" x="451.84" y="120.05" width="1.17" height="13"/>
      <rect class="cls-1" x="447.42" y="132.89" width="4.41" height="8.14"/>
      <rect class="cls-1" x="451.84" y="132.89" width="4.51" height="8.14"/>
      <rect class="cls-1" x="456.35" y="132.89" width="1.23" height="8.14"/>
      <rect class="cls-1" x="438.43" y="118.58" width="4.39" height="22.46"/>
      <rect class="cls-1" x="442.82" y="118.58" width="4.51" height="22.46"/>
      <rect class="cls-1" x="447.33" y="118.58" width="4.51" height="22.46"/>
      <rect class="cls-1" x="451.84" y="118.58" width="4.51" height="22.46"/>
      <rect class="cls-1" x="456.35" y="118.58" width=".87" height="22.46"/>
      <rect class="cls-1" x="411.92" y="118.58" width="3.84" height="22.46"/>
      <rect class="cls-1" x="415.76" y="118.58" width="4.51" height="22.46"/>
      <rect class="cls-1" x="420.27" y="118.58" width="4.51" height="22.46"/>
      <rect class="cls-1" x="424.78" y="118.58" width="3.52" height="22.46"/>
      <rect class="cls-1" x="415.74" y="128.91" width=".02" height="3.51"/>
      <rect class="cls-1" x="415.76" y="128.91" width="4.51" height="3.51"/>
      <rect class="cls-1" x="420.27" y="128.91" width="4.51" height="3.51"/>
      <rect class="cls-1" x="424.78" y="128.91" width="2.15" height="3.51"/>
      <rect class="cls-1" x="379.87" y="118.58" width="4.32" height="22.46"/>
      <rect class="cls-1" x="384.19" y="118.58" width="4.51" height="22.46"/>
      <rect class="cls-1" x="388.7" y="118.58" width="4.51" height="22.46"/>
      <rect class="cls-1" x="393.21" y="118.58" width="4.51" height="22.46"/>
      <rect class="cls-1" x="397.72" y="118.58" width="2.07" height="22.46"/>
      <rect class="cls-1" x="363.57" y="118.58" width="2.59" height="22.46"/>
      <rect class="cls-1" x="366.15" y="118.58" width="1.57" height="22.46"/>
      <rect class="cls-1" x="321.06" y="118.58" width="0" height="22.46"/>
      <rect class="cls-1" x="321.06" y="118.58" width="4.51" height="22.46"/>
      <rect class="cls-1" x="325.57" y="118.58" width="4.51" height="22.46"/>
      <rect class="cls-1" x="330.08" y="118.58" width="4.51" height="22.46"/>
      <rect class="cls-1" x="334.59" y="118.58" width="3.29" height="22.46"/>
      <rect class="cls-1" x="324.91" y="127.91" width=".66" height="3.44"/>
      <rect class="cls-1" x="325.57" y="127.91" width="4.51" height="3.44"/>
      <rect class="cls-1" x="330.08" y="127.91" width="4.51" height="3.44"/>
      <rect class="cls-1" x="334.59" y="127.91" width="1.48" height="3.44"/>
      <rect class="cls-1" x="284.36" y="118.58" width=".62" height="22.46"/>
      <rect class="cls-1" x="284.98" y="118.58" width="4.51" height="22.46"/>
      <rect class="cls-1" x="289.49" y="118.58" width="4.51" height="22.46"/>
      <rect class="cls-1" x="294" y="118.58" width="4.51" height="22.46"/>
      <rect class="cls-1" x="298.51" y="118.58" width="4.51" height="22.46"/>
      <rect class="cls-1" x="303.02" y="118.58" width="4.51" height="22.46"/>
      <rect class="cls-1" x="307.53" y="118.58" width="1.38" height="22.46"/>
      <rect class="cls-1" x="255.75" y="132.56" width="2.17" height="3.28"/>
      <rect class="cls-1" x="257.92" y="132.56" width="4.51" height="3.28"/>
      <rect class="cls-1" x="262.43" y="132.56" width="4.51" height="3.28"/>
      <rect class="cls-1" x="266.94" y="132.56" width="3.15" height="3.28"/>
      <rect class="cls-1" x="251.1" y="118.58" width="2.31" height="22.46"/>
      <rect class="cls-1" x="253.41" y="118.58" width="4.51" height="22.46"/>
      <rect class="cls-1" x="257.92" y="118.58" width="4.51" height="22.46"/>
      <rect class="cls-1" x="262.43" y="118.58" width="4.51" height="22.46"/>
      <rect class="cls-1" x="266.94" y="118.58" width="4.51" height="22.46"/>
      <rect class="cls-1" x="271.45" y="118.58" width="3.97" height="22.46"/>
      <rect class="cls-1" x="238.75" y="129.56" width="1.14" height="8.94"/>
      <rect class="cls-1" x="239.89" y="129.56" width="2.82" height="8.94"/>
      <rect class="cls-1" x="221.85" y="118.27" width="4.51" height="23.08"/>
      <rect class="cls-1" x="226.36" y="118.27" width="4.51" height="23.08"/>
      <rect class="cls-1" x="230.87" y="118.27" width="4.51" height="23.08"/>
      <rect class="cls-1" x="235.38" y="118.27" width="4.51" height="23.08"/>
      <rect class="cls-1" x="239.89" y="118.27" width="3.1" height="23.08"/>
    </g>
  </g>
  <g>
    <path class="cls-1" d="M291.96,95.32h-54.63c-2.86,0-5.46-.7-7.8-2.09-2.34-1.38-4.2-3.24-5.58-5.58-1.4-2.34-2.09-4.94-2.09-7.8h0V25.08c0-2.86.7-5.45,2.09-7.78,1.38-2.34,3.24-4.21,5.58-5.61,2.34-1.4,4.94-2.09,7.8-2.09h54.63c2.86,0,5.48.7,7.86,2.09,2.38,1.4,4.26,3.26,5.66,5.61,1.38,2.33,2.07,4.92,2.07,7.78h0v5.12h-12.97v-4.75c0-.79-.28-1.49-.83-2.09-.55-.59-1.27-.88-2.14-.88h-53.91c-.79,0-1.49.29-2.09.88-.6.6-.9,1.3-.9,2.09h0v54.04c0,.79.3,1.49.9,2.09.6.59,1.3.88,2.09.88h53.91c.88,0,1.59-.29,2.14-.88.55-.6.83-1.3.83-2.09h0v-18.19h-20.23v-13h33.21v31.55c0,2.86-.69,5.46-2.07,7.8-1.4,2.34-3.28,4.2-5.66,5.58-2.38,1.4-5,2.09-7.86,2.09h0ZM401.11,95.32h-54.76c-2.86,0-5.46-.71-7.8-2.14-2.33-1.43-4.19-3.29-5.58-5.58-1.4-2.31-2.09-4.89-2.09-7.75h0v-25.48h57.27v-12.25c0-.79-.28-1.49-.83-2.09-.57-.59-1.25-.88-2.04-.88h-54.4v-12.87h54.76c2.86,0,5.46.7,7.8,2.09,2.34,1.4,4.2,3.28,5.58,5.66,1.4,2.38,2.09,4.95,2.09,7.73h0v53.57ZM346.72,82.45h41.43v-16.05h-44.4v13.08c0,.79.29,1.49.88,2.09.6.59,1.3.88,2.09.88ZM434.68,95.32h-12.97V26.27h88.2c2.95,0,5.56.71,7.86,2.14,2.31,1.43,4.15,3.3,5.53,5.61,1.4,2.29,2.09,4.87,2.09,7.73h0v53.57h-12.74v-53.21c0-.79-.29-1.49-.88-2.09-.6-.59-1.3-.88-2.09-.88h-26.54c-.88,0-1.59.29-2.14.88-.55.6-.83,1.3-.83,2.09h0v53.21h-12.97v-53.21c0-.79-.3-1.49-.9-2.09-.6-.59-1.3-.88-2.09-.88h-26.64c-.79,0-1.47.29-2.04.88-.55.6-.83,1.3-.83,2.09h0v53.21ZM562.16,95.32h0c-2.84,0-5.42-.71-7.73-2.14-2.31-1.43-4.18-3.29-5.61-5.58-1.41-2.31-2.12-4.89-2.12-7.75h0v-38.09c0-2.86.71-5.44,2.12-7.73,1.43-2.31,3.3-4.18,5.61-5.61,2.31-1.43,4.88-2.14,7.73-2.14h39.28c2.86,0,5.46.7,7.8,2.09,2.34,1.4,4.21,3.28,5.61,5.66,1.38,2.38,2.07,4.95,2.07,7.73h0v25.48h-57.37v12.25c0,.79.3,1.49.9,2.09.59.59,1.27.88,2.07.88h54.4v12.87h-54.76ZM559.55,42.11v13.1h44.4v-13.1c0-.79-.28-1.49-.83-2.09-.55-.59-1.22-.88-2.02-.88h-38.58c-.79,0-1.48.29-2.07.88-.6.6-.9,1.3-.9,2.09h0ZM640.75,95.32h0V9.6h66.65c2.77,0,5.36.7,7.75,2.09,2.38,1.4,4.26,3.26,5.63,5.61,1.4,2.33,2.09,4.92,2.09,7.78h0v17.5c0,1.03-.1,2.07-.31,3.1-.19,1.03-.53,1.99-1.01,2.87h0c1.59,2.22,2.8,4.31,3.64,6.25.83,1.93,1.24,3.89,1.24,5.89h0v19.15c0,2.86-.7,5.46-2.09,7.8-1.38,2.34-3.26,4.2-5.63,5.58-2.38,1.4-5,2.09-7.86,2.09h-70.11ZM656.56,82.45h53.93c.88,0,1.59-.29,2.14-.88.55-.6.83-1.3.83-2.09h0v-18.45c0-.79-.28-1.48-.83-2.07-.55-.6-1.27-.9-2.14-.9h-53.93c-.79,0-1.48.3-2.07.9-.6.59-.9,1.27-.9,2.07h0v18.45c0,.79.3,1.49.9,2.09.59.59,1.27.88,2.07.88ZM656.56,45.21h50.47c.79,0,1.47-.3,2.04-.9.55-.59.83-1.27.83-2.07h0v-16.8c0-.79-.28-1.49-.83-2.09-.57-.59-1.25-.88-2.04-.88h-50.47c-.79,0-1.48.29-2.07.88-.6.6-.9,1.3-.9,2.09h0v16.8c0,.79.3,1.48.9,2.07.59.6,1.27.9,2.07.9ZM765.26,95.32h0c-2.86,0-5.46-.71-7.8-2.14-2.34-1.43-4.2-3.29-5.58-5.58-1.4-2.31-2.09-4.89-2.09-7.75h0V26.27h12.84v53.21c0,.79.3,1.49.9,2.09.6.59,1.3.88,2.09.88h38.56c.79,0,1.49-.29,2.09-.88.59-.6.88-1.3.88-2.09h0V26.27h12.87v53.57c0,2.86-.7,5.44-2.09,7.75-1.4,2.29-3.26,4.15-5.58,5.58-2.34,1.43-4.94,2.14-7.8,2.14h-39.28ZM855.96,95.32h-12.87V26.27h12.87v69.05ZM855.96,16.52h-12.87V3.66h12.87v12.87ZM896.3,95.32h0c-2.86,0-5.44-.71-7.73-2.14-2.31-1.43-4.18-3.29-5.61-5.58-1.43-2.31-2.14-4.89-2.14-7.75h0V3.66h12.87v75.82c0,.79.3,1.49.9,2.09.59.59,1.27.88,2.07.88h12.51v12.87h-12.87ZM942.74,95.32h0c-2.86,0-5.46-.7-7.8-2.09-2.34-1.38-4.2-3.26-5.58-5.63-1.4-2.39-2.09-4.98-2.09-7.75h0v-38.09c0-2.86.7-5.44,2.09-7.73,1.38-2.31,3.24-4.18,5.58-5.61,2.34-1.43,4.94-2.14,7.8-2.14h41.89V3.66h12.87v91.66h-54.76ZM943.21,82.45h38.58c.79,0,1.46-.29,2.02-.88.55-.6.83-1.3.83-2.09h0v-37.37c0-.79-.28-1.49-.83-2.09-.55-.59-1.22-.88-2.02-.88h-38.58c-.79,0-1.48.29-2.07.88-.6.6-.9,1.3-.9,2.09h0v37.37c0,.79.3,1.49.9,2.09.59.59,1.27.88,2.07.88Z"/>
    <g class="cls-2">
      <rect class="cls-1" x="940.23" y="39.14" width="3.15" height="43.31"/>
      <rect class="cls-1" x="943.38" y="39.14" width="4.51" height="43.31"/>
      <rect class="cls-1" x="947.89" y="39.14" width="4.51" height="43.31"/>
      <rect class="cls-1" x="952.4" y="39.14" width="4.51" height="43.31"/>
      <rect class="cls-1" x="956.91" y="39.14" width="4.51" height="43.31"/>
      <rect class="cls-1" x="961.42" y="39.14" width="4.51" height="43.31"/>
      <rect class="cls-1" x="965.93" y="39.14" width="4.51" height="43.31"/>
      <rect class="cls-1" x="970.44" y="39.14" width="4.51" height="43.31"/>
      <rect class="cls-1" x="974.95" y="39.14" width="4.51" height="43.31"/>
      <rect class="cls-1" x="979.46" y="39.14" width="4.51" height="43.31"/>
      <rect class="cls-1" x="983.97" y="39.14" width=".66" height="43.31"/>
      <rect class="cls-1" x="927.26" y="3.66" width="2.59" height="91.66"/>
      <rect class="cls-1" x="929.86" y="3.66" width="4.51" height="91.66"/>
      <rect class="cls-1" x="934.37" y="3.66" width="4.51" height="91.66"/>
      <rect class="cls-1" x="938.88" y="3.66" width="4.51" height="91.66"/>
      <rect class="cls-1" x="943.38" y="3.66" width="4.51" height="91.66"/>
      <rect class="cls-1" x="947.89" y="3.66" width="4.51" height="91.66"/>
      <rect class="cls-1" x="952.4" y="3.66" width="4.51" height="91.66"/>
      <rect class="cls-1" x="956.91" y="3.66" width="4.51" height="91.66"/>
      <rect class="cls-1" x="961.42" y="3.66" width="4.51" height="91.66"/>
      <rect class="cls-1" x="965.93" y="3.66" width="4.51" height="91.66"/>
      <rect class="cls-1" x="970.44" y="3.66" width="4.51" height="91.66"/>
      <rect class="cls-1" x="974.95" y="3.66" width="4.51" height="91.66"/>
      <rect class="cls-1" x="979.46" y="3.66" width="4.51" height="91.66"/>
      <rect class="cls-1" x="983.97" y="3.66" width="4.51" height="91.66"/>
      <rect class="cls-1" x="988.48" y="3.66" width="4.51" height="91.66"/>
      <rect class="cls-1" x="992.99" y="3.66" width="4.51" height="91.66"/>
      <rect class="cls-1" x="880.82" y="3.66" width="3.94" height="91.66"/>
      <rect class="cls-1" x="884.76" y="3.66" width="4.51" height="91.66"/>
      <rect class="cls-1" x="889.27" y="3.66" width="4.51" height="91.66"/>
      <rect class="cls-1" x="893.78" y="3.66" width="4.51" height="91.66"/>
      <rect class="cls-1" x="898.29" y="3.66" width="4.51" height="91.66"/>
      <rect class="cls-1" x="902.8" y="3.66" width="4.51" height="91.66"/>
      <rect class="cls-1" x="907.31" y="3.66" width="1.86" height="91.66"/>
      <rect class="cls-1" x="843.09" y="3.66" width="1.08" height="12.87"/>
      <rect class="cls-1" x="844.17" y="3.66" width="4.51" height="12.87"/>
      <rect class="cls-1" x="848.68" y="3.66" width="4.51" height="12.87"/>
      <rect class="cls-1" x="853.19" y="3.66" width="2.77" height="12.87"/>
      <rect class="cls-1" x="843.09" y="26.27" width="1.08" height="69.05"/>
      <rect class="cls-1" x="844.17" y="26.27" width="4.51" height="69.05"/>
      <rect class="cls-1" x="848.68" y="26.27" width="4.51" height="69.05"/>
      <rect class="cls-1" x="853.19" y="26.27" width="2.77" height="69.05"/>
      <rect class="cls-1" x="749.78" y="26.27" width="4.2" height="69.05"/>
      <rect class="cls-1" x="753.98" y="26.27" width="4.51" height="69.05"/>
      <rect class="cls-1" x="758.49" y="26.27" width="4.51" height="69.05"/>
      <rect class="cls-1" x="763" y="26.27" width="4.51" height="69.05"/>
      <rect class="cls-1" x="767.51" y="26.27" width="4.51" height="69.05"/>
      <rect class="cls-1" x="772.02" y="26.27" width="4.51" height="69.05"/>
      <rect class="cls-1" x="776.53" y="26.27" width="4.51" height="69.05"/>
      <rect class="cls-1" x="781.04" y="26.27" width="4.51" height="69.05"/>
      <rect class="cls-1" x="785.55" y="26.27" width="4.51" height="69.05"/>
      <rect class="cls-1" x="790.06" y="26.27" width="4.51" height="69.05"/>
      <rect class="cls-1" x="794.57" y="26.27" width="4.51" height="69.05"/>
      <rect class="cls-1" x="799.08" y="26.27" width="4.51" height="69.05"/>
      <rect class="cls-1" x="803.59" y="26.27" width="4.51" height="69.05"/>
      <rect class="cls-1" x="808.1" y="26.27" width="4.51" height="69.05"/>
      <rect class="cls-1" x="812.61" y="26.27" width="4.51" height="69.05"/>
      <rect class="cls-1" x="817.12" y="26.27" width="2.9" height="69.05"/>
      <rect class="cls-1" x="653.59" y="22.47" width="1.18" height="22.74"/>
      <rect class="cls-1" x="654.77" y="22.47" width="4.51" height="22.74"/>
      <rect class="cls-1" x="659.28" y="22.47" width="4.51" height="22.74"/>
      <rect class="cls-1" x="663.79" y="22.47" width="4.51" height="22.74"/>
      <rect class="cls-1" x="668.3" y="22.47" width="4.51" height="22.74"/>
      <rect class="cls-1" x="672.81" y="22.47" width="4.51" height="22.74"/>
      <rect class="cls-1" x="677.32" y="22.47" width="4.51" height="22.74"/>
      <rect class="cls-1" x="681.83" y="22.47" width="4.51" height="22.74"/>
      <rect class="cls-1" x="686.34" y="22.47" width="4.51" height="22.74"/>
      <rect class="cls-1" x="690.85" y="22.47" width="4.51" height="22.74"/>
      <rect class="cls-1" x="695.36" y="22.47" width="4.51" height="22.74"/>
      <rect class="cls-1" x="699.87" y="22.47" width="4.51" height="22.74"/>
      <rect class="cls-1" x="704.38" y="22.47" width="4.51" height="22.74"/>
      <rect class="cls-1" x="708.88" y="22.47" width="1.02" height="22.74"/>
      <rect class="cls-1" x="653.59" y="58.05" width="1.18" height="24.4"/>
      <rect class="cls-1" x="654.77" y="58.05" width="4.51" height="24.4"/>
      <rect class="cls-1" x="659.28" y="58.05" width="4.51" height="24.4"/>
      <rect class="cls-1" x="663.79" y="58.05" width="4.51" height="24.4"/>
      <rect class="cls-1" x="668.3" y="58.05" width="4.51" height="24.4"/>
      <rect class="cls-1" x="672.81" y="58.05" width="4.51" height="24.4"/>
      <rect class="cls-1" x="677.32" y="58.05" width="4.51" height="24.4"/>
      <rect class="cls-1" x="681.83" y="58.05" width="4.51" height="24.4"/>
      <rect class="cls-1" x="686.34" y="58.05" width="4.51" height="24.4"/>
      <rect class="cls-1" x="690.85" y="58.05" width="4.51" height="24.4"/>
      <rect class="cls-1" x="695.36" y="58.05" width="4.51" height="24.4"/>
      <rect class="cls-1" x="699.87" y="58.05" width="4.51" height="24.4"/>
      <rect class="cls-1" x="704.38" y="58.05" width="4.51" height="24.4"/>
      <rect class="cls-1" x="708.88" y="58.05" width="4.51" height="24.4"/>
      <rect class="cls-1" x="713.39" y="58.05" width=".07" height="24.4"/>
      <rect class="cls-1" x="640.75" y="9.6" width=".49" height="85.72"/>
      <rect class="cls-1" x="641.24" y="9.6" width="4.51" height="85.72"/>
      <rect class="cls-1" x="645.75" y="9.6" width="4.51" height="85.72"/>
      <rect class="cls-1" x="650.26" y="9.6" width="4.51" height="85.72"/>
      <rect class="cls-1" x="654.77" y="9.6" width="4.51" height="85.72"/>
      <rect class="cls-1" x="659.28" y="9.6" width="4.51" height="85.72"/>
      <rect class="cls-1" x="663.79" y="9.6" width="4.51" height="85.72"/>
      <rect class="cls-1" x="668.3" y="9.6" width="4.51" height="85.72"/>
      <rect class="cls-1" x="672.81" y="9.6" width="4.51" height="85.72"/>
      <rect class="cls-1" x="677.32" y="9.6" width="4.51" height="85.72"/>
      <rect class="cls-1" x="681.83" y="9.6" width="4.51" height="85.72"/>
      <rect class="cls-1" x="686.34" y="9.6" width="4.51" height="85.72"/>
      <rect class="cls-1" x="690.85" y="9.6" width="4.51" height="85.72"/>
      <rect class="cls-1" x="695.36" y="9.6" width="4.51" height="85.72"/>
      <rect class="cls-1" x="699.87" y="9.6" width="4.51" height="85.72"/>
      <rect class="cls-1" x="704.38" y="9.6" width="4.51" height="85.72"/>
      <rect class="cls-1" x="708.88" y="9.6" width="4.51" height="85.72"/>
      <rect class="cls-1" x="713.39" y="9.6" width="4.51" height="85.72"/>
      <rect class="cls-1" x="717.9" y="9.6" width="4.51" height="85.72"/>
      <rect class="cls-1" x="722.41" y="9.6" width="4.03" height="85.72"/>
      <rect class="cls-1" x="559.55" y="39.14" width=".52" height="16.07"/>
      <rect class="cls-1" x="560.07" y="39.14" width="4.51" height="16.07"/>
      <rect class="cls-1" x="564.58" y="39.14" width="4.51" height="16.07"/>
      <rect class="cls-1" x="569.09" y="39.14" width="4.51" height="16.07"/>
      <rect class="cls-1" x="573.6" y="39.14" width="4.51" height="16.07"/>
      <rect class="cls-1" x="578.11" y="39.14" width="4.51" height="16.07"/>
      <rect class="cls-1" x="582.62" y="39.14" width="4.51" height="16.07"/>
      <rect class="cls-1" x="587.13" y="39.14" width="4.51" height="16.07"/>
      <rect class="cls-1" x="591.64" y="39.14" width="4.51" height="16.07"/>
      <rect class="cls-1" x="596.14" y="39.14" width="4.51" height="16.07"/>
      <rect class="cls-1" x="600.65" y="39.14" width="3.3" height="16.07"/>
      <rect class="cls-1" x="546.71" y="26.27" width="4.34" height="69.05"/>
      <rect class="cls-1" x="551.05" y="26.27" width="4.51" height="69.05"/>
      <rect class="cls-1" x="555.56" y="26.27" width="4.51" height="69.05"/>
      <rect class="cls-1" x="560.07" y="26.27" width="4.51" height="69.05"/>
      <rect class="cls-1" x="564.58" y="26.27" width="4.51" height="69.05"/>
      <rect class="cls-1" x="569.09" y="26.27" width="4.51" height="69.05"/>
      <rect class="cls-1" x="573.6" y="26.27" width="4.51" height="69.05"/>
      <rect class="cls-1" x="578.11" y="26.27" width="4.51" height="69.05"/>
      <rect class="cls-1" x="582.62" y="26.27" width="4.51" height="69.05"/>
      <rect class="cls-1" x="587.13" y="26.27" width="4.51" height="69.05"/>
      <rect class="cls-1" x="591.64" y="26.27" width="4.51" height="69.05"/>
      <rect class="cls-1" x="596.14" y="26.27" width="4.51" height="69.05"/>
      <rect class="cls-1" x="600.65" y="26.27" width="4.51" height="69.05"/>
      <rect class="cls-1" x="605.16" y="26.27" width="4.51" height="69.05"/>
      <rect class="cls-1" x="609.67" y="26.27" width="4.51" height="69.05"/>
      <rect class="cls-1" x="614.18" y="26.27" width="2.74" height="69.05"/>
      <rect class="cls-1" x="421.71" y="26.27" width="3.07" height="69.05"/>
      <rect class="cls-1" x="424.78" y="26.27" width="4.51" height="69.05"/>
      <rect class="cls-1" x="429.29" y="26.27" width="4.51" height="69.05"/>
      <rect class="cls-1" x="433.8" y="26.27" width="4.51" height="69.05"/>
      <rect class="cls-1" x="438.31" y="26.27" width="4.51" height="69.05"/>
      <rect class="cls-1" x="442.82" y="26.27" width="4.51" height="69.05"/>
      <rect class="cls-1" x="447.33" y="26.27" width="4.51" height="69.05"/>
      <rect class="cls-1" x="451.84" y="26.27" width="4.51" height="69.05"/>
      <rect class="cls-1" x="456.35" y="26.27" width="4.51" height="69.05"/>
      <rect class="cls-1" x="460.86" y="26.27" width="4.51" height="69.05"/>
      <rect class="cls-1" x="465.37" y="26.27" width="4.51" height="69.05"/>
      <rect class="cls-1" x="469.88" y="26.27" width="4.51" height="69.05"/>
      <rect class="cls-1" x="474.39" y="26.27" width="4.51" height="69.05"/>
      <rect class="cls-1" x="478.89" y="26.27" width="4.51" height="69.05"/>
      <rect class="cls-1" x="483.4" y="26.27" width="4.51" height="69.05"/>
      <rect class="cls-1" x="487.91" y="26.27" width="4.51" height="69.05"/>
      <rect class="cls-1" x="492.42" y="26.27" width="4.51" height="69.05"/>
      <rect class="cls-1" x="496.93" y="26.27" width="4.51" height="69.05"/>
      <rect class="cls-1" x="501.44" y="26.27" width="4.51" height="69.05"/>
      <rect class="cls-1" x="505.95" y="26.27" width="4.51" height="69.05"/>
      <rect class="cls-1" x="510.46" y="26.27" width="4.51" height="69.05"/>
      <rect class="cls-1" x="514.97" y="26.27" width="4.51" height="69.05"/>
      <rect class="cls-1" x="519.48" y="26.27" width="4.51" height="69.05"/>
      <rect class="cls-1" x="523.99" y="26.27" width="1.4" height="69.05"/>
      <rect class="cls-1" x="343.74" y="66.4" width="4.37" height="16.05"/>
      <rect class="cls-1" x="348.12" y="66.4" width="4.51" height="16.05"/>
      <rect class="cls-1" x="352.63" y="66.4" width="4.51" height="16.05"/>
      <rect class="cls-1" x="357.14" y="66.4" width="4.51" height="16.05"/>
      <rect class="cls-1" x="361.65" y="66.4" width="4.51" height="16.05"/>
      <rect class="cls-1" x="366.15" y="66.4" width="4.51" height="16.05"/>
      <rect class="cls-1" x="370.66" y="66.4" width="4.51" height="16.05"/>
      <rect class="cls-1" x="375.17" y="66.4" width="4.51" height="16.05"/>
      <rect class="cls-1" x="379.68" y="66.4" width="4.51" height="16.05"/>
      <rect class="cls-1" x="384.19" y="66.4" width="3.95" height="16.05"/>
      <rect class="cls-1" x="330.88" y="26.27" width="3.71" height="69.05"/>
      <rect class="cls-1" x="334.59" y="26.27" width="4.51" height="69.05"/>
      <rect class="cls-1" x="339.1" y="26.27" width="4.51" height="69.05"/>
      <rect class="cls-1" x="343.61" y="26.27" width="4.51" height="69.05"/>
      <rect class="cls-1" x="348.12" y="26.27" width="4.51" height="69.05"/>
      <rect class="cls-1" x="352.63" y="26.27" width="4.51" height="69.05"/>
      <rect class="cls-1" x="357.14" y="26.27" width="4.51" height="69.05"/>
      <rect class="cls-1" x="361.65" y="26.27" width="4.51" height="69.05"/>
      <rect class="cls-1" x="366.15" y="26.27" width="4.51" height="69.05"/>
      <rect class="cls-1" x="370.66" y="26.27" width="4.51" height="69.05"/>
      <rect class="cls-1" x="375.17" y="26.27" width="4.51" height="69.05"/>
      <rect class="cls-1" x="379.68" y="26.27" width="4.51" height="69.05"/>
      <rect class="cls-1" x="384.19" y="26.27" width="4.51" height="69.05"/>
      <rect class="cls-1" x="388.7" y="26.27" width="4.51" height="69.05"/>
      <rect class="cls-1" x="393.21" y="26.27" width="4.51" height="69.05"/>
      <rect class="cls-1" x="397.72" y="26.27" width="3.39" height="69.05"/>
      <rect class="cls-1" x="221.85" y="9.6" width="4.51" height="85.72"/>
      <rect class="cls-1" x="226.36" y="9.6" width="4.51" height="85.72"/>
      <rect class="cls-1" x="230.87" y="9.6" width="4.51" height="85.72"/>
      <rect class="cls-1" x="235.38" y="9.6" width="4.51" height="85.72"/>
      <rect class="cls-1" x="239.89" y="9.6" width="4.51" height="85.72"/>
      <rect class="cls-1" x="244.4" y="9.6" width="4.51" height="85.72"/>
      <rect class="cls-1" x="248.9" y="9.6" width="4.51" height="85.72"/>
      <rect class="cls-1" x="253.41" y="9.6" width="4.51" height="85.72"/>
      <rect class="cls-1" x="257.92" y="9.6" width="4.51" height="85.72"/>
      <rect class="cls-1" x="262.43" y="9.6" width="4.51" height="85.72"/>
      <rect class="cls-1" x="266.94" y="9.6" width="4.51" height="85.72"/>
      <rect class="cls-1" x="271.45" y="9.6" width="4.51" height="85.72"/>
      <rect class="cls-1" x="275.96" y="9.6" width="4.51" height="85.72"/>
      <rect class="cls-1" x="280.47" y="9.6" width="4.51" height="85.72"/>
      <rect class="cls-1" x="284.98" y="9.6" width="4.51" height="85.72"/>
      <rect class="cls-1" x="289.49" y="9.6" width="4.51" height="85.72"/>
      <rect class="cls-1" x="294" y="9.6" width="4.51" height="85.72"/>
      <rect class="cls-1" x="298.51" y="9.6" width="4.51" height="85.72"/>
      <rect class="cls-1" x="303.02" y="9.6" width="4.51" height="85.72"/>
      <rect class="cls-1" x="307.53" y="9.6" width=".01" height="85.72"/>
    </g>
  </g>
</svg>