<?xml version="1.0" encoding="UTF-8"?>
<svg id="Layer_2" xmlns="http://www.w3.org/2000/svg" xmlns:xlink="http://www.w3.org/1999/xlink" viewBox="0 0 553.58 553.58">
  <defs>
    <style>
      .cls-1 {
        fill: url(#linear-gradient-2);
      }

      .cls-2 {
        fill: url(#linear-gradient-4);
      }

      .cls-3 {
        fill: url(#radial-gradient);
      }

      .cls-4 {
        fill: url(#linear-gradient-3);
      }

      .cls-5 {
        fill: url(#linear-gradient);
      }
    </style>
    <radialGradient id="radial-gradient" cx="54.66" cy="326.81" fx="54.66" fy="326.81" r="520.23" gradientTransform="translate(0 -415.99)" gradientUnits="userSpaceOnUse">
      <stop offset="0" stop-color="#000131"/>
      <stop offset=".7" stop-color="#12284a"/>
      <stop offset=".8" stop-color="#0c1c34"/>
      <stop offset=".9" stop-color="#03070e"/>
      <stop offset="1" stop-color="#000"/>
    </radialGradient>
    <linearGradient id="linear-gradient" x1="232.87" y1="754.01" x2="448.5" y2="554.09" gradientTransform="translate(0 -415.99)" gradientUnits="userSpaceOnUse">
      <stop offset="0" stop-color="#b76bff"/>
      <stop offset="1" stop-color="#01fffd"/>
    </linearGradient>
    <linearGradient id="linear-gradient-2" x1="171.02" y1="713.11" x2="378.54" y2="498.98" xlink:href="#linear-gradient"/>
    <linearGradient id="linear-gradient-3" x1="104.57" y1="-3168.37" x2="438.74" y2="-3168.37" gradientTransform="translate(0 -2709.11) scale(1 -1)" gradientUnits="userSpaceOnUse">
      <stop offset="0" stop-color="#b76bff"/>
      <stop offset="1" stop-color="#01fffd"/>
    </linearGradient>
    <linearGradient id="linear-gradient-4" x1="104.7" y1="-3133.83" x2="438.62" y2="-3133.83" xlink:href="#linear-gradient-3"/>
  </defs>
  <g id="logo">
    <g>
      <rect class="cls-3" width="553.58" height="553.58"/>
      <g>
        <g>
          <path class="cls-5" d="M405,378.08h-175.6c-5.36,0-9.73-4.37-9.73-9.73s4.37-9.73,9.73-9.73h175.6c12.1,0,21.83-9.85,21.83-21.83v-202.04c0-12.1-9.85-21.83-21.83-21.83h-39.78c-5.74,0-11.35,2.87-14.84,7.61l-39.16,57.12c0,.12-.12.25-.25.37-5.74,7.73-13.59,15.71-26.32,15.71h-17.09c-11.47,0-21.83-6.36-26.94-16.71l-.25-.37c-1.75-3.37-5.24-5.49-9.48-5.61h-17.21c-4.61,0-8.98,3.24-10.48,7.86l-28.06,93.29h0c-9.73,30.68,3.62,35.92,8.11,37.41,4.99,2,7.48,7.61,5.49,12.6-2,4.99-7.61,7.48-12.6,5.49-12.47-4.86-20.33-14.09-22.82-26.94-2-9.73-.75-21.08,3.37-34.17l28.06-93.29h0c4.12-12.97,16.09-21.7,29.18-21.58h17.21c11.35.25,21.58,6.61,26.44,16.34l.25.37c1.87,3.62,5.61,5.99,9.73,5.99h16.71c3.24,0,5.74-1.12,10.73-7.86l39.16-56.87h0c7.11-9.98,18.46-15.84,30.68-15.84h39.91c22.82,0,41.28,18.46,41.28,41.28v202.04c0,22.82-18.46,41.41-41.28,41.41v-.37l.25-.12Z"/>
          <path class="cls-1" d="M164.17,378.45h-14.97c-23.07,0-41.66-18.71-41.66-41.66v-202.04c0-23.07,18.71-41.66,41.66-41.66h154.65c5.61,0,10.1,4.49,10.1,10.1s-4.49,10.1-10.1,10.1h-154.77c-11.97,0-21.45,9.73-21.45,21.45v202.04c0,11.97,9.73,21.45,21.45,21.45h14.97c5.61,0,10.85-2.74,14.34-7.11h0l67.85-87.93c.12-.25.25-.37.37-.5,5.49-6.11,13.47-9.98,21.7-10.23l10.23-.37c10.23-.37,19.95,4.49,25.82,12.6l23.7,32.93c8.11,11.22,22.95,15.71,36.04,10.85l1.12-.37c15.71-5.86,23.82-23.57,18.21-39.41l-33.17-91.79c-.87-2.62-2.87-4.74-5.24-5.86-4.99-2.49-7.11-8.36-4.74-13.47,2.49-4.99,8.36-7.11,13.47-4.74,7.23,3.49,12.72,9.73,15.46,17.21l33.3,91.79c4.61,12.72,3.99,26.44-1.75,38.79-5.61,12.22-15.71,21.58-28.44,26.44l-1.12.37c-21.45,8.11-46.02.75-59.49-17.83l-23.7-32.93c-2-2.87-5.24-4.49-8.73-4.37l-10.23.37c-2.74,0-5.36,1.37-7.23,3.24l-67.6,87.55c-7.23,9.48-18.58,15.09-30.43,15.09h.25l.12-.12Z"/>
        </g>
        <g>
          <path class="cls-4" d="M109.8,464.17h0c-.77,0-1.4,0-2.04-.38-.64-.26-1.15-.64-1.66-1.02s-.89-1.02-1.15-1.53c-.26-.64-.38-1.28-.38-2.04h0c0-.77,0-1.4.38-2.04.26-.64.64-1.15,1.15-1.53s1.02-.77,1.66-1.02,1.28-.38,2.04-.38h0c.77,0,1.53.13,2.17.38s1.15.64,1.66,1.15h0l-1.15,1.15c-.38-.38-.77-.64-1.28-.89-.38-.13-.89-.26-1.4-.26h0c-.51,0-1.02,0-1.4.26-.38.13-.77.38-1.15.64-.26.26-.51.64-.77,1.02-.13.38-.26.89-.26,1.4h0c0,.51,0,.89.26,1.4.13.38.38.77.77,1.02.26.26.64.51,1.15.77.38.13.89.26,1.4.26h0c.51,0,.89,0,1.4-.26.51-.13.89-.38,1.28-.77h0l1.02,1.4c-.51.38-1.15.77-1.79.89-.64.26-1.4.26-2.04.26l.13.13ZM113.63,462.9l-1.66-.26v-3.58h1.66v3.83ZM119,464.05h-1.79l4.34-9.7h1.79l4.34,9.7h-1.92l-3.7-8.68h.77l-3.7,8.68h-.13ZM125.38,461.75h-6.13l.51-1.4h5.24l.51,1.4h-.13ZM133.3,464.05h-1.66v-9.7h1.53l4.21,7.02h-.77l4.21-7.02h1.53v9.7h-1.66v-7.02h.38l-3.58,5.87h-.77l-3.58-5.87h.38v7.02h-.26ZM149.01,459.83v-1.53h4.85v1.53h-4.85ZM149.13,455.87v6.64h5.49v1.53h-7.28v-9.7h7.02v1.53h-5.24ZM167.39,464.05h-1.79v-9.7h1.79v9.7ZM174.42,464.05h-1.79v-9.7h1.53l6,7.41h-.77v-7.41h1.79v9.7h-1.53l-6.13-7.41h.77v7.41h.13ZM188.08,460.34v-1.53h4.85v1.53h-4.85ZM188.21,455.87v8.17h-1.79v-9.7h7.02v1.53h-5.24ZM199.7,464.05h-1.79v-9.7h3.96c.89,0,1.53.13,2.17.38s1.02.64,1.4,1.15c.38.51.51,1.15.51,1.79h0c0,.77-.13,1.28-.51,1.79s-.77.89-1.4,1.15-1.4.38-2.17.38h-2.94l.77-.77v3.83ZM206.09,464.05h-1.92l-2.43-3.45h1.92l2.43,3.45ZM199.7,454.98v5.62l-.77-.89h2.94c.77,0,1.4-.13,1.79-.51.38-.38.64-.77.64-1.4h0c0-.64-.26-1.15-.64-1.4-.38-.38-1.02-.51-1.79-.51h-2.94l.77-.89ZM211.07,464.05h-1.79l4.34-9.7h1.79l4.34,9.7h-1.92l-3.7-8.68h.77l-3.7,8.68h-.13ZM217.45,461.75h-6.13l.51-1.4h5.24l.51,1.4h-.13ZM226.52,464.17h0c-.77,0-1.53,0-2.17-.38s-1.28-.51-1.66-.89h0l.64-1.4c.38.26.89.51,1.4.77.51.26,1.15.26,1.79.26h0c.51,0,.89,0,1.28-.13s.51-.26.64-.38c.13-.26.26-.38.26-.64h0c0-.26,0-.51-.38-.77l-.77-.38c-.38,0-.77-.26-1.15-.26s-.77-.26-1.28-.38c-.38,0-.77-.26-1.15-.51s-.64-.51-.77-.77c-.26-.38-.38-.77-.38-1.28h0c0-.51.13-1.02.38-1.4.26-.38.77-.77,1.28-1.02.64-.26,1.28-.38,2.17-.38h0c.64,0,1.15,0,1.79.26.51.13,1.02.38,1.53.64h0l-.51,1.4c-.38-.26-.89-.51-1.28-.51-.51,0-.89-.13-1.28-.13h0c-.51,0-.89,0-1.28.13-.26,0-.51.26-.64.51s-.26.38-.26.64h0c0,.26,0,.51.26.77l.77.38c.38,0,.77.26,1.15.26s.77.26,1.28.38c.38,0,.77.26,1.15.51s.64.51.77.77c.26.38.26.77.26,1.28h0c0,.51-.13,1.02-.38,1.4-.26.38-.77.77-1.28,1.02-.64.26-1.28.38-2.17.38v-.13ZM238.65,464.05h-1.79v-8.17h-3.19v-1.53h8.17v1.53h-3.19v8.17ZM247.59,464.05h-1.79v-9.7h3.96c.89,0,1.53.13,2.17.38s1.02.64,1.4,1.15c.38.51.51,1.15.51,1.79h0c0,.77-.13,1.28-.51,1.79s-.77.89-1.4,1.15-1.4.38-2.17.38h-2.94l.77-.77v3.83ZM254.1,464.05h-1.92l-2.43-3.45h1.92l2.43,3.45ZM247.59,454.98v5.62l-.77-.89h2.94c.77,0,1.4-.13,1.79-.51.38-.38.64-.77.64-1.4h0c0-.64-.26-1.15-.64-1.4-.38-.38-1.02-.51-1.79-.51h-2.94l.77-.89ZM262.65,464.17h0c-1.28,0-2.43-.38-3.06-1.15-.77-.77-1.15-1.79-1.15-3.19h0v-5.49h1.79v5.36c0,1.02.26,1.66.64,2.17s1.02.64,1.79.64h0c.77,0,1.4-.26,1.79-.64.38-.51.64-1.15.64-2.17h0v-5.36h1.79v5.49c0,1.4-.38,2.43-1.15,3.19s-1.79,1.15-3.06,1.15ZM276.57,464.17h0c-.77,0-1.4,0-2.04-.38-.64-.26-1.15-.64-1.66-1.02s-.77-1.02-1.02-1.53c-.26-.64-.38-1.28-.38-2.04h0c0-.77.13-1.4.38-2.04.26-.64.64-1.15,1.15-1.53s1.02-.77,1.66-1.02,1.28-.38,2.04-.38h0c.77,0,1.53.13,2.17.38s1.15.64,1.66,1.15h0l-1.15,1.15c-.38-.38-.77-.64-1.15-.89s-.89-.26-1.4-.26h0c-.51,0-1.02,0-1.4.26-.38.13-.77.38-1.15.64-.26.26-.51.64-.77,1.02-.13.38-.26.89-.26,1.4h0c0,.51,0,.89.26,1.4.13.38.38.77.77,1.02.26.26.64.51,1.15.64.38.13.89.26,1.4.26h0c.51,0,1.02,0,1.4-.26.38-.13.77-.51,1.15-.89h0l1.15,1.15c-.51.51-1.02.89-1.66,1.15s-1.4.38-2.17.38l-.13.26ZM288.45,464.05h-1.79v-8.17h-3.19v-1.53h8.17v1.53h-3.19v8.17ZM299.81,464.17h0c-1.28,0-2.43-.38-3.06-1.15-.77-.77-1.15-1.79-1.15-3.19h0v-5.49h1.79v5.36c0,1.02.26,1.66.64,2.17s1.02.64,1.79.64h0c.77,0,1.4-.26,1.79-.64.38-.51.64-1.15.64-2.17h0v-5.36h1.79v5.49c0,1.4-.38,2.43-1.15,3.19s-1.79,1.15-3.06,1.15ZM310.92,464.05h-1.79v-9.7h3.96c.89,0,1.53.13,2.17.38s1.02.64,1.4,1.15c.38.51.51,1.15.51,1.79h0c0,.77-.13,1.28-.51,1.79s-.77.89-1.4,1.15-1.4.38-2.17.38h-2.94l.77-.77v3.83ZM317.43,464.05h-1.92l-2.43-3.45h1.92l2.43,3.45ZM310.92,454.98v5.62l-.77-.89h2.94c.77,0,1.4-.13,1.79-.51.38-.38.64-.77.64-1.4h0c0-.64-.26-1.15-.64-1.4-.38-.38-1.02-.51-1.79-.51h-2.94l.77-.89ZM323.56,459.83v-1.53h4.85v1.53h-4.85ZM323.69,455.87v6.64h5.49v1.53h-7.28v-9.7h7.02v1.53h-5.24ZM341.95,464.05h-1.79v-9.7h3.96c.89,0,1.53.13,2.17.38s1.15.64,1.4,1.15c.38.51.51,1.15.51,1.79h0c0,.77-.13,1.28-.51,1.79s-.77.89-1.4,1.15-1.4.38-2.17.38h-2.94l.77-.89v3.96ZM341.95,454.98v5.62l-.77-.89h2.94c.77,0,1.4-.13,1.79-.51.38-.38.64-.77.64-1.4h0c0-.64-.26-1.15-.64-1.4-.38-.38-1.02-.51-1.79-.51h-2.94l.77-.89ZM354.59,464.05h-1.79v-9.7h3.96c.89,0,1.53.13,2.17.38s1.15.64,1.4,1.15c.38.51.51,1.15.51,1.79h0c0,.77-.13,1.28-.51,1.79s-.77.89-1.4,1.15-1.4.38-2.17.38h-2.94l.77-.77v3.83ZM361.11,464.05h-1.92l-2.43-3.45h1.92l2.43,3.45ZM354.59,454.98v5.62l-.77-.89h2.94c.77,0,1.4-.13,1.79-.51.38-.38.64-.77.64-1.4h0c0-.64-.26-1.15-.64-1.4-.38-.38-1.02-.51-1.79-.51h-2.94l.77-.89ZM370.04,464.17h0c-.77,0-1.4,0-2.04-.38-.64-.26-1.15-.64-1.66-1.02s-.89-1.02-1.15-1.53c-.26-.64-.38-1.28-.38-2.04h0c0-.77,0-1.4.38-2.04.26-.64.64-1.15,1.15-1.53s1.02-.77,1.66-1.02,1.28-.38,2.04-.38h0c.77,0,1.4,0,2.04.38.64.26,1.15.64,1.66,1.02s.89,1.02,1.15,1.53c.26.64.38,1.28.38,2.04h0c0,.77-.13,1.4-.38,2.04s-.64,1.15-1.15,1.53-1.02.77-1.66,1.02-1.28.38-2.04.38ZM370.04,462.64h0c.51,0,.89,0,1.4-.26.38-.13.77-.38,1.02-.77.26-.26.51-.64.77-1.02.13-.38.26-.89.26-1.4h0c0-.51,0-.89-.26-1.4-.13-.38-.38-.77-.77-1.02-.26-.26-.64-.51-1.02-.77-.38-.13-.89-.26-1.4-.26h0c-.51,0-.89,0-1.4.26-.38.13-.77.38-1.02.77-.26.26-.51.64-.77,1.02s-.26.89-.26,1.4h0c0,.51,0,.89.26,1.4s.38.77.77,1.02c.26.26.64.51,1.02.77.38.13.89.26,1.4.26ZM383.58,464.05h-1.79v-8.17h-3.19v-1.53h8.17v1.53h-3.19v8.17ZM395.2,464.17h0c-.77,0-1.4,0-2.04-.38-.64-.26-1.15-.64-1.66-1.02s-.89-1.02-1.15-1.53c-.26-.64-.38-1.28-.38-2.04h0c0-.77,0-1.4.38-2.04.26-.64.64-1.15,1.15-1.53s1.02-.77,1.66-1.02,1.28-.38,2.04-.38h0c.77,0,1.4,0,2.04.38.64.26,1.15.64,1.66,1.02s.89,1.02,1.15,1.53c.26.64.38,1.28.38,2.04h0c0,.77-.13,1.4-.38,2.04s-.64,1.15-1.15,1.53-1.02.77-1.66,1.02-1.28.38-2.04.38ZM395.2,462.64h0c.51,0,.89,0,1.4-.26.38-.13.77-.38,1.02-.77.26-.26.51-.64.77-1.02.13-.38.26-.89.26-1.4h0c0-.51,0-.89-.26-1.4-.13-.38-.38-.77-.77-1.02-.26-.26-.64-.51-1.02-.77-.38-.13-.89-.26-1.4-.26h0c-.51,0-.89,0-1.4.26-.38.13-.77.38-1.02.77-.26.26-.51.64-.77,1.02s-.26.89-.26,1.4h0c0,.51,0,.89.26,1.4s.38.77.77,1.02c.26.26.64.51,1.02.77.38.13.89.26,1.4.26ZM409.37,464.17h0c-.77,0-1.4,0-2.04-.38-.64-.26-1.15-.64-1.66-1.02-.51-.38-.89-1.02-1.15-1.53-.26-.64-.38-1.28-.38-2.04h0c0-.77,0-1.4.38-2.04.26-.64.64-1.15,1.15-1.53s1.02-.77,1.66-1.02,1.28-.38,2.04-.38h0c.77,0,1.53.13,2.17.38s1.15.64,1.66,1.15h0l-1.15,1.15c-.38-.38-.77-.64-1.15-.89s-.89-.26-1.4-.26h0c-.51,0-1.02,0-1.4.26-.38.13-.77.38-1.15.64-.26.26-.51.64-.77,1.02-.13.38-.26.89-.26,1.4h0c0,.51,0,.89.26,1.4.13.38.38.77.77,1.02.26.26.64.51,1.15.64.38.13.89.26,1.4.26h0c.51,0,1.02,0,1.4-.26.38-.13.77-.51,1.15-.89h0l1.15,1.15c-.51.51-1.02.89-1.66,1.15s-1.4.38-2.17.38v.26ZM422.14,464.17h0c-.77,0-1.4,0-2.04-.38-.64-.26-1.15-.64-1.66-1.02s-.89-1.02-1.15-1.53c-.26-.64-.38-1.28-.38-2.04h0c0-.77,0-1.4.38-2.04.26-.64.64-1.15,1.15-1.53s1.02-.77,1.66-1.02,1.28-.38,2.04-.38h0c.77,0,1.4,0,2.04.38.64.26,1.15.64,1.66,1.02s.89,1.02,1.15,1.53c.26.64.38,1.28.38,2.04h0c0,.77-.13,1.4-.38,2.04s-.64,1.15-1.15,1.53-1.02.77-1.66,1.02-1.28.38-2.04.38ZM422.14,462.64h0c.51,0,.89,0,1.4-.26.38-.13.77-.38,1.02-.77.26-.26.51-.64.64-1.02s.26-.89.26-1.4h0c0-.51,0-.89-.26-1.4-.13-.38-.38-.77-.64-1.02s-.64-.51-1.02-.77c-.38-.13-.89-.26-1.4-.26h0c-.51,0-.89,0-1.4.26-.38.13-.77.38-1.02.77-.26.26-.51.64-.77,1.02-.13.38-.26.89-.26,1.4h0c0,.51,0,.89.26,1.4.13.38.38.77.77,1.02.26.26.64.51,1.02.77.38.13.89.26,1.4.26ZM438.74,464.05h-6.9v-9.7h1.79v8.17h5.11v1.53h0Z"/>
          <path class="cls-2" d="M134.83,444.38h-23.5c-1.28,0-2.3-.26-3.32-.89-1.02-.64-1.79-1.4-2.43-2.43-.64-1.02-.89-2.17-.89-3.32h0v-23.62c0-1.28.26-2.3.89-3.32.64-1.02,1.4-1.79,2.43-2.43,1.02-.64,2.17-.89,3.32-.89h23.5c1.28,0,2.3.26,3.45.89,1.02.64,1.79,1.4,2.43,2.43.64,1.02.89,2.17.89,3.32h0v2.17h-5.62v-2.04c0-.38,0-.64-.38-.89-.26-.26-.51-.38-.89-.38h-23.24c-.38,0-.64,0-.89.38-.26.26-.38.51-.38.89h0v23.24c0,.38.13.64.38.89.26.26.51.38.89.38h23.24c.38,0,.64,0,.89-.38.26-.26.38-.51.38-.89h0v-7.79h-8.68v-5.62h14.3v13.54c0,1.28-.26,2.3-.89,3.32s-1.4,1.79-2.43,2.43-2.17.89-3.45.89h0v.13ZM181.82,444.38h-23.62c-1.28,0-2.3-.26-3.32-.89-1.02-.64-1.79-1.4-2.43-2.43-.64-1.02-.89-2.17-.89-3.32h0v-10.98h24.65v-5.24c0-.38,0-.64-.38-.89-.26-.26-.51-.38-.89-.38h-23.5v-5.49h23.62c1.28,0,2.3.26,3.32.89,1.02.64,1.79,1.4,2.43,2.43.64,1.02.89,2.17.89,3.32h0v23.11l.13-.13ZM158.33,438.76h17.88v-6.9h-19.15v5.62c0,.38,0,.64.38.89.26.26.51.38.89.38ZM196.25,444.38h-5.62v-29.75h38.05c1.28,0,2.43.26,3.45.89,1.02.64,1.79,1.4,2.43,2.43.64,1.02.89,2.04.89,3.32h0v23.11h-5.49v-22.86c0-.38,0-.64-.38-.89-.26-.26-.51-.38-.89-.38h-11.49c-.38,0-.64,0-.89.38-.26.26-.38.51-.38.89h0v22.86h-5.62v-22.86c0-.38-.13-.64-.38-.89-.26-.26-.51-.38-.89-.38h-11.49c-.38,0-.64,0-.89.38-.26.26-.38.51-.38.89h0v22.86h0ZM251.16,444.38h0c-1.28,0-2.3-.26-3.32-.89-1.02-.64-1.79-1.4-2.43-2.43-.64-1.02-.89-2.17-.89-3.32h0v-16.34c0-1.28.26-2.3.89-3.32s1.4-1.79,2.43-2.43c1.02-.64,2.04-.89,3.32-.89h16.98c1.28,0,2.3.26,3.32.89,1.02.64,1.79,1.4,2.43,2.43.64,1.02.89,2.17.89,3.32h0v10.98h-24.77v5.24c0,.38.13.64.38.89.26.26.51.38.89.38h23.5v5.49h-23.62ZM250.01,421.4v5.62h19.15v-5.62c0-.38,0-.64-.38-.89-.26-.26-.51-.38-.89-.38h-16.6c-.38,0-.64,0-.89.38-.26.26-.38.51-.38.89h0ZM285,444.38h0v-36.9h28.73c1.15,0,2.3.26,3.32.89,1.02.64,1.79,1.4,2.43,2.43.64,1.02.89,2.17.89,3.32h0v7.53c0,.38,0,.89-.13,1.28,0,.38-.26.89-.38,1.28h0c.64.89,1.15,1.92,1.53,2.68.38.89.51,1.66.51,2.55h0v8.3c0,1.28-.26,2.3-.89,3.32s-1.4,1.79-2.43,2.43-2.17.89-3.45.89h-30.26.13ZM291.9,438.76h23.24c.38,0,.64,0,.89-.38.26-.26.38-.51.38-.89h0v-7.92c0-.38,0-.64-.38-.89-.26-.26-.51-.38-.89-.38h-23.24c-.38,0-.64.13-.89.38s-.38.51-.38.89h0v7.92c0,.38.13.64.38.89.26.26.51.38.89.38ZM291.9,422.8h21.71c.38,0,.64-.13.89-.38s.38-.51.38-.89h0v-7.28c0-.38,0-.64-.38-.89-.26-.26-.51-.38-.89-.38h-21.71c-.38,0-.64,0-.89.38-.26.26-.38.51-.38.89h0v7.28c0,.38.13.64.38.89.26.26.51.38.89.38ZM338.63,444.38h0c-1.28,0-2.3-.26-3.32-.89-1.02-.64-1.79-1.4-2.43-2.43-.64-1.02-.89-2.17-.89-3.32h0v-23.11h5.49v22.86c0,.38.13.64.38.89.26.26.51.38.89.38h16.6c.38,0,.64,0,.89-.38.26-.26.38-.51.38-.89h0v-22.86h5.49v23.11c0,1.28-.26,2.3-.89,3.32s-1.4,1.79-2.43,2.43-2.17.89-3.32.89h-16.98.13ZM377.71,444.38h-5.49v-29.75h5.49v29.75ZM377.71,410.42h-5.49v-5.49h5.49v5.49ZM395.07,444.38h0c-1.28,0-2.3-.26-3.32-.89-1.02-.64-1.79-1.4-2.43-2.43-.64-1.02-.89-2.17-.89-3.32h0v-32.82h5.49v32.69c0,.38.13.64.38.89.26.26.51.38.89.38h5.36v5.49h-5.49ZM415.12,444.38h0c-1.28,0-2.3-.26-3.32-.89-1.02-.64-1.79-1.4-2.43-2.43-.64-1.02-.89-2.17-.89-3.32h0v-16.34c0-1.28.26-2.3.89-3.32s1.4-1.79,2.43-2.43c1.02-.64,2.17-.89,3.32-.89h18v-9.7h5.49v39.46h-23.62l.13-.13ZM415.38,438.76h16.6c.38,0,.64,0,.89-.38.26-.26.38-.51.38-.89h0v-16.09c0-.38,0-.64-.38-.89-.26-.26-.51-.38-.89-.38h-16.6c-.38,0-.64,0-.89.38-.26.26-.38.51-.38.89h0v16.09c0,.38.13.64.38.89.26.26.51.38.89.38Z"/>
        </g>
      </g>
    </g>
  </g>
</svg>