<?xml version="1.0" encoding="UTF-8"?>
<svg id="Layer_2" xmlns="http://www.w3.org/2000/svg" xmlns:xlink="http://www.w3.org/1999/xlink" viewBox="0 0 508.6 508.6">
  <defs>
    <style>
      .cls-1 {
        fill: url(#linear-gradient-2);
      }

      .cls-2 {
        fill: #fff;
      }

      .cls-3 {
        fill: url(#linear-gradient-4);
      }

      .cls-4 {
        fill: url(#linear-gradient-3);
      }

      .cls-5 {
        fill: url(#linear-gradient);
      }
    </style>
    <linearGradient id="linear-gradient" x1="122.11" y1="-3151.2" x2="388.63" y2="-3151.2" gradientTransform="translate(0 -2755.14) scale(1 -1)" gradientUnits="userSpaceOnUse">
      <stop offset="0" stop-color="#9e3afc"/>
      <stop offset="1" stop-color="#00f2ef"/>
    </linearGradient>
    <linearGradient id="linear-gradient-2" x1="122.21" y1="-3123.65" x2="388.53" y2="-3123.65" xlink:href="#linear-gradient"/>
    <linearGradient id="linear-gradient-3" x1="205.05" y1="313.32" x2="388.22" y2="148.39" gradientUnits="userSpaceOnUse">
      <stop offset="0" stop-color="#9e3afc"/>
      <stop offset="1" stop-color="#00e6e4"/>
    </linearGradient>
    <linearGradient id="linear-gradient-4" x1="133.62" y1="295.09" x2="317.63" y2="129.41" xlink:href="#linear-gradient-3"/>
  </defs>
  <g id="logo">
    <g>
      <circle class="cls-2" cx="254.3" cy="254.3" r="254.3"/>
      <g>
        <path class="cls-5" d="M126.28,399.98h0c-.61,0-1.12,0-1.63-.31-.51-.2-.92-.51-1.32-.81s-.71-.81-.92-1.22c-.2-.51-.31-1.02-.31-1.63h0c0-.61,0-1.12.31-1.63.2-.51.51-.92.92-1.22s.81-.61,1.32-.81,1.02-.31,1.63-.31h0c.61,0,1.22.1,1.73.31s.92.51,1.32.92h0l-.92.92c-.31-.31-.61-.51-1.02-.71-.31-.1-.71-.2-1.12-.2h0c-.41,0-.81,0-1.12.2-.31.1-.61.31-.92.51-.2.2-.41.51-.61.81-.1.31-.2.71-.2,1.12h0c0,.41,0,.71.2,1.12.1.31.31.61.61.81.2.2.51.41.92.61.31.1.71.2,1.12.2h0c.41,0,.71,0,1.12-.2.41-.1.71-.31,1.02-.61h0l.81,1.12c-.41.31-.92.61-1.43.71-.51.2-1.12.2-1.63.2l.1.1ZM129.34,398.96l-1.32-.2v-2.85h1.32v3.06ZM133.62,399.88h-1.43l3.46-7.74h1.43l3.46,7.74h-1.53l-2.95-6.93h.61l-2.95,6.93h-.1ZM138.71,398.05h-4.89l.41-1.12h4.18l.41,1.12h-.1ZM144.92,399.88h-1.32v-7.74h1.22l3.36,5.6h-.61l3.36-5.6h1.22v7.74h-1.32v-5.6h.31l-2.85,4.68h-.61l-2.85-4.68h.31v5.6h-.2ZM157.55,396.52v-1.22h3.87v1.22h-3.87ZM157.65,393.36v5.3h4.38v1.22h-5.8v-7.74h5.6v1.22h-4.18ZM172.21,399.88h-1.43v-7.74h1.43v7.74ZM177.81,399.88h-1.43v-7.74h1.22l4.79,5.91h-.61v-5.91h1.43v7.74h-1.22l-4.89-5.91h.61v5.91h.1ZM188.71,396.93v-1.22h3.87v1.22h-3.87ZM188.81,393.36v6.52h-1.43v-7.74h5.6v1.22h-4.18ZM197.98,399.88h-1.43v-7.74h3.16c.71,0,1.22.1,1.73.31s.81.51,1.12.92.41.92.41,1.43h0c0,.61-.1,1.02-.41,1.43-.31.41-.61.71-1.12.92s-1.12.31-1.73.31h-2.34l.61-.61v3.06ZM203.07,399.88h-1.53l-1.93-2.75h1.53l1.93,2.75ZM197.98,392.65v4.48l-.61-.71h2.34c.61,0,1.12-.1,1.43-.41.31-.31.51-.61.51-1.12h0c0-.51-.2-.92-.51-1.12-.31-.31-.81-.41-1.43-.41h-2.34l.61-.71ZM207.04,399.88h-1.43l3.46-7.74h1.43l3.46,7.74h-1.53l-2.95-6.93h.61l-2.95,6.93h-.1ZM212.14,398.05h-4.89l.41-1.12h4.18l.41,1.12h-.1ZM219.37,399.98h0c-.61,0-1.22,0-1.73-.31s-1.02-.41-1.32-.71h0l.51-1.12c.31.2.71.41,1.12.61.41.2.92.2,1.43.2h0c.41,0,.71,0,1.02-.1s.41-.2.51-.31c.1-.2.2-.31.2-.51h0c0-.2,0-.41-.31-.61-.2-.1-.41-.2-.61-.31-.31,0-.61-.2-.92-.2s-.61-.2-1.02-.31c-.31,0-.61-.2-.92-.41-.31-.2-.51-.41-.61-.61-.2-.31-.31-.61-.31-1.02h0c0-.41.1-.81.31-1.12s.61-.61,1.02-.81c.51-.2,1.02-.31,1.73-.31h0c.51,0,.92,0,1.43.2.41.1.81.31,1.22.51h0l-.41,1.12c-.31-.2-.71-.41-1.02-.41-.41,0-.71-.1-1.02-.1h0c-.41,0-.71,0-1.02.1-.2,0-.41.2-.51.41s-.2.31-.2.51h0c0,.2,0,.41.2.61.2.1.41.2.61.31.31,0,.61.2.92.2s.61.2,1.02.31c.31,0,.61.2.92.41.31.2.51.41.61.61.2.31.2.61.2,1.02h0c0,.41-.1.81-.31,1.12s-.61.61-1.02.81c-.51.2-1.02.31-1.73.31v-.1ZM229.04,399.88h-1.43v-6.52h-2.55v-1.22h6.52v1.22h-2.55v6.52ZM236.17,399.88h-1.43v-7.74h3.16c.71,0,1.22.1,1.73.31s.81.51,1.12.92.41.92.41,1.43h0c0,.61-.1,1.02-.41,1.43-.31.41-.61.71-1.12.92s-1.12.31-1.73.31h-2.34l.61-.61v3.06ZM241.36,399.88h-1.53l-1.93-2.75h1.53l1.93,2.75ZM236.17,392.65v4.48l-.61-.71h2.34c.61,0,1.12-.1,1.43-.41.31-.31.51-.61.51-1.12h0c0-.51-.2-.92-.51-1.12-.31-.31-.81-.41-1.43-.41h-2.34l.61-.71ZM248.19,399.98h0c-1.02,0-1.93-.31-2.44-.92-.61-.61-.92-1.43-.92-2.55h0v-4.38h1.43v4.28c0,.81.2,1.32.51,1.73s.81.51,1.43.51h0c.61,0,1.12-.2,1.43-.51.31-.41.51-.92.51-1.73h0v-4.28h1.43v4.38c0,1.12-.31,1.94-.92,2.55-.61.61-1.43.92-2.44.92ZM259.19,399.98h0c-.61,0-1.12,0-1.63-.31-.51-.2-.92-.51-1.32-.81-.41-.31-.61-.81-.81-1.22-.2-.51-.31-1.02-.31-1.63h0c0-.61.1-1.12.31-1.63s.51-.92.92-1.22.81-.61,1.32-.81,1.02-.31,1.63-.31h0c.61,0,1.22.1,1.73.31s.92.51,1.32.92h0l-.92.92c-.31-.31-.61-.51-.92-.71-.31-.2-.71-.2-1.12-.2h0c-.41,0-.81,0-1.12.2-.31.1-.61.31-.92.51-.2.2-.41.51-.61.81-.1.31-.2.71-.2,1.12h0c0,.41,0,.71.2,1.12.1.31.31.61.61.81.2.2.51.41.92.51.31.1.71.2,1.12.2h0c.41,0,.81,0,1.12-.2.31-.1.61-.41.92-.71h0l.92.92c-.41.41-.81.71-1.32.92s-1.12.31-1.73.31l-.1.2ZM268.76,399.88h-1.43v-6.52h-2.55v-1.22h6.52v1.22h-2.55v6.52ZM277.82,399.98h0c-1.02,0-1.93-.31-2.44-.92-.61-.61-.92-1.43-.92-2.55h0v-4.38h1.43v4.28c0,.81.2,1.32.51,1.73s.81.51,1.43.51h0c.61,0,1.12-.2,1.43-.51.31-.41.51-.92.51-1.73h0v-4.28h1.43v4.38c0,1.12-.31,1.94-.92,2.55-.61.61-1.43.92-2.44.92ZM286.68,399.88h-1.43v-7.74h3.16c.71,0,1.22.1,1.73.31s.81.51,1.12.92.41.92.41,1.43h0c0,.61-.1,1.02-.41,1.43-.31.41-.61.71-1.12.92s-1.12.31-1.73.31h-2.34l.61-.61v3.06ZM291.88,399.88h-1.53l-1.93-2.75h1.53l1.93,2.75ZM286.68,392.65v4.48l-.61-.71h2.34c.61,0,1.12-.1,1.43-.41.31-.31.51-.61.51-1.12h0c0-.51-.2-.92-.51-1.12-.31-.31-.81-.41-1.43-.41h-2.34l.61-.71ZM296.77,396.52v-1.22h3.87v1.22h-3.87ZM296.87,393.36v5.3h4.38v1.22h-5.8v-7.74h5.6v1.22h-4.18ZM311.43,399.88h-1.43v-7.74h3.16c.71,0,1.22.1,1.73.31s.92.51,1.12.92c.31.41.41.92.41,1.43h0c0,.61-.1,1.02-.41,1.43-.31.41-.61.71-1.12.92s-1.12.31-1.73.31h-2.34l.61-.71v3.16ZM311.43,392.65v4.48l-.61-.71h2.34c.61,0,1.12-.1,1.43-.41.31-.31.51-.61.51-1.12h0c0-.51-.2-.92-.51-1.12-.31-.31-.81-.41-1.43-.41h-2.34l.61-.71ZM321.51,399.88h-1.43v-7.74h3.16c.71,0,1.22.1,1.73.31s.92.51,1.12.92c.31.41.41.92.41,1.43h0c0,.61-.1,1.02-.41,1.43-.31.41-.61.71-1.12.92s-1.12.31-1.73.31h-2.34l.61-.61v3.06ZM326.71,399.88h-1.53l-1.93-2.75h1.53l1.93,2.75ZM321.51,392.65v4.48l-.61-.71h2.34c.61,0,1.12-.1,1.43-.41.31-.31.51-.61.51-1.12h0c0-.51-.2-.92-.51-1.12-.31-.31-.81-.41-1.43-.41h-2.34l.61-.71ZM333.84,399.98h0c-.61,0-1.12,0-1.63-.31-.51-.2-.92-.51-1.32-.81-.41-.31-.71-.81-.92-1.22-.2-.51-.31-1.02-.31-1.63h0c0-.61,0-1.12.31-1.63.2-.51.51-.92.92-1.22s.81-.61,1.32-.81,1.02-.31,1.63-.31h0c.61,0,1.12,0,1.63.31.51.2.92.51,1.32.81.41.31.71.81.92,1.22.2.51.31,1.02.31,1.63h0c0,.61-.1,1.12-.31,1.63s-.51.92-.92,1.22-.81.61-1.32.81-1.02.31-1.63.31ZM333.84,398.76h0c.41,0,.71,0,1.12-.2.31-.1.61-.31.81-.61.2-.2.41-.51.61-.81.1-.31.2-.71.2-1.12h0c0-.41,0-.71-.2-1.12-.1-.31-.31-.61-.61-.81-.2-.2-.51-.41-.81-.61-.31-.1-.71-.2-1.12-.2h0c-.41,0-.71,0-1.12.2-.31.1-.61.31-.81.61-.2.2-.41.51-.61.81s-.2.71-.2,1.12h0c0,.41,0,.71.2,1.12s.31.61.61.81c.2.2.51.41.81.61.31.1.71.2,1.12.2ZM344.63,399.88h-1.43v-6.52h-2.55v-1.22h6.52v1.22h-2.55v6.52ZM353.9,399.98h0c-.61,0-1.12,0-1.63-.31-.51-.2-.92-.51-1.32-.81-.41-.31-.71-.81-.92-1.22-.2-.51-.31-1.02-.31-1.63h0c0-.61,0-1.12.31-1.63.2-.51.51-.92.92-1.22s.81-.61,1.32-.81,1.02-.31,1.63-.31h0c.61,0,1.12,0,1.63.31.51.2.92.51,1.32.81.41.31.71.81.92,1.22.2.51.31,1.02.31,1.63h0c0,.61-.1,1.12-.31,1.63s-.51.92-.92,1.22-.81.61-1.32.81-1.02.31-1.63.31ZM353.9,398.76h0c.41,0,.71,0,1.12-.2.31-.1.61-.31.81-.61.2-.2.41-.51.61-.81.1-.31.2-.71.2-1.12h0c0-.41,0-.71-.2-1.12-.1-.31-.31-.61-.61-.81-.2-.2-.51-.41-.81-.61-.31-.1-.71-.2-1.12-.2h0c-.41,0-.71,0-1.12.2-.31.1-.61.31-.81.61-.2.2-.41.51-.61.81s-.2.71-.2,1.12h0c0,.41,0,.71.2,1.12s.31.61.61.81c.2.2.51.41.81.61.31.1.71.2,1.12.2ZM365.2,399.98h0c-.61,0-1.12,0-1.63-.31-.51-.2-.92-.51-1.32-.81-.41-.31-.71-.81-.92-1.22-.2-.51-.31-1.02-.31-1.63h0c0-.61,0-1.12.31-1.63.2-.51.51-.92.92-1.22s.81-.61,1.32-.81,1.02-.31,1.63-.31h0c.61,0,1.22.1,1.73.31s.92.51,1.32.92h0l-.92.92c-.31-.31-.61-.51-.92-.71-.31-.2-.71-.2-1.12-.2h0c-.41,0-.81,0-1.12.2-.31.1-.61.31-.92.51-.2.2-.41.51-.61.81-.1.31-.2.71-.2,1.12h0c0,.41,0,.71.2,1.12.1.31.31.61.61.81.2.2.51.41.92.51.31.1.71.2,1.12.2h0c.41,0,.81,0,1.12-.2.31-.1.61-.41.92-.71h0l.92.92c-.41.41-.81.71-1.32.92s-1.12.31-1.73.31v.2ZM375.39,399.98h0c-.61,0-1.12,0-1.63-.31-.51-.2-.92-.51-1.32-.81-.41-.31-.71-.81-.92-1.22-.2-.51-.31-1.02-.31-1.63h0c0-.61,0-1.12.31-1.63.2-.51.51-.92.92-1.22s.81-.61,1.32-.81,1.02-.31,1.63-.31h0c.61,0,1.12,0,1.63.31.51.2.92.51,1.32.81.41.31.71.81.92,1.22.2.51.31,1.02.31,1.63h0c0,.61-.1,1.12-.31,1.63s-.51.92-.92,1.22-.81.61-1.32.81-1.02.31-1.63.31ZM375.39,398.76h0c.41,0,.71,0,1.12-.2.31-.1.61-.31.81-.61.2-.2.41-.51.51-.81s.2-.71.2-1.12h0c0-.41,0-.71-.2-1.12-.1-.31-.31-.61-.51-.81s-.51-.41-.81-.61c-.31-.1-.71-.2-1.12-.2h0c-.41,0-.71,0-1.12.2-.31.1-.61.31-.81.61-.2.2-.41.51-.61.81-.1.31-.2.71-.2,1.12h0c0,.41,0,.71.2,1.12.1.31.31.61.61.81.2.2.51.41.81.61.31.1.71.2,1.12.2ZM388.63,399.88h-5.5v-7.74h1.43v6.52h4.07v1.22h0Z"/>
        <path class="cls-1" d="M146.24,384.2h-18.74c-1.02,0-1.83-.2-2.65-.71-.81-.51-1.43-1.12-1.94-1.94-.51-.81-.71-1.73-.71-2.65h0v-18.84c0-1.02.2-1.83.71-2.65.51-.81,1.12-1.43,1.94-1.94s1.73-.71,2.65-.71h18.74c1.02,0,1.83.2,2.75.71.81.51,1.43,1.12,1.94,1.94.51.81.71,1.73.71,2.65h0v1.73h-4.48v-1.63c0-.31,0-.51-.31-.71-.2-.2-.41-.31-.71-.31h-18.54c-.31,0-.51,0-.71.31-.2.2-.31.41-.31.71h0v18.54c0,.31.1.51.31.71.2.2.41.31.71.31h18.54c.31,0,.51,0,.71-.31.2-.2.31-.41.31-.71h0v-6.21h-6.93v-4.48h11.41v10.8c0,1.02-.2,1.83-.71,2.65s-1.12,1.43-1.94,1.94-1.73.71-2.75.71h0v.1ZM183.72,384.2h-18.84c-1.02,0-1.83-.2-2.65-.71-.81-.51-1.43-1.12-1.94-1.94-.51-.81-.71-1.73-.71-2.65h0v-8.76h19.66v-4.18c0-.31,0-.51-.31-.71-.2-.2-.41-.31-.71-.31h-18.74v-4.38h18.84c1.02,0,1.83.2,2.65.71s1.43,1.12,1.93,1.94c.51.81.71,1.73.71,2.65h0v18.43l.1-.1ZM164.98,379.71h14.26v-5.5h-15.28v4.48c0,.31,0,.51.31.71.2.2.41.31.71.31h0ZM195.23,384.2h-4.48v-23.73h30.35c1.02,0,1.93.2,2.75.71s1.43,1.12,1.93,1.94c.51.81.71,1.63.71,2.65h0v18.43h-4.38v-18.23c0-.31,0-.51-.31-.71-.2-.2-.41-.31-.71-.31h-9.17c-.31,0-.51,0-.71.31-.2.2-.31.41-.31.71h0v18.23h-4.48v-18.23c0-.31-.1-.51-.31-.71s-.41-.31-.71-.31h-9.17c-.31,0-.51,0-.71.31-.2.2-.31.41-.31.71h0v18.23ZM239.02,384.2h0c-1.02,0-1.83-.2-2.65-.71s-1.43-1.12-1.93-1.94c-.51-.81-.71-1.73-.71-2.65h0v-13.04c0-1.02.2-1.83.71-2.65s1.12-1.43,1.93-1.94,1.63-.71,2.65-.71h13.54c1.02,0,1.83.2,2.65.71s1.43,1.12,1.93,1.94c.51.81.71,1.73.71,2.65h0v8.76h-19.76v4.18c0,.31.1.51.31.71s.41.31.71.31h18.74v4.38h-18.84ZM238.11,365.86v4.48h15.28v-4.48c0-.31,0-.51-.31-.71-.2-.2-.41-.31-.71-.31h-13.24c-.31,0-.51,0-.71.31-.2.2-.31.41-.31.71h0ZM266.01,384.2h0v-29.43h22.91c.92,0,1.83.2,2.65.71s1.43,1.12,1.93,1.94c.51.81.71,1.73.71,2.65h0v6.01c0,.31,0,.71-.1,1.02,0,.31-.2.71-.31,1.02h0c.51.71.92,1.53,1.22,2.14.31.71.41,1.32.41,2.04h0v6.62c0,1.02-.2,1.83-.71,2.65s-1.12,1.43-1.93,1.94c-.81.51-1.73.71-2.75.71h-24.14.1ZM271.51,379.71h18.54c.31,0,.51,0,.71-.31.2-.2.31-.41.31-.71h0v-6.31c0-.31,0-.51-.31-.71-.2-.2-.41-.31-.71-.31h-18.54c-.31,0-.51.1-.71.31s-.31.41-.31.71h0v6.31c0,.31.1.51.31.71s.41.31.71.31ZM271.51,366.98h17.31c.31,0,.51-.1.71-.31s.31-.41.31-.71h0v-5.8c0-.31,0-.51-.31-.71-.2-.2-.41-.31-.71-.31h-17.31c-.31,0-.51,0-.71.31-.2.2-.31.41-.31.71h0v5.8c0,.31.1.51.31.71s.41.31.71.31ZM308.78,384.2h0c-1.02,0-1.83-.2-2.65-.71s-1.43-1.12-1.93-1.94c-.51-.81-.71-1.73-.71-2.65h0v-18.43h4.38v18.23c0,.31.1.51.31.71s.41.31.71.31h13.24c.31,0,.51,0,.71-.31.2-.2.31-.41.31-.71h0v-18.23h4.38v18.43c0,1.02-.2,1.83-.71,2.65-.51.81-1.12,1.43-1.93,1.94-.81.51-1.73.71-2.65.71h-13.54.1ZM339.95,384.2h-4.38v-23.73h4.38v23.73ZM339.95,357.11h-4.38v-4.38h4.38v4.38ZM353.8,384.2h0c-1.02,0-1.83-.2-2.65-.71s-1.43-1.12-1.93-1.94c-.51-.81-.71-1.73-.71-2.65h0v-26.17h4.38v26.07c0,.31.1.51.31.71s.41.31.71.31h4.28v4.38h-4.38ZM369.79,384.2h0c-1.02,0-1.83-.2-2.65-.71s-1.43-1.12-1.93-1.94c-.51-.81-.71-1.73-.71-2.65h0v-13.04c0-1.02.2-1.83.71-2.65.51-.81,1.12-1.43,1.93-1.94s1.73-.71,2.65-.71h14.36v-7.74h4.38v31.47h-18.84l.1-.1ZM369.99,379.71h13.24c.31,0,.51,0,.71-.31.2-.2.31-.41.31-.71h0v-12.83c0-.31,0-.51-.31-.71-.2-.2-.41-.31-.71-.31h-13.24c-.31,0-.51,0-.71.31-.2.2-.31.41-.31.71h0v12.83c0,.31.1.51.31.71s.41.31.71.31Z"/>
        <g>
          <path class="cls-4" d="M356.13,332.68h-138.09c-4.23,0-7.64-3.41-7.64-7.64s3.41-7.64,7.64-7.64h138.09c9.52,0,17.22-7.7,17.22-17.22v-158.89c0-9.52-7.7-17.22-17.22-17.22h-31.38c-4.58,0-8.99,2.23-11.63,5.93l-30.85,44.89c-.06.12-.12.18-.18.29-4.58,6.11-10.69,12.34-20.74,12.34h-13.4c-9.05,0-17.22-5.05-21.27-13.16l-.18-.35c-1.35-2.7-4.11-4.35-7.4-4.47h-13.46c-3.64-.06-7.11,2.53-8.29,6.17l-22.03,73.39q0,.06-.06.12c-7.58,23.97,2.88,28.09,6.35,29.38,3.94,1.53,5.88,5.99,4.35,9.87-1.53,3.94-5.99,5.88-9.87,4.35-9.75-3.82-15.92-11.16-17.98-21.27-1.53-7.58-.65-16.63,2.64-26.85l22.03-73.39q0-.06.06-.12c3.17-10.11,12.69-17.04,23.03-16.92h13.51c8.99.18,16.98,5.11,20.86,12.87l.18.35c1.47,2.88,4.41,4.7,7.64,4.7h13.22c2.53,0,4.52-.94,8.46-6.17l30.79-44.78c0-.06.06-.06.06-.12,5.58-7.76,14.57-12.4,24.09-12.4h31.44c17.92,0,32.49,14.57,32.49,32.49v158.89c0,17.98-14.57,32.55-32.49,32.55Z"/>
          <path class="cls-3" d="M166.75,332.98h-11.75c-18.1,0-32.79-14.69-32.79-32.79v-158.89c0-18.1,14.69-32.79,32.79-32.79h121.63c4.41,0,7.93,3.53,7.93,7.93s-3.53,7.93-7.93,7.93h-121.69c-9.34,0-16.92,7.58-16.92,16.92v158.89c0,9.34,7.58,16.92,16.92,16.92h11.75c4.41,0,8.58-2.12,11.22-5.58l.06-.06,53.41-69.1c.12-.18.24-.29.35-.41,4.35-4.88,10.64-7.82,17.16-8.05l7.99-.29c8.05-.29,15.63,3.47,20.33,9.93l18.69,25.85c6.4,8.87,18.04,12.34,28.32,8.52l.94-.35c12.4-4.64,18.8-18.57,14.28-31.03l-26.03-72.22c-.71-2.06-2.23-3.7-4.17-4.64-3.94-1.94-5.58-6.64-3.7-10.58,1.94-3.94,6.64-5.58,10.58-3.7,5.7,2.76,9.99,7.58,12.16,13.51l26.21,72.22c3.58,9.99,3.11,20.8-1.29,30.5-4.47,9.64-12.4,17.04-22.33,20.8l-.94.35c-16.92,6.4-36.14.59-46.77-14.04l-18.69-25.85c-1.59-2.23-4.17-3.47-6.93-3.41l-7.99.29c-2.17.06-4.23,1-5.7,2.59l-53.18,68.81c-5.7,7.4-14.63,11.81-23.92,11.81Z"/>
        </g>
      </g>
    </g>
  </g>
</svg>