<?xml version="1.0" encoding="UTF-8"?>
<svg id="_레이어_1" data-name="레이어 1" xmlns="http://www.w3.org/2000/svg" xmlns:xlink="http://www.w3.org/1999/xlink" viewBox="0 0 1000 550">
  <defs>
    <style>
      .cls-1 {
        clip-path: url(#clippath-1);
      }

      .cls-2 {
        fill: #fff;
      }

      .cls-3 {
        clip-path: url(#clippath);
      }
    </style>
    <clipPath id="clippath">
      <path class="cls-2" d="M17.98,540.07h0c-2.25,0-4.32-.36-6.2-1.09-1.86-.73-3.49-1.76-4.91-3.08-1.39-1.33-2.48-2.9-3.25-4.71-.75-1.81-1.13-3.79-1.13-5.93h0c0-2.12.38-4.09,1.13-5.9.77-1.81,1.87-3.38,3.28-4.71,1.41-1.33,3.06-2.35,4.94-3.08,1.9-.73,3.98-1.09,6.23-1.09h0c2.43,0,4.63.4,6.6,1.19,1.94.8,3.59,1.96,4.94,3.48h0l-3.38,3.32c-1.11-1.13-2.31-1.96-3.61-2.49-1.3-.55-2.74-.83-4.31-.83h0c-1.5,0-2.9.25-4.18.76-1.3.49-2.42,1.18-3.35,2.09-.93.91-1.65,1.98-2.15,3.22-.51,1.22-.76,2.56-.76,4.04h0c0,1.46.25,2.81.76,4.04.51,1.24,1.23,2.31,2.15,3.22.93.93,2.02,1.64,3.28,2.12,1.26.51,2.66.76,4.21.76h0c1.41,0,2.78-.23,4.11-.7,1.35-.44,2.62-1.2,3.81-2.29h0l3.05,4.01c-1.5,1.19-3.25,2.1-5.24,2.72-1.99.62-4,.93-6.03.93ZM29.25,536.43l-5.07-.73v-10.74h5.07v11.47ZM45.53,539.68h-5.5l12.96-28.81h5.24l12.99,28.81h-5.57l-11.17-25.96h2.15l-11.11,25.96ZM64.39,533.01h-18.4l1.43-4.21h15.55l1.43,4.21ZM87.8,539.68h-5.11v-28.81h4.41l12.56,21.02h-2.29l12.36-21.02h4.41l.03,28.81h-5.04l-.07-20.85h1.09l-10.54,17.54h-2.39l-10.67-17.54h1.23v20.85ZM134.7,527.24v-4.41h14.32v4.41h-14.32ZM135.1,515.38v19.79h16.24v4.51h-21.58v-28.81h21.02v4.51h-15.68ZM189.63,539.68h-5.34v-28.81h5.34v28.81ZM210.52,539.68h-5.3v-28.81h4.41l18.03,22.18h-2.19v-22.18h5.3v28.81h-4.38l-18.07-22.18h2.19v22.18ZM251.23,528.64v-4.51h14.35v4.51h-14.35ZM251.66,515.38v24.3h-5.34v-28.81h21.02v4.51h-15.68ZM285.67,539.68h-5.34v-28.81h11.83c2.54,0,4.73.42,6.56,1.26,1.81.82,3.22,1.99,4.21,3.51.99,1.55,1.49,3.37,1.49,5.47h0c0,2.12-.5,3.94-1.49,5.47-.99,1.5-2.4,2.66-4.21,3.48-1.83.82-4.02,1.23-6.56,1.23h-8.88l2.39-2.45v10.84ZM304.9,539.68h-5.73l-7.29-10.44h5.73l7.29,10.44ZM285.67,512.76v16.67l-2.39-2.55h8.65c2.34,0,4.11-.51,5.3-1.52,1.19-1.02,1.79-2.43,1.79-4.24h0c0-1.83-.6-3.25-1.79-4.24-1.19-.97-2.96-1.46-5.3-1.46h-8.65l2.39-2.65ZM319.61,539.68h-5.5l12.96-28.81h5.27l12.99,28.81h-5.6l-11.14-25.96h2.12l-11.11,25.96ZM338.51,533.01h-18.43l1.43-4.21h15.55l1.46,4.21ZM365.73,540.07h0c-2.25,0-4.41-.32-6.46-.96-2.06-.64-3.69-1.47-4.91-2.49h0l1.86-4.18c1.15.91,2.57,1.67,4.28,2.29,1.7.6,3.45.9,5.24.9h0c1.5,0,2.72-.17,3.65-.5.93-.33,1.61-.77,2.06-1.33.44-.57.66-1.22.66-1.92h0c0-.88-.32-1.59-.96-2.12-.62-.53-1.43-.95-2.42-1.26-1.02-.31-2.13-.61-3.35-.9-1.22-.27-2.43-.59-3.65-.96-1.22-.38-2.33-.85-3.35-1.43-.99-.6-1.8-1.39-2.42-2.39-.64-.97-.96-2.23-.96-3.78h0c0-1.57.42-2.99,1.26-4.28.84-1.3,2.11-2.35,3.81-3.15,1.72-.77,3.9-1.16,6.53-1.16h0c1.72,0,3.44.22,5.14.66,1.7.44,3.18,1.07,4.44,1.89h0l-1.69,4.14c-1.28-.77-2.61-1.34-3.98-1.69-1.37-.38-2.69-.56-3.94-.56h0c-1.48,0-2.69.18-3.61.53-.93.35-1.6.82-2.02,1.39-.42.57-.63,1.24-.63,1.99h0c0,.86.31,1.57.93,2.12.62.53,1.43.94,2.42,1.23.99.31,2.11.61,3.35.9,1.24.29,2.46.61,3.68.96,1.22.35,2.33.82,3.35,1.39.99.57,1.8,1.36,2.42,2.35.62.99.93,2.24.93,3.75h0c0,1.52-.42,2.94-1.26,4.24-.84,1.3-2.12,2.35-3.85,3.15-1.72.77-3.9,1.16-6.53,1.16ZM401.66,539.68h-5.37v-24.27h-9.51v-4.54h24.4v4.54h-9.51v24.27ZM428.38,539.68h-5.34v-28.81h11.83c2.54,0,4.73.42,6.56,1.26,1.81.82,3.22,1.99,4.21,3.51.97,1.55,1.46,3.37,1.46,5.47h0c0,2.12-.49,3.94-1.46,5.47-.99,1.5-2.4,2.66-4.21,3.48-1.83.82-4.02,1.23-6.56,1.23h-8.88l2.39-2.45v10.84ZM447.61,539.68h-5.74l-7.29-10.44h5.7l7.33,10.44ZM428.38,512.76v16.67l-2.39-2.55h8.62c2.36,0,4.14-.51,5.34-1.52,1.19-1.02,1.79-2.43,1.79-4.24h0c0-1.83-.6-3.25-1.79-4.24-1.19-.97-2.97-1.46-5.34-1.46h-8.62l2.39-2.65ZM473.26,540.07h0c-3.96,0-7.05-1.12-9.28-3.35-2.23-2.21-3.35-5.41-3.35-9.61h0v-16.24h5.37v16.04c0,2.96.63,5.12,1.89,6.46,1.28,1.35,3.08,2.02,5.4,2.02h0c2.34,0,4.14-.67,5.4-2.02,1.26-1.35,1.89-3.5,1.89-6.46h0v-16.04h5.27v16.24c0,4.2-1.13,7.4-3.38,9.61-2.23,2.23-5.3,3.35-9.22,3.35ZM514.47,540.07h0c-2.19,0-4.22-.36-6.1-1.09-1.88-.73-3.51-1.76-4.91-3.08-1.39-1.33-2.46-2.9-3.22-4.71-.77-1.81-1.16-3.79-1.16-5.93h0c0-2.12.39-4.09,1.16-5.9.75-1.81,1.83-3.38,3.25-4.71,1.39-1.33,3.02-2.35,4.87-3.08,1.88-.73,3.92-1.09,6.13-1.09h0c2.36,0,4.52.41,6.46,1.23,1.94.8,3.59,1.99,4.94,3.58h0l-3.48,3.25c-1.04-1.13-2.2-1.97-3.48-2.52-1.28-.57-2.69-.86-4.21-.86h0c-1.5,0-2.87.25-4.11.76-1.26.49-2.34,1.18-3.25,2.09-.93.91-1.65,1.98-2.15,3.22-.51,1.22-.76,2.56-.76,4.04h0c0,1.48.25,2.84.76,4.08.51,1.24,1.23,2.31,2.15,3.22.91.91,1.99,1.6,3.25,2.09,1.24.51,2.61.76,4.11.76h0c1.52,0,2.93-.29,4.21-.86,1.28-.55,2.44-1.4,3.48-2.55h0l3.48,3.28c-1.35,1.57-2.99,2.76-4.94,3.58-1.94.82-4.11,1.23-6.5,1.23ZM550.04,539.68h-5.37v-24.27h-9.51v-4.54h24.4v4.54h-9.51v24.27ZM583.79,540.07h0c-3.96,0-7.05-1.12-9.28-3.35-2.23-2.21-3.35-5.41-3.35-9.61h0v-16.24h5.34v16.04c0,2.96.64,5.12,1.92,6.46,1.28,1.35,3.08,2.02,5.4,2.02h0c2.32,0,4.11-.67,5.37-2.02,1.26-1.35,1.89-3.5,1.89-6.46h0v-16.04h5.27v16.24c0,4.2-1.12,7.4-3.35,9.61-2.23,2.23-5.3,3.35-9.22,3.35ZM617,539.68h-5.34v-28.81h11.83c2.54,0,4.73.42,6.56,1.26,1.81.82,3.22,1.99,4.21,3.51.97,1.55,1.46,3.37,1.46,5.47h0c0,2.12-.49,3.94-1.46,5.47-.99,1.5-2.4,2.66-4.21,3.48-1.83.82-4.02,1.23-6.56,1.23h-8.88l2.39-2.45v10.84ZM636.23,539.68h-5.73l-7.29-10.44h5.7l7.33,10.44ZM617,512.76v16.67l-2.39-2.55h8.62c2.36,0,4.14-.51,5.34-1.52,1.19-1.02,1.79-2.43,1.79-4.24h0c0-1.83-.6-3.25-1.79-4.24-1.19-.97-2.97-1.46-5.34-1.46h-8.62l2.39-2.65ZM654.46,527.24v-4.41h14.29v4.41h-14.29ZM654.86,515.38v19.79h16.24v4.51h-21.58v-28.81h21.02v4.51h-15.68ZM709.39,539.68h-5.37v-28.81h11.83c2.56,0,4.75.42,6.56,1.26,1.83.82,3.24,1.99,4.21,3.51.99,1.55,1.49,3.37,1.49,5.47h0c0,2.12-.5,3.94-1.49,5.47-.97,1.55-2.38,2.73-4.21,3.55-1.81.82-4,1.23-6.56,1.23h-8.85l2.39-2.52v10.84ZM709.39,512.76v16.67l-2.39-2.59h8.62c2.36,0,4.14-.51,5.34-1.52,1.19-.99,1.79-2.4,1.79-4.21h0c0-1.83-.6-3.25-1.79-4.24-1.19-.97-2.97-1.46-5.34-1.46h-8.62l2.39-2.65ZM747.05,539.68h-5.37v-28.81h11.83c2.56,0,4.75.42,6.56,1.26,1.83.82,3.24,1.99,4.21,3.51.99,1.55,1.49,3.37,1.49,5.47h0c0,2.12-.5,3.94-1.49,5.47-.97,1.5-2.38,2.66-4.21,3.48-1.81.82-4,1.23-6.56,1.23h-8.85l2.39-2.45v10.84ZM766.28,539.68h-5.77l-7.26-10.44h5.7l7.33,10.44ZM747.05,512.76v16.67l-2.39-2.55h8.62c2.36,0,4.14-.51,5.34-1.52,1.19-1.02,1.79-2.43,1.79-4.24h0c0-1.83-.6-3.25-1.79-4.24-1.19-.97-2.97-1.46-5.34-1.46h-8.62l2.39-2.65ZM793.03,540.07h0c-2.23,0-4.3-.38-6.2-1.13-1.9-.73-3.55-1.76-4.94-3.08-1.39-1.33-2.48-2.9-3.25-4.71-.75-1.79-1.13-3.76-1.13-5.9h0c0-2.12.38-4.09,1.13-5.9.77-1.79,1.86-3.35,3.25-4.67,1.39-1.33,3.04-2.36,4.94-3.12,1.9-.73,3.96-1.09,6.17-1.09h0c2.25,0,4.32.36,6.2,1.09,1.88.75,3.51,1.79,4.91,3.12,1.39,1.33,2.48,2.88,3.25,4.67.77,1.81,1.16,3.78,1.16,5.9h0c0,2.14-.39,4.12-1.16,5.93-.77,1.81-1.86,3.37-3.25,4.67-1.39,1.33-3.03,2.35-4.91,3.08-1.88.75-3.93,1.13-6.17,1.13ZM793,535.4h0c1.46,0,2.81-.25,4.04-.76,1.22-.49,2.28-1.19,3.18-2.12.91-.91,1.61-1.97,2.12-3.18.51-1.24.76-2.6.76-4.08h0c0-1.48-.25-2.83-.76-4.04-.51-1.22-1.22-2.28-2.12-3.18-.91-.93-1.97-1.64-3.18-2.12-1.24-.51-2.59-.76-4.04-.76h0c-1.46,0-2.8.25-4.01.76-1.22.49-2.29,1.19-3.22,2.12-.91.91-1.61,1.97-2.12,3.18-.51,1.22-.76,2.56-.76,4.04h0c0,1.46.25,2.81.76,4.04.51,1.24,1.22,2.31,2.12,3.22.91.93,1.98,1.64,3.22,2.12,1.22.51,2.55.76,4.01.76ZM833.17,539.68h-5.34v-24.27h-9.55v-4.54h24.4v4.54h-9.51v24.27ZM868.02,540.07h0c-2.23,0-4.3-.38-6.2-1.13-1.88-.73-3.52-1.76-4.94-3.08-1.39-1.33-2.48-2.9-3.25-4.71-.75-1.79-1.13-3.76-1.13-5.9h0c0-2.12.38-4.09,1.13-5.9.77-1.79,1.86-3.35,3.25-4.67,1.41-1.33,3.06-2.36,4.94-3.12,1.9-.73,3.96-1.09,6.17-1.09h0c2.25,0,4.32.36,6.2,1.09,1.88.75,3.51,1.79,4.91,3.12,1.39,1.33,2.48,2.88,3.25,4.67.77,1.81,1.16,3.78,1.16,5.9h0c0,2.14-.39,4.12-1.16,5.93-.77,1.81-1.86,3.37-3.25,4.67-1.39,1.33-3.03,2.35-4.91,3.08-1.88.75-3.93,1.13-6.17,1.13ZM867.98,535.4h0c1.46,0,2.81-.25,4.04-.76,1.24-.49,2.3-1.19,3.18-2.12.91-.91,1.61-1.97,2.12-3.18.51-1.24.76-2.6.76-4.08h0c0-1.48-.25-2.83-.76-4.04-.51-1.22-1.22-2.28-2.12-3.18-.88-.93-1.94-1.64-3.18-2.12-1.24-.51-2.59-.76-4.04-.76h0c-1.46,0-2.8.25-4.01.76-1.22.49-2.28,1.19-3.18,2.12-.93.91-1.65,1.97-2.15,3.18-.51,1.22-.76,2.56-.76,4.04h0c0,1.46.25,2.81.76,4.04.51,1.24,1.22,2.31,2.12,3.22.91.93,1.98,1.64,3.22,2.12,1.22.51,2.55.76,4.01.76ZM910.28,540.07h0c-2.19,0-4.22-.36-6.1-1.09-1.88-.73-3.5-1.76-4.87-3.08-1.39-1.33-2.48-2.9-3.25-4.71-.75-1.81-1.13-3.79-1.13-5.93h0c0-2.12.38-4.09,1.13-5.9.77-1.81,1.86-3.38,3.25-4.71,1.39-1.33,3.03-2.35,4.91-3.08,1.86-.73,3.9-1.09,6.13-1.09h0c2.34,0,4.49.41,6.43,1.23,1.94.8,3.59,1.99,4.94,3.58h0l-3.45,3.25c-1.04-1.13-2.2-1.97-3.48-2.52-1.3-.57-2.71-.86-4.21-.86h0c-1.5,0-2.88.25-4.14.76-1.24.49-2.32,1.18-3.25,2.09-.91.91-1.61,1.98-2.12,3.22-.51,1.22-.76,2.56-.76,4.04h0c0,1.48.25,2.84.76,4.08.51,1.24,1.22,2.31,2.12,3.22.93.91,2.01,1.6,3.25,2.09,1.26.51,2.64.76,4.14.76h0c1.5,0,2.91-.29,4.21-.86,1.28-.55,2.44-1.4,3.48-2.55h0l3.45,3.28c-1.35,1.57-2.99,2.76-4.94,3.58-1.94.82-4.11,1.23-6.5,1.23ZM948.17,540.07h0c-2.25,0-4.33-.38-6.23-1.13-1.88-.73-3.52-1.76-4.94-3.08-1.39-1.33-2.48-2.9-3.25-4.71-.75-1.79-1.13-3.76-1.13-5.9h0c0-2.12.38-4.09,1.13-5.9.77-1.79,1.86-3.35,3.25-4.67,1.41-1.33,3.06-2.36,4.94-3.12,1.9-.73,3.96-1.09,6.17-1.09h0c2.25,0,4.32.36,6.2,1.09,1.88.75,3.51,1.79,4.91,3.12,1.39,1.33,2.48,2.88,3.25,4.67.77,1.81,1.16,3.78,1.16,5.9h0c0,2.14-.39,4.12-1.16,5.93-.77,1.81-1.86,3.37-3.25,4.67-1.39,1.33-3.03,2.35-4.91,3.08-1.88.75-3.92,1.13-6.13,1.13ZM948.11,535.4h0c1.46,0,2.81-.25,4.04-.76,1.24-.49,2.31-1.19,3.22-2.12.91-.91,1.6-1.97,2.09-3.18.51-1.24.76-2.6.76-4.08h0c0-1.48-.25-2.83-.76-4.04-.49-1.22-1.18-2.28-2.09-3.18-.91-.93-1.98-1.64-3.22-2.12-1.24-.51-2.59-.76-4.04-.76h0c-1.44,0-2.77.25-4.01.76-1.22.49-2.28,1.19-3.18,2.12-.93.91-1.65,1.97-2.15,3.18-.51,1.22-.76,2.56-.76,4.04h0c0,1.46.25,2.81.76,4.04.51,1.24,1.22,2.31,2.12,3.22.91.93,1.98,1.64,3.22,2.12,1.24.51,2.57.76,4.01.76ZM997.5,539.68h-20.39v-28.81h5.34v24.27h15.05v4.54Z"/>
    </clipPath>
    <clipPath id="clippath-1">
      <path class="cls-2" d="M92.44,481.03H22.36c-3.67,0-7.01-.9-10.01-2.69-3.01-1.77-5.39-4.15-7.16-7.16-1.79-3.01-2.69-6.34-2.69-10.01h0v-70.25c0-3.67.9-6.99,2.69-9.98,1.77-3.01,4.15-5.4,7.16-7.19,3.01-1.79,6.34-2.69,10.01-2.69h70.08c3.67,0,7.03.9,10.08,2.69,3.05,1.79,5.47,4.19,7.26,7.19,1.77,2.98,2.65,6.31,2.65,9.98h0v6.56h-16.64v-6.1c0-1.02-.35-1.91-1.06-2.69-.71-.75-1.62-1.13-2.75-1.13H22.82c-1.02,0-1.91.38-2.69,1.13-.77.77-1.16,1.67-1.16,2.69h0v69.32c0,1.02.39,1.91,1.16,2.69.77.75,1.67,1.13,2.69,1.13h69.15c1.13,0,2.04-.38,2.75-1.13.71-.77,1.06-1.67,1.06-2.69h0v-23.34h-25.96v-16.67h42.6v40.48c0,3.67-.88,7.01-2.65,10.01-1.79,3.01-4.21,5.39-7.26,7.16-3.05,1.79-6.41,2.69-10.08,2.69h0ZM232.46,481.03h-70.25c-3.67,0-7.01-.92-10.01-2.75-2.98-1.83-5.37-4.22-7.16-7.16-1.79-2.96-2.69-6.28-2.69-9.95h0v-32.69h73.46v-15.71c0-1.02-.35-1.91-1.06-2.69-.73-.75-1.6-1.13-2.62-1.13h-69.78v-16.51h70.25c3.67,0,7.01.9,10.01,2.69,3.01,1.79,5.39,4.21,7.16,7.26,1.79,3.05,2.69,6.35,2.69,9.91h0v68.72ZM162.68,464.52h53.14v-20.59h-56.95v16.77c0,1.02.38,1.91,1.13,2.69.77.75,1.67,1.13,2.69,1.13ZM275.52,481.03h-16.64v-88.58h113.14c3.78,0,7.14.92,10.08,2.75,2.96,1.83,5.33,4.23,7.09,7.19,1.79,2.94,2.69,6.24,2.69,9.91h0v68.72h-16.34v-68.26c0-1.02-.38-1.91-1.13-2.69-.77-.75-1.67-1.13-2.69-1.13h-34.05c-1.13,0-2.04.38-2.75,1.13-.71.77-1.06,1.67-1.06,2.69h0v68.26h-16.64v-68.26c0-1.02-.39-1.91-1.16-2.69-.77-.75-1.67-1.13-2.69-1.13h-34.18c-1.02,0-1.89.38-2.62,1.13-.71.77-1.06,1.67-1.06,2.69h0v68.26ZM439.05,481.03h0c-3.65,0-6.95-.92-9.91-2.75-2.96-1.83-5.36-4.22-7.19-7.16-1.81-2.96-2.72-6.28-2.72-9.95h0v-48.86c0-3.67.91-6.97,2.72-9.91,1.83-2.96,4.23-5.36,7.19-7.19,2.96-1.83,6.27-2.75,9.91-2.75h50.39c3.67,0,7.01.9,10.01,2.69,3.01,1.79,5.4,4.21,7.19,7.26,1.77,3.05,2.65,6.35,2.65,9.91h0v32.69h-73.59v15.71c0,1.02.39,1.91,1.16,2.69.75.75,1.64,1.13,2.65,1.13h69.78v16.51h-70.25ZM435.71,412.77v16.81h56.95v-16.81c0-1.02-.35-1.91-1.06-2.69-.71-.75-1.57-1.13-2.59-1.13h-49.49c-1.02,0-1.9.38-2.65,1.13-.77.77-1.16,1.67-1.16,2.69h0ZM539.86,481.03h0v-109.96h85.49c3.56,0,6.87.9,9.95,2.69,3.05,1.79,5.46,4.19,7.23,7.19,1.79,2.98,2.69,6.31,2.69,9.98h0v22.44c0,1.33-.13,2.65-.4,3.98-.24,1.33-.67,2.55-1.29,3.68h0c2.03,2.85,3.59,5.53,4.67,8.02,1.06,2.48,1.59,4.99,1.59,7.56h0v24.56c0,3.67-.9,7.01-2.69,10.01-1.77,3.01-4.18,5.39-7.23,7.16-3.05,1.79-6.41,2.69-10.08,2.69h-89.94ZM560.15,464.52h69.18c1.13,0,2.04-.38,2.75-1.13.71-.77,1.06-1.67,1.06-2.69h0v-23.67c0-1.02-.35-1.9-1.06-2.65-.71-.77-1.62-1.16-2.75-1.16h-69.18c-1.02,0-1.9.39-2.65,1.16-.77.75-1.16,1.64-1.16,2.65h0v23.67c0,1.02.39,1.91,1.16,2.69.75.75,1.64,1.13,2.65,1.13ZM560.15,416.75h64.74c1.02,0,1.89-.39,2.62-1.16.71-.75,1.06-1.64,1.06-2.65h0v-21.55c0-1.02-.35-1.91-1.06-2.69-.73-.75-1.6-1.13-2.62-1.13h-64.74c-1.02,0-1.9.38-2.65,1.13-.77.77-1.16,1.67-1.16,2.69h0v21.55c0,1.02.39,1.9,1.16,2.65.75.77,1.64,1.16,2.65,1.16ZM699.58,481.03h0c-3.67,0-7.01-.92-10.01-2.75-3.01-1.83-5.39-4.22-7.16-7.16-1.79-2.96-2.69-6.28-2.69-9.95h0v-68.72h16.48v68.26c0,1.02.39,1.91,1.16,2.69.77.75,1.67,1.13,2.69,1.13h49.46c1.02,0,1.91-.38,2.69-1.13.75-.77,1.13-1.67,1.13-2.69h0v-68.26h16.51v68.72c0,3.67-.9,6.98-2.69,9.95-1.79,2.94-4.18,5.33-7.16,7.16-3.01,1.83-6.34,2.75-10.01,2.75h-50.39ZM815.94,481.03h-16.51v-88.58h16.51v88.58ZM815.94,379.95h-16.51v-16.51h16.51v16.51ZM867.68,481.03h0c-3.67,0-6.97-.92-9.91-2.75-2.96-1.83-5.36-4.22-7.19-7.16-1.83-2.96-2.75-6.28-2.75-9.95h0v-97.73h16.51v97.26c0,1.02.39,1.91,1.16,2.69.75.75,1.64,1.13,2.65,1.13h16.04v16.51h-16.51ZM927.25,481.03h0c-3.67,0-7.01-.9-10.01-2.69-3.01-1.77-5.39-4.18-7.16-7.23-1.79-3.07-2.69-6.39-2.69-9.95h0v-48.86c0-3.67.9-6.97,2.69-9.91,1.77-2.96,4.15-5.36,7.16-7.19,3.01-1.83,6.34-2.75,10.01-2.75h53.74v-29.01h16.51v117.58h-70.25ZM927.85,464.52h49.49c1.02,0,1.88-.38,2.59-1.13.71-.77,1.06-1.67,1.06-2.69h0v-47.94c0-1.02-.35-1.91-1.06-2.69-.71-.75-1.57-1.13-2.59-1.13h-49.49c-1.02,0-1.9.38-2.65,1.13-.77.77-1.16,1.67-1.16,2.69h0v47.94c0,1.02.39,1.91,1.16,2.69.75.75,1.64,1.13,2.65,1.13Z"/>
    </clipPath>
  </defs>
  <g>
    <g>
      <path class="cls-2" d="M17.98,540.07h0c-2.25,0-4.32-.36-6.2-1.09-1.86-.73-3.49-1.76-4.91-3.08-1.39-1.33-2.48-2.9-3.25-4.71-.75-1.81-1.13-3.79-1.13-5.93h0c0-2.12.38-4.09,1.13-5.9.77-1.81,1.87-3.38,3.28-4.71,1.41-1.33,3.06-2.35,4.94-3.08,1.9-.73,3.98-1.09,6.23-1.09h0c2.43,0,4.63.4,6.6,1.19,1.94.8,3.59,1.96,4.94,3.48h0l-3.38,3.32c-1.11-1.13-2.31-1.96-3.61-2.49-1.3-.55-2.74-.83-4.31-.83h0c-1.5,0-2.9.25-4.18.76-1.3.49-2.42,1.18-3.35,2.09-.93.91-1.65,1.98-2.15,3.22-.51,1.22-.76,2.56-.76,4.04h0c0,1.46.25,2.81.76,4.04.51,1.24,1.23,2.31,2.15,3.22.93.93,2.02,1.64,3.28,2.12,1.26.51,2.66.76,4.21.76h0c1.41,0,2.78-.23,4.11-.7,1.35-.44,2.62-1.2,3.81-2.29h0l3.05,4.01c-1.5,1.19-3.25,2.1-5.24,2.72-1.99.62-4,.93-6.03.93ZM29.25,536.43l-5.07-.73v-10.74h5.07v11.47ZM45.53,539.68h-5.5l12.96-28.81h5.24l12.99,28.81h-5.57l-11.17-25.96h2.15l-11.11,25.96ZM64.39,533.01h-18.4l1.43-4.21h15.55l1.43,4.21ZM87.8,539.68h-5.11v-28.81h4.41l12.56,21.02h-2.29l12.36-21.02h4.41l.03,28.81h-5.04l-.07-20.85h1.09l-10.54,17.54h-2.39l-10.67-17.54h1.23v20.85ZM134.7,527.24v-4.41h14.32v4.41h-14.32ZM135.1,515.38v19.79h16.24v4.51h-21.58v-28.81h21.02v4.51h-15.68ZM189.63,539.68h-5.34v-28.81h5.34v28.81ZM210.52,539.68h-5.3v-28.81h4.41l18.03,22.18h-2.19v-22.18h5.3v28.81h-4.38l-18.07-22.18h2.19v22.18ZM251.23,528.64v-4.51h14.35v4.51h-14.35ZM251.66,515.38v24.3h-5.34v-28.81h21.02v4.51h-15.68ZM285.67,539.68h-5.34v-28.81h11.83c2.54,0,4.73.42,6.56,1.26,1.81.82,3.22,1.99,4.21,3.51.99,1.55,1.49,3.37,1.49,5.47h0c0,2.12-.5,3.94-1.49,5.47-.99,1.5-2.4,2.66-4.21,3.48-1.83.82-4.02,1.23-6.56,1.23h-8.88l2.39-2.45v10.84ZM304.9,539.68h-5.73l-7.29-10.44h5.73l7.29,10.44ZM285.67,512.76v16.67l-2.39-2.55h8.65c2.34,0,4.11-.51,5.3-1.52,1.19-1.02,1.79-2.43,1.79-4.24h0c0-1.83-.6-3.25-1.79-4.24-1.19-.97-2.96-1.46-5.3-1.46h-8.65l2.39-2.65ZM319.61,539.68h-5.5l12.96-28.81h5.27l12.99,28.81h-5.6l-11.14-25.96h2.12l-11.11,25.96ZM338.51,533.01h-18.43l1.43-4.21h15.55l1.46,4.21ZM365.73,540.07h0c-2.25,0-4.41-.32-6.46-.96-2.06-.64-3.69-1.47-4.91-2.49h0l1.86-4.18c1.15.91,2.57,1.67,4.28,2.29,1.7.6,3.45.9,5.24.9h0c1.5,0,2.72-.17,3.65-.5.93-.33,1.61-.77,2.06-1.33.44-.57.66-1.22.66-1.92h0c0-.88-.32-1.59-.96-2.12-.62-.53-1.43-.95-2.42-1.26-1.02-.31-2.13-.61-3.35-.9-1.22-.27-2.43-.59-3.65-.96-1.22-.38-2.33-.85-3.35-1.43-.99-.6-1.8-1.39-2.42-2.39-.64-.97-.96-2.23-.96-3.78h0c0-1.57.42-2.99,1.26-4.28.84-1.3,2.11-2.35,3.81-3.15,1.72-.77,3.9-1.16,6.53-1.16h0c1.72,0,3.44.22,5.14.66,1.7.44,3.18,1.07,4.44,1.89h0l-1.69,4.14c-1.28-.77-2.61-1.34-3.98-1.69-1.37-.38-2.69-.56-3.94-.56h0c-1.48,0-2.69.18-3.61.53-.93.35-1.6.82-2.02,1.39-.42.57-.63,1.24-.63,1.99h0c0,.86.31,1.57.93,2.12.62.53,1.43.94,2.42,1.23.99.31,2.11.61,3.35.9,1.24.29,2.46.61,3.68.96,1.22.35,2.33.82,3.35,1.39.99.57,1.8,1.36,2.42,2.35.62.99.93,2.24.93,3.75h0c0,1.52-.42,2.94-1.26,4.24-.84,1.3-2.12,2.35-3.85,3.15-1.72.77-3.9,1.16-6.53,1.16ZM401.66,539.68h-5.37v-24.27h-9.51v-4.54h24.4v4.54h-9.51v24.27ZM428.38,539.68h-5.34v-28.81h11.83c2.54,0,4.73.42,6.56,1.26,1.81.82,3.22,1.99,4.21,3.51.97,1.55,1.46,3.37,1.46,5.47h0c0,2.12-.49,3.94-1.46,5.47-.99,1.5-2.4,2.66-4.21,3.48-1.83.82-4.02,1.23-6.56,1.23h-8.88l2.39-2.45v10.84ZM447.61,539.68h-5.74l-7.29-10.44h5.7l7.33,10.44ZM428.38,512.76v16.67l-2.39-2.55h8.62c2.36,0,4.14-.51,5.34-1.52,1.19-1.02,1.79-2.43,1.79-4.24h0c0-1.83-.6-3.25-1.79-4.24-1.19-.97-2.97-1.46-5.34-1.46h-8.62l2.39-2.65ZM473.26,540.07h0c-3.96,0-7.05-1.12-9.28-3.35-2.23-2.21-3.35-5.41-3.35-9.61h0v-16.24h5.37v16.04c0,2.96.63,5.12,1.89,6.46,1.28,1.35,3.08,2.02,5.4,2.02h0c2.34,0,4.14-.67,5.4-2.02,1.26-1.35,1.89-3.5,1.89-6.46h0v-16.04h5.27v16.24c0,4.2-1.13,7.4-3.38,9.61-2.23,2.23-5.3,3.35-9.22,3.35ZM514.47,540.07h0c-2.19,0-4.22-.36-6.1-1.09-1.88-.73-3.51-1.76-4.91-3.08-1.39-1.33-2.46-2.9-3.22-4.71-.77-1.81-1.16-3.79-1.16-5.93h0c0-2.12.39-4.09,1.16-5.9.75-1.81,1.83-3.38,3.25-4.71,1.39-1.33,3.02-2.35,4.87-3.08,1.88-.73,3.92-1.09,6.13-1.09h0c2.36,0,4.52.41,6.46,1.23,1.94.8,3.59,1.99,4.94,3.58h0l-3.48,3.25c-1.04-1.13-2.2-1.97-3.48-2.52-1.28-.57-2.69-.86-4.21-.86h0c-1.5,0-2.87.25-4.11.76-1.26.49-2.34,1.18-3.25,2.09-.93.91-1.65,1.98-2.15,3.22-.51,1.22-.76,2.56-.76,4.04h0c0,1.48.25,2.84.76,4.08.51,1.24,1.23,2.31,2.15,3.22.91.91,1.99,1.6,3.25,2.09,1.24.51,2.61.76,4.11.76h0c1.52,0,2.93-.29,4.21-.86,1.28-.55,2.44-1.4,3.48-2.55h0l3.48,3.28c-1.35,1.57-2.99,2.76-4.94,3.58-1.94.82-4.11,1.23-6.5,1.23ZM550.04,539.68h-5.37v-24.27h-9.51v-4.54h24.4v4.54h-9.51v24.27ZM583.79,540.07h0c-3.96,0-7.05-1.12-9.28-3.35-2.23-2.21-3.35-5.41-3.35-9.61h0v-16.24h5.34v16.04c0,2.96.64,5.12,1.92,6.46,1.28,1.35,3.08,2.02,5.4,2.02h0c2.32,0,4.11-.67,5.37-2.02,1.26-1.35,1.89-3.5,1.89-6.46h0v-16.04h5.27v16.24c0,4.2-1.12,7.4-3.35,9.61-2.23,2.23-5.3,3.35-9.22,3.35ZM617,539.68h-5.34v-28.81h11.83c2.54,0,4.73.42,6.56,1.26,1.81.82,3.22,1.99,4.21,3.51.97,1.55,1.46,3.37,1.46,5.47h0c0,2.12-.49,3.94-1.46,5.47-.99,1.5-2.4,2.66-4.21,3.48-1.83.82-4.02,1.23-6.56,1.23h-8.88l2.39-2.45v10.84ZM636.23,539.68h-5.73l-7.29-10.44h5.7l7.33,10.44ZM617,512.76v16.67l-2.39-2.55h8.62c2.36,0,4.14-.51,5.34-1.52,1.19-1.02,1.79-2.43,1.79-4.24h0c0-1.83-.6-3.25-1.79-4.24-1.19-.97-2.97-1.46-5.34-1.46h-8.62l2.39-2.65ZM654.46,527.24v-4.41h14.29v4.41h-14.29ZM654.86,515.38v19.79h16.24v4.51h-21.58v-28.81h21.02v4.51h-15.68ZM709.39,539.68h-5.37v-28.81h11.83c2.56,0,4.75.42,6.56,1.26,1.83.82,3.24,1.99,4.21,3.51.99,1.55,1.49,3.37,1.49,5.47h0c0,2.12-.5,3.94-1.49,5.47-.97,1.55-2.38,2.73-4.21,3.55-1.81.82-4,1.23-6.56,1.23h-8.85l2.39-2.52v10.84ZM709.39,512.76v16.67l-2.39-2.59h8.62c2.36,0,4.14-.51,5.34-1.52,1.19-.99,1.79-2.4,1.79-4.21h0c0-1.83-.6-3.25-1.79-4.24-1.19-.97-2.97-1.46-5.34-1.46h-8.62l2.39-2.65ZM747.05,539.68h-5.37v-28.81h11.83c2.56,0,4.75.42,6.56,1.26,1.83.82,3.24,1.99,4.21,3.51.99,1.55,1.49,3.37,1.49,5.47h0c0,2.12-.5,3.94-1.49,5.47-.97,1.5-2.38,2.66-4.21,3.48-1.81.82-4,1.23-6.56,1.23h-8.85l2.39-2.45v10.84ZM766.28,539.68h-5.77l-7.26-10.44h5.7l7.33,10.44ZM747.05,512.76v16.67l-2.39-2.55h8.62c2.36,0,4.14-.51,5.34-1.52,1.19-1.02,1.79-2.43,1.79-4.24h0c0-1.83-.6-3.25-1.79-4.24-1.19-.97-2.97-1.46-5.34-1.46h-8.62l2.39-2.65ZM793.03,540.07h0c-2.23,0-4.3-.38-6.2-1.13-1.9-.73-3.55-1.76-4.94-3.08-1.39-1.33-2.48-2.9-3.25-4.71-.75-1.79-1.13-3.76-1.13-5.9h0c0-2.12.38-4.09,1.13-5.9.77-1.79,1.86-3.35,3.25-4.67,1.39-1.33,3.04-2.36,4.94-3.12,1.9-.73,3.96-1.09,6.17-1.09h0c2.25,0,4.32.36,6.2,1.09,1.88.75,3.51,1.79,4.91,3.12,1.39,1.33,2.48,2.88,3.25,4.67.77,1.81,1.16,3.78,1.16,5.9h0c0,2.14-.39,4.12-1.16,5.93-.77,1.81-1.86,3.37-3.25,4.67-1.39,1.33-3.03,2.35-4.91,3.08-1.88.75-3.93,1.13-6.17,1.13ZM793,535.4h0c1.46,0,2.81-.25,4.04-.76,1.22-.49,2.28-1.19,3.18-2.12.91-.91,1.61-1.97,2.12-3.18.51-1.24.76-2.6.76-4.08h0c0-1.48-.25-2.83-.76-4.04-.51-1.22-1.22-2.28-2.12-3.18-.91-.93-1.97-1.64-3.18-2.12-1.24-.51-2.59-.76-4.04-.76h0c-1.46,0-2.8.25-4.01.76-1.22.49-2.29,1.19-3.22,2.12-.91.91-1.61,1.97-2.12,3.18-.51,1.22-.76,2.56-.76,4.04h0c0,1.46.25,2.81.76,4.04.51,1.24,1.22,2.31,2.12,3.22.91.93,1.98,1.64,3.22,2.12,1.22.51,2.55.76,4.01.76ZM833.17,539.68h-5.34v-24.27h-9.55v-4.54h24.4v4.54h-9.51v24.27ZM868.02,540.07h0c-2.23,0-4.3-.38-6.2-1.13-1.88-.73-3.52-1.76-4.94-3.08-1.39-1.33-2.48-2.9-3.25-4.71-.75-1.79-1.13-3.76-1.13-5.9h0c0-2.12.38-4.09,1.13-5.9.77-1.79,1.86-3.35,3.25-4.67,1.41-1.33,3.06-2.36,4.94-3.12,1.9-.73,3.96-1.09,6.17-1.09h0c2.25,0,4.32.36,6.2,1.09,1.88.75,3.51,1.79,4.91,3.12,1.39,1.33,2.48,2.88,3.25,4.67.77,1.81,1.16,3.78,1.16,5.9h0c0,2.14-.39,4.12-1.16,5.93-.77,1.81-1.86,3.37-3.25,4.67-1.39,1.33-3.03,2.35-4.91,3.08-1.88.75-3.93,1.13-6.17,1.13ZM867.98,535.4h0c1.46,0,2.81-.25,4.04-.76,1.24-.49,2.3-1.19,3.18-2.12.91-.91,1.61-1.97,2.12-3.18.51-1.24.76-2.6.76-4.08h0c0-1.48-.25-2.83-.76-4.04-.51-1.22-1.22-2.28-2.12-3.18-.88-.93-1.94-1.64-3.18-2.12-1.24-.51-2.59-.76-4.04-.76h0c-1.46,0-2.8.25-4.01.76-1.22.49-2.28,1.19-3.18,2.12-.93.91-1.65,1.97-2.15,3.18-.51,1.22-.76,2.56-.76,4.04h0c0,1.46.25,2.81.76,4.04.51,1.24,1.22,2.31,2.12,3.22.91.93,1.98,1.64,3.22,2.12,1.22.51,2.55.76,4.01.76ZM910.28,540.07h0c-2.19,0-4.22-.36-6.1-1.09-1.88-.73-3.5-1.76-4.87-3.08-1.39-1.33-2.48-2.9-3.25-4.71-.75-1.81-1.13-3.79-1.13-5.93h0c0-2.12.38-4.09,1.13-5.9.77-1.81,1.86-3.38,3.25-4.71,1.39-1.33,3.03-2.35,4.91-3.08,1.86-.73,3.9-1.09,6.13-1.09h0c2.34,0,4.49.41,6.43,1.23,1.94.8,3.59,1.99,4.94,3.58h0l-3.45,3.25c-1.04-1.13-2.2-1.97-3.48-2.52-1.3-.57-2.71-.86-4.21-.86h0c-1.5,0-2.88.25-4.14.76-1.24.49-2.32,1.18-3.25,2.09-.91.91-1.61,1.98-2.12,3.22-.51,1.22-.76,2.56-.76,4.04h0c0,1.48.25,2.84.76,4.08.51,1.24,1.22,2.31,2.12,3.22.93.91,2.01,1.6,3.25,2.09,1.26.51,2.64.76,4.14.76h0c1.5,0,2.91-.29,4.21-.86,1.28-.55,2.44-1.4,3.48-2.55h0l3.45,3.28c-1.35,1.57-2.99,2.76-4.94,3.58-1.94.82-4.11,1.23-6.5,1.23ZM948.17,540.07h0c-2.25,0-4.33-.38-6.23-1.13-1.88-.73-3.52-1.76-4.94-3.08-1.39-1.33-2.48-2.9-3.25-4.71-.75-1.79-1.13-3.76-1.13-5.9h0c0-2.12.38-4.09,1.13-5.9.77-1.79,1.86-3.35,3.25-4.67,1.41-1.33,3.06-2.36,4.94-3.12,1.9-.73,3.96-1.09,6.17-1.09h0c2.25,0,4.32.36,6.2,1.09,1.88.75,3.51,1.79,4.91,3.12,1.39,1.33,2.48,2.88,3.25,4.67.77,1.81,1.16,3.78,1.16,5.9h0c0,2.14-.39,4.12-1.16,5.93-.77,1.81-1.86,3.37-3.25,4.67-1.39,1.33-3.03,2.35-4.91,3.08-1.88.75-3.92,1.13-6.13,1.13ZM948.11,535.4h0c1.46,0,2.81-.25,4.04-.76,1.24-.49,2.31-1.19,3.22-2.12.91-.91,1.6-1.97,2.09-3.18.51-1.24.76-2.6.76-4.08h0c0-1.48-.25-2.83-.76-4.04-.49-1.22-1.18-2.28-2.09-3.18-.91-.93-1.98-1.64-3.22-2.12-1.24-.51-2.59-.76-4.04-.76h0c-1.44,0-2.77.25-4.01.76-1.22.49-2.28,1.19-3.18,2.12-.93.91-1.65,1.97-2.15,3.18-.51,1.22-.76,2.56-.76,4.04h0c0,1.46.25,2.81.76,4.04.51,1.24,1.22,2.31,2.12,3.22.91.93,1.98,1.64,3.22,2.12,1.24.51,2.57.76,4.01.76ZM997.5,539.68h-20.39v-28.81h5.34v24.27h15.05v4.54Z"/>
      <g class="cls-3">
        <rect class="cls-2" x="977.11" y="510.87" width="3.03" height="28.81"/>
        <rect class="cls-2" x="980.15" y="510.87" width="5.78" height="28.81"/>
        <rect class="cls-2" x="985.93" y="510.87" width="5.78" height="28.81"/>
        <rect class="cls-2" x="991.72" y="510.87" width="5.78" height="28.81"/>
        <rect class="cls-2" x="938" y="515.14" width="1.66" height="20.25"/>
        <rect class="cls-2" x="939.65" y="515.14" width="5.78" height="20.25"/>
        <rect class="cls-2" x="945.44" y="515.14" width="5.78" height="20.25"/>
        <rect class="cls-2" x="951.22" y="515.14" width="5.78" height="20.25"/>
        <rect class="cls-2" x="957.01" y="515.14" width="1.21" height="20.25"/>
        <rect class="cls-2" x="932.63" y="510.47" width="1.24" height="29.6"/>
        <rect class="cls-2" x="933.87" y="510.47" width="5.78" height="29.6"/>
        <rect class="cls-2" x="939.65" y="510.47" width="5.78" height="29.6"/>
        <rect class="cls-2" x="945.44" y="510.47" width="5.78" height="29.6"/>
        <rect class="cls-2" x="951.22" y="510.47" width="5.78" height="29.6"/>
        <rect class="cls-2" x="957.01" y="510.47" width="5.78" height="29.6"/>
        <rect class="cls-2" x="962.79" y="510.47" width=".83" height="29.6"/>
        <rect class="cls-2" x="894.93" y="510.47" width="4.22" height="29.6"/>
        <rect class="cls-2" x="899.16" y="510.47" width="5.78" height="29.6"/>
        <rect class="cls-2" x="904.94" y="510.47" width="5.78" height="29.6"/>
        <rect class="cls-2" x="910.73" y="510.47" width="5.78" height="29.6"/>
        <rect class="cls-2" x="916.51" y="510.47" width="5.21" height="29.6"/>
        <rect class="cls-2" x="857.87" y="515.14" width=".79" height="20.25"/>
        <rect class="cls-2" x="858.66" y="515.14" width="5.78" height="20.25"/>
        <rect class="cls-2" x="864.45" y="515.14" width="5.78" height="20.25"/>
        <rect class="cls-2" x="870.23" y="515.14" width="5.78" height="20.25"/>
        <rect class="cls-2" x="876.02" y="515.14" width="2.08" height="20.25"/>
        <rect class="cls-2" x="852.5" y="510.47" width=".38" height="29.6"/>
        <rect class="cls-2" x="852.88" y="510.47" width="5.78" height="29.6"/>
        <rect class="cls-2" x="858.66" y="510.47" width="5.78" height="29.6"/>
        <rect class="cls-2" x="864.45" y="510.47" width="5.78" height="29.6"/>
        <rect class="cls-2" x="870.23" y="510.47" width="5.78" height="29.6"/>
        <rect class="cls-2" x="876.02" y="510.47" width="5.78" height="29.6"/>
        <rect class="cls-2" x="881.8" y="510.47" width="1.69" height="29.6"/>
        <rect class="cls-2" x="818.29" y="510.87" width="5.66" height="28.81"/>
        <rect class="cls-2" x="823.95" y="510.87" width="5.78" height="28.81"/>
        <rect class="cls-2" x="829.74" y="510.87" width="5.78" height="28.81"/>
        <rect class="cls-2" x="835.52" y="510.87" width="5.78" height="28.81"/>
        <rect class="cls-2" x="841.31" y="510.87" width="1.38" height="28.81"/>
        <rect class="cls-2" x="782.89" y="515.14" width=".57" height="20.25"/>
        <rect class="cls-2" x="783.46" y="515.14" width="5.78" height="20.25"/>
        <rect class="cls-2" x="789.24" y="515.14" width="5.78" height="20.25"/>
        <rect class="cls-2" x="795.03" y="515.14" width="5.78" height="20.25"/>
        <rect class="cls-2" x="800.81" y="515.14" width="2.29" height="20.25"/>
        <rect class="cls-2" x="777.52" y="510.47" width=".16" height="29.6"/>
        <rect class="cls-2" x="777.67" y="510.47" width="5.78" height="29.6"/>
        <rect class="cls-2" x="783.46" y="510.47" width="5.78" height="29.6"/>
        <rect class="cls-2" x="789.24" y="510.47" width="5.78" height="29.6"/>
        <rect class="cls-2" x="795.03" y="510.47" width="5.78" height="29.6"/>
        <rect class="cls-2" x="800.81" y="510.47" width="5.78" height="29.6"/>
        <rect class="cls-2" x="806.6" y="510.47" width="1.91" height="29.6"/>
        <rect class="cls-2" x="744.66" y="512.76" width="4.09" height="16.67"/>
        <rect class="cls-2" x="748.75" y="512.76" width="5.78" height="16.67"/>
        <rect class="cls-2" x="754.53" y="512.76" width="5.78" height="16.67"/>
        <rect class="cls-2" x="760.32" y="512.76" width=".09" height="16.67"/>
        <rect class="cls-2" x="753.25" y="529.23" width="1.28" height="10.44"/>
        <rect class="cls-2" x="754.53" y="529.23" width="5.78" height="10.44"/>
        <rect class="cls-2" x="760.32" y="529.23" width="5.78" height="10.44"/>
        <rect class="cls-2" x="766.1" y="529.23" width=".17" height="10.44"/>
        <rect class="cls-2" x="741.68" y="510.87" width="1.28" height="28.81"/>
        <rect class="cls-2" x="742.97" y="510.87" width="5.78" height="28.81"/>
        <rect class="cls-2" x="748.75" y="510.87" width="5.78" height="28.81"/>
        <rect class="cls-2" x="754.53" y="510.87" width="5.78" height="28.81"/>
        <rect class="cls-2" x="760.32" y="510.87" width="5.46" height="28.81"/>
        <rect class="cls-2" x="707.01" y="512.76" width="1.25" height="16.67"/>
        <rect class="cls-2" x="708.26" y="512.76" width="5.78" height="16.67"/>
        <rect class="cls-2" x="714.04" y="512.76" width="5.78" height="16.67"/>
        <rect class="cls-2" x="719.83" y="512.76" width="2.93" height="16.67"/>
        <rect class="cls-2" x="704.02" y="510.87" width="4.23" height="28.81"/>
        <rect class="cls-2" x="708.26" y="510.87" width="5.78" height="28.81"/>
        <rect class="cls-2" x="714.04" y="510.87" width="5.78" height="28.81"/>
        <rect class="cls-2" x="719.83" y="510.87" width="5.78" height="28.81"/>
        <rect class="cls-2" x="725.61" y="510.87" width="2.51" height="28.81"/>
        <rect class="cls-2" x="649.52" y="510.87" width=".88" height="28.81"/>
        <rect class="cls-2" x="650.41" y="510.87" width="5.78" height="28.81"/>
        <rect class="cls-2" x="656.19" y="510.87" width="5.78" height="28.81"/>
        <rect class="cls-2" x="661.98" y="510.87" width="5.78" height="28.81"/>
        <rect class="cls-2" x="667.76" y="510.87" width="3.34" height="28.81"/>
        <rect class="cls-2" x="654.46" y="522.83" width="1.73" height="4.41"/>
        <rect class="cls-2" x="656.19" y="522.83" width="5.78" height="4.41"/>
        <rect class="cls-2" x="661.98" y="522.83" width="5.78" height="4.41"/>
        <rect class="cls-2" x="667.76" y="522.83" width=".99" height="4.41"/>
        <rect class="cls-2" x="614.62" y="512.76" width="1.08" height="16.67"/>
        <rect class="cls-2" x="615.7" y="512.76" width="5.78" height="16.67"/>
        <rect class="cls-2" x="621.48" y="512.76" width="5.78" height="16.67"/>
        <rect class="cls-2" x="627.27" y="512.76" width="3.1" height="16.67"/>
        <rect class="cls-2" x="623.2" y="529.23" width="4.07" height="10.44"/>
        <rect class="cls-2" x="627.27" y="529.23" width="5.78" height="10.44"/>
        <rect class="cls-2" x="633.05" y="529.23" width="3.18" height="10.44"/>
        <rect class="cls-2" x="611.67" y="510.87" width="4.03" height="28.81"/>
        <rect class="cls-2" x="615.7" y="510.87" width="5.78" height="28.81"/>
        <rect class="cls-2" x="621.48" y="510.87" width="5.78" height="28.81"/>
        <rect class="cls-2" x="627.27" y="510.87" width="5.78" height="28.81"/>
        <rect class="cls-2" x="633.05" y="510.87" width="2.68" height="28.81"/>
        <rect class="cls-2" x="571.16" y="510.87" width="4.05" height="29.21"/>
        <rect class="cls-2" x="575.2" y="510.87" width="5.78" height="29.21"/>
        <rect class="cls-2" x="580.99" y="510.87" width="5.78" height="29.21"/>
        <rect class="cls-2" x="586.77" y="510.87" width="5.78" height="29.21"/>
        <rect class="cls-2" x="592.56" y="510.87" width="3.79" height="29.21"/>
        <rect class="cls-2" x="535.16" y="510.87" width="5.34" height="28.81"/>
        <rect class="cls-2" x="540.49" y="510.87" width="5.78" height="28.81"/>
        <rect class="cls-2" x="546.28" y="510.87" width="5.78" height="28.81"/>
        <rect class="cls-2" x="552.06" y="510.87" width="5.78" height="28.81"/>
        <rect class="cls-2" x="557.85" y="510.87" width="1.71" height="28.81"/>
        <rect class="cls-2" x="499.09" y="510.47" width=".91" height="29.6"/>
        <rect class="cls-2" x="500" y="510.47" width="5.78" height="29.6"/>
        <rect class="cls-2" x="505.78" y="510.47" width="5.78" height="29.6"/>
        <rect class="cls-2" x="511.57" y="510.47" width="5.78" height="29.6"/>
        <rect class="cls-2" x="517.35" y="510.47" width="5.78" height="29.6"/>
        <rect class="cls-2" x="523.14" y="510.47" width="2.77" height="29.6"/>
        <rect class="cls-2" x="460.63" y="510.87" width="4.66" height="29.21"/>
        <rect class="cls-2" x="465.29" y="510.87" width="5.78" height="29.21"/>
        <rect class="cls-2" x="471.08" y="510.87" width="5.78" height="29.21"/>
        <rect class="cls-2" x="476.86" y="510.87" width="5.78" height="29.21"/>
        <rect class="cls-2" x="482.65" y="510.87" width="3.22" height="29.21"/>
        <rect class="cls-2" x="425.99" y="512.76" width="4.59" height="16.67"/>
        <rect class="cls-2" x="430.58" y="512.76" width="5.78" height="16.67"/>
        <rect class="cls-2" x="436.37" y="512.76" width="5.37" height="16.67"/>
        <rect class="cls-2" x="434.58" y="529.23" width="1.79" height="10.44"/>
        <rect class="cls-2" x="436.37" y="529.23" width="5.78" height="10.44"/>
        <rect class="cls-2" x="442.15" y="529.23" width="5.46" height="10.44"/>
        <rect class="cls-2" x="423.04" y="510.87" width="1.75" height="28.81"/>
        <rect class="cls-2" x="424.8" y="510.87" width="5.78" height="28.81"/>
        <rect class="cls-2" x="430.58" y="510.87" width="5.78" height="28.81"/>
        <rect class="cls-2" x="436.37" y="510.87" width="5.78" height="28.81"/>
        <rect class="cls-2" x="442.15" y="510.87" width="4.96" height="28.81"/>
        <rect class="cls-2" x="386.78" y="510.87" width="3.31" height="28.81"/>
        <rect class="cls-2" x="390.09" y="510.87" width="5.78" height="28.81"/>
        <rect class="cls-2" x="395.87" y="510.87" width="5.78" height="28.81"/>
        <rect class="cls-2" x="401.66" y="510.87" width="5.78" height="28.81"/>
        <rect class="cls-2" x="407.44" y="510.87" width="3.73" height="28.81"/>
        <rect class="cls-2" x="354.36" y="510.47" width="1.02" height="29.6"/>
        <rect class="cls-2" x="355.38" y="510.47" width="5.78" height="29.6"/>
        <rect class="cls-2" x="361.16" y="510.47" width="5.78" height="29.6"/>
        <rect class="cls-2" x="366.95" y="510.47" width="5.78" height="29.6"/>
        <rect class="cls-2" x="372.73" y="510.47" width="4.63" height="29.6"/>
        <rect class="cls-2" x="320.08" y="528.8" width=".59" height="4.21"/>
        <rect class="cls-2" x="320.67" y="528.8" width="5.78" height="4.21"/>
        <rect class="cls-2" x="326.45" y="528.8" width="5.78" height="4.21"/>
        <rect class="cls-2" x="332.24" y="528.8" width="5.78" height="4.21"/>
        <rect class="cls-2" x="338.02" y="528.8" width=".49" height="4.21"/>
        <rect class="cls-2" x="314.11" y="510.87" width=".77" height="28.81"/>
        <rect class="cls-2" x="314.88" y="510.87" width="5.78" height="28.81"/>
        <rect class="cls-2" x="320.67" y="510.87" width="5.78" height="28.81"/>
        <rect class="cls-2" x="326.45" y="510.87" width="5.78" height="28.81"/>
        <rect class="cls-2" x="332.24" y="510.87" width="5.78" height="28.81"/>
        <rect class="cls-2" x="338.02" y="510.87" width="5.78" height="28.81"/>
        <rect class="cls-2" x="343.81" y="510.87" width="1.53" height="28.81"/>
        <rect class="cls-2" x="283.28" y="512.76" width="2.68" height="16.67"/>
        <rect class="cls-2" x="285.96" y="512.76" width="5.78" height="16.67"/>
        <rect class="cls-2" x="291.74" y="512.76" width="5.78" height="16.67"/>
        <rect class="cls-2" x="297.53" y="512.76" width="1.5" height="16.67"/>
        <rect class="cls-2" x="291.87" y="529.23" width="5.66" height="10.44"/>
        <rect class="cls-2" x="297.53" y="529.23" width="5.78" height="10.44"/>
        <rect class="cls-2" x="303.31" y="529.23" width="1.58" height="10.44"/>
        <rect class="cls-2" x="280.33" y="510.87" width="5.63" height="28.81"/>
        <rect class="cls-2" x="285.96" y="510.87" width="5.78" height="28.81"/>
        <rect class="cls-2" x="291.74" y="510.87" width="5.78" height="28.81"/>
        <rect class="cls-2" x="297.53" y="510.87" width="5.78" height="28.81"/>
        <rect class="cls-2" x="303.31" y="510.87" width="1.12" height="28.81"/>
        <rect class="cls-2" x="246.32" y="510.87" width="4.93" height="28.81"/>
        <rect class="cls-2" x="251.25" y="510.87" width="5.78" height="28.81"/>
        <rect class="cls-2" x="257.03" y="510.87" width="5.78" height="28.81"/>
        <rect class="cls-2" x="262.82" y="510.87" width="4.52" height="28.81"/>
        <rect class="cls-2" x="251.23" y="524.13" width=".02" height="4.51"/>
        <rect class="cls-2" x="251.25" y="524.13" width="5.78" height="4.51"/>
        <rect class="cls-2" x="257.03" y="524.13" width="5.78" height="4.51"/>
        <rect class="cls-2" x="262.82" y="524.13" width="2.76" height="4.51"/>
        <rect class="cls-2" x="205.21" y="510.87" width="5.54" height="28.81"/>
        <rect class="cls-2" x="210.76" y="510.87" width="5.78" height="28.81"/>
        <rect class="cls-2" x="216.54" y="510.87" width="5.78" height="28.81"/>
        <rect class="cls-2" x="222.33" y="510.87" width="5.78" height="28.81"/>
        <rect class="cls-2" x="228.11" y="510.87" width="2.66" height="28.81"/>
        <rect class="cls-2" x="184.3" y="510.87" width="3.32" height="28.81"/>
        <rect class="cls-2" x="187.62" y="510.87" width="2.02" height="28.81"/>
        <rect class="cls-2" x="129.76" y="510.87" width="0" height="28.81"/>
        <rect class="cls-2" x="129.77" y="510.87" width="5.78" height="28.81"/>
        <rect class="cls-2" x="135.55" y="510.87" width="5.78" height="28.81"/>
        <rect class="cls-2" x="141.34" y="510.87" width="5.78" height="28.81"/>
        <rect class="cls-2" x="147.12" y="510.87" width="4.22" height="28.81"/>
        <rect class="cls-2" x="134.7" y="522.83" width=".85" height="4.41"/>
        <rect class="cls-2" x="135.55" y="522.83" width="5.78" height="4.41"/>
        <rect class="cls-2" x="141.34" y="522.83" width="5.78" height="4.41"/>
        <rect class="cls-2" x="147.12" y="522.83" width="1.9" height="4.41"/>
        <rect class="cls-2" x="82.69" y="510.87" width=".8" height="28.81"/>
        <rect class="cls-2" x="83.49" y="510.87" width="5.78" height="28.81"/>
        <rect class="cls-2" x="89.27" y="510.87" width="5.78" height="28.81"/>
        <rect class="cls-2" x="95.06" y="510.87" width="5.78" height="28.81"/>
        <rect class="cls-2" x="100.84" y="510.87" width="5.78" height="28.81"/>
        <rect class="cls-2" x="106.63" y="510.87" width="5.78" height="28.81"/>
        <rect class="cls-2" x="112.41" y="510.87" width="1.77" height="28.81"/>
        <rect class="cls-2" x="45.99" y="528.8" width="2.79" height="4.21"/>
        <rect class="cls-2" x="48.78" y="528.8" width="5.78" height="4.21"/>
        <rect class="cls-2" x="54.56" y="528.8" width="5.78" height="4.21"/>
        <rect class="cls-2" x="60.35" y="528.8" width="4.04" height="4.21"/>
        <rect class="cls-2" x="40.03" y="510.87" width="2.97" height="28.81"/>
        <rect class="cls-2" x="42.99" y="510.87" width="5.78" height="28.81"/>
        <rect class="cls-2" x="48.78" y="510.87" width="5.78" height="28.81"/>
        <rect class="cls-2" x="54.56" y="510.87" width="5.78" height="28.81"/>
        <rect class="cls-2" x="60.35" y="510.87" width="5.78" height="28.81"/>
        <rect class="cls-2" x="66.13" y="510.87" width="5.09" height="28.81"/>
        <rect class="cls-2" x="24.18" y="524.96" width="1.46" height="11.47"/>
        <rect class="cls-2" x="25.64" y="524.96" width="3.61" height="11.47"/>
        <rect class="cls-2" x="2.5" y="510.47" width="5.78" height="29.6"/>
        <rect class="cls-2" x="8.28" y="510.47" width="5.78" height="29.6"/>
        <rect class="cls-2" x="14.07" y="510.47" width="5.78" height="29.6"/>
        <rect class="cls-2" x="19.85" y="510.47" width="5.78" height="29.6"/>
        <rect class="cls-2" x="25.64" y="510.47" width="3.98" height="29.6"/>
      </g>
    </g>
    <g>
      <path class="cls-2" d="M92.44,481.03H22.36c-3.67,0-7.01-.9-10.01-2.69-3.01-1.77-5.39-4.15-7.16-7.16-1.79-3.01-2.69-6.34-2.69-10.01h0v-70.25c0-3.67.9-6.99,2.69-9.98,1.77-3.01,4.15-5.4,7.16-7.19,3.01-1.79,6.34-2.69,10.01-2.69h70.08c3.67,0,7.03.9,10.08,2.69,3.05,1.79,5.47,4.19,7.26,7.19,1.77,2.98,2.65,6.31,2.65,9.98h0v6.56h-16.64v-6.1c0-1.02-.35-1.91-1.06-2.69-.71-.75-1.62-1.13-2.75-1.13H22.82c-1.02,0-1.91.38-2.69,1.13-.77.77-1.16,1.67-1.16,2.69h0v69.32c0,1.02.39,1.91,1.16,2.69.77.75,1.67,1.13,2.69,1.13h69.15c1.13,0,2.04-.38,2.75-1.13.71-.77,1.06-1.67,1.06-2.69h0v-23.34h-25.96v-16.67h42.6v40.48c0,3.67-.88,7.01-2.65,10.01-1.79,3.01-4.21,5.39-7.26,7.16-3.05,1.79-6.41,2.69-10.08,2.69h0ZM232.46,481.03h-70.25c-3.67,0-7.01-.92-10.01-2.75-2.98-1.83-5.37-4.22-7.16-7.16-1.79-2.96-2.69-6.28-2.69-9.95h0v-32.69h73.46v-15.71c0-1.02-.35-1.91-1.06-2.69-.73-.75-1.6-1.13-2.62-1.13h-69.78v-16.51h70.25c3.67,0,7.01.9,10.01,2.69,3.01,1.79,5.39,4.21,7.16,7.26,1.79,3.05,2.69,6.35,2.69,9.91h0v68.72ZM162.68,464.52h53.14v-20.59h-56.95v16.77c0,1.02.38,1.91,1.13,2.69.77.75,1.67,1.13,2.69,1.13ZM275.52,481.03h-16.64v-88.58h113.14c3.78,0,7.14.92,10.08,2.75,2.96,1.83,5.33,4.23,7.09,7.19,1.79,2.94,2.69,6.24,2.69,9.91h0v68.72h-16.34v-68.26c0-1.02-.38-1.91-1.13-2.69-.77-.75-1.67-1.13-2.69-1.13h-34.05c-1.13,0-2.04.38-2.75,1.13-.71.77-1.06,1.67-1.06,2.69h0v68.26h-16.64v-68.26c0-1.02-.39-1.91-1.16-2.69-.77-.75-1.67-1.13-2.69-1.13h-34.18c-1.02,0-1.89.38-2.62,1.13-.71.77-1.06,1.67-1.06,2.69h0v68.26ZM439.05,481.03h0c-3.65,0-6.95-.92-9.91-2.75-2.96-1.83-5.36-4.22-7.19-7.16-1.81-2.96-2.72-6.28-2.72-9.95h0v-48.86c0-3.67.91-6.97,2.72-9.91,1.83-2.96,4.23-5.36,7.19-7.19,2.96-1.83,6.27-2.75,9.91-2.75h50.39c3.67,0,7.01.9,10.01,2.69,3.01,1.79,5.4,4.21,7.19,7.26,1.77,3.05,2.65,6.35,2.65,9.91h0v32.69h-73.59v15.71c0,1.02.39,1.91,1.16,2.69.75.75,1.64,1.13,2.65,1.13h69.78v16.51h-70.25ZM435.71,412.77v16.81h56.95v-16.81c0-1.02-.35-1.91-1.06-2.69-.71-.75-1.57-1.13-2.59-1.13h-49.49c-1.02,0-1.9.38-2.65,1.13-.77.77-1.16,1.67-1.16,2.69h0ZM539.86,481.03h0v-109.96h85.49c3.56,0,6.87.9,9.95,2.69,3.05,1.79,5.46,4.19,7.23,7.19,1.79,2.98,2.69,6.31,2.69,9.98h0v22.44c0,1.33-.13,2.65-.4,3.98-.24,1.33-.67,2.55-1.29,3.68h0c2.03,2.85,3.59,5.53,4.67,8.02,1.06,2.48,1.59,4.99,1.59,7.56h0v24.56c0,3.67-.9,7.01-2.69,10.01-1.77,3.01-4.18,5.39-7.23,7.16-3.05,1.79-6.41,2.69-10.08,2.69h-89.94ZM560.15,464.52h69.18c1.13,0,2.04-.38,2.75-1.13.71-.77,1.06-1.67,1.06-2.69h0v-23.67c0-1.02-.35-1.9-1.06-2.65-.71-.77-1.62-1.16-2.75-1.16h-69.18c-1.02,0-1.9.39-2.65,1.16-.77.75-1.16,1.64-1.16,2.65h0v23.67c0,1.02.39,1.91,1.16,2.69.75.75,1.64,1.13,2.65,1.13ZM560.15,416.75h64.74c1.02,0,1.89-.39,2.62-1.16.71-.75,1.06-1.64,1.06-2.65h0v-21.55c0-1.02-.35-1.91-1.06-2.69-.73-.75-1.6-1.13-2.62-1.13h-64.74c-1.02,0-1.9.38-2.65,1.13-.77.77-1.16,1.67-1.16,2.69h0v21.55c0,1.02.39,1.9,1.16,2.65.75.77,1.64,1.16,2.65,1.16ZM699.58,481.03h0c-3.67,0-7.01-.92-10.01-2.75-3.01-1.83-5.39-4.22-7.16-7.16-1.79-2.96-2.69-6.28-2.69-9.95h0v-68.72h16.48v68.26c0,1.02.39,1.91,1.16,2.69.77.75,1.67,1.13,2.69,1.13h49.46c1.02,0,1.91-.38,2.69-1.13.75-.77,1.13-1.67,1.13-2.69h0v-68.26h16.51v68.72c0,3.67-.9,6.98-2.69,9.95-1.79,2.94-4.18,5.33-7.16,7.16-3.01,1.83-6.34,2.75-10.01,2.75h-50.39ZM815.94,481.03h-16.51v-88.58h16.51v88.58ZM815.94,379.95h-16.51v-16.51h16.51v16.51ZM867.68,481.03h0c-3.67,0-6.97-.92-9.91-2.75-2.96-1.83-5.36-4.22-7.19-7.16-1.83-2.96-2.75-6.28-2.75-9.95h0v-97.73h16.51v97.26c0,1.02.39,1.91,1.16,2.69.75.75,1.64,1.13,2.65,1.13h16.04v16.51h-16.51ZM927.25,481.03h0c-3.67,0-7.01-.9-10.01-2.69-3.01-1.77-5.39-4.18-7.16-7.23-1.79-3.07-2.69-6.39-2.69-9.95h0v-48.86c0-3.67.9-6.97,2.69-9.91,1.77-2.96,4.15-5.36,7.16-7.19,3.01-1.83,6.34-2.75,10.01-2.75h53.74v-29.01h16.51v117.58h-70.25ZM927.85,464.52h49.49c1.02,0,1.88-.38,2.59-1.13.71-.77,1.06-1.67,1.06-2.69h0v-47.94c0-1.02-.35-1.91-1.06-2.69-.71-.75-1.57-1.13-2.59-1.13h-49.49c-1.02,0-1.9.38-2.65,1.13-.77.77-1.16,1.67-1.16,2.69h0v47.94c0,1.02.39,1.91,1.16,2.69.75.75,1.64,1.13,2.65,1.13Z"/>
      <g class="cls-1">
        <rect class="cls-2" x="924.04" y="408.96" width="4.04" height="55.56"/>
        <rect class="cls-2" x="928.08" y="408.96" width="5.78" height="55.56"/>
        <rect class="cls-2" x="933.87" y="408.96" width="5.78" height="55.56"/>
        <rect class="cls-2" x="939.65" y="408.96" width="5.78" height="55.56"/>
        <rect class="cls-2" x="945.44" y="408.96" width="5.78" height="55.56"/>
        <rect class="cls-2" x="951.22" y="408.96" width="5.78" height="55.56"/>
        <rect class="cls-2" x="957.01" y="408.96" width="5.78" height="55.56"/>
        <rect class="cls-2" x="962.79" y="408.96" width="5.78" height="55.56"/>
        <rect class="cls-2" x="968.58" y="408.96" width="5.78" height="55.56"/>
        <rect class="cls-2" x="974.36" y="408.96" width="5.78" height="55.56"/>
        <rect class="cls-2" x="980.15" y="408.96" width=".85" height="55.56"/>
        <rect class="cls-2" x="907.4" y="363.45" width="3.33" height="117.58"/>
        <rect class="cls-2" x="910.73" y="363.45" width="5.78" height="117.58"/>
        <rect class="cls-2" x="916.51" y="363.45" width="5.78" height="117.58"/>
        <rect class="cls-2" x="922.3" y="363.45" width="5.78" height="117.58"/>
        <rect class="cls-2" x="928.08" y="363.45" width="5.78" height="117.58"/>
        <rect class="cls-2" x="933.87" y="363.45" width="5.78" height="117.58"/>
        <rect class="cls-2" x="939.65" y="363.45" width="5.78" height="117.58"/>
        <rect class="cls-2" x="945.44" y="363.45" width="5.78" height="117.58"/>
        <rect class="cls-2" x="951.22" y="363.45" width="5.78" height="117.58"/>
        <rect class="cls-2" x="957.01" y="363.45" width="5.78" height="117.58"/>
        <rect class="cls-2" x="962.79" y="363.45" width="5.78" height="117.58"/>
        <rect class="cls-2" x="968.58" y="363.45" width="5.78" height="117.58"/>
        <rect class="cls-2" x="974.36" y="363.45" width="5.78" height="117.58"/>
        <rect class="cls-2" x="980.15" y="363.45" width="5.78" height="117.58"/>
        <rect class="cls-2" x="985.93" y="363.45" width="5.78" height="117.58"/>
        <rect class="cls-2" x="991.72" y="363.45" width="5.78" height="117.58"/>
        <rect class="cls-2" x="847.83" y="363.45" width="5.05" height="117.58"/>
        <rect class="cls-2" x="852.88" y="363.45" width="5.78" height="117.58"/>
        <rect class="cls-2" x="858.66" y="363.45" width="5.78" height="117.58"/>
        <rect class="cls-2" x="864.45" y="363.45" width="5.78" height="117.58"/>
        <rect class="cls-2" x="870.23" y="363.45" width="5.78" height="117.58"/>
        <rect class="cls-2" x="876.02" y="363.45" width="5.78" height="117.58"/>
        <rect class="cls-2" x="881.8" y="363.45" width="2.39" height="117.58"/>
        <rect class="cls-2" x="799.43" y="363.45" width="1.39" height="16.51"/>
        <rect class="cls-2" x="800.81" y="363.45" width="5.78" height="16.51"/>
        <rect class="cls-2" x="806.6" y="363.45" width="5.78" height="16.51"/>
        <rect class="cls-2" x="812.38" y="363.45" width="3.55" height="16.51"/>
        <rect class="cls-2" x="799.43" y="392.45" width="1.39" height="88.58"/>
        <rect class="cls-2" x="800.81" y="392.45" width="5.78" height="88.58"/>
        <rect class="cls-2" x="806.6" y="392.45" width="5.78" height="88.58"/>
        <rect class="cls-2" x="812.38" y="392.45" width="3.55" height="88.58"/>
        <rect class="cls-2" x="679.72" y="392.45" width="5.39" height="88.58"/>
        <rect class="cls-2" x="685.12" y="392.45" width="5.78" height="88.58"/>
        <rect class="cls-2" x="690.9" y="392.45" width="5.78" height="88.58"/>
        <rect class="cls-2" x="696.69" y="392.45" width="5.78" height="88.58"/>
        <rect class="cls-2" x="702.47" y="392.45" width="5.78" height="88.58"/>
        <rect class="cls-2" x="708.26" y="392.45" width="5.78" height="88.58"/>
        <rect class="cls-2" x="714.04" y="392.45" width="5.78" height="88.58"/>
        <rect class="cls-2" x="719.83" y="392.45" width="5.78" height="88.58"/>
        <rect class="cls-2" x="725.61" y="392.45" width="5.78" height="88.58"/>
        <rect class="cls-2" x="731.4" y="392.45" width="5.78" height="88.58"/>
        <rect class="cls-2" x="737.18" y="392.45" width="5.78" height="88.58"/>
        <rect class="cls-2" x="742.97" y="392.45" width="5.78" height="88.58"/>
        <rect class="cls-2" x="748.75" y="392.45" width="5.78" height="88.58"/>
        <rect class="cls-2" x="754.53" y="392.45" width="5.78" height="88.58"/>
        <rect class="cls-2" x="760.32" y="392.45" width="5.78" height="88.58"/>
        <rect class="cls-2" x="766.1" y="392.45" width="3.72" height="88.58"/>
        <rect class="cls-2" x="556.34" y="387.58" width="1.51" height="29.17"/>
        <rect class="cls-2" x="557.85" y="387.58" width="5.78" height="29.17"/>
        <rect class="cls-2" x="563.63" y="387.58" width="5.78" height="29.17"/>
        <rect class="cls-2" x="569.42" y="387.58" width="5.78" height="29.17"/>
        <rect class="cls-2" x="575.2" y="387.58" width="5.78" height="29.17"/>
        <rect class="cls-2" x="580.99" y="387.58" width="5.78" height="29.17"/>
        <rect class="cls-2" x="586.77" y="387.58" width="5.78" height="29.17"/>
        <rect class="cls-2" x="592.56" y="387.58" width="5.78" height="29.17"/>
        <rect class="cls-2" x="598.34" y="387.58" width="5.78" height="29.17"/>
        <rect class="cls-2" x="604.13" y="387.58" width="5.78" height="29.17"/>
        <rect class="cls-2" x="609.91" y="387.58" width="5.78" height="29.17"/>
        <rect class="cls-2" x="615.7" y="387.58" width="5.78" height="29.17"/>
        <rect class="cls-2" x="621.48" y="387.58" width="5.78" height="29.17"/>
        <rect class="cls-2" x="627.27" y="387.58" width="1.31" height="29.17"/>
        <rect class="cls-2" x="556.34" y="433.23" width="1.51" height="31.29"/>
        <rect class="cls-2" x="557.85" y="433.23" width="5.78" height="31.29"/>
        <rect class="cls-2" x="563.63" y="433.23" width="5.78" height="31.29"/>
        <rect class="cls-2" x="569.42" y="433.23" width="5.78" height="31.29"/>
        <rect class="cls-2" x="575.2" y="433.23" width="5.78" height="31.29"/>
        <rect class="cls-2" x="580.99" y="433.23" width="5.78" height="31.29"/>
        <rect class="cls-2" x="586.77" y="433.23" width="5.78" height="31.29"/>
        <rect class="cls-2" x="592.56" y="433.23" width="5.78" height="31.29"/>
        <rect class="cls-2" x="598.34" y="433.23" width="5.78" height="31.29"/>
        <rect class="cls-2" x="604.13" y="433.23" width="5.78" height="31.29"/>
        <rect class="cls-2" x="609.91" y="433.23" width="5.78" height="31.29"/>
        <rect class="cls-2" x="615.7" y="433.23" width="5.78" height="31.29"/>
        <rect class="cls-2" x="621.48" y="433.23" width="5.78" height="31.29"/>
        <rect class="cls-2" x="627.27" y="433.23" width="5.78" height="31.29"/>
        <rect class="cls-2" x="633.05" y="433.23" width=".1" height="31.29"/>
        <rect class="cls-2" x="539.86" y="371.07" width=".63" height="109.96"/>
        <rect class="cls-2" x="540.49" y="371.07" width="5.78" height="109.96"/>
        <rect class="cls-2" x="546.28" y="371.07" width="5.78" height="109.96"/>
        <rect class="cls-2" x="552.06" y="371.07" width="5.78" height="109.96"/>
        <rect class="cls-2" x="557.85" y="371.07" width="5.78" height="109.96"/>
        <rect class="cls-2" x="563.63" y="371.07" width="5.78" height="109.96"/>
        <rect class="cls-2" x="569.42" y="371.07" width="5.78" height="109.96"/>
        <rect class="cls-2" x="575.2" y="371.07" width="5.78" height="109.96"/>
        <rect class="cls-2" x="580.99" y="371.07" width="5.78" height="109.96"/>
        <rect class="cls-2" x="586.77" y="371.07" width="5.78" height="109.96"/>
        <rect class="cls-2" x="592.56" y="371.07" width="5.78" height="109.96"/>
        <rect class="cls-2" x="598.34" y="371.07" width="5.78" height="109.96"/>
        <rect class="cls-2" x="604.13" y="371.07" width="5.78" height="109.96"/>
        <rect class="cls-2" x="609.91" y="371.07" width="5.78" height="109.96"/>
        <rect class="cls-2" x="615.7" y="371.07" width="5.78" height="109.96"/>
        <rect class="cls-2" x="621.48" y="371.07" width="5.78" height="109.96"/>
        <rect class="cls-2" x="627.27" y="371.07" width="5.78" height="109.96"/>
        <rect class="cls-2" x="633.05" y="371.07" width="5.78" height="109.96"/>
        <rect class="cls-2" x="638.84" y="371.07" width="5.78" height="109.96"/>
        <rect class="cls-2" x="644.62" y="371.07" width="5.17" height="109.96"/>
        <rect class="cls-2" x="435.71" y="408.96" width=".66" height="20.62"/>
        <rect class="cls-2" x="436.37" y="408.96" width="5.78" height="20.62"/>
        <rect class="cls-2" x="442.15" y="408.96" width="5.78" height="20.62"/>
        <rect class="cls-2" x="447.94" y="408.96" width="5.78" height="20.62"/>
        <rect class="cls-2" x="453.72" y="408.96" width="5.78" height="20.62"/>
        <rect class="cls-2" x="459.51" y="408.96" width="5.78" height="20.62"/>
        <rect class="cls-2" x="465.29" y="408.96" width="5.78" height="20.62"/>
        <rect class="cls-2" x="471.08" y="408.96" width="5.78" height="20.62"/>
        <rect class="cls-2" x="476.86" y="408.96" width="5.78" height="20.62"/>
        <rect class="cls-2" x="482.65" y="408.96" width="5.78" height="20.62"/>
        <rect class="cls-2" x="488.43" y="408.96" width="4.23" height="20.62"/>
        <rect class="cls-2" x="419.23" y="392.45" width="5.57" height="88.58"/>
        <rect class="cls-2" x="424.8" y="392.45" width="5.78" height="88.58"/>
        <rect class="cls-2" x="430.58" y="392.45" width="5.78" height="88.58"/>
        <rect class="cls-2" x="436.37" y="392.45" width="5.78" height="88.58"/>
        <rect class="cls-2" x="442.15" y="392.45" width="5.78" height="88.58"/>
        <rect class="cls-2" x="447.94" y="392.45" width="5.78" height="88.58"/>
        <rect class="cls-2" x="453.72" y="392.45" width="5.78" height="88.58"/>
        <rect class="cls-2" x="459.51" y="392.45" width="5.78" height="88.58"/>
        <rect class="cls-2" x="465.29" y="392.45" width="5.78" height="88.58"/>
        <rect class="cls-2" x="471.08" y="392.45" width="5.78" height="88.58"/>
        <rect class="cls-2" x="476.86" y="392.45" width="5.78" height="88.58"/>
        <rect class="cls-2" x="482.65" y="392.45" width="5.78" height="88.58"/>
        <rect class="cls-2" x="488.43" y="392.45" width="5.78" height="88.58"/>
        <rect class="cls-2" x="494.22" y="392.45" width="5.78" height="88.58"/>
        <rect class="cls-2" x="500" y="392.45" width="5.78" height="88.58"/>
        <rect class="cls-2" x="505.78" y="392.45" width="3.51" height="88.58"/>
        <rect class="cls-2" x="258.88" y="392.45" width="3.94" height="88.58"/>
        <rect class="cls-2" x="262.82" y="392.45" width="5.78" height="88.58"/>
        <rect class="cls-2" x="268.6" y="392.45" width="5.78" height="88.58"/>
        <rect class="cls-2" x="274.39" y="392.45" width="5.78" height="88.58"/>
        <rect class="cls-2" x="280.17" y="392.45" width="5.78" height="88.58"/>
        <rect class="cls-2" x="285.96" y="392.45" width="5.78" height="88.58"/>
        <rect class="cls-2" x="291.74" y="392.45" width="5.78" height="88.58"/>
        <rect class="cls-2" x="297.53" y="392.45" width="5.78" height="88.58"/>
        <rect class="cls-2" x="303.31" y="392.45" width="5.78" height="88.58"/>
        <rect class="cls-2" x="309.1" y="392.45" width="5.78" height="88.58"/>
        <rect class="cls-2" x="314.88" y="392.45" width="5.78" height="88.58"/>
        <rect class="cls-2" x="320.67" y="392.45" width="5.78" height="88.58"/>
        <rect class="cls-2" x="326.45" y="392.45" width="5.78" height="88.58"/>
        <rect class="cls-2" x="332.24" y="392.45" width="5.78" height="88.58"/>
        <rect class="cls-2" x="338.02" y="392.45" width="5.78" height="88.58"/>
        <rect class="cls-2" x="343.81" y="392.45" width="5.78" height="88.58"/>
        <rect class="cls-2" x="349.59" y="392.45" width="5.78" height="88.58"/>
        <rect class="cls-2" x="355.38" y="392.45" width="5.78" height="88.58"/>
        <rect class="cls-2" x="361.16" y="392.45" width="5.78" height="88.58"/>
        <rect class="cls-2" x="366.95" y="392.45" width="5.78" height="88.58"/>
        <rect class="cls-2" x="372.73" y="392.45" width="5.78" height="88.58"/>
        <rect class="cls-2" x="378.52" y="392.45" width="5.78" height="88.58"/>
        <rect class="cls-2" x="384.3" y="392.45" width="5.78" height="88.58"/>
        <rect class="cls-2" x="390.09" y="392.45" width="1.79" height="88.58"/>
        <rect class="cls-2" x="158.87" y="443.93" width="5.61" height="20.59"/>
        <rect class="cls-2" x="164.48" y="443.93" width="5.78" height="20.59"/>
        <rect class="cls-2" x="170.26" y="443.93" width="5.78" height="20.59"/>
        <rect class="cls-2" x="176.05" y="443.93" width="5.78" height="20.59"/>
        <rect class="cls-2" x="181.83" y="443.93" width="5.78" height="20.59"/>
        <rect class="cls-2" x="187.62" y="443.93" width="5.78" height="20.59"/>
        <rect class="cls-2" x="193.4" y="443.93" width="5.78" height="20.59"/>
        <rect class="cls-2" x="199.19" y="443.93" width="5.78" height="20.59"/>
        <rect class="cls-2" x="204.97" y="443.93" width="5.78" height="20.59"/>
        <rect class="cls-2" x="210.76" y="443.93" width="5.07" height="20.59"/>
        <rect class="cls-2" x="142.36" y="392.45" width="4.76" height="88.58"/>
        <rect class="cls-2" x="147.12" y="392.45" width="5.78" height="88.58"/>
        <rect class="cls-2" x="152.91" y="392.45" width="5.78" height="88.58"/>
        <rect class="cls-2" x="158.69" y="392.45" width="5.78" height="88.58"/>
        <rect class="cls-2" x="164.48" y="392.45" width="5.78" height="88.58"/>
        <rect class="cls-2" x="170.26" y="392.45" width="5.78" height="88.58"/>
        <rect class="cls-2" x="176.05" y="392.45" width="5.78" height="88.58"/>
        <rect class="cls-2" x="181.83" y="392.45" width="5.78" height="88.58"/>
        <rect class="cls-2" x="187.62" y="392.45" width="5.78" height="88.58"/>
        <rect class="cls-2" x="193.4" y="392.45" width="5.78" height="88.58"/>
        <rect class="cls-2" x="199.19" y="392.45" width="5.78" height="88.58"/>
        <rect class="cls-2" x="204.97" y="392.45" width="5.78" height="88.58"/>
        <rect class="cls-2" x="210.76" y="392.45" width="5.78" height="88.58"/>
        <rect class="cls-2" x="216.54" y="392.45" width="5.78" height="88.58"/>
        <rect class="cls-2" x="222.33" y="392.45" width="5.78" height="88.58"/>
        <rect class="cls-2" x="228.11" y="392.45" width="4.35" height="88.58"/>
        <rect class="cls-2" x="2.5" y="371.07" width="5.78" height="109.96"/>
        <rect class="cls-2" x="8.28" y="371.07" width="5.78" height="109.96"/>
        <rect class="cls-2" x="14.07" y="371.07" width="5.78" height="109.96"/>
        <rect class="cls-2" x="19.85" y="371.07" width="5.78" height="109.96"/>
        <rect class="cls-2" x="25.64" y="371.07" width="5.78" height="109.96"/>
        <rect class="cls-2" x="31.42" y="371.07" width="5.78" height="109.96"/>
        <rect class="cls-2" x="37.21" y="371.07" width="5.78" height="109.96"/>
        <rect class="cls-2" x="42.99" y="371.07" width="5.78" height="109.96"/>
        <rect class="cls-2" x="48.78" y="371.07" width="5.78" height="109.96"/>
        <rect class="cls-2" x="54.56" y="371.07" width="5.78" height="109.96"/>
        <rect class="cls-2" x="60.35" y="371.07" width="5.78" height="109.96"/>
        <rect class="cls-2" x="66.13" y="371.07" width="5.78" height="109.96"/>
        <rect class="cls-2" x="71.92" y="371.07" width="5.78" height="109.96"/>
        <rect class="cls-2" x="77.7" y="371.07" width="5.78" height="109.96"/>
        <rect class="cls-2" x="83.49" y="371.07" width="5.78" height="109.96"/>
        <rect class="cls-2" x="89.27" y="371.07" width="5.78" height="109.96"/>
        <rect class="cls-2" x="95.06" y="371.07" width="5.78" height="109.96"/>
        <rect class="cls-2" x="100.84" y="371.07" width="5.78" height="109.96"/>
        <rect class="cls-2" x="106.63" y="371.07" width="5.78" height="109.96"/>
        <rect class="cls-2" x="112.41" y="371.07" width=".01" height="109.96"/>
      </g>
    </g>
  </g>
  <g>
    <path class="cls-2" d="M377.94,302.56c-1.65,0-3.41-.03-5.36-.11-17.63-.74-31.65-8.82-39.49-22.76-5.67-10.08-6.18-19.92-6.22-21.01,0-.17,0-.33,0-.5V59.13c0-19.09,7.57-30.32,13.91-36.38,13.19-12.6,30.51-12.81,33.9-12.71h145.9c7.67,0,13.89,6.22,13.89,13.89s-6.22,13.89-13.89,13.89h-146.13c-.21,0-.42,0-.63-.01.07,0-8.58-.12-13.97,5.15-3.45,3.38-5.2,8.82-5.2,16.18v198.68c.35,4.84,2.94,16.2,19.1,16.88,3.66.15,6.46.08,9.48-.02,9.69-.33,15.38-4.98,21.86-12.91,2.85-3.84,38.19-51.35,50.78-68.17l.68-.92c6.02-8.09,18.53-24.92,41.68-24.92s35.46,16.75,40.48,23.91c3.22,4.59,10.82,15.15,15.44,21.39,4.63,6.26,8.17,9.45,12.61,11.4,8.51,3.73,16.43,3.1,24.24-1.92,18.28-11.75,11.62-32.29,10.8-34.59-.04-.11-.12-.33-.15-.44-.11-.32-10.62-32.35-14.07-41.93-.58-1.63-1.16-3.26-1.73-4.9-4.22-12.07-7.85-22.5-16.36-28.94-6.11-4.63-7.32-13.34-2.68-19.46,4.63-6.11,13.34-7.32,19.46-2.68,15.2,11.51,20.84,27.67,25.81,41.93.55,1.56,1.09,3.12,1.65,4.67,3.45,9.6,13.17,39.16,14.23,42.41,5.52,15.07,7.93,48.1-21.94,67.3-15.79,10.15-33.22,11.53-50.42,3.99-11.41-5-18.42-13.07-23.78-20.31-4.82-6.51-12.48-17.16-15.86-21.97-4.8-6.85-9.14-12.08-17.73-12.08s-13.61,5.95-19.39,13.72l-.74.99c-13.1,17.51-50.91,68.35-50.91,68.35-.12.16-.24.32-.36.47-8.53,10.5-21.1,22.65-42.66,23.38-1.93.07-3.96.12-6.23.12Z"/>
    <path class="cls-2" d="M628.89,302.46h-172.42c-7.67,0-13.89-6.22-13.89-13.89s6.22-13.89,13.89-13.89h171.44c4.64-.78,17.44-4.65,17.44-23.12V56.58c0-8.58-2.86-18.82-16.47-18.82h-21.09c-.67,0-1.42-.01-2.25-.03-7.71-.15-19.42-.38-29.78,12.55-1.95,2.59-27.4,36.4-36.16,47.93-5.41,7.12-18.09,23.78-39.85,23.78-19.79,0-31.51-12.37-37.8-19.01-6.4-6.75-11.29-8.01-18.11-8.01-6.18,0-13.79,3.39-16.72,12.87-.99,3.69-13.88,51.76-21.92,83.27-2.09,8.2.12,19.11,2.06,21.67,4.64,6.11,3.46,14.82-2.64,19.46-6.11,4.64-14.82,3.46-19.46-2.65-8.65-11.37-10.28-31.99-6.87-45.36,8.36-32.78,21.93-83.32,22.07-83.83.04-.13.07-.27.11-.4,5.91-19.63,23.34-32.83,43.38-32.83,10.46,0,24.26,1.88,38.18,16.58,5.83,6.16,10.45,10.44,17.73,10.44s12.6-6.06,17.74-12.82c9.1-11.96,36.19-47.97,36.2-47.97.07-.1.15-.19.23-.29,18.94-23.83,43.1-23.36,52.18-23.17.63.01,22.8.02,22.8.02,26.05,0,44.25,19.16,44.25,46.59v194.98c0,36.5-27.96,49.2-42.74,50.81-.5.05-1,.08-1.51.08Z"/>
  </g>
</svg>