<?xml version="1.0" encoding="UTF-8"?>
<svg id="_레이어_1" data-name="레이어 1" xmlns="http://www.w3.org/2000/svg" xmlns:xlink="http://www.w3.org/1999/xlink" viewBox="0 0 500 550">
  <defs>
    <style>
      .cls-1 {
        fill: #1000aa;
      }

      .cls-2 {
        clip-path: url(#clippath-1);
      }

      .cls-3 {
        clip-path: url(#clippath);
      }
    </style>
    <clipPath id="clippath">
      <path class="cls-1" d="M17.43,545h0c-1.09,0-2.08-.18-2.99-.53-.9-.35-1.68-.85-2.37-1.49-.67-.64-1.19-1.4-1.57-2.27-.36-.87-.54-1.83-.54-2.86h0c0-1.02.18-1.97.54-2.85.37-.87.9-1.63,1.58-2.27.68-.64,1.48-1.14,2.38-1.49.92-.35,1.92-.53,3.01-.53h0c1.17,0,2.23.19,3.18.58.94.38,1.73.94,2.38,1.68h0l-1.63,1.6c-.53-.54-1.11-.94-1.74-1.2-.63-.27-1.32-.4-2.08-.4h0c-.73,0-1.4.12-2.02.37-.63.23-1.17.57-1.62,1.01-.45.44-.79.95-1.04,1.55-.25.59-.37,1.24-.37,1.95h0c0,.7.12,1.35.37,1.95s.59,1.11,1.04,1.55c.45.45.98.79,1.58,1.02.61.25,1.28.37,2.03.37h0c.68,0,1.34-.11,1.98-.34.65-.21,1.26-.58,1.84-1.1h0l1.47,1.94c-.73.58-1.57,1.01-2.53,1.31-.96.3-1.93.45-2.91.45ZM22.87,543.24l-2.45-.35v-5.18h2.45v5.53ZM30.72,544.81h-2.66l6.25-13.9h2.53l6.27,13.9h-2.69l-5.39-12.52h1.04l-5.36,12.52ZM39.83,541.59h-8.88l.69-2.03h7.5l.69,2.03ZM51.12,544.81h-2.46v-13.9h2.13l6.06,10.14h-1.1l5.97-10.14h2.13l.02,13.9h-2.43l-.03-10.06h.53l-5.09,8.46h-1.15l-5.15-8.46h.59v10.06ZM73.75,538.81v-2.13h6.91v2.13h-6.91ZM73.94,533.08v9.55h7.84v2.18h-10.41v-13.9h10.14v2.18h-7.57ZM100.25,544.81h-2.58v-13.9h2.58v13.9ZM110.33,544.81h-2.56v-13.9h2.13l8.7,10.7h-1.06v-10.7h2.56v13.9h-2.11l-8.72-10.7h1.06v10.7ZM129.97,539.48v-2.18h6.93v2.18h-6.93ZM130.18,533.08v11.72h-2.58v-13.9h10.14v2.18h-7.57ZM146.59,544.81h-2.58v-13.9h5.71c1.23,0,2.28.2,3.17.61.87.39,1.55.96,2.03,1.7.48.75.72,1.63.72,2.64h0c0,1.02-.24,1.9-.72,2.64-.48.73-1.16,1.28-2.03,1.68-.89.39-1.94.59-3.17.59h-4.29l1.15-1.18v5.23ZM155.86,544.81h-2.77l-3.52-5.04h2.77l3.52,5.04ZM146.59,531.82v8.05l-1.15-1.23h4.17c1.13,0,1.98-.25,2.56-.74.58-.49.86-1.17.86-2.05h0c0-.89-.29-1.57-.86-2.05-.58-.47-1.43-.7-2.56-.7h-4.17l1.15-1.28ZM162.97,544.81h-2.66l6.25-13.9h2.54l6.27,13.9h-2.7l-5.37-12.52h1.02l-5.36,12.52ZM172.08,541.59h-8.89l.69-2.03h7.5l.7,2.03ZM185.21,545h0c-1.09,0-2.13-.15-3.12-.46-.99-.31-1.78-.71-2.37-1.2h0l.9-2.02c.55.44,1.24.81,2.06,1.1.82.29,1.66.43,2.53.43h0c.73,0,1.31-.08,1.76-.24s.78-.37.99-.64c.21-.28.32-.59.32-.93h0c0-.43-.15-.77-.46-1.02-.3-.26-.69-.46-1.17-.61-.49-.15-1.03-.29-1.62-.43-.59-.13-1.17-.28-1.76-.46-.59-.18-1.12-.41-1.62-.69-.48-.29-.87-.67-1.17-1.15-.31-.47-.46-1.08-.46-1.82h0c0-.76.2-1.44.61-2.06.41-.63,1.02-1.14,1.84-1.52.83-.37,1.88-.56,3.15-.56h0c.83,0,1.66.11,2.48.32.82.21,1.54.52,2.14.91h0l-.82,2c-.62-.37-1.26-.65-1.92-.82-.66-.18-1.3-.27-1.9-.27h0c-.71,0-1.3.09-1.74.26-.45.17-.77.39-.98.67-.2.28-.3.6-.3.96h0c0,.42.15.76.45,1.02.3.26.69.45,1.17.59.48.15,1.02.29,1.62.43s1.19.29,1.78.46c.59.17,1.12.39,1.62.67.48.28.87.66,1.17,1.14.3.48.45,1.08.45,1.81h0c0,.74-.2,1.42-.61,2.05-.41.63-1.02,1.14-1.86,1.52-.83.37-1.88.56-3.15.56ZM202.55,544.81h-2.59v-11.71h-4.59v-2.19h11.77v2.19h-4.59v11.71ZM215.44,544.81h-2.58v-13.9h5.71c1.23,0,2.28.2,3.17.61.87.39,1.55.96,2.03,1.7.47.75.7,1.63.7,2.64h0c0,1.02-.23,1.9-.7,2.64-.48.73-1.16,1.28-2.03,1.68-.89.39-1.94.59-3.17.59h-4.29l1.15-1.18v5.23ZM224.72,544.81h-2.77l-3.52-5.04h2.75l3.53,5.04ZM215.44,531.82v8.05l-1.15-1.23h4.16c1.14,0,2-.25,2.58-.74.58-.49.86-1.17.86-2.05h0c0-.89-.29-1.57-.86-2.05-.58-.47-1.43-.7-2.58-.7h-4.16l1.15-1.28ZM237.1,545h0c-1.91,0-3.4-.54-4.48-1.62-1.08-1.07-1.62-2.61-1.62-4.64h0v-7.84h2.59v7.74c0,1.43.3,2.47.91,3.12.62.65,1.49.98,2.61.98h0c1.13,0,2-.33,2.61-.98.61-.65.91-1.69.91-3.12h0v-7.74h2.54v7.84c0,2.03-.54,3.57-1.63,4.64-1.08,1.08-2.56,1.62-4.45,1.62ZM256.98,545h0c-1.06,0-2.04-.18-2.94-.53-.91-.35-1.7-.85-2.37-1.49-.67-.64-1.19-1.4-1.55-2.27-.37-.87-.56-1.83-.56-2.86h0c0-1.02.19-1.97.56-2.85.36-.87.89-1.63,1.57-2.27.67-.64,1.46-1.14,2.35-1.49.91-.35,1.89-.53,2.96-.53h0c1.14,0,2.18.2,3.12.59.94.38,1.73.96,2.38,1.73h0l-1.68,1.57c-.5-.54-1.06-.95-1.68-1.22-.62-.28-1.3-.42-2.03-.42h0c-.73,0-1.39.12-1.98.37-.61.23-1.13.57-1.57,1.01-.45.44-.79.95-1.04,1.55-.25.59-.37,1.24-.37,1.95h0c0,.71.12,1.37.37,1.97.25.6.59,1.11,1.04,1.55.44.44.96.77,1.57,1.01.6.25,1.26.37,1.98.37h0c.74,0,1.41-.14,2.03-.42.62-.27,1.18-.68,1.68-1.23h0l1.68,1.58c-.65.76-1.44,1.33-2.38,1.73-.94.39-1.98.59-3.13.59ZM274.14,544.81h-2.59v-11.71h-4.59v-2.19h11.77v2.19h-4.59v11.71ZM290.43,545h0c-1.91,0-3.4-.54-4.48-1.62-1.08-1.07-1.62-2.61-1.62-4.64h0v-7.84h2.58v7.74c0,1.43.31,2.47.93,3.12.62.65,1.49.98,2.61.98h0c1.12,0,1.98-.33,2.59-.98.61-.65.91-1.69.91-3.12h0v-7.74h2.54v7.84c0,2.03-.54,3.57-1.62,4.64-1.08,1.08-2.56,1.62-4.45,1.62ZM306.45,544.81h-2.58v-13.9h5.71c1.23,0,2.28.2,3.17.61.87.39,1.55.96,2.03,1.7.47.75.7,1.63.7,2.64h0c0,1.02-.23,1.9-.7,2.64-.48.73-1.16,1.28-2.03,1.68-.89.39-1.94.59-3.17.59h-4.29l1.15-1.18v5.23ZM315.73,544.81h-2.77l-3.52-5.04h2.75l3.53,5.04ZM306.45,531.82v8.05l-1.15-1.23h4.16c1.14,0,2-.25,2.58-.74.58-.49.86-1.17.86-2.05h0c0-.89-.29-1.57-.86-2.05-.58-.47-1.43-.7-2.58-.7h-4.16l1.15-1.28ZM324.53,538.81v-2.13h6.89v2.13h-6.89ZM324.72,533.08v9.55h7.84v2.18h-10.41v-13.9h10.14v2.18h-7.57ZM351.03,544.81h-2.59v-13.9h5.71c1.24,0,2.29.2,3.17.61.89.39,1.56.96,2.03,1.7.48.75.72,1.63.72,2.64h0c0,1.02-.24,1.9-.72,2.64-.47.75-1.15,1.32-2.03,1.71-.87.39-1.93.59-3.17.59h-4.27l1.15-1.22v5.23ZM351.03,531.82v8.05l-1.15-1.25h4.16c1.14,0,2-.25,2.58-.74.58-.48.86-1.16.86-2.03h0c0-.89-.29-1.57-.86-2.05-.58-.47-1.43-.7-2.58-.7h-4.16l1.15-1.28ZM369.2,544.81h-2.59v-13.9h5.71c1.24,0,2.29.2,3.17.61.89.39,1.56.96,2.03,1.7.48.75.72,1.63.72,2.64h0c0,1.02-.24,1.9-.72,2.64-.47.73-1.15,1.28-2.03,1.68-.87.39-1.93.59-3.17.59h-4.27l1.15-1.18v5.23ZM378.47,544.81h-2.78l-3.5-5.04h2.75l3.53,5.04ZM369.2,531.82v8.05l-1.15-1.23h4.16c1.14,0,2-.25,2.58-.74.58-.49.86-1.17.86-2.05h0c0-.89-.29-1.57-.86-2.05-.58-.47-1.43-.7-2.58-.7h-4.16l1.15-1.28ZM391.38,545h0c-1.08,0-2.07-.18-2.99-.54-.92-.35-1.71-.85-2.38-1.49-.67-.64-1.19-1.4-1.57-2.27-.36-.86-.54-1.81-.54-2.85h0c0-1.02.18-1.97.54-2.85.37-.86.9-1.62,1.57-2.26.67-.64,1.47-1.14,2.38-1.5.92-.35,1.91-.53,2.97-.53h0c1.09,0,2.08.18,2.99.53.91.36,1.7.86,2.37,1.5.67.64,1.19,1.39,1.57,2.26.37.87.56,1.82.56,2.85h0c0,1.03-.19,1.99-.56,2.86-.37.87-.9,1.63-1.57,2.26-.67.64-1.46,1.14-2.37,1.49-.91.36-1.9.54-2.97.54ZM391.37,542.74h0c.7,0,1.35-.12,1.95-.37.59-.23,1.1-.58,1.54-1.02.44-.44.78-.95,1.02-1.54.25-.6.37-1.25.37-1.97h0c0-.71-.12-1.36-.37-1.95-.25-.59-.59-1.1-1.02-1.54-.44-.45-.95-.79-1.54-1.02-.6-.25-1.25-.37-1.95-.37h0c-.7,0-1.35.12-1.94.37-.59.23-1.1.58-1.55,1.02-.44.44-.78.95-1.02,1.54-.25.59-.37,1.24-.37,1.95h0c0,.7.12,1.35.37,1.95.25.6.59,1.11,1.02,1.55.44.45.95.79,1.55,1.02.59.25,1.23.37,1.94.37ZM410.75,544.81h-2.58v-11.71h-4.61v-2.19h11.77v2.19h-4.59v11.71ZM427.56,545h0c-1.08,0-2.07-.18-2.99-.54-.91-.35-1.7-.85-2.38-1.49-.67-.64-1.19-1.4-1.57-2.27-.36-.86-.54-1.81-.54-2.85h0c0-1.02.18-1.97.54-2.85.37-.86.9-1.62,1.57-2.26.68-.64,1.48-1.14,2.38-1.5.92-.35,1.91-.53,2.97-.53h0c1.09,0,2.08.18,2.99.53.91.36,1.7.86,2.37,1.5.67.64,1.19,1.39,1.57,2.26.37.87.56,1.82.56,2.85h0c0,1.03-.19,1.99-.56,2.86-.37.87-.9,1.63-1.57,2.26-.67.64-1.46,1.14-2.37,1.49-.91.36-1.9.54-2.97.54ZM427.55,542.74h0c.7,0,1.35-.12,1.95-.37.6-.23,1.11-.58,1.54-1.02.44-.44.78-.95,1.02-1.54.25-.6.37-1.25.37-1.97h0c0-.71-.12-1.36-.37-1.95-.25-.59-.59-1.1-1.02-1.54-.43-.45-.94-.79-1.54-1.02-.6-.25-1.25-.37-1.95-.37h0c-.7,0-1.35.12-1.94.37-.59.23-1.1.58-1.54,1.02-.45.44-.79.95-1.04,1.54s-.37,1.24-.37,1.95h0c0,.7.12,1.35.37,1.95s.59,1.11,1.02,1.55c.44.45.95.79,1.55,1.02.59.25,1.23.37,1.94.37ZM447.95,545h0c-1.06,0-2.04-.18-2.94-.53-.91-.35-1.69-.85-2.35-1.49-.67-.64-1.19-1.4-1.57-2.27-.36-.87-.54-1.83-.54-2.86h0c0-1.02.18-1.97.54-2.85.37-.87.9-1.63,1.57-2.27.67-.64,1.46-1.14,2.37-1.49.9-.35,1.88-.53,2.96-.53h0c1.13,0,2.16.2,3.1.59.94.38,1.73.96,2.38,1.73h0l-1.66,1.57c-.5-.54-1.06-.95-1.68-1.22-.63-.28-1.31-.42-2.03-.42h0c-.73,0-1.39.12-2,.37-.6.23-1.12.57-1.57,1.01-.44.44-.78.95-1.02,1.55-.25.59-.37,1.24-.37,1.95h0c0,.71.12,1.37.37,1.97.25.6.59,1.11,1.02,1.55.45.44.97.77,1.57,1.01.61.25,1.27.37,2,.37h0c.73,0,1.4-.14,2.03-.42.62-.27,1.18-.68,1.68-1.23h0l1.66,1.58c-.65.76-1.44,1.33-2.38,1.73-.94.39-1.98.59-3.13.59ZM466.24,545h0c-1.09,0-2.09-.18-3.01-.54-.91-.35-1.7-.85-2.38-1.49-.67-.64-1.19-1.4-1.57-2.27-.36-.86-.54-1.81-.54-2.85h0c0-1.02.18-1.97.54-2.85.37-.86.9-1.62,1.57-2.26.68-.64,1.48-1.14,2.38-1.5.92-.35,1.91-.53,2.97-.53h0c1.09,0,2.08.18,2.99.53.91.36,1.7.86,2.37,1.5.67.64,1.19,1.39,1.57,2.26.37.87.56,1.82.56,2.85h0c0,1.03-.19,1.99-.56,2.86-.37.87-.9,1.63-1.57,2.26-.67.64-1.46,1.14-2.37,1.49-.91.36-1.89.54-2.96.54ZM466.2,542.74h0c.7,0,1.35-.12,1.95-.37.6-.23,1.11-.58,1.55-1.02.44-.44.77-.95,1.01-1.54.25-.6.37-1.25.37-1.97h0c0-.71-.12-1.36-.37-1.95-.23-.59-.57-1.1-1.01-1.54-.44-.45-.95-.79-1.55-1.02-.6-.25-1.25-.37-1.95-.37h0c-.69,0-1.34.12-1.94.37-.59.23-1.1.58-1.54,1.02-.45.44-.79.95-1.04,1.54-.25.59-.37,1.24-.37,1.95h0c0,.7.12,1.35.37,1.95.25.6.59,1.11,1.02,1.55.44.45.95.79,1.55,1.02.6.25,1.24.37,1.94.37ZM490.04,544.81h-9.84v-13.9h2.58v11.71h7.26v2.19Z"/>
    </clipPath>
    <clipPath id="clippath-1">
      <path class="cls-1" d="M53.36,516.51H19.54c-1.77,0-3.38-.43-4.83-1.3-1.45-.85-2.6-2-3.45-3.45-.86-1.45-1.3-3.06-1.3-4.83h0v-33.89c0-1.77.43-3.37,1.3-4.81.85-1.45,2-2.61,3.45-3.47,1.45-.86,3.06-1.3,4.83-1.3h33.81c1.77,0,3.39.43,4.86,1.3,1.47.86,2.64,2.02,3.5,3.47.85,1.44,1.28,3.04,1.28,4.81h0v3.17h-8.03v-2.94c0-.49-.17-.92-.51-1.3-.34-.36-.78-.54-1.33-.54H19.77c-.49,0-.92.18-1.3.54-.37.37-.56.81-.56,1.3h0v33.44c0,.49.19.92.56,1.3.37.36.81.54,1.3.54h33.36c.54,0,.99-.18,1.33-.54.34-.37.51-.81.51-1.3h0v-11.26h-12.52v-8.05h20.55v19.53c0,1.77-.43,3.38-1.28,4.83-.86,1.45-2.03,2.6-3.5,3.45-1.47.86-3.09,1.3-4.86,1.3h0ZM120.92,516.51h-33.89c-1.77,0-3.38-.44-4.83-1.33-1.44-.89-2.59-2.04-3.45-3.45-.86-1.43-1.3-3.03-1.3-4.8h0v-15.77h35.44v-7.58c0-.49-.17-.92-.51-1.3-.35-.36-.77-.54-1.26-.54h-33.67v-7.97h33.89c1.77,0,3.38.43,4.83,1.3,1.45.86,2.6,2.03,3.45,3.5.86,1.47,1.3,3.07,1.3,4.78h0v33.16ZM87.25,508.55h25.64v-9.93h-27.48v8.09c0,.49.18.92.54,1.3.37.36.81.54,1.3.54ZM141.69,516.51h-8.03v-42.74h54.59c1.82,0,3.44.44,4.86,1.33,1.43.89,2.57,2.04,3.42,3.47.86,1.42,1.3,3.01,1.3,4.78h0v33.16h-7.89v-32.93c0-.49-.18-.92-.54-1.3-.37-.36-.81-.54-1.3-.54h-16.43c-.54,0-.99.18-1.33.54-.34.37-.51.81-.51,1.3h0v32.93h-8.03v-32.93c0-.49-.19-.92-.56-1.3-.37-.36-.81-.54-1.3-.54h-16.49c-.49,0-.91.18-1.26.54-.34.37-.51.81-.51,1.3h0v32.93ZM220.59,516.51h0c-1.76,0-3.35-.44-4.78-1.33-1.43-.89-2.59-2.04-3.47-3.45-.87-1.43-1.31-3.03-1.31-4.8h0v-23.58c0-1.77.44-3.36,1.31-4.78.89-1.43,2.04-2.59,3.47-3.47,1.43-.89,3.02-1.33,4.78-1.33h24.31c1.77,0,3.38.43,4.83,1.3,1.45.86,2.61,2.03,3.47,3.5.85,1.47,1.28,3.07,1.28,4.78h0v15.77h-35.51v7.58c0,.49.19.92.56,1.3.36.36.79.54,1.28.54h33.67v7.97h-33.89ZM218.98,483.58v8.11h27.48v-8.11c0-.49-.17-.92-.51-1.3-.34-.36-.76-.54-1.25-.54h-23.88c-.49,0-.92.18-1.28.54-.37.37-.56.81-.56,1.3h0ZM269.23,516.51h0v-53.05h41.25c1.72,0,3.32.43,4.8,1.3,1.47.86,2.63,2.02,3.49,3.47.86,1.44,1.3,3.04,1.3,4.81h0v10.83c0,.64-.06,1.28-.19,1.92-.12.64-.33,1.23-.62,1.78h0c.98,1.38,1.73,2.67,2.26,3.87.51,1.19.77,2.41.77,3.65h0v11.85c0,1.77-.43,3.38-1.3,4.83-.85,1.45-2.02,2.6-3.49,3.45-1.47.86-3.09,1.3-4.86,1.3h-43.39ZM279.02,508.55h33.38c.54,0,.99-.18,1.33-.54.34-.37.51-.81.51-1.3h0v-11.42c0-.49-.17-.92-.51-1.28-.34-.37-.78-.56-1.33-.56h-33.38c-.49,0-.92.19-1.28.56-.37.36-.56.79-.56,1.28h0v11.42c0,.49.19.92.56,1.3.36.36.79.54,1.28.54ZM279.02,485.5h31.24c.49,0,.91-.19,1.26-.56.34-.36.51-.79.51-1.28h0v-10.4c0-.49-.17-.92-.51-1.3-.35-.36-.77-.54-1.26-.54h-31.24c-.49,0-.92.18-1.28.54-.37.37-.56.81-.56,1.3h0v10.4c0,.49.19.92.56,1.28.36.37.79.56,1.28.56ZM346.29,516.51h0c-1.77,0-3.38-.44-4.83-1.33-1.45-.89-2.6-2.04-3.45-3.45-.86-1.43-1.3-3.03-1.3-4.8h0v-33.16h7.95v32.93c0,.49.19.92.56,1.3.37.36.81.54,1.3.54h23.86c.49,0,.92-.18,1.3-.54.36-.37.54-.81.54-1.3h0v-32.93h7.97v33.16c0,1.77-.43,3.37-1.3,4.8-.86,1.42-2.02,2.57-3.45,3.45-1.45.89-3.06,1.33-4.83,1.33h-24.31ZM402.43,516.51h-7.97v-42.74h7.97v42.74ZM402.43,467.75h-7.97v-7.97h7.97v7.97ZM427.4,516.51h0c-1.77,0-3.36-.44-4.78-1.33-1.43-.89-2.59-2.04-3.47-3.45-.89-1.43-1.33-3.03-1.33-4.8h0v-47.15h7.97v46.93c0,.49.19.92.56,1.3.36.36.79.54,1.28.54h7.74v7.97h-7.97ZM456.14,516.51h0c-1.77,0-3.38-.43-4.83-1.3-1.45-.85-2.6-2.02-3.45-3.49-.86-1.48-1.3-3.08-1.3-4.8h0v-23.58c0-1.77.43-3.36,1.3-4.78.85-1.43,2-2.59,3.45-3.47,1.45-.89,3.06-1.33,4.83-1.33h25.93v-14h7.97v56.73h-33.89ZM456.43,508.55h23.88c.49,0,.91-.18,1.25-.54.34-.37.51-.81.51-1.3h0v-23.13c0-.49-.17-.92-.51-1.3-.34-.36-.76-.54-1.25-.54h-23.88c-.49,0-.92.18-1.28.54-.37.37-.56.81-.56,1.3h0v23.13c0,.49.19.92.56,1.3.36.36.79.54,1.28.54Z"/>
    </clipPath>
  </defs>
  <g>
    <path class="cls-1" d="M80.76,410.71c-2.28,0-4.72-.04-7.41-.16-24.43-1.03-43.88-12.23-54.75-31.55-7.86-13.98-8.57-27.62-8.62-29.13v-.69s-.01-275.97-.01-275.97c0-26.46,10.49-42.04,19.29-50.44C47.53,5.3,71.53,5.04,76.24,5.14h202.28v38.51l-203.48-.02c.1,0-11.9-.16-19.37,7.15-4.78,4.68-7.21,12.23-7.21,22.43v275.46c.48,6.71,4.08,22.46,26.49,23.4,5.07.21,8.95.11,13.14-.03,13.43-.46,21.32-6.9,30.3-17.9,3.95-5.31,52.95-71.19,70.4-94.51l.95-1.27c8.34-11.22,25.7-34.56,57.79-34.56s49.18,23.23,56.12,33.15c4.42,6.31,14.95,20.94,21.4,29.64,6.42,8.67,11.33,13.1,17.48,15.8,11.79,5.17,22.79,4.3,33.61-2.65,25.34-16.29,16.11-44.76,14.97-47.95l-39.73-110.66,36.25-13.01,39.69,110.55c7.67,20.45,11.33,66.67-30.36,93.47-21.89,14.07-46.06,15.98-69.9,5.53-15.81-6.93-25.54-18.12-32.97-28.15-6.62-8.94-17.44-23.97-21.99-30.46-6.65-9.49-12.67-16.74-24.59-16.74s-18.87,8.25-26.89,19.03l-1.02,1.37c-18.17,24.28-70.58,94.75-70.58,94.76l-.51.65c-11.83,14.56-29.25,31.41-59.15,32.42-2.68.09-5.51.17-8.65.17Z"/>
    <path class="cls-1" d="M429.74,410.57h-240.09v-38.51h237.69c6.43-1.08,24.18-6.45,24.18-32.05V69.69c0-11.9-3.96-26.08-22.83-26.08h-29.25c-.93,0-1.97-.02-3.12-.04-10.72-.22-26.93-.53-41.29,17.4-2.7,3.59-37.99,50.46-50.14,66.44-7.51,9.87-25.08,32.97-55.24,32.97-27.44,0-43.68-17.14-52.4-26.35-8.87-9.37-15.65-11.11-25.12-11.11-8.47,0-18.89,4.6-23.05,17.43-2.45,11.44-28.4,132.97-31.69,152.99l-38-6.24c3.58-21.8,31.05-150.2,32.21-155.66l.39-1.52c8.19-27.22,32.36-45.51,60.14-45.51,14.51,0,33.63,2.61,52.94,22.99,8.08,8.54,14.49,14.47,24.58,14.47s17.46-8.41,24.59-17.77c12.61-16.58,50.18-66.5,50.18-66.5l.31-.4c26.25-33.03,59.75-32.38,72.34-32.13.87.02,1.66.03,2.37.03h29.25c36.12,0,61.34,26.56,61.34,64.6v270.32c0,50.6-38.76,68.21-59.25,70.45l-1.04.11Z"/>
  </g>
  <g>
    <g>
      <path class="cls-1" d="M17.43,545h0c-1.09,0-2.08-.18-2.99-.53-.9-.35-1.68-.85-2.37-1.49-.67-.64-1.19-1.4-1.57-2.27-.36-.87-.54-1.83-.54-2.86h0c0-1.02.18-1.97.54-2.85.37-.87.9-1.63,1.58-2.27.68-.64,1.48-1.14,2.38-1.49.92-.35,1.92-.53,3.01-.53h0c1.17,0,2.23.19,3.18.58.94.38,1.73.94,2.38,1.68h0l-1.63,1.6c-.53-.54-1.11-.94-1.74-1.2-.63-.27-1.32-.4-2.08-.4h0c-.73,0-1.4.12-2.02.37-.63.23-1.17.57-1.62,1.01-.45.44-.79.95-1.04,1.55-.25.59-.37,1.24-.37,1.95h0c0,.7.12,1.35.37,1.95s.59,1.11,1.04,1.55c.45.45.98.79,1.58,1.02.61.25,1.28.37,2.03.37h0c.68,0,1.34-.11,1.98-.34.65-.21,1.26-.58,1.84-1.1h0l1.47,1.94c-.73.58-1.57,1.01-2.53,1.31-.96.3-1.93.45-2.91.45ZM22.87,543.24l-2.45-.35v-5.18h2.45v5.53ZM30.72,544.81h-2.66l6.25-13.9h2.53l6.27,13.9h-2.69l-5.39-12.52h1.04l-5.36,12.52ZM39.83,541.59h-8.88l.69-2.03h7.5l.69,2.03ZM51.12,544.81h-2.46v-13.9h2.13l6.06,10.14h-1.1l5.97-10.14h2.13l.02,13.9h-2.43l-.03-10.06h.53l-5.09,8.46h-1.15l-5.15-8.46h.59v10.06ZM73.75,538.81v-2.13h6.91v2.13h-6.91ZM73.94,533.08v9.55h7.84v2.18h-10.41v-13.9h10.14v2.18h-7.57ZM100.25,544.81h-2.58v-13.9h2.58v13.9ZM110.33,544.81h-2.56v-13.9h2.13l8.7,10.7h-1.06v-10.7h2.56v13.9h-2.11l-8.72-10.7h1.06v10.7ZM129.97,539.48v-2.18h6.93v2.18h-6.93ZM130.18,533.08v11.72h-2.58v-13.9h10.14v2.18h-7.57ZM146.59,544.81h-2.58v-13.9h5.71c1.23,0,2.28.2,3.17.61.87.39,1.55.96,2.03,1.7.48.75.72,1.63.72,2.64h0c0,1.02-.24,1.9-.72,2.64-.48.73-1.16,1.28-2.03,1.68-.89.39-1.94.59-3.17.59h-4.29l1.15-1.18v5.23ZM155.86,544.81h-2.77l-3.52-5.04h2.77l3.52,5.04ZM146.59,531.82v8.05l-1.15-1.23h4.17c1.13,0,1.98-.25,2.56-.74.58-.49.86-1.17.86-2.05h0c0-.89-.29-1.57-.86-2.05-.58-.47-1.43-.7-2.56-.7h-4.17l1.15-1.28ZM162.97,544.81h-2.66l6.25-13.9h2.54l6.27,13.9h-2.7l-5.37-12.52h1.02l-5.36,12.52ZM172.08,541.59h-8.89l.69-2.03h7.5l.7,2.03ZM185.21,545h0c-1.09,0-2.13-.15-3.12-.46-.99-.31-1.78-.71-2.37-1.2h0l.9-2.02c.55.44,1.24.81,2.06,1.1.82.29,1.66.43,2.53.43h0c.73,0,1.31-.08,1.76-.24s.78-.37.99-.64c.21-.28.32-.59.32-.93h0c0-.43-.15-.77-.46-1.02-.3-.26-.69-.46-1.17-.61-.49-.15-1.03-.29-1.62-.43-.59-.13-1.17-.28-1.76-.46-.59-.18-1.12-.41-1.62-.69-.48-.29-.87-.67-1.17-1.15-.31-.47-.46-1.08-.46-1.82h0c0-.76.2-1.44.61-2.06.41-.63,1.02-1.14,1.84-1.52.83-.37,1.88-.56,3.15-.56h0c.83,0,1.66.11,2.48.32.82.21,1.54.52,2.14.91h0l-.82,2c-.62-.37-1.26-.65-1.92-.82-.66-.18-1.3-.27-1.9-.27h0c-.71,0-1.3.09-1.74.26-.45.17-.77.39-.98.67-.2.28-.3.6-.3.96h0c0,.42.15.76.45,1.02.3.26.69.45,1.17.59.48.15,1.02.29,1.62.43s1.19.29,1.78.46c.59.17,1.12.39,1.62.67.48.28.87.66,1.17,1.14.3.48.45,1.08.45,1.81h0c0,.74-.2,1.42-.61,2.05-.41.63-1.02,1.14-1.86,1.52-.83.37-1.88.56-3.15.56ZM202.55,544.81h-2.59v-11.71h-4.59v-2.19h11.77v2.19h-4.59v11.71ZM215.44,544.81h-2.58v-13.9h5.71c1.23,0,2.28.2,3.17.61.87.39,1.55.96,2.03,1.7.47.75.7,1.63.7,2.64h0c0,1.02-.23,1.9-.7,2.64-.48.73-1.16,1.28-2.03,1.68-.89.39-1.94.59-3.17.59h-4.29l1.15-1.18v5.23ZM224.72,544.81h-2.77l-3.52-5.04h2.75l3.53,5.04ZM215.44,531.82v8.05l-1.15-1.23h4.16c1.14,0,2-.25,2.58-.74.58-.49.86-1.17.86-2.05h0c0-.89-.29-1.57-.86-2.05-.58-.47-1.43-.7-2.58-.7h-4.16l1.15-1.28ZM237.1,545h0c-1.91,0-3.4-.54-4.48-1.62-1.08-1.07-1.62-2.61-1.62-4.64h0v-7.84h2.59v7.74c0,1.43.3,2.47.91,3.12.62.65,1.49.98,2.61.98h0c1.13,0,2-.33,2.61-.98.61-.65.91-1.69.91-3.12h0v-7.74h2.54v7.84c0,2.03-.54,3.57-1.63,4.64-1.08,1.08-2.56,1.62-4.45,1.62ZM256.98,545h0c-1.06,0-2.04-.18-2.94-.53-.91-.35-1.7-.85-2.37-1.49-.67-.64-1.19-1.4-1.55-2.27-.37-.87-.56-1.83-.56-2.86h0c0-1.02.19-1.97.56-2.85.36-.87.89-1.63,1.57-2.27.67-.64,1.46-1.14,2.35-1.49.91-.35,1.89-.53,2.96-.53h0c1.14,0,2.18.2,3.12.59.94.38,1.73.96,2.38,1.73h0l-1.68,1.57c-.5-.54-1.06-.95-1.68-1.22-.62-.28-1.3-.42-2.03-.42h0c-.73,0-1.39.12-1.98.37-.61.23-1.13.57-1.57,1.01-.45.44-.79.95-1.04,1.55-.25.59-.37,1.24-.37,1.95h0c0,.71.12,1.37.37,1.97.25.6.59,1.11,1.04,1.55.44.44.96.77,1.57,1.01.6.25,1.26.37,1.98.37h0c.74,0,1.41-.14,2.03-.42.62-.27,1.18-.68,1.68-1.23h0l1.68,1.58c-.65.76-1.44,1.33-2.38,1.73-.94.39-1.98.59-3.13.59ZM274.14,544.81h-2.59v-11.71h-4.59v-2.19h11.77v2.19h-4.59v11.71ZM290.43,545h0c-1.91,0-3.4-.54-4.48-1.62-1.08-1.07-1.62-2.61-1.62-4.64h0v-7.84h2.58v7.74c0,1.43.31,2.47.93,3.12.62.65,1.49.98,2.61.98h0c1.12,0,1.98-.33,2.59-.98.61-.65.91-1.69.91-3.12h0v-7.74h2.54v7.84c0,2.03-.54,3.57-1.62,4.64-1.08,1.08-2.56,1.62-4.45,1.62ZM306.45,544.81h-2.58v-13.9h5.71c1.23,0,2.28.2,3.17.61.87.39,1.55.96,2.03,1.7.47.75.7,1.63.7,2.64h0c0,1.02-.23,1.9-.7,2.64-.48.73-1.16,1.28-2.03,1.68-.89.39-1.94.59-3.17.59h-4.29l1.15-1.18v5.23ZM315.73,544.81h-2.77l-3.52-5.04h2.75l3.53,5.04ZM306.45,531.82v8.05l-1.15-1.23h4.16c1.14,0,2-.25,2.58-.74.58-.49.86-1.17.86-2.05h0c0-.89-.29-1.57-.86-2.05-.58-.47-1.43-.7-2.58-.7h-4.16l1.15-1.28ZM324.53,538.81v-2.13h6.89v2.13h-6.89ZM324.72,533.08v9.55h7.84v2.18h-10.41v-13.9h10.14v2.18h-7.57ZM351.03,544.81h-2.59v-13.9h5.71c1.24,0,2.29.2,3.17.61.89.39,1.56.96,2.03,1.7.48.75.72,1.63.72,2.64h0c0,1.02-.24,1.9-.72,2.64-.47.75-1.15,1.32-2.03,1.71-.87.39-1.93.59-3.17.59h-4.27l1.15-1.22v5.23ZM351.03,531.82v8.05l-1.15-1.25h4.16c1.14,0,2-.25,2.58-.74.58-.48.86-1.16.86-2.03h0c0-.89-.29-1.57-.86-2.05-.58-.47-1.43-.7-2.58-.7h-4.16l1.15-1.28ZM369.2,544.81h-2.59v-13.9h5.71c1.24,0,2.29.2,3.17.61.89.39,1.56.96,2.03,1.7.48.75.72,1.63.72,2.64h0c0,1.02-.24,1.9-.72,2.64-.47.73-1.15,1.28-2.03,1.68-.87.39-1.93.59-3.17.59h-4.27l1.15-1.18v5.23ZM378.47,544.81h-2.78l-3.5-5.04h2.75l3.53,5.04ZM369.2,531.82v8.05l-1.15-1.23h4.16c1.14,0,2-.25,2.58-.74.58-.49.86-1.17.86-2.05h0c0-.89-.29-1.57-.86-2.05-.58-.47-1.43-.7-2.58-.7h-4.16l1.15-1.28ZM391.38,545h0c-1.08,0-2.07-.18-2.99-.54-.92-.35-1.71-.85-2.38-1.49-.67-.64-1.19-1.4-1.57-2.27-.36-.86-.54-1.81-.54-2.85h0c0-1.02.18-1.97.54-2.85.37-.86.9-1.62,1.57-2.26.67-.64,1.47-1.14,2.38-1.5.92-.35,1.91-.53,2.97-.53h0c1.09,0,2.08.18,2.99.53.91.36,1.7.86,2.37,1.5.67.64,1.19,1.39,1.57,2.26.37.87.56,1.82.56,2.85h0c0,1.03-.19,1.99-.56,2.86-.37.87-.9,1.63-1.57,2.26-.67.64-1.46,1.14-2.37,1.49-.91.36-1.9.54-2.97.54ZM391.37,542.74h0c.7,0,1.35-.12,1.95-.37.59-.23,1.1-.58,1.54-1.02.44-.44.78-.95,1.02-1.54.25-.6.37-1.25.37-1.97h0c0-.71-.12-1.36-.37-1.95-.25-.59-.59-1.1-1.02-1.54-.44-.45-.95-.79-1.54-1.02-.6-.25-1.25-.37-1.95-.37h0c-.7,0-1.35.12-1.94.37-.59.23-1.1.58-1.55,1.02-.44.44-.78.95-1.02,1.54-.25.59-.37,1.24-.37,1.95h0c0,.7.12,1.35.37,1.95.25.6.59,1.11,1.02,1.55.44.45.95.79,1.55,1.02.59.25,1.23.37,1.94.37ZM410.75,544.81h-2.58v-11.71h-4.61v-2.19h11.77v2.19h-4.59v11.71ZM427.56,545h0c-1.08,0-2.07-.18-2.99-.54-.91-.35-1.7-.85-2.38-1.49-.67-.64-1.19-1.4-1.57-2.27-.36-.86-.54-1.81-.54-2.85h0c0-1.02.18-1.97.54-2.85.37-.86.9-1.62,1.57-2.26.68-.64,1.48-1.14,2.38-1.5.92-.35,1.91-.53,2.97-.53h0c1.09,0,2.08.18,2.99.53.91.36,1.7.86,2.37,1.5.67.64,1.19,1.39,1.57,2.26.37.87.56,1.82.56,2.85h0c0,1.03-.19,1.99-.56,2.86-.37.87-.9,1.63-1.57,2.26-.67.64-1.46,1.14-2.37,1.49-.91.36-1.9.54-2.97.54ZM427.55,542.74h0c.7,0,1.35-.12,1.95-.37.6-.23,1.11-.58,1.54-1.02.44-.44.78-.95,1.02-1.54.25-.6.37-1.25.37-1.97h0c0-.71-.12-1.36-.37-1.95-.25-.59-.59-1.1-1.02-1.54-.43-.45-.94-.79-1.54-1.02-.6-.25-1.25-.37-1.95-.37h0c-.7,0-1.35.12-1.94.37-.59.23-1.1.58-1.54,1.02-.45.44-.79.95-1.04,1.54s-.37,1.24-.37,1.95h0c0,.7.12,1.35.37,1.95s.59,1.11,1.02,1.55c.44.45.95.79,1.55,1.02.59.25,1.23.37,1.94.37ZM447.95,545h0c-1.06,0-2.04-.18-2.94-.53-.91-.35-1.69-.85-2.35-1.49-.67-.64-1.19-1.4-1.57-2.27-.36-.87-.54-1.83-.54-2.86h0c0-1.02.18-1.97.54-2.85.37-.87.9-1.63,1.57-2.27.67-.64,1.46-1.14,2.37-1.49.9-.35,1.88-.53,2.96-.53h0c1.13,0,2.16.2,3.1.59.94.38,1.73.96,2.38,1.73h0l-1.66,1.57c-.5-.54-1.06-.95-1.68-1.22-.63-.28-1.31-.42-2.03-.42h0c-.73,0-1.39.12-2,.37-.6.23-1.12.57-1.57,1.01-.44.44-.78.95-1.02,1.55-.25.59-.37,1.24-.37,1.95h0c0,.71.12,1.37.37,1.97.25.6.59,1.11,1.02,1.55.45.44.97.77,1.57,1.01.61.25,1.27.37,2,.37h0c.73,0,1.4-.14,2.03-.42.62-.27,1.18-.68,1.68-1.23h0l1.66,1.58c-.65.76-1.44,1.33-2.38,1.73-.94.39-1.98.59-3.13.59ZM466.24,545h0c-1.09,0-2.09-.18-3.01-.54-.91-.35-1.7-.85-2.38-1.49-.67-.64-1.19-1.4-1.57-2.27-.36-.86-.54-1.81-.54-2.85h0c0-1.02.18-1.97.54-2.85.37-.86.9-1.62,1.57-2.26.68-.64,1.48-1.14,2.38-1.5.92-.35,1.91-.53,2.97-.53h0c1.09,0,2.08.18,2.99.53.91.36,1.7.86,2.37,1.5.67.64,1.19,1.39,1.57,2.26.37.87.56,1.82.56,2.85h0c0,1.03-.19,1.99-.56,2.86-.37.87-.9,1.63-1.57,2.26-.67.64-1.46,1.14-2.37,1.49-.91.36-1.89.54-2.96.54ZM466.2,542.74h0c.7,0,1.35-.12,1.95-.37.6-.23,1.11-.58,1.55-1.02.44-.44.77-.95,1.01-1.54.25-.6.37-1.25.37-1.97h0c0-.71-.12-1.36-.37-1.95-.23-.59-.57-1.1-1.01-1.54-.44-.45-.95-.79-1.55-1.02-.6-.25-1.25-.37-1.95-.37h0c-.69,0-1.34.12-1.94.37-.59.23-1.1.58-1.54,1.02-.45.44-.79.95-1.04,1.54-.25.59-.37,1.24-.37,1.95h0c0,.7.12,1.35.37,1.95.25.6.59,1.11,1.02,1.55.44.45.95.79,1.55,1.02.6.25,1.24.37,1.94.37ZM490.04,544.81h-9.84v-13.9h2.58v11.71h7.26v2.19Z"/>
      <g class="cls-3">
        <rect class="cls-1" x="480.2" y="530.91" width="1.46" height="13.9"/>
        <rect class="cls-1" x="481.66" y="530.91" width="2.79" height="13.9"/>
        <rect class="cls-1" x="484.45" y="530.91" width="2.79" height="13.9"/>
        <rect class="cls-1" x="487.24" y="530.91" width="2.79" height="13.9"/>
        <rect class="cls-1" x="461.33" y="532.97" width=".8" height="9.77"/>
        <rect class="cls-1" x="462.12" y="532.97" width="2.79" height="9.77"/>
        <rect class="cls-1" x="464.92" y="532.97" width="2.79" height="9.77"/>
        <rect class="cls-1" x="467.71" y="532.97" width="2.79" height="9.77"/>
        <rect class="cls-1" x="470.5" y="532.97" width=".58" height="9.77"/>
        <rect class="cls-1" x="458.73" y="530.72" width=".6" height="14.28"/>
        <rect class="cls-1" x="459.33" y="530.72" width="2.79" height="14.28"/>
        <rect class="cls-1" x="462.12" y="530.72" width="2.79" height="14.28"/>
        <rect class="cls-1" x="464.92" y="530.72" width="2.79" height="14.28"/>
        <rect class="cls-1" x="467.71" y="530.72" width="2.79" height="14.28"/>
        <rect class="cls-1" x="470.5" y="530.72" width="2.79" height="14.28"/>
        <rect class="cls-1" x="473.29" y="530.72" width=".4" height="14.28"/>
        <rect class="cls-1" x="440.55" y="530.72" width="2.04" height="14.28"/>
        <rect class="cls-1" x="442.59" y="530.72" width="2.79" height="14.28"/>
        <rect class="cls-1" x="445.38" y="530.72" width="2.79" height="14.28"/>
        <rect class="cls-1" x="448.17" y="530.72" width="2.79" height="14.28"/>
        <rect class="cls-1" x="450.96" y="530.72" width="2.51" height="14.28"/>
        <rect class="cls-1" x="422.67" y="532.97" width=".38" height="9.77"/>
        <rect class="cls-1" x="423.05" y="532.97" width="2.79" height="9.77"/>
        <rect class="cls-1" x="425.84" y="532.97" width="2.79" height="9.77"/>
        <rect class="cls-1" x="428.63" y="532.97" width="2.79" height="9.77"/>
        <rect class="cls-1" x="431.42" y="532.97" width="1" height="9.77"/>
        <rect class="cls-1" x="420.08" y="530.72" width=".18" height="14.28"/>
        <rect class="cls-1" x="420.26" y="530.72" width="2.79" height="14.28"/>
        <rect class="cls-1" x="423.05" y="530.72" width="2.79" height="14.28"/>
        <rect class="cls-1" x="425.84" y="530.72" width="2.79" height="14.28"/>
        <rect class="cls-1" x="428.63" y="530.72" width="2.79" height="14.28"/>
        <rect class="cls-1" x="431.42" y="530.72" width="2.79" height="14.28"/>
        <rect class="cls-1" x="434.21" y="530.72" width=".82" height="14.28"/>
        <rect class="cls-1" x="403.57" y="530.91" width="2.73" height="13.9"/>
        <rect class="cls-1" x="406.3" y="530.91" width="2.79" height="13.9"/>
        <rect class="cls-1" x="409.09" y="530.91" width="2.79" height="13.9"/>
        <rect class="cls-1" x="411.88" y="530.91" width="2.79" height="13.9"/>
        <rect class="cls-1" x="414.68" y="530.91" width=".67" height="13.9"/>
        <rect class="cls-1" x="386.49" y="532.97" width=".28" height="9.77"/>
        <rect class="cls-1" x="386.76" y="532.97" width="2.79" height="9.77"/>
        <rect class="cls-1" x="389.56" y="532.97" width="2.79" height="9.77"/>
        <rect class="cls-1" x="392.35" y="532.97" width="2.79" height="9.77"/>
        <rect class="cls-1" x="395.14" y="532.97" width="1.11" height="9.77"/>
        <rect class="cls-1" x="383.9" y="530.72" width=".08" height="14.28"/>
        <rect class="cls-1" x="383.97" y="530.72" width="2.79" height="14.28"/>
        <rect class="cls-1" x="386.76" y="530.72" width="2.79" height="14.28"/>
        <rect class="cls-1" x="389.56" y="530.72" width="2.79" height="14.28"/>
        <rect class="cls-1" x="392.35" y="530.72" width="2.79" height="14.28"/>
        <rect class="cls-1" x="395.14" y="530.72" width="2.79" height="14.28"/>
        <rect class="cls-1" x="397.93" y="530.72" width=".92" height="14.28"/>
        <rect class="cls-1" x="368.05" y="531.82" width="1.97" height="8.05"/>
        <rect class="cls-1" x="370.02" y="531.82" width="2.79" height="8.05"/>
        <rect class="cls-1" x="372.81" y="531.82" width="2.79" height="8.05"/>
        <rect class="cls-1" x="375.6" y="531.82" width=".04" height="8.05"/>
        <rect class="cls-1" x="372.19" y="539.77" width=".62" height="5.04"/>
        <rect class="cls-1" x="372.81" y="539.77" width="2.79" height="5.04"/>
        <rect class="cls-1" x="375.6" y="539.77" width="2.79" height="5.04"/>
        <rect class="cls-1" x="378.39" y="539.77" width=".08" height="5.04"/>
        <rect class="cls-1" x="366.61" y="530.91" width=".62" height="13.9"/>
        <rect class="cls-1" x="367.23" y="530.91" width="2.79" height="13.9"/>
        <rect class="cls-1" x="370.02" y="530.91" width="2.79" height="13.9"/>
        <rect class="cls-1" x="372.81" y="530.91" width="2.79" height="13.9"/>
        <rect class="cls-1" x="375.6" y="530.91" width="2.63" height="13.9"/>
        <rect class="cls-1" x="349.88" y="531.82" width=".6" height="8.05"/>
        <rect class="cls-1" x="350.48" y="531.82" width="2.79" height="8.05"/>
        <rect class="cls-1" x="353.27" y="531.82" width="2.79" height="8.05"/>
        <rect class="cls-1" x="356.06" y="531.82" width="1.41" height="8.05"/>
        <rect class="cls-1" x="348.44" y="530.91" width="2.04" height="13.9"/>
        <rect class="cls-1" x="350.48" y="530.91" width="2.79" height="13.9"/>
        <rect class="cls-1" x="353.27" y="530.91" width="2.79" height="13.9"/>
        <rect class="cls-1" x="356.06" y="530.91" width="2.79" height="13.9"/>
        <rect class="cls-1" x="358.85" y="530.91" width="1.21" height="13.9"/>
        <rect class="cls-1" x="322.14" y="530.91" width=".43" height="13.9"/>
        <rect class="cls-1" x="322.57" y="530.91" width="2.79" height="13.9"/>
        <rect class="cls-1" x="325.36" y="530.91" width="2.79" height="13.9"/>
        <rect class="cls-1" x="328.15" y="530.91" width="2.79" height="13.9"/>
        <rect class="cls-1" x="330.94" y="530.91" width="1.61" height="13.9"/>
        <rect class="cls-1" x="324.53" y="536.68" width=".83" height="2.13"/>
        <rect class="cls-1" x="325.36" y="536.68" width="2.79" height="2.13"/>
        <rect class="cls-1" x="328.15" y="536.68" width="2.79" height="2.13"/>
        <rect class="cls-1" x="330.94" y="536.68" width=".48" height="2.13"/>
        <rect class="cls-1" x="305.3" y="531.82" width=".52" height="8.05"/>
        <rect class="cls-1" x="305.82" y="531.82" width="2.79" height="8.05"/>
        <rect class="cls-1" x="308.61" y="531.82" width="2.79" height="8.05"/>
        <rect class="cls-1" x="311.4" y="531.82" width="1.49" height="8.05"/>
        <rect class="cls-1" x="309.44" y="539.77" width="1.96" height="5.04"/>
        <rect class="cls-1" x="311.4" y="539.77" width="2.79" height="5.04"/>
        <rect class="cls-1" x="314.2" y="539.77" width="1.53" height="5.04"/>
        <rect class="cls-1" x="303.88" y="530.91" width="1.95" height="13.9"/>
        <rect class="cls-1" x="305.82" y="530.91" width="2.79" height="13.9"/>
        <rect class="cls-1" x="308.61" y="530.91" width="2.79" height="13.9"/>
        <rect class="cls-1" x="311.4" y="530.91" width="2.79" height="13.9"/>
        <rect class="cls-1" x="314.2" y="530.91" width="1.29" height="13.9"/>
        <rect class="cls-1" x="284.33" y="530.91" width="1.95" height="14.09"/>
        <rect class="cls-1" x="286.28" y="530.91" width="2.79" height="14.09"/>
        <rect class="cls-1" x="289.08" y="530.91" width="2.79" height="14.09"/>
        <rect class="cls-1" x="291.87" y="530.91" width="2.79" height="14.09"/>
        <rect class="cls-1" x="294.66" y="530.91" width="1.83" height="14.09"/>
        <rect class="cls-1" x="266.96" y="530.91" width="2.58" height="13.9"/>
        <rect class="cls-1" x="269.54" y="530.91" width="2.79" height="13.9"/>
        <rect class="cls-1" x="272.33" y="530.91" width="2.79" height="13.9"/>
        <rect class="cls-1" x="275.12" y="530.91" width="2.79" height="13.9"/>
        <rect class="cls-1" x="277.91" y="530.91" width=".82" height="13.9"/>
        <rect class="cls-1" x="249.56" y="530.72" width=".44" height="14.28"/>
        <rect class="cls-1" x="250" y="530.72" width="2.79" height="14.28"/>
        <rect class="cls-1" x="252.79" y="530.72" width="2.79" height="14.28"/>
        <rect class="cls-1" x="255.58" y="530.72" width="2.79" height="14.28"/>
        <rect class="cls-1" x="258.37" y="530.72" width="2.79" height="14.28"/>
        <rect class="cls-1" x="261.16" y="530.72" width="1.34" height="14.28"/>
        <rect class="cls-1" x="231.01" y="530.91" width="2.25" height="14.09"/>
        <rect class="cls-1" x="233.25" y="530.91" width="2.79" height="14.09"/>
        <rect class="cls-1" x="236.04" y="530.91" width="2.79" height="14.09"/>
        <rect class="cls-1" x="238.84" y="530.91" width="2.79" height="14.09"/>
        <rect class="cls-1" x="241.63" y="530.91" width="1.55" height="14.09"/>
        <rect class="cls-1" x="214.29" y="531.82" width="2.21" height="8.05"/>
        <rect class="cls-1" x="216.51" y="531.82" width="2.79" height="8.05"/>
        <rect class="cls-1" x="219.3" y="531.82" width="2.59" height="8.05"/>
        <rect class="cls-1" x="218.44" y="539.77" width=".86" height="5.04"/>
        <rect class="cls-1" x="219.3" y="539.77" width="2.79" height="5.04"/>
        <rect class="cls-1" x="222.09" y="539.77" width="2.63" height="5.04"/>
        <rect class="cls-1" x="212.87" y="530.91" width=".85" height="13.9"/>
        <rect class="cls-1" x="213.72" y="530.91" width="2.79" height="13.9"/>
        <rect class="cls-1" x="216.51" y="530.91" width="2.79" height="13.9"/>
        <rect class="cls-1" x="219.3" y="530.91" width="2.79" height="13.9"/>
        <rect class="cls-1" x="222.09" y="530.91" width="2.39" height="13.9"/>
        <rect class="cls-1" x="195.37" y="530.91" width="1.6" height="13.9"/>
        <rect class="cls-1" x="196.97" y="530.91" width="2.79" height="13.9"/>
        <rect class="cls-1" x="199.76" y="530.91" width="2.79" height="13.9"/>
        <rect class="cls-1" x="202.55" y="530.91" width="2.79" height="13.9"/>
        <rect class="cls-1" x="205.34" y="530.91" width="1.8" height="13.9"/>
        <rect class="cls-1" x="179.73" y="530.72" width=".49" height="14.28"/>
        <rect class="cls-1" x="180.22" y="530.72" width="2.79" height="14.28"/>
        <rect class="cls-1" x="183.01" y="530.72" width="2.79" height="14.28"/>
        <rect class="cls-1" x="185.8" y="530.72" width="2.79" height="14.28"/>
        <rect class="cls-1" x="188.6" y="530.72" width="2.23" height="14.28"/>
        <rect class="cls-1" x="163.19" y="539.56" width=".29" height="2.03"/>
        <rect class="cls-1" x="163.48" y="539.56" width="2.79" height="2.03"/>
        <rect class="cls-1" x="166.27" y="539.56" width="2.79" height="2.03"/>
        <rect class="cls-1" x="169.06" y="539.56" width="2.79" height="2.03"/>
        <rect class="cls-1" x="171.85" y="539.56" width=".23" height="2.03"/>
        <rect class="cls-1" x="160.31" y="530.91" width=".37" height="13.9"/>
        <rect class="cls-1" x="160.68" y="530.91" width="2.79" height="13.9"/>
        <rect class="cls-1" x="163.48" y="530.91" width="2.79" height="13.9"/>
        <rect class="cls-1" x="166.27" y="530.91" width="2.79" height="13.9"/>
        <rect class="cls-1" x="169.06" y="530.91" width="2.79" height="13.9"/>
        <rect class="cls-1" x="171.85" y="530.91" width="2.79" height="13.9"/>
        <rect class="cls-1" x="174.64" y="530.91" width=".74" height="13.9"/>
        <rect class="cls-1" x="145.44" y="531.82" width="1.29" height="8.05"/>
        <rect class="cls-1" x="146.73" y="531.82" width="2.79" height="8.05"/>
        <rect class="cls-1" x="149.52" y="531.82" width="2.79" height="8.05"/>
        <rect class="cls-1" x="152.31" y="531.82" width=".72" height="8.05"/>
        <rect class="cls-1" x="149.58" y="539.77" width="2.73" height="5.04"/>
        <rect class="cls-1" x="152.31" y="539.77" width="2.79" height="5.04"/>
        <rect class="cls-1" x="155.1" y="539.77" width=".76" height="5.04"/>
        <rect class="cls-1" x="144.01" y="530.91" width="2.72" height="13.9"/>
        <rect class="cls-1" x="146.73" y="530.91" width="2.79" height="13.9"/>
        <rect class="cls-1" x="149.52" y="530.91" width="2.79" height="13.9"/>
        <rect class="cls-1" x="152.31" y="530.91" width="2.79" height="13.9"/>
        <rect class="cls-1" x="155.1" y="530.91" width=".54" height="13.9"/>
        <rect class="cls-1" x="127.6" y="530.91" width="2.38" height="13.9"/>
        <rect class="cls-1" x="129.98" y="530.91" width="2.79" height="13.9"/>
        <rect class="cls-1" x="132.77" y="530.91" width="2.79" height="13.9"/>
        <rect class="cls-1" x="135.56" y="530.91" width="2.18" height="13.9"/>
        <rect class="cls-1" x="129.97" y="537.31" width=".01" height="2.18"/>
        <rect class="cls-1" x="129.98" y="537.31" width="2.79" height="2.18"/>
        <rect class="cls-1" x="132.77" y="537.31" width="2.79" height="2.18"/>
        <rect class="cls-1" x="135.56" y="537.31" width="1.33" height="2.18"/>
        <rect class="cls-1" x="107.77" y="530.91" width="2.67" height="13.9"/>
        <rect class="cls-1" x="110.44" y="530.91" width="2.79" height="13.9"/>
        <rect class="cls-1" x="113.24" y="530.91" width="2.79" height="13.9"/>
        <rect class="cls-1" x="116.03" y="530.91" width="2.79" height="13.9"/>
        <rect class="cls-1" x="118.82" y="530.91" width="1.28" height="13.9"/>
        <rect class="cls-1" x="97.68" y="530.91" width="1.6" height="13.9"/>
        <rect class="cls-1" x="99.28" y="530.91" width=".97" height="13.9"/>
        <rect class="cls-1" x="71.37" y="530.91" width="0" height="13.9"/>
        <rect class="cls-1" x="71.37" y="530.91" width="2.79" height="13.9"/>
        <rect class="cls-1" x="74.16" y="530.91" width="2.79" height="13.9"/>
        <rect class="cls-1" x="76.95" y="530.91" width="2.79" height="13.9"/>
        <rect class="cls-1" x="79.74" y="530.91" width="2.04" height="13.9"/>
        <rect class="cls-1" x="73.75" y="536.68" width=".41" height="2.13"/>
        <rect class="cls-1" x="74.16" y="536.68" width="2.79" height="2.13"/>
        <rect class="cls-1" x="76.95" y="536.68" width="2.79" height="2.13"/>
        <rect class="cls-1" x="79.74" y="536.68" width=".92" height="2.13"/>
        <rect class="cls-1" x="48.65" y="530.91" width=".39" height="13.9"/>
        <rect class="cls-1" x="49.04" y="530.91" width="2.79" height="13.9"/>
        <rect class="cls-1" x="51.83" y="530.91" width="2.79" height="13.9"/>
        <rect class="cls-1" x="54.62" y="530.91" width="2.79" height="13.9"/>
        <rect class="cls-1" x="57.41" y="530.91" width="2.79" height="13.9"/>
        <rect class="cls-1" x="60.2" y="530.91" width="2.79" height="13.9"/>
        <rect class="cls-1" x="63" y="530.91" width=".85" height="13.9"/>
        <rect class="cls-1" x="30.95" y="539.56" width="1.34" height="2.03"/>
        <rect class="cls-1" x="32.29" y="539.56" width="2.79" height="2.03"/>
        <rect class="cls-1" x="35.08" y="539.56" width="2.79" height="2.03"/>
        <rect class="cls-1" x="37.88" y="539.56" width="1.95" height="2.03"/>
        <rect class="cls-1" x="28.07" y="530.91" width="1.43" height="13.9"/>
        <rect class="cls-1" x="29.5" y="530.91" width="2.79" height="13.9"/>
        <rect class="cls-1" x="32.29" y="530.91" width="2.79" height="13.9"/>
        <rect class="cls-1" x="35.08" y="530.91" width="2.79" height="13.9"/>
        <rect class="cls-1" x="37.88" y="530.91" width="2.79" height="13.9"/>
        <rect class="cls-1" x="40.67" y="530.91" width="2.45" height="13.9"/>
        <rect class="cls-1" x="20.42" y="537.71" width=".7" height="5.53"/>
        <rect class="cls-1" x="21.13" y="537.71" width="1.74" height="5.53"/>
        <rect class="cls-1" x="9.96" y="530.72" width="2.79" height="14.28"/>
        <rect class="cls-1" x="12.76" y="530.72" width="2.79" height="14.28"/>
        <rect class="cls-1" x="15.55" y="530.72" width="2.79" height="14.28"/>
        <rect class="cls-1" x="18.34" y="530.72" width="2.79" height="14.28"/>
        <rect class="cls-1" x="21.13" y="530.72" width="1.92" height="14.28"/>
      </g>
    </g>
    <g>
      <path class="cls-1" d="M53.36,516.51H19.54c-1.77,0-3.38-.43-4.83-1.3-1.45-.85-2.6-2-3.45-3.45-.86-1.45-1.3-3.06-1.3-4.83h0v-33.89c0-1.77.43-3.37,1.3-4.81.85-1.45,2-2.61,3.45-3.47,1.45-.86,3.06-1.3,4.83-1.3h33.81c1.77,0,3.39.43,4.86,1.3,1.47.86,2.64,2.02,3.5,3.47.85,1.44,1.28,3.04,1.28,4.81h0v3.17h-8.03v-2.94c0-.49-.17-.92-.51-1.3-.34-.36-.78-.54-1.33-.54H19.77c-.49,0-.92.18-1.3.54-.37.37-.56.81-.56,1.3h0v33.44c0,.49.19.92.56,1.3.37.36.81.54,1.3.54h33.36c.54,0,.99-.18,1.33-.54.34-.37.51-.81.51-1.3h0v-11.26h-12.52v-8.05h20.55v19.53c0,1.77-.43,3.38-1.28,4.83-.86,1.45-2.03,2.6-3.5,3.45-1.47.86-3.09,1.3-4.86,1.3h0ZM120.92,516.51h-33.89c-1.77,0-3.38-.44-4.83-1.33-1.44-.89-2.59-2.04-3.45-3.45-.86-1.43-1.3-3.03-1.3-4.8h0v-15.77h35.44v-7.58c0-.49-.17-.92-.51-1.3-.35-.36-.77-.54-1.26-.54h-33.67v-7.97h33.89c1.77,0,3.38.43,4.83,1.3,1.45.86,2.6,2.03,3.45,3.5.86,1.47,1.3,3.07,1.3,4.78h0v33.16ZM87.25,508.55h25.64v-9.93h-27.48v8.09c0,.49.18.92.54,1.3.37.36.81.54,1.3.54ZM141.69,516.51h-8.03v-42.74h54.59c1.82,0,3.44.44,4.86,1.33,1.43.89,2.57,2.04,3.42,3.47.86,1.42,1.3,3.01,1.3,4.78h0v33.16h-7.89v-32.93c0-.49-.18-.92-.54-1.3-.37-.36-.81-.54-1.3-.54h-16.43c-.54,0-.99.18-1.33.54-.34.37-.51.81-.51,1.3h0v32.93h-8.03v-32.93c0-.49-.19-.92-.56-1.3-.37-.36-.81-.54-1.3-.54h-16.49c-.49,0-.91.18-1.26.54-.34.37-.51.81-.51,1.3h0v32.93ZM220.59,516.51h0c-1.76,0-3.35-.44-4.78-1.33-1.43-.89-2.59-2.04-3.47-3.45-.87-1.43-1.31-3.03-1.31-4.8h0v-23.58c0-1.77.44-3.36,1.31-4.78.89-1.43,2.04-2.59,3.47-3.47,1.43-.89,3.02-1.33,4.78-1.33h24.31c1.77,0,3.38.43,4.83,1.3,1.45.86,2.61,2.03,3.47,3.5.85,1.47,1.28,3.07,1.28,4.78h0v15.77h-35.51v7.58c0,.49.19.92.56,1.3.36.36.79.54,1.28.54h33.67v7.97h-33.89ZM218.98,483.58v8.11h27.48v-8.11c0-.49-.17-.92-.51-1.3-.34-.36-.76-.54-1.25-.54h-23.88c-.49,0-.92.18-1.28.54-.37.37-.56.81-.56,1.3h0ZM269.23,516.51h0v-53.05h41.25c1.72,0,3.32.43,4.8,1.3,1.47.86,2.63,2.02,3.49,3.47.86,1.44,1.3,3.04,1.3,4.81h0v10.83c0,.64-.06,1.28-.19,1.92-.12.64-.33,1.23-.62,1.78h0c.98,1.38,1.73,2.67,2.26,3.87.51,1.19.77,2.41.77,3.65h0v11.85c0,1.77-.43,3.38-1.3,4.83-.85,1.45-2.02,2.6-3.49,3.45-1.47.86-3.09,1.3-4.86,1.3h-43.39ZM279.02,508.55h33.38c.54,0,.99-.18,1.33-.54.34-.37.51-.81.51-1.3h0v-11.42c0-.49-.17-.92-.51-1.28-.34-.37-.78-.56-1.33-.56h-33.38c-.49,0-.92.19-1.28.56-.37.36-.56.79-.56,1.28h0v11.42c0,.49.19.92.56,1.3.36.36.79.54,1.28.54ZM279.02,485.5h31.24c.49,0,.91-.19,1.26-.56.34-.36.51-.79.51-1.28h0v-10.4c0-.49-.17-.92-.51-1.3-.35-.36-.77-.54-1.26-.54h-31.24c-.49,0-.92.18-1.28.54-.37.37-.56.81-.56,1.3h0v10.4c0,.49.19.92.56,1.28.36.37.79.56,1.28.56ZM346.29,516.51h0c-1.77,0-3.38-.44-4.83-1.33-1.45-.89-2.6-2.04-3.45-3.45-.86-1.43-1.3-3.03-1.3-4.8h0v-33.16h7.95v32.93c0,.49.19.92.56,1.3.37.36.81.54,1.3.54h23.86c.49,0,.92-.18,1.3-.54.36-.37.54-.81.54-1.3h0v-32.93h7.97v33.16c0,1.77-.43,3.37-1.3,4.8-.86,1.42-2.02,2.57-3.45,3.45-1.45.89-3.06,1.33-4.83,1.33h-24.31ZM402.43,516.51h-7.97v-42.74h7.97v42.74ZM402.43,467.75h-7.97v-7.97h7.97v7.97ZM427.4,516.51h0c-1.77,0-3.36-.44-4.78-1.33-1.43-.89-2.59-2.04-3.47-3.45-.89-1.43-1.33-3.03-1.33-4.8h0v-47.15h7.97v46.93c0,.49.19.92.56,1.3.36.36.79.54,1.28.54h7.74v7.97h-7.97ZM456.14,516.51h0c-1.77,0-3.38-.43-4.83-1.3-1.45-.85-2.6-2.02-3.45-3.49-.86-1.48-1.3-3.08-1.3-4.8h0v-23.58c0-1.77.43-3.36,1.3-4.78.85-1.43,2-2.59,3.45-3.47,1.45-.89,3.06-1.33,4.83-1.33h25.93v-14h7.97v56.73h-33.89ZM456.43,508.55h23.88c.49,0,.91-.18,1.25-.54.34-.37.51-.81.51-1.3h0v-23.13c0-.49-.17-.92-.51-1.3-.34-.36-.76-.54-1.25-.54h-23.88c-.49,0-.92.18-1.28.54-.37.37-.56.81-.56,1.3h0v23.13c0,.49.19.92.56,1.3.36.36.79.54,1.28.54Z"/>
      <g class="cls-2">
        <rect class="cls-1" x="454.59" y="481.74" width="1.95" height="26.81"/>
        <rect class="cls-1" x="456.54" y="481.74" width="2.79" height="26.81"/>
        <rect class="cls-1" x="459.33" y="481.74" width="2.79" height="26.81"/>
        <rect class="cls-1" x="462.12" y="481.74" width="2.79" height="26.81"/>
        <rect class="cls-1" x="464.92" y="481.74" width="2.79" height="26.81"/>
        <rect class="cls-1" x="467.71" y="481.74" width="2.79" height="26.81"/>
        <rect class="cls-1" x="470.5" y="481.74" width="2.79" height="26.81"/>
        <rect class="cls-1" x="473.29" y="481.74" width="2.79" height="26.81"/>
        <rect class="cls-1" x="476.08" y="481.74" width="2.79" height="26.81"/>
        <rect class="cls-1" x="478.87" y="481.74" width="2.79" height="26.81"/>
        <rect class="cls-1" x="481.66" y="481.74" width=".41" height="26.81"/>
        <rect class="cls-1" x="446.56" y="459.78" width="1.61" height="56.73"/>
        <rect class="cls-1" x="448.17" y="459.78" width="2.79" height="56.73"/>
        <rect class="cls-1" x="450.96" y="459.78" width="2.79" height="56.73"/>
        <rect class="cls-1" x="453.75" y="459.78" width="2.79" height="56.73"/>
        <rect class="cls-1" x="456.54" y="459.78" width="2.79" height="56.73"/>
        <rect class="cls-1" x="459.33" y="459.78" width="2.79" height="56.73"/>
        <rect class="cls-1" x="462.12" y="459.78" width="2.79" height="56.73"/>
        <rect class="cls-1" x="464.92" y="459.78" width="2.79" height="56.73"/>
        <rect class="cls-1" x="467.71" y="459.78" width="2.79" height="56.73"/>
        <rect class="cls-1" x="470.5" y="459.78" width="2.79" height="56.73"/>
        <rect class="cls-1" x="473.29" y="459.78" width="2.79" height="56.73"/>
        <rect class="cls-1" x="476.08" y="459.78" width="2.79" height="56.73"/>
        <rect class="cls-1" x="478.87" y="459.78" width="2.79" height="56.73"/>
        <rect class="cls-1" x="481.66" y="459.78" width="2.79" height="56.73"/>
        <rect class="cls-1" x="484.45" y="459.78" width="2.79" height="56.73"/>
        <rect class="cls-1" x="487.24" y="459.78" width="2.79" height="56.73"/>
        <rect class="cls-1" x="417.82" y="459.78" width="2.44" height="56.73"/>
        <rect class="cls-1" x="420.26" y="459.78" width="2.79" height="56.73"/>
        <rect class="cls-1" x="423.05" y="459.78" width="2.79" height="56.73"/>
        <rect class="cls-1" x="425.84" y="459.78" width="2.79" height="56.73"/>
        <rect class="cls-1" x="428.63" y="459.78" width="2.79" height="56.73"/>
        <rect class="cls-1" x="431.42" y="459.78" width="2.79" height="56.73"/>
        <rect class="cls-1" x="434.21" y="459.78" width="1.15" height="56.73"/>
        <rect class="cls-1" x="394.47" y="459.78" width=".67" height="7.97"/>
        <rect class="cls-1" x="395.14" y="459.78" width="2.79" height="7.97"/>
        <rect class="cls-1" x="397.93" y="459.78" width="2.79" height="7.97"/>
        <rect class="cls-1" x="400.72" y="459.78" width="1.71" height="7.97"/>
        <rect class="cls-1" x="394.47" y="473.78" width=".67" height="42.74"/>
        <rect class="cls-1" x="395.14" y="473.78" width="2.79" height="42.74"/>
        <rect class="cls-1" x="397.93" y="473.78" width="2.79" height="42.74"/>
        <rect class="cls-1" x="400.72" y="473.78" width="1.71" height="42.74"/>
        <rect class="cls-1" x="336.71" y="473.78" width="2.6" height="42.74"/>
        <rect class="cls-1" x="339.32" y="473.78" width="2.79" height="42.74"/>
        <rect class="cls-1" x="342.11" y="473.78" width="2.79" height="42.74"/>
        <rect class="cls-1" x="344.9" y="473.78" width="2.79" height="42.74"/>
        <rect class="cls-1" x="347.69" y="473.78" width="2.79" height="42.74"/>
        <rect class="cls-1" x="350.48" y="473.78" width="2.79" height="42.74"/>
        <rect class="cls-1" x="353.27" y="473.78" width="2.79" height="42.74"/>
        <rect class="cls-1" x="356.06" y="473.78" width="2.79" height="42.74"/>
        <rect class="cls-1" x="358.85" y="473.78" width="2.79" height="42.74"/>
        <rect class="cls-1" x="361.64" y="473.78" width="2.79" height="42.74"/>
        <rect class="cls-1" x="364.44" y="473.78" width="2.79" height="42.74"/>
        <rect class="cls-1" x="367.23" y="473.78" width="2.79" height="42.74"/>
        <rect class="cls-1" x="370.02" y="473.78" width="2.79" height="42.74"/>
        <rect class="cls-1" x="372.81" y="473.78" width="2.79" height="42.74"/>
        <rect class="cls-1" x="375.6" y="473.78" width="2.79" height="42.74"/>
        <rect class="cls-1" x="378.39" y="473.78" width="1.8" height="42.74"/>
        <rect class="cls-1" x="277.18" y="471.42" width=".73" height="14.08"/>
        <rect class="cls-1" x="277.91" y="471.42" width="2.79" height="14.08"/>
        <rect class="cls-1" x="280.7" y="471.42" width="2.79" height="14.08"/>
        <rect class="cls-1" x="283.49" y="471.42" width="2.79" height="14.08"/>
        <rect class="cls-1" x="286.28" y="471.42" width="2.79" height="14.08"/>
        <rect class="cls-1" x="289.08" y="471.42" width="2.79" height="14.08"/>
        <rect class="cls-1" x="291.87" y="471.42" width="2.79" height="14.08"/>
        <rect class="cls-1" x="294.66" y="471.42" width="2.79" height="14.08"/>
        <rect class="cls-1" x="297.45" y="471.42" width="2.79" height="14.08"/>
        <rect class="cls-1" x="300.24" y="471.42" width="2.79" height="14.08"/>
        <rect class="cls-1" x="303.03" y="471.42" width="2.79" height="14.08"/>
        <rect class="cls-1" x="305.82" y="471.42" width="2.79" height="14.08"/>
        <rect class="cls-1" x="308.61" y="471.42" width="2.79" height="14.08"/>
        <rect class="cls-1" x="311.4" y="471.42" width=".63" height="14.08"/>
        <rect class="cls-1" x="277.18" y="493.45" width=".73" height="15.1"/>
        <rect class="cls-1" x="277.91" y="493.45" width="2.79" height="15.1"/>
        <rect class="cls-1" x="280.7" y="493.45" width="2.79" height="15.1"/>
        <rect class="cls-1" x="283.49" y="493.45" width="2.79" height="15.1"/>
        <rect class="cls-1" x="286.28" y="493.45" width="2.79" height="15.1"/>
        <rect class="cls-1" x="289.08" y="493.45" width="2.79" height="15.1"/>
        <rect class="cls-1" x="291.87" y="493.45" width="2.79" height="15.1"/>
        <rect class="cls-1" x="294.66" y="493.45" width="2.79" height="15.1"/>
        <rect class="cls-1" x="297.45" y="493.45" width="2.79" height="15.1"/>
        <rect class="cls-1" x="300.24" y="493.45" width="2.79" height="15.1"/>
        <rect class="cls-1" x="303.03" y="493.45" width="2.79" height="15.1"/>
        <rect class="cls-1" x="305.82" y="493.45" width="2.79" height="15.1"/>
        <rect class="cls-1" x="308.61" y="493.45" width="2.79" height="15.1"/>
        <rect class="cls-1" x="311.4" y="493.45" width="2.79" height="15.1"/>
        <rect class="cls-1" x="314.2" y="493.45" width=".05" height="15.1"/>
        <rect class="cls-1" x="269.23" y="463.46" width=".3" height="53.05"/>
        <rect class="cls-1" x="269.54" y="463.46" width="2.79" height="53.05"/>
        <rect class="cls-1" x="272.33" y="463.46" width="2.79" height="53.05"/>
        <rect class="cls-1" x="275.12" y="463.46" width="2.79" height="53.05"/>
        <rect class="cls-1" x="277.91" y="463.46" width="2.79" height="53.05"/>
        <rect class="cls-1" x="280.7" y="463.46" width="2.79" height="53.05"/>
        <rect class="cls-1" x="283.49" y="463.46" width="2.79" height="53.05"/>
        <rect class="cls-1" x="286.28" y="463.46" width="2.79" height="53.05"/>
        <rect class="cls-1" x="289.08" y="463.46" width="2.79" height="53.05"/>
        <rect class="cls-1" x="291.87" y="463.46" width="2.79" height="53.05"/>
        <rect class="cls-1" x="294.66" y="463.46" width="2.79" height="53.05"/>
        <rect class="cls-1" x="297.45" y="463.46" width="2.79" height="53.05"/>
        <rect class="cls-1" x="300.24" y="463.46" width="2.79" height="53.05"/>
        <rect class="cls-1" x="303.03" y="463.46" width="2.79" height="53.05"/>
        <rect class="cls-1" x="305.82" y="463.46" width="2.79" height="53.05"/>
        <rect class="cls-1" x="308.61" y="463.46" width="2.79" height="53.05"/>
        <rect class="cls-1" x="311.4" y="463.46" width="2.79" height="53.05"/>
        <rect class="cls-1" x="314.2" y="463.46" width="2.79" height="53.05"/>
        <rect class="cls-1" x="316.99" y="463.46" width="2.79" height="53.05"/>
        <rect class="cls-1" x="319.78" y="463.46" width="2.49" height="53.05"/>
        <rect class="cls-1" x="218.98" y="481.74" width=".32" height="9.95"/>
        <rect class="cls-1" x="219.3" y="481.74" width="2.79" height="9.95"/>
        <rect class="cls-1" x="222.09" y="481.74" width="2.79" height="9.95"/>
        <rect class="cls-1" x="224.88" y="481.74" width="2.79" height="9.95"/>
        <rect class="cls-1" x="227.67" y="481.74" width="2.79" height="9.95"/>
        <rect class="cls-1" x="230.46" y="481.74" width="2.79" height="9.95"/>
        <rect class="cls-1" x="233.25" y="481.74" width="2.79" height="9.95"/>
        <rect class="cls-1" x="236.04" y="481.74" width="2.79" height="9.95"/>
        <rect class="cls-1" x="238.84" y="481.74" width="2.79" height="9.95"/>
        <rect class="cls-1" x="241.63" y="481.74" width="2.79" height="9.95"/>
        <rect class="cls-1" x="244.42" y="481.74" width="2.04" height="9.95"/>
        <rect class="cls-1" x="211.03" y="473.78" width="2.69" height="42.74"/>
        <rect class="cls-1" x="213.72" y="473.78" width="2.79" height="42.74"/>
        <rect class="cls-1" x="216.51" y="473.78" width="2.79" height="42.74"/>
        <rect class="cls-1" x="219.3" y="473.78" width="2.79" height="42.74"/>
        <rect class="cls-1" x="222.09" y="473.78" width="2.79" height="42.74"/>
        <rect class="cls-1" x="224.88" y="473.78" width="2.79" height="42.74"/>
        <rect class="cls-1" x="227.67" y="473.78" width="2.79" height="42.74"/>
        <rect class="cls-1" x="230.46" y="473.78" width="2.79" height="42.74"/>
        <rect class="cls-1" x="233.25" y="473.78" width="2.79" height="42.74"/>
        <rect class="cls-1" x="236.04" y="473.78" width="2.79" height="42.74"/>
        <rect class="cls-1" x="238.84" y="473.78" width="2.79" height="42.74"/>
        <rect class="cls-1" x="241.63" y="473.78" width="2.79" height="42.74"/>
        <rect class="cls-1" x="244.42" y="473.78" width="2.79" height="42.74"/>
        <rect class="cls-1" x="247.21" y="473.78" width="2.79" height="42.74"/>
        <rect class="cls-1" x="250" y="473.78" width="2.79" height="42.74"/>
        <rect class="cls-1" x="252.79" y="473.78" width="1.7" height="42.74"/>
        <rect class="cls-1" x="133.66" y="473.78" width="1.9" height="42.74"/>
        <rect class="cls-1" x="135.56" y="473.78" width="2.79" height="42.74"/>
        <rect class="cls-1" x="138.36" y="473.78" width="2.79" height="42.74"/>
        <rect class="cls-1" x="141.15" y="473.78" width="2.79" height="42.74"/>
        <rect class="cls-1" x="143.94" y="473.78" width="2.79" height="42.74"/>
        <rect class="cls-1" x="146.73" y="473.78" width="2.79" height="42.74"/>
        <rect class="cls-1" x="149.52" y="473.78" width="2.79" height="42.74"/>
        <rect class="cls-1" x="152.31" y="473.78" width="2.79" height="42.74"/>
        <rect class="cls-1" x="155.1" y="473.78" width="2.79" height="42.74"/>
        <rect class="cls-1" x="157.89" y="473.78" width="2.79" height="42.74"/>
        <rect class="cls-1" x="160.68" y="473.78" width="2.79" height="42.74"/>
        <rect class="cls-1" x="163.48" y="473.78" width="2.79" height="42.74"/>
        <rect class="cls-1" x="166.27" y="473.78" width="2.79" height="42.74"/>
        <rect class="cls-1" x="169.06" y="473.78" width="2.79" height="42.74"/>
        <rect class="cls-1" x="171.85" y="473.78" width="2.79" height="42.74"/>
        <rect class="cls-1" x="174.64" y="473.78" width="2.79" height="42.74"/>
        <rect class="cls-1" x="177.43" y="473.78" width="2.79" height="42.74"/>
        <rect class="cls-1" x="180.22" y="473.78" width="2.79" height="42.74"/>
        <rect class="cls-1" x="183.01" y="473.78" width="2.79" height="42.74"/>
        <rect class="cls-1" x="185.8" y="473.78" width="2.79" height="42.74"/>
        <rect class="cls-1" x="188.6" y="473.78" width="2.79" height="42.74"/>
        <rect class="cls-1" x="191.39" y="473.78" width="2.79" height="42.74"/>
        <rect class="cls-1" x="194.18" y="473.78" width="2.79" height="42.74"/>
        <rect class="cls-1" x="196.97" y="473.78" width=".87" height="42.74"/>
        <rect class="cls-1" x="85.41" y="498.61" width="2.71" height="9.93"/>
        <rect class="cls-1" x="88.12" y="498.61" width="2.79" height="9.93"/>
        <rect class="cls-1" x="90.91" y="498.61" width="2.79" height="9.93"/>
        <rect class="cls-1" x="93.7" y="498.61" width="2.79" height="9.93"/>
        <rect class="cls-1" x="96.49" y="498.61" width="2.79" height="9.93"/>
        <rect class="cls-1" x="99.28" y="498.61" width="2.79" height="9.93"/>
        <rect class="cls-1" x="102.07" y="498.61" width="2.79" height="9.93"/>
        <rect class="cls-1" x="104.86" y="498.61" width="2.79" height="9.93"/>
        <rect class="cls-1" x="107.65" y="498.61" width="2.79" height="9.93"/>
        <rect class="cls-1" x="110.44" y="498.61" width="2.44" height="9.93"/>
        <rect class="cls-1" x="77.44" y="473.78" width="2.3" height="42.74"/>
        <rect class="cls-1" x="79.74" y="473.78" width="2.79" height="42.74"/>
        <rect class="cls-1" x="82.53" y="473.78" width="2.79" height="42.74"/>
        <rect class="cls-1" x="85.32" y="473.78" width="2.79" height="42.74"/>
        <rect class="cls-1" x="88.12" y="473.78" width="2.79" height="42.74"/>
        <rect class="cls-1" x="90.91" y="473.78" width="2.79" height="42.74"/>
        <rect class="cls-1" x="93.7" y="473.78" width="2.79" height="42.74"/>
        <rect class="cls-1" x="96.49" y="473.78" width="2.79" height="42.74"/>
        <rect class="cls-1" x="99.28" y="473.78" width="2.79" height="42.74"/>
        <rect class="cls-1" x="102.07" y="473.78" width="2.79" height="42.74"/>
        <rect class="cls-1" x="104.86" y="473.78" width="2.79" height="42.74"/>
        <rect class="cls-1" x="107.65" y="473.78" width="2.79" height="42.74"/>
        <rect class="cls-1" x="110.44" y="473.78" width="2.79" height="42.74"/>
        <rect class="cls-1" x="113.24" y="473.78" width="2.79" height="42.74"/>
        <rect class="cls-1" x="116.03" y="473.78" width="2.79" height="42.74"/>
        <rect class="cls-1" x="118.82" y="473.78" width="2.1" height="42.74"/>
        <rect class="cls-1" x="9.96" y="463.46" width="2.79" height="53.05"/>
        <rect class="cls-1" x="12.76" y="463.46" width="2.79" height="53.05"/>
        <rect class="cls-1" x="15.55" y="463.46" width="2.79" height="53.05"/>
        <rect class="cls-1" x="18.34" y="463.46" width="2.79" height="53.05"/>
        <rect class="cls-1" x="21.13" y="463.46" width="2.79" height="53.05"/>
        <rect class="cls-1" x="23.92" y="463.46" width="2.79" height="53.05"/>
        <rect class="cls-1" x="26.71" y="463.46" width="2.79" height="53.05"/>
        <rect class="cls-1" x="29.5" y="463.46" width="2.79" height="53.05"/>
        <rect class="cls-1" x="32.29" y="463.46" width="2.79" height="53.05"/>
        <rect class="cls-1" x="35.08" y="463.46" width="2.79" height="53.05"/>
        <rect class="cls-1" x="37.88" y="463.46" width="2.79" height="53.05"/>
        <rect class="cls-1" x="40.67" y="463.46" width="2.79" height="53.05"/>
        <rect class="cls-1" x="43.46" y="463.46" width="2.79" height="53.05"/>
        <rect class="cls-1" x="46.25" y="463.46" width="2.79" height="53.05"/>
        <rect class="cls-1" x="49.04" y="463.46" width="2.79" height="53.05"/>
        <rect class="cls-1" x="51.83" y="463.46" width="2.79" height="53.05"/>
        <rect class="cls-1" x="54.62" y="463.46" width="2.79" height="53.05"/>
        <rect class="cls-1" x="57.41" y="463.46" width="2.79" height="53.05"/>
        <rect class="cls-1" x="60.2" y="463.46" width="2.79" height="53.05"/>
        <rect class="cls-1" x="63" y="463.46" width="0" height="53.05"/>
      </g>
    </g>
  </g>
</svg>