<?xml version="1.0" encoding="UTF-8"?>
<svg id="_레이어_1" data-name="레이어 1" xmlns="http://www.w3.org/2000/svg" viewBox="0 0 500 500">
  <defs>
    <style>
      .cls-1 {
        fill: #1000aa;
      }

      .cls-2 {
        fill: #fff;
      }
    </style>
  </defs>
  <circle class="cls-1" cx="250" cy="250" r="245"/>
  <g>
    <path class="cls-2" d="M142.9,378.37c-1.44,0-2.99-.03-4.69-.1-15.46-.65-27.77-7.74-34.65-19.96-4.98-8.85-5.42-17.48-5.46-18.44v-.44s0-174.64,0-174.64c0-16.75,6.64-26.6,12.2-31.92,11.57-11.05,26.75-11.22,29.74-11.15h128.01v24.37h-128.76c.06,0-7.53-.12-12.26,4.51-3.03,2.96-4.56,7.74-4.56,14.19v174.32c.3,4.24,2.58,14.21,16.76,14.81,3.21.13,5.66.07,8.32-.02,8.5-.29,13.49-4.37,19.18-11.33,2.5-3.36,33.51-45.05,44.55-59.81l.6-.8c5.28-7.1,16.26-21.87,36.57-21.87s31.12,14.7,35.52,20.98c2.8,3.99,9.46,13.25,13.54,18.76,4.06,5.49,7.17,8.29,11.06,10,7.46,3.27,14.42,2.72,21.27-1.68,16.03-10.31,10.19-28.33,9.48-30.35l-25.14-70.03,22.94-8.24,25.12,69.96c4.85,12.94,7.17,42.19-19.21,59.15-13.85,8.9-29.15,10.11-44.23,3.5-10.01-4.38-16.16-11.47-20.87-17.82-4.19-5.66-11.04-15.17-13.91-19.28-4.21-6.01-8.02-10.59-15.56-10.59s-11.94,5.22-17.01,12.04l-.64.86c-11.5,15.36-44.67,59.96-44.67,59.97l-.32.41c-7.49,9.22-18.51,19.87-37.43,20.52-1.7.06-3.48.11-5.48.11Z"/>
    <path class="cls-2" d="M363.75,378.28h-151.93v-24.37h150.42c4.07-.68,15.3-4.08,15.3-20.28v-171.07c0-7.53-2.51-16.51-14.45-16.51h-18.51c-.59,0-1.25-.01-1.98-.03-6.79-.14-17.04-.34-26.13,11.01-1.71,2.27-24.04,31.93-31.73,42.05-4.75,6.24-15.87,20.86-34.96,20.86-17.37,0-27.64-10.85-33.16-16.68-5.61-5.93-9.91-7.03-15.89-7.03-5.36,0-11.96,2.91-14.59,11.03-1.55,7.24-17.97,84.15-20.05,96.81l-24.05-3.95c2.27-13.8,19.65-95.05,20.39-98.5l.25-.96c5.18-17.23,20.48-28.8,38.06-28.8,9.18,0,21.28,1.65,33.5,14.55,5.12,5.4,9.17,9.16,15.56,9.16s11.05-5.32,15.56-11.25c7.98-10.49,31.75-42.08,31.76-42.08l.2-.25c16.61-20.9,37.81-20.49,45.78-20.33.55.01,1.05.02,1.5.02h18.51c22.86,0,38.82,16.81,38.82,40.88v171.07c0,32.02-24.53,43.16-37.49,44.58l-.66.07Z"/>
  </g>
</svg>