<?xml version="1.0" encoding="UTF-8"?>
<svg id="Layer_2" xmlns="http://www.w3.org/2000/svg" xmlns:xlink="http://www.w3.org/1999/xlink" viewBox="0 0 622.68 330.12">
  <defs>
    <style>
      .cls-1 {
        fill: url(#linear-gradient-2);
      }

      .cls-2 {
        fill: url(#linear-gradient-4);
      }

      .cls-3 {
        fill: url(#linear-gradient-3);
      }

      .cls-4 {
        fill: url(#linear-gradient);
      }
    </style>
    <linearGradient id="linear-gradient" x1="264.57" y1="169.3" x2="425.23" y2="24.65" gradientUnits="userSpaceOnUse">
      <stop offset="0" stop-color="#9e3afc"/>
      <stop offset="1" stop-color="#00e6e4"/>
    </linearGradient>
    <linearGradient id="linear-gradient-2" x1="202.14" y1="159.67" x2="352.75" y2="24.06" xlink:href="#linear-gradient"/>
    <linearGradient id="linear-gradient-3" x1="0" y1="320.86" x2="622.68" y2="320.86" xlink:href="#linear-gradient"/>
    <linearGradient id="linear-gradient-4" x1="0" y1="256.38" x2="622.68" y2="256.38" gradientUnits="userSpaceOnUse">
      <stop offset="0" stop-color="#9e3afc"/>
      <stop offset="1" stop-color="#00e6e4"/>
    </linearGradient>
  </defs>
  <g id="logo">
    <g>
      <g>
        <path class="cls-4" d="M391.68,178.81h-110.15c-3.37,0-6.09-2.72-6.09-6.09s2.72-6.09,6.09-6.09h110.15c7.59,0,13.73-6.14,13.73-13.73V26.15c0-7.59-6.14-13.73-13.73-13.73h-25.03c-3.66,0-7.17,1.78-9.28,4.73l-24.61,35.81c-.05.09-.09.14-.14.23-3.66,4.87-8.53,9.84-16.55,9.84h-10.69c-7.22,0-13.73-4.03-16.97-10.5l-.14-.28c-1.08-2.16-3.28-3.47-5.91-3.56h-10.73c-2.91-.05-5.67,2.02-6.61,4.92l-17.58,58.54s0,.05-.05.09c-6.05,19.12,2.3,22.4,5.06,23.44,3.14,1.22,4.69,4.78,3.47,7.87-1.22,3.14-4.78,4.69-7.87,3.47-7.78-3.05-12.7-8.91-14.34-16.97-1.22-6.05-.52-13.26,2.11-21.42l17.58-58.54s0-.05.05-.09c2.53-8.06,10.12-13.59,18.37-13.5h10.78c7.17.14,13.55,4.08,16.64,10.26l.14.28c1.17,2.3,3.52,3.75,6.09,3.75h10.55c2.02,0,3.61-.75,6.75-4.92l24.56-35.72s.05-.05.05-.09c4.45-6.19,11.62-9.89,19.22-9.89h25.08c14.3,0,25.92,11.62,25.92,25.92v126.74c0,14.34-11.62,25.97-25.92,25.97Z"/>
        <path class="cls-1" d="M240.61,179.05h-9.37c-14.44,0-26.15-11.72-26.15-26.15V26.15c0-14.44,11.72-26.15,26.15-26.15h97.02c3.52,0,6.33,2.81,6.33,6.33s-2.81,6.33-6.33,6.33h-97.07c-7.45,0-13.5,6.05-13.5,13.5v126.74c0,7.45,6.05,13.5,13.5,13.5h9.37c3.52,0,6.84-1.69,8.95-4.45l.05-.05,42.61-55.12c.09-.14.19-.23.28-.33,3.47-3.89,8.48-6.23,13.69-6.42l6.37-.23c6.42-.23,12.47,2.77,16.22,7.92l14.91,20.62c5.11,7.08,14.39,9.84,22.59,6.8l.75-.28c9.89-3.7,15-14.81,11.39-24.75l-20.76-57.6c-.56-1.64-1.78-2.95-3.33-3.7-3.14-1.55-4.45-5.3-2.95-8.44,1.55-3.14,5.3-4.45,8.44-2.95,4.55,2.2,7.97,6.05,9.7,10.78l20.9,57.61c2.86,7.97,2.48,16.59-1.03,24.33-3.56,7.69-9.89,13.59-17.81,16.59l-.75.28c-13.5,5.11-28.83.47-37.31-11.2l-14.91-20.62c-1.27-1.78-3.33-2.77-5.53-2.72l-6.37.23c-1.73.05-3.37.8-4.55,2.06l-42.42,54.89c-4.55,5.91-11.67,9.42-19.08,9.42Z"/>
      </g>
      <path class="cls-3" d="M9.69,330.12h0c-1.41,0-2.7-.23-3.88-.68-1.16-.46-2.19-1.1-3.07-1.93-.87-.83-1.55-1.81-2.03-2.95-.47-1.13-.71-2.37-.71-3.71h0c0-1.33.24-2.56.71-3.69.48-1.13,1.17-2.12,2.05-2.95s1.92-1.47,3.09-1.93c1.19-.46,2.49-.68,3.9-.68h0c1.52,0,2.9.25,4.13.75,1.22.5,2.25,1.22,3.09,2.18h0l-2.12,2.07c-.69-.71-1.45-1.22-2.26-1.56-.82-.35-1.71-.52-2.7-.52h0c-.94,0-1.81.16-2.61.48-.82.3-1.51.74-2.1,1.31-.58.57-1.03,1.24-1.35,2.01-.32.76-.48,1.6-.48,2.53h0c0,.91.16,1.76.48,2.53s.77,1.45,1.35,2.01c.58.58,1.27,1.02,2.05,1.33.79.32,1.67.48,2.63.48h0c.89,0,1.74-.15,2.57-.44.84-.28,1.64-.75,2.39-1.43h0l1.91,2.51c-.94.75-2.03,1.31-3.28,1.7-1.24.39-2.5.58-3.78.58ZM16.74,327.84l-3.17-.46v-6.72h3.17v7.18ZM26.93,329.87h-3.44l8.11-18.03h3.28l8.13,18.03h-3.49l-6.99-16.24h1.35l-6.95,16.24ZM38.73,325.7h-11.51l.89-2.63h9.73l.89,2.63ZM53.38,329.87h-3.19v-18.03h2.76l7.86,13.15h-1.43l7.74-13.15h2.76l.02,18.03h-3.15l-.04-13.05h.68l-6.6,10.97h-1.49l-6.68-10.97h.77v13.05ZM82.73,322.09v-2.76h8.96v2.76h-8.96ZM82.98,314.66v12.39h10.17v2.82h-13.51v-18.03h13.15v2.82h-9.81ZM117.11,329.87h-3.34v-18.03h3.34v18.03ZM130.18,329.87h-3.32v-18.03h2.76l11.29,13.88h-1.37v-13.88h3.32v18.03h-2.74l-11.31-13.88h1.37v13.88ZM155.65,322.96v-2.82h8.98v2.82h-8.98ZM155.92,314.66v15.21h-3.34v-18.03h13.15v2.82h-9.81ZM177.21,329.87h-3.34v-18.03h7.41c1.59,0,2.96.26,4.11.79,1.13.51,2.01,1.24,2.63,2.2.62.97.93,2.11.93,3.42h0c0,1.33-.31,2.47-.93,3.42-.62.94-1.5,1.67-2.63,2.18-1.15.51-2.52.77-4.11.77h-5.56l1.49-1.54v6.78ZM189.24,329.87h-3.59l-4.56-6.53h3.59l4.56,6.53ZM177.21,313.03v10.44l-1.49-1.6h5.41c1.47,0,2.57-.32,3.32-.95.75-.64,1.12-1.52,1.12-2.66h0c0-1.15-.37-2.03-1.12-2.66-.75-.61-1.85-.91-3.32-.91h-5.41l1.49-1.66ZM198.45,329.87h-3.44l8.11-18.03h3.3l8.13,18.03h-3.51l-6.97-16.24h1.33l-6.95,16.24ZM210.28,325.7h-11.53l.89-2.63h9.73l.91,2.63ZM227.31,330.12h0c-1.41,0-2.76-.2-4.05-.6-1.29-.4-2.31-.92-3.07-1.56h0l1.16-2.61c.72.57,1.61,1.04,2.68,1.43,1.06.37,2.16.56,3.28.56h0c.94,0,1.7-.1,2.28-.31s1.01-.48,1.29-.83c.28-.36.41-.76.41-1.2h0c0-.55-.2-1-.6-1.33-.39-.33-.89-.59-1.51-.79-.64-.19-1.33-.38-2.1-.56-.76-.17-1.52-.37-2.28-.6-.76-.24-1.46-.53-2.1-.89-.62-.37-1.13-.87-1.51-1.49-.4-.61-.6-1.4-.6-2.36h0c0-.98.26-1.87.79-2.68.53-.82,1.32-1.47,2.39-1.97,1.08-.48,2.44-.73,4.09-.73h0c1.08,0,2.15.14,3.22.41,1.06.28,1.99.67,2.78,1.18h0l-1.06,2.59c-.8-.48-1.63-.84-2.49-1.06-.86-.24-1.68-.35-2.47-.35h0c-.93,0-1.68.11-2.26.33-.58.22-1,.51-1.27.87-.26.36-.39.77-.39,1.24h0c0,.54.19.98.58,1.33.39.33.89.59,1.51.77.62.19,1.32.38,2.1.56s1.54.38,2.3.6c.76.22,1.46.51,2.1.87.62.36,1.13.85,1.51,1.47.39.62.58,1.4.58,2.34h0c0,.95-.26,1.84-.79,2.66-.53.82-1.33,1.47-2.41,1.97-1.08.48-2.44.73-4.09.73ZM249.8,329.87h-3.36v-15.19h-5.95v-2.84h15.27v2.84h-5.95v15.19ZM266.52,329.87h-3.34v-18.03h7.41c1.59,0,2.96.26,4.11.79,1.13.51,2.01,1.24,2.63,2.2.61.97.91,2.11.91,3.42h0c0,1.33-.3,2.47-.91,3.42-.62.94-1.5,1.67-2.63,2.18-1.15.51-2.52.77-4.11.77h-5.56l1.49-1.54v6.78ZM278.55,329.87h-3.59l-4.56-6.53h3.57l4.58,6.53ZM266.52,313.03v10.44l-1.49-1.6h5.39c1.48,0,2.59-.32,3.34-.95.75-.64,1.12-1.52,1.12-2.66h0c0-1.15-.37-2.03-1.12-2.66-.75-.61-1.86-.91-3.34-.91h-5.39l1.49-1.66ZM294.61,330.12h0c-2.48,0-4.41-.7-5.81-2.1-1.4-1.38-2.1-3.39-2.1-6.02h0v-10.17h3.36v10.04c0,1.85.39,3.2,1.18,4.05.8.84,1.93,1.27,3.38,1.27h0c1.47,0,2.59-.42,3.38-1.27.79-.84,1.18-2.19,1.18-4.05h0v-10.04h3.3v10.17c0,2.63-.71,4.63-2.12,6.02-1.4,1.4-3.32,2.1-5.77,2.1ZM320.39,330.12h0c-1.37,0-2.64-.23-3.82-.68-1.18-.46-2.2-1.1-3.07-1.93-.87-.83-1.54-1.81-2.01-2.95-.48-1.13-.73-2.37-.73-3.71h0c0-1.33.24-2.56.73-3.69.47-1.13,1.15-2.12,2.03-2.95.87-.83,1.89-1.47,3.05-1.93,1.18-.46,2.45-.68,3.84-.68h0c1.48,0,2.83.26,4.05.77,1.22.5,2.25,1.24,3.09,2.24h0l-2.18,2.03c-.65-.71-1.38-1.23-2.18-1.58-.8-.36-1.68-.54-2.63-.54h0c-.94,0-1.8.16-2.57.48-.79.3-1.47.74-2.03,1.31-.58.57-1.03,1.24-1.35,2.01-.32.76-.48,1.6-.48,2.53h0c0,.93.16,1.78.48,2.55.32.77.77,1.45,1.35,2.01.57.57,1.24,1,2.03,1.31.77.32,1.63.48,2.57.48h0c.95,0,1.83-.18,2.63-.54.8-.35,1.53-.88,2.18-1.6h0l2.18,2.05c-.84.98-1.87,1.73-3.09,2.24-1.22.51-2.57.77-4.07.77ZM342.65,329.87h-3.36v-15.19h-5.95v-2.84h15.27v2.84h-5.95v15.19ZM363.77,330.12h0c-2.48,0-4.41-.7-5.81-2.1-1.4-1.38-2.1-3.39-2.1-6.02h0v-10.17h3.34v10.04c0,1.85.4,3.2,1.2,4.05.8.84,1.93,1.27,3.38,1.27h0c1.45,0,2.57-.42,3.36-1.27.79-.84,1.18-2.19,1.18-4.05h0v-10.04h3.3v10.17c0,2.63-.7,4.63-2.1,6.02-1.4,1.4-3.32,2.1-5.77,2.1ZM384.56,329.87h-3.34v-18.03h7.41c1.59,0,2.96.26,4.11.79,1.13.51,2.01,1.24,2.63,2.2.61.97.91,2.11.91,3.42h0c0,1.33-.3,2.47-.91,3.42-.62.94-1.5,1.67-2.63,2.18-1.15.51-2.52.77-4.11.77h-5.56l1.49-1.54v6.78ZM396.59,329.87h-3.59l-4.56-6.53h3.57l4.58,6.53ZM384.56,313.03v10.44l-1.49-1.6h5.39c1.48,0,2.59-.32,3.34-.95.75-.64,1.12-1.52,1.12-2.66h0c0-1.15-.37-2.03-1.12-2.66-.75-.61-1.86-.91-3.34-.91h-5.39l1.49-1.66ZM408,322.09v-2.76h8.94v2.76h-8.94ZM408.25,314.66v12.39h10.17v2.82h-13.51v-18.03h13.15v2.82h-9.81ZM442.38,329.87h-3.36v-18.03h7.41c1.6,0,2.97.26,4.11.79,1.15.51,2.03,1.24,2.63,2.2.62.97.93,2.11.93,3.42h0c0,1.33-.31,2.47-.93,3.42-.61.97-1.49,1.71-2.63,2.22-1.13.51-2.5.77-4.11.77h-5.54l1.49-1.58v6.78ZM442.38,313.03v10.44l-1.49-1.62h5.39c1.48,0,2.59-.32,3.34-.95.75-.62,1.12-1.5,1.12-2.63h0c0-1.15-.37-2.03-1.12-2.66-.75-.61-1.86-.91-3.34-.91h-5.39l1.49-1.66ZM465.94,329.87h-3.36v-18.03h7.41c1.6,0,2.97.26,4.11.79,1.15.51,2.03,1.24,2.63,2.2.62.97.93,2.11.93,3.42h0c0,1.33-.31,2.47-.93,3.42-.61.94-1.49,1.67-2.63,2.18-1.13.51-2.5.77-4.11.77h-5.54l1.49-1.54v6.78ZM477.98,329.87h-3.61l-4.54-6.53h3.57l4.58,6.53ZM465.94,313.03v10.44l-1.49-1.6h5.39c1.48,0,2.59-.32,3.34-.95.75-.64,1.12-1.52,1.12-2.66h0c0-1.15-.37-2.03-1.12-2.66-.75-.61-1.86-.91-3.34-.91h-5.39l1.49-1.66ZM494.72,330.12h0c-1.4,0-2.69-.24-3.88-.71-1.19-.46-2.22-1.1-3.09-1.93-.87-.83-1.55-1.81-2.03-2.95-.47-1.12-.71-2.35-.71-3.69h0c0-1.33.24-2.56.71-3.69.48-1.12,1.16-2.1,2.03-2.93.87-.83,1.9-1.48,3.09-1.95,1.19-.46,2.48-.68,3.86-.68h0c1.41,0,2.7.23,3.88.68,1.18.47,2.2,1.12,3.07,1.95.87.83,1.55,1.8,2.03,2.93.48,1.13.73,2.36.73,3.69h0c0,1.34-.24,2.58-.73,3.71-.48,1.13-1.16,2.11-2.03,2.93-.87.83-1.89,1.47-3.07,1.93-1.18.47-2.46.71-3.86.71ZM494.7,327.19h0c.91,0,1.76-.16,2.53-.48.76-.3,1.42-.75,1.99-1.33.57-.57,1.01-1.23,1.33-1.99.32-.77.48-1.63.48-2.55h0c0-.93-.16-1.77-.48-2.53-.32-.76-.76-1.42-1.33-1.99-.57-.58-1.23-1.02-1.99-1.33-.77-.32-1.62-.48-2.53-.48h0c-.91,0-1.75.16-2.51.48-.76.3-1.43.75-2.01,1.33-.57.57-1.01,1.23-1.33,1.99-.32.76-.48,1.6-.48,2.53h0c0,.91.16,1.76.48,2.53.32.77.76,1.45,1.33,2.01.57.58,1.24,1.02,2.01,1.33.76.32,1.6.48,2.51.48ZM519.84,329.87h-3.34v-15.19h-5.97v-2.84h15.27v2.84h-5.95v15.19ZM541.65,330.12h0c-1.4,0-2.69-.24-3.88-.71-1.18-.46-2.21-1.1-3.09-1.93-.87-.83-1.55-1.81-2.03-2.95-.47-1.12-.71-2.35-.71-3.69h0c0-1.33.24-2.56.71-3.69.48-1.12,1.16-2.1,2.03-2.93.89-.83,1.92-1.48,3.09-1.95,1.19-.46,2.48-.68,3.86-.68h0c1.41,0,2.7.23,3.88.68,1.18.47,2.2,1.12,3.07,1.95.87.83,1.55,1.8,2.03,2.93.48,1.13.73,2.36.73,3.69h0c0,1.34-.24,2.58-.73,3.71s-1.16,2.11-2.03,2.93c-.87.83-1.89,1.47-3.07,1.93-1.18.47-2.46.71-3.86.71ZM541.62,327.19h0c.91,0,1.76-.16,2.53-.48.77-.3,1.44-.75,1.99-1.33.57-.57,1.01-1.23,1.33-1.99.32-.77.48-1.63.48-2.55h0c0-.93-.16-1.77-.48-2.53-.32-.76-.76-1.42-1.33-1.99-.55-.58-1.22-1.02-1.99-1.33-.77-.32-1.62-.48-2.53-.48h0c-.91,0-1.75.16-2.51.48-.76.3-1.42.75-1.99,1.33-.58.57-1.03,1.23-1.35,1.99s-.48,1.6-.48,2.53h0c0,.91.16,1.76.48,2.53s.76,1.45,1.33,2.01c.57.58,1.24,1.02,2.01,1.33.76.32,1.6.48,2.51.48ZM568.1,330.12h0c-1.37,0-2.64-.23-3.82-.68-1.18-.46-2.19-1.1-3.05-1.93-.87-.83-1.55-1.81-2.03-2.95-.47-1.13-.71-2.37-.71-3.71h0c0-1.33.24-2.56.71-3.69.48-1.13,1.16-2.12,2.03-2.95.87-.83,1.89-1.47,3.07-1.93,1.16-.46,2.44-.68,3.84-.68h0c1.47,0,2.81.26,4.02.77,1.22.5,2.25,1.24,3.09,2.24h0l-2.16,2.03c-.65-.71-1.38-1.23-2.18-1.58-.82-.36-1.69-.54-2.63-.54h0c-.94,0-1.8.16-2.59.48-.77.3-1.45.74-2.03,1.31-.57.57-1.01,1.24-1.33,2.01-.32.76-.48,1.6-.48,2.53h0c0,.93.16,1.78.48,2.55.32.77.76,1.45,1.33,2.01.58.57,1.26,1,2.03,1.31.79.32,1.65.48,2.59.48h0c.94,0,1.82-.18,2.63-.54.8-.35,1.53-.88,2.18-1.6h0l2.16,2.05c-.84.98-1.87,1.73-3.09,2.24-1.22.51-2.57.77-4.07.77ZM591.81,330.12h0c-1.41,0-2.71-.24-3.9-.71-1.18-.46-2.21-1.1-3.09-1.93-.87-.83-1.55-1.81-2.03-2.95-.47-1.12-.71-2.35-.71-3.69h0c0-1.33.24-2.56.71-3.69.48-1.12,1.16-2.1,2.03-2.93.89-.83,1.92-1.48,3.09-1.95,1.19-.46,2.48-.68,3.86-.68h0c1.41,0,2.7.23,3.88.68,1.18.47,2.2,1.12,3.07,1.95.87.83,1.55,1.8,2.03,2.93.48,1.13.73,2.36.73,3.69h0c0,1.34-.24,2.58-.73,3.71s-1.16,2.11-2.03,2.93c-.87.83-1.89,1.47-3.07,1.93-1.18.47-2.45.71-3.84.71ZM591.77,327.19h0c.91,0,1.76-.16,2.53-.48.77-.3,1.45-.75,2.01-1.33.57-.57,1-1.23,1.31-1.99.32-.77.48-1.63.48-2.55h0c0-.93-.16-1.77-.48-2.53-.3-.76-.74-1.42-1.31-1.99-.57-.58-1.24-1.02-2.01-1.33-.77-.32-1.62-.48-2.53-.48h0c-.9,0-1.74.16-2.51.48-.76.3-1.42.75-1.99,1.33-.58.57-1.03,1.23-1.35,1.99-.32.76-.48,1.6-.48,2.53h0c0,.91.16,1.76.48,2.53.32.77.76,1.45,1.33,2.01.57.58,1.24,1.02,2.01,1.33.77.32,1.61.48,2.51.48ZM622.68,329.87h-12.76v-18.03h3.34v15.19h9.42v2.84Z"/>
      <path class="cls-2" d="M56.28,293.17H12.43c-2.3,0-4.38-.56-6.27-1.68-1.88-1.11-3.37-2.6-4.48-4.48C.56,285.13,0,283.04,0,280.74H0v-43.96C0,234.49.56,232.41,1.68,230.54c1.11-1.88,2.6-3.38,4.48-4.5,1.88-1.12,3.97-1.68,6.27-1.68h43.86c2.3,0,4.4.56,6.31,1.68,1.91,1.12,3.42,2.62,4.54,4.5,1.11,1.87,1.66,3.95,1.66,6.24h0v4.11h-10.41v-3.82c0-.64-.22-1.2-.66-1.68-.44-.47-1.02-.71-1.72-.71H12.72c-.64,0-1.2.24-1.68.71-.48.48-.73,1.04-.73,1.68h0v43.38c0,.64.24,1.2.73,1.68.48.47,1.04.71,1.68.71h43.28c.71,0,1.28-.24,1.72-.71.44-.48.66-1.04.66-1.68h0v-14.6h-16.24v-10.44h26.66v25.33c0,2.3-.55,4.38-1.66,6.27-1.12,1.88-2.63,3.37-4.54,4.48-1.91,1.12-4.01,1.68-6.31,1.68h0ZM143.91,293.17h-43.96c-2.3,0-4.38-.57-6.27-1.72-1.87-1.15-3.36-2.64-4.48-4.48-1.12-1.85-1.68-3.93-1.68-6.22h0v-20.46h45.97v-9.83c0-.64-.22-1.2-.66-1.68-.46-.47-1-.71-1.64-.71h-43.67v-10.33h43.96c2.3,0,4.38.56,6.27,1.68,1.88,1.12,3.37,2.63,4.48,4.54,1.12,1.91,1.68,3.98,1.68,6.2h0v43.01ZM100.24,282.84h33.26v-12.88h-35.64v10.5c0,.64.24,1.2.71,1.68.48.47,1.04.71,1.68.71ZM170.86,293.17h-10.41v-55.43h70.8c2.36,0,4.47.57,6.31,1.72,1.85,1.15,3.33,2.65,4.44,4.5,1.12,1.84,1.68,3.91,1.68,6.2h0v43.01h-10.23v-42.72c0-.64-.24-1.2-.71-1.68-.48-.47-1.04-.71-1.68-.71h-21.31c-.71,0-1.28.24-1.72.71-.44.48-.66,1.04-.66,1.68h0v42.72h-10.41v-42.72c0-.64-.24-1.2-.73-1.68-.48-.47-1.04-.71-1.68-.71h-21.39c-.64,0-1.18.24-1.64.71-.44.48-.66,1.04-.66,1.68h0v42.72ZM273.2,293.17h0c-2.28,0-4.35-.57-6.2-1.72-1.85-1.15-3.35-2.64-4.5-4.48-1.13-1.85-1.7-3.93-1.7-6.22h0v-30.58c0-2.3.57-4.36,1.7-6.2,1.15-1.85,2.65-3.35,4.5-4.5,1.85-1.15,3.92-1.72,6.2-1.72h31.53c2.3,0,4.38.56,6.27,1.68,1.88,1.12,3.38,2.63,4.5,4.54,1.11,1.91,1.66,3.98,1.66,6.2h0v20.46h-46.06v9.83c0,.64.24,1.2.73,1.68.47.47,1.02.71,1.66.71h43.67v10.33h-43.96ZM271.1,250.45v10.52h35.64v-10.52c0-.64-.22-1.2-.66-1.68-.44-.47-.98-.71-1.62-.71h-30.97c-.64,0-1.19.24-1.66.71-.48.48-.73,1.04-.73,1.68h0ZM336.29,293.17h0v-68.81h53.5c2.23,0,4.3.56,6.22,1.68,1.91,1.12,3.42,2.62,4.52,4.5,1.12,1.87,1.68,3.95,1.68,6.24h0v14.04c0,.83-.08,1.66-.25,2.49-.15.83-.42,1.6-.81,2.3h0c1.27,1.78,2.25,3.46,2.93,5.02.66,1.55,1,3.13,1,4.73h0v15.37c0,2.3-.56,4.38-1.68,6.27-1.11,1.88-2.61,3.37-4.52,4.48-1.91,1.12-4.01,1.68-6.31,1.68h-56.28ZM348.98,282.84h43.3c.71,0,1.28-.24,1.72-.71.44-.48.66-1.04.66-1.68h0v-14.81c0-.64-.22-1.19-.66-1.66-.44-.48-1.02-.73-1.72-.73h-43.3c-.64,0-1.19.24-1.66.73-.48.47-.73,1.02-.73,1.66h0v14.81c0,.64.24,1.2.73,1.68.47.47,1.02.71,1.66.71ZM348.98,252.94h40.52c.64,0,1.18-.24,1.64-.73.44-.47.66-1.02.66-1.66h0v-13.48c0-.64-.22-1.2-.66-1.68-.46-.47-1-.71-1.64-.71h-40.52c-.64,0-1.19.24-1.66.71-.48.48-.73,1.04-.73,1.68h0v13.48c0,.64.24,1.19.73,1.66.47.48,1.02.73,1.66.73ZM436.24,293.17h0c-2.3,0-4.38-.57-6.27-1.72-1.88-1.15-3.37-2.64-4.48-4.48-1.12-1.85-1.68-3.93-1.68-6.22h0v-43.01h10.31v42.72c0,.64.24,1.2.73,1.68.48.47,1.04.71,1.68.71h30.95c.64,0,1.2-.24,1.68-.71.47-.48.71-1.04.71-1.68h0v-42.72h10.33v43.01c0,2.3-.56,4.37-1.68,6.22-1.12,1.84-2.61,3.33-4.48,4.48-1.88,1.15-3.97,1.72-6.27,1.72h-31.53ZM509.05,293.17h-10.33v-55.43h10.33v55.43ZM509.05,229.92h-10.33v-10.33h10.33v10.33ZM541.44,293.17h0c-2.3,0-4.36-.57-6.2-1.72-1.85-1.15-3.35-2.64-4.5-4.48-1.15-1.85-1.72-3.93-1.72-6.22h0v-61.16h10.33v60.87c0,.64.24,1.2.73,1.68.47.47,1.02.71,1.66.71h10.04v10.33h-10.33ZM578.72,293.17h0c-2.3,0-4.38-.56-6.27-1.68-1.88-1.11-3.37-2.61-4.48-4.52-1.12-1.92-1.68-4-1.68-6.22h0v-30.58c0-2.3.56-4.36,1.68-6.2,1.11-1.85,2.6-3.35,4.48-4.5,1.88-1.15,3.97-1.72,6.27-1.72h33.63v-18.15h10.33v73.58h-43.96ZM579.09,282.84h30.97c.64,0,1.18-.24,1.62-.71.44-.48.66-1.04.66-1.68h0v-30c0-.64-.22-1.2-.66-1.68-.44-.47-.98-.71-1.62-.71h-30.97c-.64,0-1.19.24-1.66.71-.48.48-.73,1.04-.73,1.68h0v30c0,.64.24,1.2.73,1.68.47.47,1.02.71,1.66.71Z"/>
    </g>
  </g>
</svg>