<?xml version="1.0" encoding="UTF-8"?>
<svg xmlns="http://www.w3.org/2000/svg" xmlns:xlink="http://www.w3.org/1999/xlink" viewBox="0 0 1092.55 643.05">
  <defs>
    <style>
      .cls-1 {
        fill: url(#linear-gradient-2);
      }

      .cls-2 {
        fill: #fff;
      }

      .cls-3 {
        mix-blend-mode: soft-light;
      }

      .cls-4 {
        fill: url(#linear-gradient-4);
      }

      .cls-5 {
        fill: url(#linear-gradient-3);
      }

      .cls-6 {
        isolation: isolate;
      }

      .cls-7 {
        fill: url(#linear-gradient);
      }
    </style>
    <linearGradient id="linear-gradient" x1="-25.58" y1="54.86" x2="1118.13" y2="588.19" gradientUnits="userSpaceOnUse">
      <stop offset="0" stop-color="#11155c"/>
      <stop offset=".24" stop-color="#1e1465"/>
      <stop offset=".7" stop-color="#42147e"/>
      <stop offset="1" stop-color="#5d1491"/>
    </linearGradient>
    <linearGradient id="linear-gradient-2" x1="547.86" y1="251.01" x2="875.49" y2="578.64" gradientUnits="userSpaceOnUse">
      <stop offset="0" stop-color="#a521de"/>
      <stop offset=".12" stop-color="#a129df"/>
      <stop offset=".3" stop-color="#9742e1"/>
      <stop offset=".54" stop-color="#8769e6"/>
      <stop offset=".81" stop-color="#719fed"/>
      <stop offset="1" stop-color="#61c9f2"/>
    </linearGradient>
    <linearGradient id="linear-gradient-3" x1="364.84" y1="550.87" x2="365.02" y2="551.05" xlink:href="#linear-gradient-2"/>
    <linearGradient id="linear-gradient-4" x1="370.38" y1="236.79" x2="722.55" y2="588.96" xlink:href="#linear-gradient-2"/>
  </defs>
  <g class="cls-6">
    <g id="Layer_2">
      <g id="logo">
        <g>
          <rect class="cls-7" width="1092.55" height="643.05"/>
          <g class="cls-3">
            <path class="cls-1" d="M751.92,93.33h-64.14c-19.64,0-37.88,9.42-49.31,25.45l-62.94,91.4c-8.02,10.82-12.03,12.63-17.24,12.63h-26.86c-6.61,0-12.63-3.81-15.63-9.62l-.4-.6c-7.82-15.63-24.25-25.86-42.49-26.26h-27.66c-21.05-.2-40.29,13.83-46.9,34.67l-45.1,149.92c-6.61,21.05-8.62,39.28-5.41,54.92,4.01,20.64,16.64,35.48,36.68,43.29,8.02,3.21,17.04-.8,20.24-8.82,3.21-8.02-.8-17.04-8.82-20.24-7.22-2.41-28.66-10.82-13.03-60.13l45.1-149.92c2.41-7.42,9.42-12.63,16.84-12.63h27.66c6.81.2,12.43,3.61,15.23,9.02l.4.6c8.22,16.64,24.85,26.86,43.29,26.86h27.46c20.44,0,33.07-12.83,42.29-25.25.2-.2.4-.4.4-.6l62.94-91.8c5.61-7.62,14.63-12.23,23.85-12.23h63.94c19.24,0,35.08,15.63,35.08,35.08v324.7c0,19.24-15.63,35.08-35.08,35.08h-282.21c-8.62,0-15.63,7.01-15.63,15.63s7.02,15.63,15.63,15.63h282.21l-.4.2v.6c36.68,0,66.34-29.86,66.34-66.54V159.68c0-36.68-29.66-66.34-66.34-66.34Z"/>
            <path class="cls-5" d="M365.08,550.92h0c-.14,0-.27,0-.41,0h.4Z"/>
            <path class="cls-4" d="M533.85,380.75l16.44-.6c5.61-.2,10.82,2.41,14.03,7.02l38.08,52.91c21.65,29.86,61.13,41.69,95.61,28.66l1.8-.6c20.44-7.82,36.68-22.85,45.7-42.49,9.22-19.84,10.22-41.89,2.81-62.33l-53.52-147.52c-4.41-12.03-13.23-22.05-24.85-27.66-8.22-3.81-17.64-.4-21.65,7.62-3.81,8.22-.4,17.64,7.62,21.65,3.81,1.8,7.02,5.21,8.42,9.42l53.31,147.52c9.02,25.45-4.01,53.92-29.26,63.34l-1.8.6c-21.05,7.82-44.9.6-57.92-17.44l-38.08-52.91c-9.42-13.03-25.05-20.84-41.49-20.24l-16.44.6c-13.23.4-26.06,6.61-34.88,16.44-.2.2-.4.4-.6.8l-109.03,141.3c-5.61,7.01-14.03,11.42-23.05,11.42h-24.05c-18.84,0-34.47-15.23-34.47-34.47V159.08c0-18.84,15.23-34.47,34.47-34.47h248.74c9.02,0,16.23-7.22,16.23-16.23s-7.22-16.24-16.23-16.24h-248.54c-36.88,0-66.94,29.86-66.94,66.94v324.7c0,36.88,29.86,66.94,66.94,66.94h24.05l-.19.19c18.89-.13,36.96-9.12,48.5-24.25l108.63-140.7c3.01-3.01,7.22-5.21,11.63-5.21Z"/>
          </g>
          <g>
            <g>
              <path class="cls-2" d="M570.17,542.28h-32.77c-1,0-1.81-.81-1.81-1.81s.81-1.81,1.81-1.81h32.77c2.26,0,4.09-1.83,4.09-4.09v-37.7c0-2.26-1.83-4.09-4.09-4.09h-7.45c-1.09,0-2.13.53-2.76,1.41l-7.32,10.65s-.03.04-.04.07c-1.09,1.45-2.54,2.93-4.92,2.93h-3.18c-2.15,0-4.09-1.2-5.05-3.12l-.04-.08c-.32-.64-.98-1.03-1.76-1.06h-3.19c-.86-.01-1.69.6-1.97,1.46l-5.23,17.42s0,.01-.01.03c-1.8,5.69.68,6.66,1.51,6.97.93.36,1.39,1.42,1.03,2.34-.36.93-1.42,1.39-2.34,1.03-2.31-.91-3.78-2.65-4.27-5.05-.36-1.8-.15-3.95.63-6.37l5.23-17.42s0-.01.01-.03c.75-2.4,3.01-4.04,5.47-4.02h3.21c2.13.04,4.03,1.21,4.95,3.05l.04.08c.35.68,1.05,1.12,1.81,1.12h3.14c.6,0,1.07-.22,2.01-1.46l7.31-10.62s.01-.01.01-.03c1.32-1.84,3.46-2.94,5.72-2.94h7.46c4.25,0,7.71,3.46,7.71,7.71v37.7c0,4.27-3.46,7.72-7.71,7.72Z"/>
              <path class="cls-2" d="M525.23,542.35h-2.79c-4.29,0-7.78-3.49-7.78-7.78v-37.7c0-4.29,3.49-7.78,7.78-7.78h28.86c1.05,0,1.88.84,1.88,1.88s-.84,1.88-1.88,1.88h-28.88c-2.22,0-4.02,1.8-4.02,4.02v37.7c0,2.22,1.8,4.02,4.02,4.02h2.79c1.05,0,2.04-.5,2.66-1.32h.01s12.67-16.41,12.67-16.41c.03-.04.06-.07.08-.1,1.03-1.16,2.52-1.85,4.07-1.91l1.9-.07c1.91-.07,3.71.82,4.82,2.36l4.43,6.14c1.52,2.11,4.28,2.93,6.72,2.02l.22-.08c2.94-1.1,4.46-4.41,3.39-7.36l-6.18-17.14c-.17-.49-.53-.88-.99-1.1-.93-.46-1.32-1.58-.88-2.51.46-.93,1.58-1.32,2.51-.88,1.35.66,2.37,1.8,2.89,3.21l6.22,17.14c.85,2.37.74,4.94-.31,7.24-1.06,2.29-2.94,4.04-5.3,4.94l-.22.08c-4.02,1.52-8.58.14-11.1-3.33l-4.43-6.14c-.38-.53-.99-.82-1.65-.81l-1.9.07c-.52.01-1,.24-1.35.61l-12.62,16.33c-1.35,1.76-3.47,2.8-5.67,2.8Z"/>
            </g>
            <path class="cls-2" d="M456.54,587.29h0c-.42,0-.8-.07-1.15-.2-.35-.14-.65-.33-.91-.57-.26-.25-.46-.54-.6-.88-.14-.34-.21-.71-.21-1.1h0c0-.39.07-.76.21-1.1.14-.34.35-.63.61-.88s.57-.44.92-.57c.35-.14.74-.2,1.16-.2h0c.45,0,.86.07,1.23.22.36.15.67.36.92.65h0l-.63.62c-.21-.21-.43-.36-.67-.46-.24-.1-.51-.15-.8-.15h0c-.28,0-.54.05-.78.14-.24.09-.45.22-.62.39-.17.17-.31.37-.4.6-.09.23-.14.48-.14.75h0c0,.27.05.52.14.75s.23.43.4.6c.17.17.38.3.61.39.23.09.5.14.78.14h0c.26,0,.52-.04.77-.13.25-.08.49-.22.71-.43h0l.57.75c-.28.22-.6.39-.98.51-.37.12-.74.17-1.12.17ZM458.64,586.61l-.94-.14v-2h.94v2.14ZM461.67,587.22h-1.02l2.41-5.36h.98l2.42,5.36h-1.04l-2.08-4.83h.4l-2.07,4.83ZM465.18,585.98h-3.43l.27-.78h2.89l.27.78ZM469.53,587.22h-.95v-5.36h.82l2.34,3.91h-.43l2.3-3.91h.82v5.36s-.93,0-.93,0v-3.88s.19,0,.19,0l-1.96,3.26h-.44l-1.99-3.26h.23v3.88ZM478.27,584.9v-.82h2.67v.82h-2.67ZM478.34,582.69v3.68h3.02v.84h-4.02v-5.36h3.91v.84h-2.92ZM488.49,587.22h-.99v-5.36h.99v5.36ZM492.38,587.22h-.99v-5.36h.82l3.36,4.13h-.41v-4.13h.99v5.36h-.81l-3.36-4.13h.41v4.13ZM499.96,585.16v-.84h2.67v.84h-2.67ZM500.04,582.69v4.52h-.99v-5.36h3.91v.84h-2.92ZM506.37,587.22h-.99v-5.36h2.2c.47,0,.88.08,1.22.23.34.15.6.37.78.65.19.29.28.63.28,1.02h0c0,.39-.09.73-.28,1.02-.19.28-.45.5-.78.65-.34.15-.75.23-1.22.23h-1.65l.44-.46v2.02ZM509.95,587.22h-1.07l-1.36-1.94h1.07l1.36,1.94ZM506.37,582.21v3.1l-.44-.48h1.61c.44,0,.77-.09.99-.28.22-.19.33-.45.33-.79h0c0-.34-.11-.6-.33-.79-.22-.18-.55-.27-.99-.27h-1.61l.44-.49ZM512.69,587.22h-1.02l2.41-5.36h.98l2.42,5.36h-1.04l-2.07-4.83h.39l-2.07,4.83ZM516.21,585.98h-3.43l.27-.78h2.89l.27.78ZM521.28,587.29h0c-.42,0-.82-.06-1.2-.18s-.69-.27-.91-.46h0l.35-.78c.21.17.48.31.8.43.32.11.64.17.98.17h0c.28,0,.51-.03.68-.09s.3-.14.38-.25c.08-.11.12-.23.12-.36h0c0-.16-.06-.3-.18-.39-.12-.1-.27-.18-.45-.23-.19-.06-.4-.11-.62-.17-.23-.05-.45-.11-.68-.18-.23-.07-.43-.16-.62-.27-.19-.11-.34-.26-.45-.44-.12-.18-.18-.42-.18-.7h0c0-.29.08-.56.23-.8.16-.24.39-.44.71-.59.32-.14.73-.22,1.22-.22h0c.32,0,.64.04.96.12.32.08.59.2.83.35h0l-.31.77c-.24-.14-.49-.25-.74-.31-.26-.07-.5-.1-.73-.1h0c-.28,0-.5.03-.67.1-.17.07-.3.15-.38.26-.08.11-.12.23-.12.37h0c0,.16.06.29.17.39.12.1.27.17.45.23.19.06.39.11.62.17s.46.11.69.18c.23.07.43.15.62.26.19.11.34.25.45.44.12.19.17.42.17.7h0c0,.28-.08.55-.23.79-.16.24-.39.44-.72.59-.32.14-.73.22-1.22.22ZM527.97,587.22h-1v-4.52h-1.77v-.85h4.54v.85h-1.77v4.52ZM532.94,587.22h-.99v-5.36h2.2c.47,0,.88.08,1.22.23.34.15.6.37.78.65.18.29.27.63.27,1.02h0c0,.39-.09.73-.27,1.02-.19.28-.45.5-.78.65-.34.15-.75.23-1.22.23h-1.65l.44-.46v2.02ZM536.52,587.22h-1.07l-1.36-1.94h1.06l1.36,1.94ZM532.94,582.21v3.1l-.44-.48h1.6c.44,0,.77-.09.99-.28.22-.19.33-.45.33-.79h0c0-.34-.11-.6-.33-.79-.22-.18-.55-.27-.99-.27h-1.6l.44-.49ZM541.3,587.29h0c-.74,0-1.31-.21-1.73-.62-.42-.41-.62-1.01-.62-1.79h0v-3.02h1v2.99c0,.55.12.95.35,1.2.24.25.57.38,1.01.38h0c.44,0,.77-.13,1.01-.38.23-.25.35-.65.35-1.2h0v-2.99h.98v3.02c0,.78-.21,1.38-.63,1.79-.42.42-.99.62-1.72.62ZM548.97,587.29h0c-.41,0-.79-.07-1.14-.2-.35-.14-.65-.33-.91-.57-.26-.25-.46-.54-.6-.88-.14-.34-.22-.71-.22-1.1h0c0-.39.07-.76.22-1.1.14-.34.34-.63.6-.88.26-.25.56-.44.91-.57.35-.14.73-.2,1.14-.2h0c.44,0,.84.08,1.2.23.36.15.67.37.92.67h0l-.65.6c-.19-.21-.41-.37-.65-.47-.24-.11-.5-.16-.78-.16h0c-.28,0-.53.05-.77.14-.23.09-.44.22-.6.39-.17.17-.31.37-.4.6-.09.23-.14.48-.14.75h0c0,.28.05.53.14.76.09.23.23.43.4.6.17.17.37.3.6.39.23.09.49.14.77.14h0c.28,0,.55-.05.78-.16.24-.1.45-.26.65-.48h0l.65.61c-.25.29-.56.51-.92.67-.36.15-.77.23-1.21.23ZM555.59,587.22h-1v-4.52h-1.77v-.85h4.54v.85h-1.77v4.52ZM561.87,587.29h0c-.74,0-1.31-.21-1.73-.62-.42-.41-.62-1.01-.62-1.79h0v-3.02h.99v2.99c0,.55.12.95.36,1.2.24.25.57.38,1.01.38h0c.43,0,.77-.13,1-.38.23-.25.35-.65.35-1.2h0v-2.99h.98v3.02c0,.78-.21,1.38-.62,1.79-.42.42-.99.62-1.72.62ZM568.05,587.22h-.99v-5.36h2.2c.47,0,.88.08,1.22.23.34.15.6.37.78.65.18.29.27.63.27,1.02h0c0,.39-.09.73-.27,1.02-.19.28-.45.5-.78.65-.34.15-.75.23-1.22.23h-1.65l.44-.46v2.02ZM571.63,587.22h-1.07l-1.36-1.94h1.06l1.36,1.94ZM568.05,582.21v3.1l-.44-.48h1.6c.44,0,.77-.09.99-.28.22-.19.33-.45.33-.79h0c0-.34-.11-.6-.33-.79-.22-.18-.55-.27-.99-.27h-1.6l.44-.49ZM575.03,584.9v-.82h2.66v.82h-2.66ZM575.1,582.69v3.68h3.02v.84h-4.02v-5.36h3.91v.84h-2.92ZM585.25,587.22h-1v-5.36h2.2c.48,0,.88.08,1.22.23.34.15.6.37.78.65.19.29.28.63.28,1.02h0c0,.39-.09.73-.28,1.02-.18.29-.44.51-.78.66-.34.15-.74.23-1.22.23h-1.65l.44-.47v2.02ZM585.25,582.21v3.1l-.44-.48h1.6c.44,0,.77-.09.99-.28.22-.19.33-.45.33-.78h0c0-.34-.11-.6-.33-.79-.22-.18-.55-.27-.99-.27h-1.6l.44-.49ZM592.27,587.22h-1v-5.36h2.2c.48,0,.88.08,1.22.23.34.15.6.37.78.65.19.29.28.63.28,1.02h0c0,.39-.09.73-.28,1.02-.18.28-.44.5-.78.65-.34.15-.74.23-1.22.23h-1.65l.44-.46v2.02ZM595.84,587.22h-1.07l-1.35-1.94h1.06l1.36,1.94ZM592.27,582.21v3.1l-.44-.48h1.6c.44,0,.77-.09.99-.28.22-.19.33-.45.33-.79h0c0-.34-.11-.6-.33-.79-.22-.18-.55-.27-.99-.27h-1.6l.44-.49ZM600.83,587.29h0c-.42,0-.8-.07-1.15-.21-.35-.14-.66-.33-.92-.57-.26-.25-.46-.54-.6-.88-.14-.33-.21-.7-.21-1.1h0c0-.39.07-.76.21-1.1.14-.33.35-.62.6-.87.26-.25.57-.44.92-.58.35-.14.74-.2,1.15-.2h0c.42,0,.8.07,1.15.2.35.14.65.33.91.58.26.25.46.54.6.87.14.34.22.7.22,1.1h0c0,.4-.07.77-.22,1.1s-.35.63-.6.87c-.26.25-.56.44-.91.57-.35.14-.73.21-1.15.21ZM600.82,586.42h0c.27,0,.52-.05.75-.14.23-.09.42-.22.59-.39.17-.17.3-.37.39-.59.09-.23.14-.48.14-.76h0c0-.28-.05-.53-.14-.75-.09-.23-.23-.42-.39-.59-.17-.17-.37-.3-.59-.39-.23-.09-.48-.14-.75-.14h0c-.27,0-.52.05-.75.14-.23.09-.43.22-.6.39-.17.17-.3.37-.39.59s-.14.48-.14.75h0c0,.27.05.52.14.75s.23.43.39.6c.17.17.37.3.6.39.23.09.48.14.75.14ZM608.3,587.22h-.99v-4.52h-1.78v-.85h4.54v.85h-1.77v4.52ZM614.78,587.29h0c-.42,0-.8-.07-1.15-.21-.35-.14-.66-.33-.92-.57-.26-.25-.46-.54-.6-.88-.14-.33-.21-.7-.21-1.1h0c0-.39.07-.76.21-1.1.14-.33.35-.62.6-.87.26-.25.57-.44.92-.58.35-.14.74-.2,1.15-.2h0c.42,0,.8.07,1.15.2.35.14.65.33.91.58.26.25.46.54.6.87.14.34.22.7.22,1.1h0c0,.4-.07.77-.22,1.1s-.35.63-.6.87c-.26.25-.56.44-.91.57-.35.14-.73.21-1.15.21ZM614.78,586.42h0c.27,0,.52-.05.75-.14.23-.09.43-.22.59-.39.17-.17.3-.37.39-.59.09-.23.14-.48.14-.76h0c0-.28-.05-.53-.14-.75-.09-.23-.23-.42-.39-.59-.16-.17-.36-.3-.59-.39-.23-.09-.48-.14-.75-.14h0c-.27,0-.52.05-.75.14-.23.09-.42.22-.59.39-.17.17-.31.37-.4.59s-.14.48-.14.75h0c0,.27.05.52.14.75s.23.43.39.6c.17.17.37.3.6.39.23.09.48.14.75.14ZM622.65,587.29h0c-.41,0-.79-.07-1.14-.2-.35-.14-.65-.33-.91-.57-.26-.25-.46-.54-.6-.88-.14-.34-.21-.71-.21-1.1h0c0-.39.07-.76.21-1.1.14-.34.35-.63.6-.88.26-.25.56-.44.91-.57.35-.14.73-.2,1.14-.2h0c.44,0,.84.08,1.2.23.36.15.67.37.92.67h0l-.64.6c-.19-.21-.41-.37-.65-.47-.24-.11-.5-.16-.78-.16h0c-.28,0-.54.05-.77.14-.23.09-.43.22-.6.39-.17.17-.3.37-.39.6-.09.23-.14.48-.14.75h0c0,.28.05.53.14.76.09.23.23.43.39.6.17.17.37.3.6.39.23.09.49.14.77.14h0c.28,0,.54-.05.78-.16.24-.1.45-.26.65-.48h0l.64.61c-.25.29-.56.51-.92.67s-.77.23-1.21.23ZM629.71,587.29h0c-.42,0-.81-.07-1.16-.21-.35-.14-.66-.33-.92-.57-.26-.25-.46-.54-.6-.88-.14-.33-.21-.7-.21-1.1h0c0-.39.07-.76.21-1.1.14-.33.35-.62.6-.87.26-.25.57-.44.92-.58.35-.14.74-.2,1.15-.2h0c.42,0,.8.07,1.15.2.35.14.65.33.91.58.26.25.46.54.6.87.14.34.22.7.22,1.1h0c0,.4-.07.77-.22,1.1s-.35.63-.6.87c-.26.25-.56.44-.91.57-.35.14-.73.21-1.14.21ZM629.69,586.42h0c.27,0,.52-.05.75-.14.23-.09.43-.22.6-.39.17-.17.3-.37.39-.59.09-.23.14-.48.14-.76h0c0-.28-.05-.53-.14-.75-.09-.23-.22-.42-.39-.59-.17-.17-.37-.3-.6-.39-.23-.09-.48-.14-.75-.14h0c-.27,0-.52.05-.75.14-.23.09-.42.22-.59.39-.17.17-.31.37-.4.59-.09.23-.14.48-.14.75h0c0,.27.05.52.14.75.09.23.23.43.39.6.17.17.37.3.6.39.23.09.48.14.75.14ZM638.89,587.22h-3.8v-5.36h.99v4.52h2.8v.85Z"/>
            <path class="cls-2" d="M470.4,576.3h-13.05c-.68,0-1.3-.17-1.86-.5-.56-.33-1-.77-1.33-1.33-.33-.56-.5-1.18-.5-1.86h0v-13.08c0-.68.17-1.3.5-1.86.33-.56.77-1.01,1.33-1.34.56-.33,1.18-.5,1.86-.5h13.05c.68,0,1.31.17,1.88.5.57.33,1.02.78,1.35,1.34.33.56.49,1.17.49,1.86h0v1.22h-3.1v-1.14c0-.19-.07-.36-.2-.5-.13-.14-.3-.21-.51-.21h-12.87c-.19,0-.36.07-.5.21-.14.14-.22.31-.22.5h0v12.9c0,.19.07.36.22.5.14.14.31.21.5.21h12.87c.21,0,.38-.07.51-.21.13-.14.2-.31.2-.5h0v-4.34h-4.83v-3.1h7.93v7.54c0,.68-.16,1.3-.49,1.86-.33.56-.78,1-1.35,1.33-.57.33-1.19.5-1.88.5h0ZM496.47,576.3h-13.08c-.68,0-1.3-.17-1.86-.51-.56-.34-1-.79-1.33-1.33-.33-.55-.5-1.17-.5-1.85h0v-6.09h13.68v-2.93c0-.19-.07-.36-.2-.5-.14-.14-.3-.21-.49-.21h-12.99v-3.07h13.08c.68,0,1.3.17,1.86.5.56.33,1,.78,1.33,1.35.33.57.5,1.18.5,1.85h0v12.79ZM483.48,573.23h9.89v-3.83h-10.6v3.12c0,.19.07.36.21.5.14.14.31.21.5.21ZM504.48,576.3h-3.1v-16.49h21.06c.7,0,1.33.17,1.88.51.55.34.99.79,1.32,1.34.33.55.5,1.16.5,1.85h0v12.79h-3.04v-12.71c0-.19-.07-.36-.21-.5-.14-.14-.31-.21-.5-.21h-6.34c-.21,0-.38.07-.51.21-.13.14-.2.31-.2.5h0v12.71h-3.1v-12.71c0-.19-.07-.36-.22-.5-.14-.14-.31-.21-.5-.21h-6.36c-.19,0-.35.07-.49.21-.13.14-.2.31-.2.5h0v12.71ZM534.93,576.3h0c-.68,0-1.29-.17-1.85-.51-.55-.34-1-.79-1.34-1.33-.34-.55-.51-1.17-.51-1.85h0v-9.1c0-.68.17-1.3.51-1.85.34-.55.79-1,1.34-1.34s1.17-.51,1.85-.51h9.38c.68,0,1.3.17,1.86.5.56.33,1.01.78,1.34,1.35.33.57.49,1.18.49,1.85h0v6.09h-13.7v2.93c0,.19.07.36.22.5.14.14.3.21.49.21h12.99v3.07h-13.08ZM534.3,563.59v3.13h10.6v-3.13c0-.19-.07-.36-.2-.5-.13-.14-.29-.21-.48-.21h-9.21c-.19,0-.35.07-.49.21-.14.14-.22.31-.22.5h0ZM553.69,576.3h0v-20.47h15.92c.66,0,1.28.17,1.85.5.57.33,1.02.78,1.35,1.34.33.56.5,1.17.5,1.86h0v4.18c0,.25-.02.49-.07.74-.05.25-.13.48-.24.69h0c.38.53.67,1.03.87,1.49.2.46.3.93.3,1.41h0v4.57c0,.68-.17,1.3-.5,1.86-.33.56-.78,1-1.35,1.33-.57.33-1.19.5-1.88.5h-16.74ZM557.47,573.23h12.88c.21,0,.38-.07.51-.21.13-.14.2-.31.2-.5h0v-4.41c0-.19-.07-.35-.2-.49-.13-.14-.3-.22-.51-.22h-12.88c-.19,0-.35.07-.49.22-.14.14-.22.3-.22.49h0v4.41c0,.19.07.36.22.5.14.14.3.21.49.21ZM557.47,564.33h12.05c.19,0,.35-.07.49-.22.13-.14.2-.3.2-.49h0v-4.01c0-.19-.07-.36-.2-.5-.14-.14-.3-.21-.49-.21h-12.05c-.19,0-.35.07-.49.21-.14.14-.22.31-.22.5h0v4.01c0,.19.07.35.22.49.14.14.3.22.49.22ZM583.43,576.3h0c-.68,0-1.3-.17-1.86-.51-.56-.34-1-.79-1.33-1.33-.33-.55-.5-1.17-.5-1.85h0v-12.79h3.07v12.71c0,.19.07.36.22.5.14.14.31.21.5.21h9.21c.19,0,.36-.07.5-.21.14-.14.21-.31.21-.5h0v-12.71h3.07v12.79c0,.68-.17,1.3-.5,1.85-.33.55-.78.99-1.33,1.33-.56.34-1.18.51-1.86.51h-9.38ZM605.09,576.3h-3.07v-16.49h3.07v16.49ZM605.09,557.48h-3.07v-3.07h3.07v3.07ZM614.72,576.3h0c-.68,0-1.3-.17-1.85-.51-.55-.34-1-.79-1.34-1.33-.34-.55-.51-1.17-.51-1.85h0v-18.19h3.07v18.11c0,.19.07.36.22.5.14.14.3.21.49.21h2.99v3.07h-3.07ZM625.81,576.3h0c-.68,0-1.3-.17-1.86-.5-.56-.33-1-.78-1.33-1.35-.33-.57-.5-1.19-.5-1.85h0v-9.1c0-.68.17-1.3.5-1.85.33-.55.77-1,1.33-1.34s1.18-.51,1.86-.51h10v-5.4h3.07v21.89h-13.08ZM625.92,573.23h9.21c.19,0,.35-.07.48-.21.13-.14.2-.31.2-.5h0v-8.92c0-.19-.07-.36-.2-.5-.13-.14-.29-.21-.48-.21h-9.21c-.19,0-.35.07-.49.21-.14.14-.22.31-.22.5h0v8.92c0,.19.07.36.22.5.14.14.3.21.49.21Z"/>
          </g>
        </g>
      </g>
    </g>
  </g>
</svg>